<?xml version="1.0" encoding="utf-8" standalone="no"?>
<!DOCTYPE svg PUBLIC "-//W3C//DTD SVG 1.1//EN"
  "http://www.w3.org/Graphics/SVG/1.1/DTD/svg11.dtd">
<!-- Created with matplotlib (https://matplotlib.org/) -->
<svg height="345.6pt" version="1.1" viewBox="0 0 460.8 345.6" width="460.8pt" xmlns="http://www.w3.org/2000/svg" xmlns:xlink="http://www.w3.org/1999/xlink">
 <metadata>
  <rdf:RDF xmlns:cc="http://creativecommons.org/ns#" xmlns:dc="http://purl.org/dc/elements/1.1/" xmlns:rdf="http://www.w3.org/1999/02/22-rdf-syntax-ns#">
   <cc:Work>
    <dc:type rdf:resource="http://purl.org/dc/dcmitype/StillImage"/>
    <dc:date>2022-01-08T00:19:13.557259</dc:date>
    <dc:format>image/svg+xml</dc:format>
    <dc:creator>
     <cc:Agent>
      <dc:title>Matplotlib v3.3.4, https://matplotlib.org/</dc:title>
     </cc:Agent>
    </dc:creator>
   </cc:Work>
  </rdf:RDF>
 </metadata>
 <defs>
  <style type="text/css">*{stroke-linecap:butt;stroke-linejoin:round;}</style>
 </defs>
 <g id="figure_1">
  <g id="patch_1">
   <path d="M 0 345.6 
L 460.8 345.6 
L 460.8 0 
L 0 0 
z
" style="fill:#ffffff;"/>
  </g>
  <g id="axes_1">
   <g id="patch_2">
    <path d="M 57.6 307.584 
L 414.72 307.584 
L 414.72 41.472 
L 57.6 41.472 
z
" style="fill:#ffffff;"/>
   </g>
   <g id="matplotlib.axis_1">
    <g id="xtick_1">
     <g id="line2d_1">
      <path clip-path="url(#p295eb6a271)" d="M 111.272277 307.584 
L 111.272277 41.472 
" style="fill:none;stroke:#b0b0b0;stroke-linecap:square;stroke-width:0.8;"/>
     </g>
     <g id="line2d_2">
      <defs>
       <path d="M 0 0 
L 0 3.5 
" id="m60dafb3e26" style="stroke:#000000;stroke-width:0.8;"/>
      </defs>
      <g>
       <use style="stroke:#000000;stroke-width:0.8;" x="111.272277" xlink:href="#m60dafb3e26" y="307.584"/>
      </g>
     </g>
     <g id="text_1">
      <!-- −1.0 -->
      <g transform="translate(99.130871 322.182437)scale(0.1 -0.1)">
       <defs>
        <path d="M 10.59375 35.5 
L 73.1875 35.5 
L 73.1875 27.203125 
L 10.59375 27.203125 
z
" id="DejaVuSans-8722"/>
        <path d="M 12.40625 8.296875 
L 28.515625 8.296875 
L 28.515625 63.921875 
L 10.984375 60.40625 
L 10.984375 69.390625 
L 28.421875 72.90625 
L 38.28125 72.90625 
L 38.28125 8.296875 
L 54.390625 8.296875 
L 54.390625 0 
L 12.40625 0 
z
" id="DejaVuSans-49"/>
        <path d="M 10.6875 12.40625 
L 21 12.40625 
L 21 0 
L 10.6875 0 
z
" id="DejaVuSans-46"/>
        <path d="M 31.78125 66.40625 
Q 24.171875 66.40625 20.328125 58.90625 
Q 16.5 51.421875 16.5 36.375 
Q 16.5 21.390625 20.328125 13.890625 
Q 24.171875 6.390625 31.78125 6.390625 
Q 39.453125 6.390625 43.28125 13.890625 
Q 47.125 21.390625 47.125 36.375 
Q 47.125 51.421875 43.28125 58.90625 
Q 39.453125 66.40625 31.78125 66.40625 
z
M 31.78125 74.21875 
Q 44.046875 74.21875 50.515625 64.515625 
Q 56.984375 54.828125 56.984375 36.375 
Q 56.984375 17.96875 50.515625 8.265625 
Q 44.046875 -1.421875 31.78125 -1.421875 
Q 19.53125 -1.421875 13.0625 8.265625 
Q 6.59375 17.96875 6.59375 36.375 
Q 6.59375 54.828125 13.0625 64.515625 
Q 19.53125 74.21875 31.78125 74.21875 
z
" id="DejaVuSans-48"/>
       </defs>
       <use xlink:href="#DejaVuSans-8722"/>
       <use x="83.789062" xlink:href="#DejaVuSans-49"/>
       <use x="147.412109" xlink:href="#DejaVuSans-46"/>
       <use x="179.199219" xlink:href="#DejaVuSans-48"/>
      </g>
     </g>
    </g>
    <g id="xtick_2">
     <g id="line2d_3">
      <path clip-path="url(#p295eb6a271)" d="M 173.707486 307.584 
L 173.707486 41.472 
" style="fill:none;stroke:#b0b0b0;stroke-linecap:square;stroke-width:0.8;"/>
     </g>
     <g id="line2d_4">
      <g>
       <use style="stroke:#000000;stroke-width:0.8;" x="173.707486" xlink:href="#m60dafb3e26" y="307.584"/>
      </g>
     </g>
     <g id="text_2">
      <!-- −0.5 -->
      <g transform="translate(161.56608 322.182437)scale(0.1 -0.1)">
       <defs>
        <path d="M 10.796875 72.90625 
L 49.515625 72.90625 
L 49.515625 64.59375 
L 19.828125 64.59375 
L 19.828125 46.734375 
Q 21.96875 47.46875 24.109375 47.828125 
Q 26.265625 48.1875 28.421875 48.1875 
Q 40.625 48.1875 47.75 41.5 
Q 54.890625 34.8125 54.890625 23.390625 
Q 54.890625 11.625 47.5625 5.09375 
Q 40.234375 -1.421875 26.90625 -1.421875 
Q 22.3125 -1.421875 17.546875 -0.640625 
Q 12.796875 0.140625 7.71875 1.703125 
L 7.71875 11.625 
Q 12.109375 9.234375 16.796875 8.0625 
Q 21.484375 6.890625 26.703125 6.890625 
Q 35.15625 6.890625 40.078125 11.328125 
Q 45.015625 15.765625 45.015625 23.390625 
Q 45.015625 31 40.078125 35.4375 
Q 35.15625 39.890625 26.703125 39.890625 
Q 22.75 39.890625 18.8125 39.015625 
Q 14.890625 38.140625 10.796875 36.28125 
z
" id="DejaVuSans-53"/>
       </defs>
       <use xlink:href="#DejaVuSans-8722"/>
       <use x="83.789062" xlink:href="#DejaVuSans-48"/>
       <use x="147.412109" xlink:href="#DejaVuSans-46"/>
       <use x="179.199219" xlink:href="#DejaVuSans-53"/>
      </g>
     </g>
    </g>
    <g id="xtick_3">
     <g id="line2d_5">
      <path clip-path="url(#p295eb6a271)" d="M 236.142695 307.584 
L 236.142695 41.472 
" style="fill:none;stroke:#b0b0b0;stroke-linecap:square;stroke-width:0.8;"/>
     </g>
     <g id="line2d_6">
      <g>
       <use style="stroke:#000000;stroke-width:0.8;" x="236.142695" xlink:href="#m60dafb3e26" y="307.584"/>
      </g>
     </g>
     <g id="text_3">
      <!-- 0.0 -->
      <g transform="translate(228.191133 322.182437)scale(0.1 -0.1)">
       <use xlink:href="#DejaVuSans-48"/>
       <use x="63.623047" xlink:href="#DejaVuSans-46"/>
       <use x="95.410156" xlink:href="#DejaVuSans-48"/>
      </g>
     </g>
    </g>
    <g id="xtick_4">
     <g id="line2d_7">
      <path clip-path="url(#p295eb6a271)" d="M 298.577904 307.584 
L 298.577904 41.472 
" style="fill:none;stroke:#b0b0b0;stroke-linecap:square;stroke-width:0.8;"/>
     </g>
     <g id="line2d_8">
      <g>
       <use style="stroke:#000000;stroke-width:0.8;" x="298.577904" xlink:href="#m60dafb3e26" y="307.584"/>
      </g>
     </g>
     <g id="text_4">
      <!-- 0.5 -->
      <g transform="translate(290.626342 322.182437)scale(0.1 -0.1)">
       <use xlink:href="#DejaVuSans-48"/>
       <use x="63.623047" xlink:href="#DejaVuSans-46"/>
       <use x="95.410156" xlink:href="#DejaVuSans-53"/>
      </g>
     </g>
    </g>
    <g id="xtick_5">
     <g id="line2d_9">
      <path clip-path="url(#p295eb6a271)" d="M 361.013113 307.584 
L 361.013113 41.472 
" style="fill:none;stroke:#b0b0b0;stroke-linecap:square;stroke-width:0.8;"/>
     </g>
     <g id="line2d_10">
      <g>
       <use style="stroke:#000000;stroke-width:0.8;" x="361.013113" xlink:href="#m60dafb3e26" y="307.584"/>
      </g>
     </g>
     <g id="text_5">
      <!-- 1.0 -->
      <g transform="translate(353.061551 322.182437)scale(0.1 -0.1)">
       <use xlink:href="#DejaVuSans-49"/>
       <use x="63.623047" xlink:href="#DejaVuSans-46"/>
       <use x="95.410156" xlink:href="#DejaVuSans-48"/>
      </g>
     </g>
    </g>
    <g id="text_6">
     <!-- Voltage (E/V) -->
     <g transform="translate(203.649062 335.860562)scale(0.1 -0.1)">
      <defs>
       <path d="M 28.609375 0 
L 0.78125 72.90625 
L 11.078125 72.90625 
L 34.1875 11.53125 
L 57.328125 72.90625 
L 67.578125 72.90625 
L 39.796875 0 
z
" id="DejaVuSans-86"/>
       <path d="M 30.609375 48.390625 
Q 23.390625 48.390625 19.1875 42.75 
Q 14.984375 37.109375 14.984375 27.296875 
Q 14.984375 17.484375 19.15625 11.84375 
Q 23.34375 6.203125 30.609375 6.203125 
Q 37.796875 6.203125 41.984375 11.859375 
Q 46.1875 17.53125 46.1875 27.296875 
Q 46.1875 37.015625 41.984375 42.703125 
Q 37.796875 48.390625 30.609375 48.390625 
z
M 30.609375 56 
Q 42.328125 56 49.015625 48.375 
Q 55.71875 40.765625 55.71875 27.296875 
Q 55.71875 13.875 49.015625 6.21875 
Q 42.328125 -1.421875 30.609375 -1.421875 
Q 18.84375 -1.421875 12.171875 6.21875 
Q 5.515625 13.875 5.515625 27.296875 
Q 5.515625 40.765625 12.171875 48.375 
Q 18.84375 56 30.609375 56 
z
" id="DejaVuSans-111"/>
       <path d="M 9.421875 75.984375 
L 18.40625 75.984375 
L 18.40625 0 
L 9.421875 0 
z
" id="DejaVuSans-108"/>
       <path d="M 18.3125 70.21875 
L 18.3125 54.6875 
L 36.8125 54.6875 
L 36.8125 47.703125 
L 18.3125 47.703125 
L 18.3125 18.015625 
Q 18.3125 11.328125 20.140625 9.421875 
Q 21.96875 7.515625 27.59375 7.515625 
L 36.8125 7.515625 
L 36.8125 0 
L 27.59375 0 
Q 17.1875 0 13.234375 3.875 
Q 9.28125 7.765625 9.28125 18.015625 
L 9.28125 47.703125 
L 2.6875 47.703125 
L 2.6875 54.6875 
L 9.28125 54.6875 
L 9.28125 70.21875 
z
" id="DejaVuSans-116"/>
       <path d="M 34.28125 27.484375 
Q 23.390625 27.484375 19.1875 25 
Q 14.984375 22.515625 14.984375 16.5 
Q 14.984375 11.71875 18.140625 8.90625 
Q 21.296875 6.109375 26.703125 6.109375 
Q 34.1875 6.109375 38.703125 11.40625 
Q 43.21875 16.703125 43.21875 25.484375 
L 43.21875 27.484375 
z
M 52.203125 31.203125 
L 52.203125 0 
L 43.21875 0 
L 43.21875 8.296875 
Q 40.140625 3.328125 35.546875 0.953125 
Q 30.953125 -1.421875 24.3125 -1.421875 
Q 15.921875 -1.421875 10.953125 3.296875 
Q 6 8.015625 6 15.921875 
Q 6 25.140625 12.171875 29.828125 
Q 18.359375 34.515625 30.609375 34.515625 
L 43.21875 34.515625 
L 43.21875 35.40625 
Q 43.21875 41.609375 39.140625 45 
Q 35.0625 48.390625 27.6875 48.390625 
Q 23 48.390625 18.546875 47.265625 
Q 14.109375 46.140625 10.015625 43.890625 
L 10.015625 52.203125 
Q 14.9375 54.109375 19.578125 55.046875 
Q 24.21875 56 28.609375 56 
Q 40.484375 56 46.34375 49.84375 
Q 52.203125 43.703125 52.203125 31.203125 
z
" id="DejaVuSans-97"/>
       <path d="M 45.40625 27.984375 
Q 45.40625 37.75 41.375 43.109375 
Q 37.359375 48.484375 30.078125 48.484375 
Q 22.859375 48.484375 18.828125 43.109375 
Q 14.796875 37.75 14.796875 27.984375 
Q 14.796875 18.265625 18.828125 12.890625 
Q 22.859375 7.515625 30.078125 7.515625 
Q 37.359375 7.515625 41.375 12.890625 
Q 45.40625 18.265625 45.40625 27.984375 
z
M 54.390625 6.78125 
Q 54.390625 -7.171875 48.1875 -13.984375 
Q 42 -20.796875 29.203125 -20.796875 
Q 24.46875 -20.796875 20.265625 -20.09375 
Q 16.0625 -19.390625 12.109375 -17.921875 
L 12.109375 -9.1875 
Q 16.0625 -11.328125 19.921875 -12.34375 
Q 23.78125 -13.375 27.78125 -13.375 
Q 36.625 -13.375 41.015625 -8.765625 
Q 45.40625 -4.15625 45.40625 5.171875 
L 45.40625 9.625 
Q 42.625 4.78125 38.28125 2.390625 
Q 33.9375 0 27.875 0 
Q 17.828125 0 11.671875 7.65625 
Q 5.515625 15.328125 5.515625 27.984375 
Q 5.515625 40.671875 11.671875 48.328125 
Q 17.828125 56 27.875 56 
Q 33.9375 56 38.28125 53.609375 
Q 42.625 51.21875 45.40625 46.390625 
L 45.40625 54.6875 
L 54.390625 54.6875 
z
" id="DejaVuSans-103"/>
       <path d="M 56.203125 29.59375 
L 56.203125 25.203125 
L 14.890625 25.203125 
Q 15.484375 15.921875 20.484375 11.0625 
Q 25.484375 6.203125 34.421875 6.203125 
Q 39.59375 6.203125 44.453125 7.46875 
Q 49.3125 8.734375 54.109375 11.28125 
L 54.109375 2.78125 
Q 49.265625 0.734375 44.1875 -0.34375 
Q 39.109375 -1.421875 33.890625 -1.421875 
Q 20.796875 -1.421875 13.15625 6.1875 
Q 5.515625 13.8125 5.515625 26.8125 
Q 5.515625 40.234375 12.765625 48.109375 
Q 20.015625 56 32.328125 56 
Q 43.359375 56 49.78125 48.890625 
Q 56.203125 41.796875 56.203125 29.59375 
z
M 47.21875 32.234375 
Q 47.125 39.59375 43.09375 43.984375 
Q 39.0625 48.390625 32.421875 48.390625 
Q 24.90625 48.390625 20.390625 44.140625 
Q 15.875 39.890625 15.1875 32.171875 
z
" id="DejaVuSans-101"/>
       <path id="DejaVuSans-32"/>
       <path d="M 31 75.875 
Q 24.46875 64.65625 21.28125 53.65625 
Q 18.109375 42.671875 18.109375 31.390625 
Q 18.109375 20.125 21.3125 9.0625 
Q 24.515625 -2 31 -13.1875 
L 23.1875 -13.1875 
Q 15.875 -1.703125 12.234375 9.375 
Q 8.59375 20.453125 8.59375 31.390625 
Q 8.59375 42.28125 12.203125 53.3125 
Q 15.828125 64.359375 23.1875 75.875 
z
" id="DejaVuSans-40"/>
       <path d="M 9.8125 72.90625 
L 55.90625 72.90625 
L 55.90625 64.59375 
L 19.671875 64.59375 
L 19.671875 43.015625 
L 54.390625 43.015625 
L 54.390625 34.71875 
L 19.671875 34.71875 
L 19.671875 8.296875 
L 56.78125 8.296875 
L 56.78125 0 
L 9.8125 0 
z
" id="DejaVuSans-69"/>
       <path d="M 25.390625 72.90625 
L 33.6875 72.90625 
L 8.296875 -9.28125 
L 0 -9.28125 
z
" id="DejaVuSans-47"/>
       <path d="M 8.015625 75.875 
L 15.828125 75.875 
Q 23.140625 64.359375 26.78125 53.3125 
Q 30.421875 42.28125 30.421875 31.390625 
Q 30.421875 20.453125 26.78125 9.375 
Q 23.140625 -1.703125 15.828125 -13.1875 
L 8.015625 -13.1875 
Q 14.5 -2 17.703125 9.0625 
Q 20.90625 20.125 20.90625 31.390625 
Q 20.90625 42.671875 17.703125 53.65625 
Q 14.5 64.65625 8.015625 75.875 
z
" id="DejaVuSans-41"/>
      </defs>
      <use xlink:href="#DejaVuSans-86"/>
      <use x="60.658203" xlink:href="#DejaVuSans-111"/>
      <use x="121.839844" xlink:href="#DejaVuSans-108"/>
      <use x="149.623047" xlink:href="#DejaVuSans-116"/>
      <use x="188.832031" xlink:href="#DejaVuSans-97"/>
      <use x="250.111328" xlink:href="#DejaVuSans-103"/>
      <use x="313.587891" xlink:href="#DejaVuSans-101"/>
      <use x="375.111328" xlink:href="#DejaVuSans-32"/>
      <use x="406.898438" xlink:href="#DejaVuSans-40"/>
      <use x="445.912109" xlink:href="#DejaVuSans-69"/>
      <use x="509.095703" xlink:href="#DejaVuSans-47"/>
      <use x="542.787109" xlink:href="#DejaVuSans-86"/>
      <use x="611.195312" xlink:href="#DejaVuSans-41"/>
     </g>
    </g>
   </g>
   <g id="matplotlib.axis_2">
    <g id="ytick_1">
     <g id="line2d_11">
      <path clip-path="url(#p295eb6a271)" d="M 57.6 261.766702 
L 414.72 261.766702 
" style="fill:none;stroke:#b0b0b0;stroke-linecap:square;stroke-width:0.8;"/>
     </g>
     <g id="line2d_12">
      <defs>
       <path d="M 0 0 
L -3.5 0 
" id="m7e358539da" style="stroke:#000000;stroke-width:0.8;"/>
      </defs>
      <g>
       <use style="stroke:#000000;stroke-width:0.8;" x="57.6" xlink:href="#m7e358539da" y="261.766702"/>
      </g>
     </g>
     <g id="text_7">
      <!-- −10 -->
      <g transform="translate(29.495313 265.56592)scale(0.1 -0.1)">
       <use xlink:href="#DejaVuSans-8722"/>
       <use x="83.789062" xlink:href="#DejaVuSans-49"/>
       <use x="147.412109" xlink:href="#DejaVuSans-48"/>
      </g>
     </g>
    </g>
    <g id="ytick_2">
     <g id="line2d_13">
      <path clip-path="url(#p295eb6a271)" d="M 57.6 204.204945 
L 414.72 204.204945 
" style="fill:none;stroke:#b0b0b0;stroke-linecap:square;stroke-width:0.8;"/>
     </g>
     <g id="line2d_14">
      <g>
       <use style="stroke:#000000;stroke-width:0.8;" x="57.6" xlink:href="#m7e358539da" y="204.204945"/>
      </g>
     </g>
     <g id="text_8">
      <!-- 0 -->
      <g transform="translate(44.2375 208.004163)scale(0.1 -0.1)">
       <use xlink:href="#DejaVuSans-48"/>
      </g>
     </g>
    </g>
    <g id="ytick_3">
     <g id="line2d_15">
      <path clip-path="url(#p295eb6a271)" d="M 57.6 146.643188 
L 414.72 146.643188 
" style="fill:none;stroke:#b0b0b0;stroke-linecap:square;stroke-width:0.8;"/>
     </g>
     <g id="line2d_16">
      <g>
       <use style="stroke:#000000;stroke-width:0.8;" x="57.6" xlink:href="#m7e358539da" y="146.643188"/>
      </g>
     </g>
     <g id="text_9">
      <!-- 10 -->
      <g transform="translate(37.875 150.442406)scale(0.1 -0.1)">
       <use xlink:href="#DejaVuSans-49"/>
       <use x="63.623047" xlink:href="#DejaVuSans-48"/>
      </g>
     </g>
    </g>
    <g id="ytick_4">
     <g id="line2d_17">
      <path clip-path="url(#p295eb6a271)" d="M 57.6 89.081431 
L 414.72 89.081431 
" style="fill:none;stroke:#b0b0b0;stroke-linecap:square;stroke-width:0.8;"/>
     </g>
     <g id="line2d_18">
      <g>
       <use style="stroke:#000000;stroke-width:0.8;" x="57.6" xlink:href="#m7e358539da" y="89.081431"/>
      </g>
     </g>
     <g id="text_10">
      <!-- 20 -->
      <g transform="translate(37.875 92.880649)scale(0.1 -0.1)">
       <defs>
        <path d="M 19.1875 8.296875 
L 53.609375 8.296875 
L 53.609375 0 
L 7.328125 0 
L 7.328125 8.296875 
Q 12.9375 14.109375 22.625 23.890625 
Q 32.328125 33.6875 34.8125 36.53125 
Q 39.546875 41.84375 41.421875 45.53125 
Q 43.3125 49.21875 43.3125 52.78125 
Q 43.3125 58.59375 39.234375 62.25 
Q 35.15625 65.921875 28.609375 65.921875 
Q 23.96875 65.921875 18.8125 64.3125 
Q 13.671875 62.703125 7.8125 59.421875 
L 7.8125 69.390625 
Q 13.765625 71.78125 18.9375 73 
Q 24.125 74.21875 28.421875 74.21875 
Q 39.75 74.21875 46.484375 68.546875 
Q 53.21875 62.890625 53.21875 53.421875 
Q 53.21875 48.921875 51.53125 44.890625 
Q 49.859375 40.875 45.40625 35.40625 
Q 44.1875 33.984375 37.640625 27.21875 
Q 31.109375 20.453125 19.1875 8.296875 
z
" id="DejaVuSans-50"/>
       </defs>
       <use xlink:href="#DejaVuSans-50"/>
       <use x="63.623047" xlink:href="#DejaVuSans-48"/>
      </g>
     </g>
    </g>
    <g id="text_11">
     <!-- Current (I/mA) -->
     <g transform="translate(23.415625 210.245187)rotate(-90)scale(0.1 -0.1)">
      <defs>
       <path d="M 64.40625 67.28125 
L 64.40625 56.890625 
Q 59.421875 61.53125 53.78125 63.8125 
Q 48.140625 66.109375 41.796875 66.109375 
Q 29.296875 66.109375 22.65625 58.46875 
Q 16.015625 50.828125 16.015625 36.375 
Q 16.015625 21.96875 22.65625 14.328125 
Q 29.296875 6.6875 41.796875 6.6875 
Q 48.140625 6.6875 53.78125 8.984375 
Q 59.421875 11.28125 64.40625 15.921875 
L 64.40625 5.609375 
Q 59.234375 2.09375 53.4375 0.328125 
Q 47.65625 -1.421875 41.21875 -1.421875 
Q 24.65625 -1.421875 15.125 8.703125 
Q 5.609375 18.84375 5.609375 36.375 
Q 5.609375 53.953125 15.125 64.078125 
Q 24.65625 74.21875 41.21875 74.21875 
Q 47.75 74.21875 53.53125 72.484375 
Q 59.328125 70.75 64.40625 67.28125 
z
" id="DejaVuSans-67"/>
       <path d="M 8.5 21.578125 
L 8.5 54.6875 
L 17.484375 54.6875 
L 17.484375 21.921875 
Q 17.484375 14.15625 20.5 10.265625 
Q 23.53125 6.390625 29.59375 6.390625 
Q 36.859375 6.390625 41.078125 11.03125 
Q 45.3125 15.671875 45.3125 23.6875 
L 45.3125 54.6875 
L 54.296875 54.6875 
L 54.296875 0 
L 45.3125 0 
L 45.3125 8.40625 
Q 42.046875 3.421875 37.71875 1 
Q 33.40625 -1.421875 27.6875 -1.421875 
Q 18.265625 -1.421875 13.375 4.4375 
Q 8.5 10.296875 8.5 21.578125 
z
M 31.109375 56 
z
" id="DejaVuSans-117"/>
       <path d="M 41.109375 46.296875 
Q 39.59375 47.171875 37.8125 47.578125 
Q 36.03125 48 33.890625 48 
Q 26.265625 48 22.1875 43.046875 
Q 18.109375 38.09375 18.109375 28.8125 
L 18.109375 0 
L 9.078125 0 
L 9.078125 54.6875 
L 18.109375 54.6875 
L 18.109375 46.1875 
Q 20.953125 51.171875 25.484375 53.578125 
Q 30.03125 56 36.53125 56 
Q 37.453125 56 38.578125 55.875 
Q 39.703125 55.765625 41.0625 55.515625 
z
" id="DejaVuSans-114"/>
       <path d="M 54.890625 33.015625 
L 54.890625 0 
L 45.90625 0 
L 45.90625 32.71875 
Q 45.90625 40.484375 42.875 44.328125 
Q 39.84375 48.1875 33.796875 48.1875 
Q 26.515625 48.1875 22.3125 43.546875 
Q 18.109375 38.921875 18.109375 30.90625 
L 18.109375 0 
L 9.078125 0 
L 9.078125 54.6875 
L 18.109375 54.6875 
L 18.109375 46.1875 
Q 21.34375 51.125 25.703125 53.5625 
Q 30.078125 56 35.796875 56 
Q 45.21875 56 50.046875 50.171875 
Q 54.890625 44.34375 54.890625 33.015625 
z
" id="DejaVuSans-110"/>
       <path d="M 9.8125 72.90625 
L 19.671875 72.90625 
L 19.671875 0 
L 9.8125 0 
z
" id="DejaVuSans-73"/>
       <path d="M 52 44.1875 
Q 55.375 50.25 60.0625 53.125 
Q 64.75 56 71.09375 56 
Q 79.640625 56 84.28125 50.015625 
Q 88.921875 44.046875 88.921875 33.015625 
L 88.921875 0 
L 79.890625 0 
L 79.890625 32.71875 
Q 79.890625 40.578125 77.09375 44.375 
Q 74.3125 48.1875 68.609375 48.1875 
Q 61.625 48.1875 57.5625 43.546875 
Q 53.515625 38.921875 53.515625 30.90625 
L 53.515625 0 
L 44.484375 0 
L 44.484375 32.71875 
Q 44.484375 40.625 41.703125 44.40625 
Q 38.921875 48.1875 33.109375 48.1875 
Q 26.21875 48.1875 22.15625 43.53125 
Q 18.109375 38.875 18.109375 30.90625 
L 18.109375 0 
L 9.078125 0 
L 9.078125 54.6875 
L 18.109375 54.6875 
L 18.109375 46.1875 
Q 21.1875 51.21875 25.484375 53.609375 
Q 29.78125 56 35.6875 56 
Q 41.65625 56 45.828125 52.96875 
Q 50 49.953125 52 44.1875 
z
" id="DejaVuSans-109"/>
       <path d="M 34.1875 63.1875 
L 20.796875 26.90625 
L 47.609375 26.90625 
z
M 28.609375 72.90625 
L 39.796875 72.90625 
L 67.578125 0 
L 57.328125 0 
L 50.6875 18.703125 
L 17.828125 18.703125 
L 11.1875 0 
L 0.78125 0 
z
" id="DejaVuSans-65"/>
      </defs>
      <use xlink:href="#DejaVuSans-67"/>
      <use x="69.824219" xlink:href="#DejaVuSans-117"/>
      <use x="133.203125" xlink:href="#DejaVuSans-114"/>
      <use x="172.566406" xlink:href="#DejaVuSans-114"/>
      <use x="211.429688" xlink:href="#DejaVuSans-101"/>
      <use x="272.953125" xlink:href="#DejaVuSans-110"/>
      <use x="336.332031" xlink:href="#DejaVuSans-116"/>
      <use x="375.541016" xlink:href="#DejaVuSans-32"/>
      <use x="407.328125" xlink:href="#DejaVuSans-40"/>
      <use x="446.341797" xlink:href="#DejaVuSans-73"/>
      <use x="475.833984" xlink:href="#DejaVuSans-47"/>
      <use x="509.525391" xlink:href="#DejaVuSans-109"/>
      <use x="606.9375" xlink:href="#DejaVuSans-65"/>
      <use x="675.345703" xlink:href="#DejaVuSans-41"/>
     </g>
    </g>
   </g>
   <g id="line2d_19">
    <path clip-path="url(#p295eb6a271)" d="M 236.948791 204.146504 
L 240.636324 204.064678 
L 241.76318 204.071686 
L 242.885057 204.051177 
L 243.759703 204.057967 
L 244.884228 204.03316 
L 245.752968 204.037579 
L 246.629415 204.011376 
L 247.628828 203.994429 
L 248.750758 203.988218 
L 249.628423 203.95394 
L 250.499283 203.9484 
L 251.376098 203.909774 
L 252.247302 203.899718 
L 253.120542 203.857029 
L 253.99871 203.843968 
L 254.867107 203.797301 
L 255.740244 203.783213 
L 256.614913 203.734359 
L 257.487735 203.718905 
L 258.362113 203.669426 
L 259.236548 203.652996 
L 260.107699 203.605152 
L 261.046381 203.586095 
L 267.35503 203.38903 
L 268.228405 203.387608 
L 269.100853 203.358159 
L 270.221408 203.349798 
L 271.097317 203.321146 
L 272.467756 203.315687 
L 273.345551 203.288025 
L 274.466795 203.290365 
L 275.594206 203.266876 
L 276.717828 203.269465 
L 278.091046 203.24924 
L 279.210515 203.255053 
L 280.336441 203.237122 
L 281.459408 203.244786 
L 282.835588 203.228033 
L 284.204196 203.233742 
L 285.578676 203.218493 
L 286.704129 203.229273 
L 288.077846 203.221422 
L 289.450026 203.228427 
L 291.072769 203.219362 
L 292.949188 203.227042 
L 294.565985 203.215329 
L 295.941019 203.223222 
L 298.062148 203.213 
L 299.93499 203.211922 
L 302.30947 203.180652 
L 304.927242 203.160664 
L 306.798093 203.130961 
L 308.672674 203.106279 
L 318.039375 202.472283 
L 319.534816 202.192991 
L 321.155669 201.801525 
L 324.026216 200.792434 
L 325.398448 200.157362 
L 328.514444 198.28166 
L 329.895466 197.294909 
L 333.390104 194.230346 
L 335.262808 192.236704 
L 337.138609 190.045247 
L 337.882024 189.118184 
L 339.262213 187.294617 
L 339.760162 186.61409 
L 341.133414 184.597036 
L 346.750694 175.654129 
L 347.622863 174.151514 
L 348.873643 171.903866 
L 351.243121 167.579983 
L 351.620183 166.937107 
L 352.24152 165.607604 
L 352.738986 164.725243 
L 354.11389 161.874351 
L 355.609837 158.860681 
L 356.111441 157.896753 
L 356.487127 157.039427 
L 357.608907 154.711237 
L 358.483599 153.085043 
L 359.729474 150.200484 
L 360.104653 149.591932 
L 360.726742 148.049455 
L 361.232454 147.123998 
L 362.973934 143.250624 
L 363.847949 141.365369 
L 364.098297 141.138186 
L 364.731684 139.60565 
L 365.352195 138.065596 
L 366.104221 136.729389 
L 367.098736 134.127003 
L 368.098028 132.227085 
L 368.724509 130.744305 
L 371.596007 124.260405 
L 371.96946 123.449088 
L 372.719596 121.499112 
L 372.9692 121.224525 
L 373.344975 120.352342 
L 373.842991 118.903073 
L 374.714698 117.287457 
L 375.217657 115.995208 
L 375.844747 114.100059 
L 376.217099 113.308701 
L 376.46703 112.869585 
L 377.214829 111.441625 
L 377.837721 109.650509 
L 378.83618 107.603826 
L 379.337129 106.177334 
L 379.960126 104.773918 
L 380.08341 104.703655 
L 381.460175 101.582059 
L 382.084005 99.764745 
L 382.454764 99.500532 
L 382.707791 98.816978 
L 383.333095 96.993622 
L 383.830471 96.027428 
L 384.080819 95.720168 
L 384.827517 93.711223 
L 385.077745 92.768661 
L 385.453997 92.288029 
L 385.582133 92.257325 
L 385.830486 91.801059 
L 386.327609 90.41516 
L 387.325444 88.658955 
L 387.576074 88.012574 
L 388.07741 86.196819 
L 388.572822 84.971996 
L 389.197307 83.932601 
L 389.447 83.515228 
L 389.69711 82.964942 
L 390.449062 80.840245 
L 390.820862 80.063725 
L 391.196131 79.246543 
L 391.57073 78.410075 
L 392.318231 76.122084 
L 392.943267 75.419183 
L 393.318759 74.56104 
L 394.317427 71.641753 
L 394.566227 71.395439 
L 394.942567 70.326558 
L 395.441403 68.838279 
L 395.567559 68.696162 
L 396.065486 67.643947 
L 396.438954 66.996243 
L 397.061921 64.804704 
L 397.436416 63.620136 
L 397.815093 63.124741 
L 398.47727 61.383041 
L 398.465808 61.453367 
L 398.150007 63.155816 
L 396.030445 72.025011 
L 395.282498 74.648522 
L 394.778869 77.074486 
L 394.404062 78.817444 
L 393.780574 81.04122 
L 393.405498 82.195319 
L 393.157622 82.90109 
L 392.40567 86.462774 
L 392.030981 87.75984 
L 391.285028 90.02629 
L 390.534297 93.170472 
L 389.910199 95.145537 
L 389.286011 97.203383 
L 388.787533 99.091695 
L 388.288713 101.174933 
L 387.662099 103.167274 
L 387.162609 104.287253 
L 386.665724 106.574573 
L 386.164819 108.353854 
L 385.541316 109.756299 
L 384.541607 113.47884 
L 384.293387 114.034371 
L 383.793049 115.439922 
L 383.544026 116.287074 
L 382.92027 118.897033 
L 382.417296 120.096858 
L 381.921453 121.663089 
L 381.296491 123.753897 
L 380.922101 124.68438 
L 380.548812 125.333743 
L 380.04758 127.016574 
L 378.175791 132.530008 
L 377.800715 133.118134 
L 377.423809 134.322781 
L 376.797225 136.385997 
L 376.30226 137.293959 
L 374.553963 142.233541 
L 373.928524 143.394723 
L 373.431103 144.932811 
L 373.056534 146.068656 
L 371.931219 148.527947 
L 371.434304 149.930206 
L 370.434952 151.584774 
L 369.062191 154.97937 
L 368.688634 155.579407 
L 365.439976 162.329834 
L 364.318977 164.463988 
L 363.8191 165.312728 
L 362.569653 167.668666 
L 361.694879 169.259439 
L 360.69799 170.822739 
L 359.574997 172.75794 
L 359.074889 173.492522 
L 358.075909 175.196842 
L 357.326875 176.193687 
L 352.331028 183.064475 
L 351.335479 184.236853 
L 350.582374 185.123515 
L 350.086932 185.649779 
L 349.457579 186.493283 
L 348.587621 187.322042 
L 347.960895 188.11324 
L 345.468312 190.508381 
L 340.72169 194.538285 
L 338.845093 195.937368 
L 337.478547 196.869418 
L 331.480907 200.495823 
L 326.487442 202.681521 
L 321.744571 203.790422 
L 315.49953 204.245666 
L 313.379536 204.277039 
L 311.505403 204.301888 
L 309.382335 204.304529 
L 307.762174 204.317781 
L 305.891136 204.314619 
L 304.017539 204.326369 
L 301.895766 204.323911 
L 300.023114 204.335645 
L 298.149188 204.332953 
L 296.275338 204.343545 
L 294.15304 204.341205 
L 292.283488 204.351699 
L 289.910623 204.34896 
L 288.041379 204.356581 
L 286.166185 204.350973 
L 284.043866 204.362082 
L 282.170089 204.359584 
L 280.298873 204.371297 
L 278.178135 204.370039 
L 275.806592 204.38414 
L 273.682757 204.385244 
L 271.561339 204.399771 
L 269.436578 204.402219 
L 267.066545 204.419047 
L 264.695404 204.424512 
L 262.3241 204.442162 
L 259.950785 204.448667 
L 257.581679 204.467678 
L 254.461081 204.483615 
L 250.09 204.523182 
L 246.351044 204.558331 
L 240.731515 204.613144 
L 227.250633 205.041437 
L 224.879489 205.408584 
L 222.880239 205.953322 
L 220.510469 206.936138 
L 218.890527 207.768785 
L 213.144323 211.183729 
L 211.520195 212.146625 
L 208.148633 214.218752 
L 207.025668 214.948821 
L 206.526596 215.319206 
L 202.156411 218.974744 
L 201.284972 219.830335 
L 200.537423 220.652854 
L 199.537795 221.699815 
L 198.664975 222.698545 
L 196.540165 225.041686 
L 193.29543 227.57487 
L 191.798009 228.134913 
L 191.175202 228.263014 
L 190.675682 228.369691 
L 189.177464 228.330723 
L 188.553172 228.239719 
L 188.054762 228.136888 
L 187.426495 227.924063 
L 186.057471 227.435317 
L 183.43149 226.21127 
L 181.434206 225.114675 
L 180.562041 224.727733 
L 179.68483 224.285399 
L 179.311641 224.149108 
L 178.56398 223.772928 
L 176.189188 222.809557 
L 175.569931 222.608143 
L 174.694673 222.302332 
L 173.822062 222.070878 
L 172.695072 221.742711 
L 171.201328 221.387534 
L 169.951456 221.16458 
L 168.576202 220.961988 
L 167.202936 220.706263 
L 166.581591 220.674265 
L 165.959085 220.532987 
L 163.954917 220.33081 
L 162.95721 220.283352 
L 162.33463 220.25644 
L 161.836375 220.155934 
L 158.464136 220.074711 
L 157.964326 220.065106 
L 154.842978 220.025688 
L 154.218269 219.975376 
L 153.596969 219.916948 
L 153.218954 219.952191 
L 152.844652 219.951214 
L 152.221678 219.825279 
L 151.350558 219.857918 
L 150.84699 219.83847 
L 149.975148 219.758222 
L 149.600847 219.857918 
L 148.97849 219.777468 
L 148.348787 219.860259 
L 147.973072 219.788171 
L 147.350216 219.938732 
L 146.605045 219.909045 
L 145.979882 219.936513 
L 145.104528 220.069546 
L 144.604636 219.981986 
L 144.354139 220.054807 
L 143.85639 220.148073 
L 143.480682 220.070516 
L 142.359632 220.165113 
L 141.735496 220.094958 
L 140.113861 220.145897 
L 139.737044 219.992055 
L 138.115551 219.92448 
L 137.738265 219.803727 
L 137.118149 219.959801 
L 135.24601 219.643281 
L 134.996019 219.664966 
L 134.621822 219.534135 
L 134.247647 219.318187 
L 133.745016 219.305296 
L 133.497199 219.314077 
L 133.123255 219.182159 
L 132.501866 218.881422 
L 131.876457 218.807291 
L 131.124036 218.500602 
L 130.625953 218.417732 
L 128.751968 217.873582 
L 128.377027 217.847828 
L 127.753219 217.58606 
L 127.007162 217.564202 
L 123.759143 217.256093 
L 123.384984 217.2995 
L 122.884667 217.197153 
L 122.511296 217.244146 
L 122.138692 217.265099 
L 121.764406 217.26299 
L 121.261596 217.34467 
L 120.63941 217.515953 
L 119.889632 217.644152 
L 119.514906 217.80428 
L 118.639835 218.283672 
L 117.766929 218.736106 
L 116.645938 219.907387 
L 116.144453 220.343384 
L 115.769929 220.742065 
L 113.52494 223.94006 
L 109.529592 230.924416 
L 109.032126 231.820685 
L 107.286464 234.890741 
L 106.783207 235.945617 
L 106.284283 236.90821 
L 104.662425 239.647196 
L 103.6641 241.4612 
L 103.166589 242.182127 
L 101.915133 244.194095 
L 101.665499 244.617787 
L 101.16851 245.61016 
L 100.046469 247.231137 
L 99.420719 248.537209 
L 98.669198 249.408332 
L 97.802716 250.798587 
L 96.79866 252.587734 
L 95.800453 253.908654 
L 95.177992 255.07124 
L 94.3024 256.393255 
L 93.925107 256.948404 
L 93.677051 257.304524 
L 92.557556 259.032039 
L 92.180903 259.557907 
L 90.806907 261.967298 
L 89.934172 263.307128 
L 89.685611 263.55776 
L 89.310699 264.307955 
L 88.562573 266.037798 
L 88.065837 266.465705 
L 86.931887 268.831497 
L 86.557601 269.649411 
L 86.309858 269.713451 
L 86.059972 269.786703 
L 85.811053 270.31104 
L 85.184349 272.071343 
L 84.685083 272.993094 
L 84.184893 274.05819 
L 83.564858 274.934643 
L 82.937678 276.127753 
L 82.565491 276.819116 
L 82.18461 277.966623 
L 81.815921 279.049726 
L 81.566094 279.146485 
L 81.314585 279.259789 
L 81.062957 279.858849 
L 80.689593 280.883589 
L 80.065807 282.111552 
L 79.690077 282.960294 
L 79.441099 282.96133 
L 79.316758 282.898516 
L 79.06586 283.823442 
L 78.571952 286.13848 
L 78.445378 286.134941 
L 78.071151 285.709809 
L 77.822128 286.372596 
L 77.319661 288.43148 
L 76.944988 288.89037 
L 76.195849 290.083297 
L 75.196943 292.753694 
L 74.822746 293.57246 
L 74.447507 294.489453 
L 73.832727 295.488 
L 73.913646 295.209566 
L 74.410457 294.019446 
L 75.036073 292.803386 
L 75.910475 289.920665 
L 76.158248 289.598643 
L 76.409057 288.792205 
L 76.78382 287.382382 
L 77.655706 285.147746 
L 78.034622 284.007808 
L 78.532028 283.33372 
L 79.405626 280.875891 
L 79.901722 279.361251 
L 80.402939 278.609023 
L 81.276582 276.207666 
L 81.52876 275.993023 
L 81.902764 274.965475 
L 82.403073 273.340211 
L 83.527361 271.067173 
L 84.524094 268.651103 
L 85.022988 267.57331 
L 88.143585 260.68815 
L 88.643849 259.804428 
L 89.390457 257.884737 
L 90.391625 255.993915 
L 90.888897 254.751967 
L 91.389072 253.930944 
L 91.76315 253.304841 
L 93.635252 249.483947 
L 94.135546 248.658524 
L 94.758736 247.142477 
L 95.260162 246.561427 
L 95.760232 245.427844 
L 96.508344 244.016668 
L 97.133201 242.936374 
L 97.88554 241.447002 
L 98.880501 239.802205 
L 99.753191 238.12493 
L 100.003956 237.794846 
L 101.254132 235.516313 
L 106.372392 226.409392 
L 106.99582 225.298826 
L 108.36672 222.964002 
L 109.741431 220.53262 
L 110.366214 219.392477 
L 110.990922 218.224703 
L 111.61383 217.220601 
L 121.845354 198.014037 
L 125.346087 191.934247 
L 127.342954 189.044107 
L 129.34279 186.802131 
L 129.715506 186.539594 
L 130.090335 186.233624 
L 130.714575 185.635808 
L 131.465485 185.408335 
L 132.089167 185.37485 
L 132.71165 185.162306 
L 133.21056 185.224856 
L 133.962556 185.52924 
L 134.584675 185.689973 
L 135.333843 186.302541 
L 136.460029 187.273657 
L 137.083234 187.906099 
L 137.458645 188.308665 
L 138.326571 189.485704 
L 141.32797 192.504218 
L 141.952009 193.070627 
L 142.448805 193.373358 
L 144.944477 194.760794 
L 146.194177 195.270958 
L 147.196789 195.643723 
L 147.819354 195.814146 
L 148.190902 195.887984 
L 148.693853 195.995356 
L 149.443386 196.162974 
L 149.940241 196.262291 
L 151.316031 196.502167 
L 152.685933 196.604167 
L 153.438436 196.804124 
L 159.428857 197.468985 
L 160.178099 197.683511 
L 165.045467 198.837996 
L 166.173544 198.938697 
L 167.290813 199.054675 
L 167.791665 199.047857 
L 175.033308 199.358522 
L 176.407561 199.605332 
L 177.030733 199.83164 
L 177.65558 199.973048 
L 178.528292 200.264924 
L 179.900684 200.490841 
L 180.777155 200.651025 
L 181.27602 200.718923 
L 183.148147 200.869545 
L 184.271293 201.014501 
L 185.145859 201.033309 
L 185.770843 201.082016 
L 186.642092 201.101433 
L 187.767047 201.183278 
L 190.889072 201.320758 
L 191.759905 201.371196 
L 192.634951 201.372526 
L 193.508802 201.438375 
L 194.383367 201.449706 
L 195.260898 201.493229 
L 195.881528 201.492833 
L 196.75459 201.530344 
L 197.878053 201.518361 
L 199.004272 201.545236 
L 199.880721 201.524678 
L 200.998165 201.531276 
L 201.622814 201.508439 
L 202.248372 201.524825 
L 203.371145 201.518129 
L 204.996496 201.588717 
L 205.86659 201.613945 
L 207.241496 201.711359 
L 208.860514 201.785887 
L 209.987078 201.862941 
L 210.85897 201.873421 
L 211.731286 201.914686 
L 212.610512 201.927486 
L 213.607487 201.952072 
L 214.732411 201.982098 
L 215.850901 201.969996 
L 216.721999 201.979262 
L 217.846045 201.943875 
L 218.598121 201.939644 
L 219.971018 201.913398 
L 221.5921 201.846085 
L 222.466984 201.8457 
L 223.588492 201.805391 
L 224.464196 201.814728 
L 226.084032 201.806887 
L 227.212213 201.813738 
L 228.585109 201.814792 
L 229.958456 201.841634 
L 231.584303 201.864607 
L 233.701888 201.929467 
L 236.071782 202.003812 
L 236.613649 202.040339 
L 237.484746 202.076189 
L 238.609854 202.130085 
L 239.734194 202.155113 
L 240.356153 202.192455 
L 240.97896 202.20653 
L 241.855167 202.247863 
L 242.979242 202.268197 
L 243.602552 202.313737 
L 244.477435 202.316128 
L 245.3511 202.363822 
L 246.474065 202.364577 
L 247.346406 202.404486 
L 248.221475 202.39609 
L 249.100305 202.434504 
L 249.720672 202.417976 
L 250.345201 202.451149 
L 250.967425 202.436745 
L 251.594097 202.459313 
L 252.218518 202.452336 
L 252.83955 202.477522 
L 253.467943 202.463911 
L 254.341768 202.494432 
L 254.963383 202.48091 
L 255.584655 202.507069 
L 256.461577 202.496783 
L 257.337228 202.526721 
L 258.08263 202.535362 
L 258.959845 202.531845 
L 259.580905 202.548794 
L 260.455232 202.542721 
L 261.083253 202.5702 
L 261.703784 202.555071 
L 262.581606 202.586219 
L 263.203619 202.573523 
L 263.831561 202.599612 
L 264.451983 202.587194 
L 265.324589 202.616884 
L 265.950336 202.604173 
L 266.57354 202.627432 
L 267.200157 202.61462 
L 267.821638 202.638748 
L 268.695917 202.629109 
L 269.569418 202.655509 
L 270.445178 202.642643 
L 271.317336 202.67238 
L 272.191875 202.658221 
L 273.068826 202.681663 
L 273.939075 202.675779 
L 274.814935 202.697571 
L 275.690007 202.687528 
L 276.559492 202.708644 
L 277.435011 202.702899 
L 278.56001 202.726238 
L 279.557304 202.728703 
L 280.681935 202.722293 
L 281.80191 202.740801 
L 282.929715 202.730395 
L 283.925528 202.736628 
L 285.298292 202.757663 
L 286.423265 202.754559 
L 287.799684 202.769118 
L 289.419234 202.767795 
L 291.043217 202.783118 
L 292.669493 202.778243 
L 294.288459 202.787432 
L 296.40798 202.785041 
L 301.027713 202.776239 
L 304.14799 202.756075 
L 308.767808 202.731716 
L 315.38491 202.500417 
L 318.753763 202.029794 
L 320.876309 201.501192 
L 323.244537 200.602403 
L 324.992127 199.736703 
L 327.238843 198.355313 
L 330.239907 196.054113 
L 333.482015 192.942783 
L 334.361821 192.075868 
L 335.108763 191.221638 
L 336.106925 190.14868 
L 336.983746 188.99787 
L 337.854575 187.903574 
L 338.977977 186.602095 
L 339.726223 185.425112 
L 340.851806 183.963222 
L 345.715259 176.620263 
L 346.468863 175.348025 
L 347.838282 173.165551 
L 348.461323 171.902659 
L 349.712147 169.842798 
L 350.708887 167.96254 
L 351.463742 166.832757 
L 352.708716 164.162158 
L 353.583661 162.834365 
L 354.205519 161.375944 
L 354.956846 159.900089 
L 355.4519 159.154325 
L 355.827333 158.521836 
L 356.828814 156.235453 
L 357.327083 155.305628 
L 357.825137 154.22676 
L 358.197756 153.555079 
L 359.323905 151.129788 
L 360.319253 149.10216 
L 361.693554 145.868849 
L 362.441338 144.747025 
L 363.064543 142.943812 
L 363.690503 141.315283 
L 364.065102 141.118754 
L 365.570419 137.485217 
L 366.072306 136.652046 
L 368.06528 131.532855 
L 368.441903 131.019266 
L 368.813927 130.824465 
L 369.066225 130.279799 
L 369.815617 127.560507 
L 370.437393 126.361594 
L 372.560393 121.450337 
L 372.934784 120.938392 
L 373.311928 119.692299 
L 373.811284 118.034924 
L 374.18374 117.355342 
L 374.556672 117.041926 
L 374.807913 116.503122 
L 375.685396 113.736945 
L 377.678965 109.08985 
L 378.179527 107.670429 
L 378.929231 106.469211 
L 379.677729 103.82085 
L 380.177056 103.078567 
L 381.425238 99.78849 
L 381.924817 99.249437 
L 382.297689 97.810309 
L 382.672452 96.310071 
L 382.922428 95.897882 
L 383.1723 95.831527 
L 383.299007 95.707473 
L 383.672013 94.655386 
L 384.920835 91.061218 
L 385.546779 90.279945 
L 386.665947 86.360086 
L 387.536642 85.050926 
L 388.664667 81.841549 
L 389.785561 79.033738 
L 390.039258 78.737292 
L 390.290261 77.969994 
L 390.66218 76.292714 
L 391.660282 74.668726 
L 392.158537 73.695273 
L 392.907214 70.761398 
L 393.15914 70.718291 
L 393.283138 70.571844 
L 393.783506 68.995659 
L 394.158046 68.00578 
L 394.533166 67.114613 
L 395.034159 65.732312 
L 395.284463 65.478178 
L 395.533084 64.965805 
L 395.906016 63.413857 
L 396.278724 61.782498 
L 396.528402 61.45919 
L 397.026597 61.20877 
L 398.029135 58.097734 
L 398.403049 57.304056 
L 398.487273 57.017294 
L 398.153475 57.937174 
L 397.904705 58.860398 
L 397.152813 62.3412 
L 396.654633 64.983819 
L 396.528551 65.145896 
L 396.281002 65.123916 
L 396.032217 65.956236 
L 395.283897 70.432657 
L 394.907273 70.954367 
L 394.533999 71.752864 
L 394.158284 73.687148 
L 393.53551 77.016431 
L 393.036735 78.748339 
L 392.78536 79.183183 
L 392.534788 79.769787 
L 389.038194 92.430397 
L 388.2898 94.468461 
L 387.665016 97.027927 
L 387.290477 98.458204 
L 386.791523 100.700902 
L 386.542931 101.134407 
L 386.41746 101.185256 
L 386.169866 101.66508 
L 385.795267 102.97748 
L 384.669802 106.903863 
L 384.2944 107.653639 
L 383.17218 111.734358 
L 381.425014 116.569543 
L 380.675072 119.325651 
L 380.175403 120.491647 
L 379.799673 121.059881 
L 377.803067 127.381267 
L 377.303607 128.919421 
L 376.928576 130.049466 
L 376.430619 131.198296 
L 376.056913 131.525592 
L 375.431014 133.417327 
L 374.681637 135.736271 
L 373.681377 138.071635 
L 373.059898 139.870644 
L 372.435294 140.588985 
L 371.934791 142.131166 
L 371.063665 144.569457 
L 370.562492 145.610254 
L 369.814351 146.921428 
L 369.316156 148.153177 
L 368.690882 149.6909 
L 367.938602 151.443023 
L 367.565447 152.316303 
L 366.694038 153.638467 
L 366.072395 155.34126 
L 365.694551 155.792275 
L 363.94411 159.578611 
L 363.445811 160.253429 
L 362.697298 161.654282 
L 362.073259 163.547666 
L 361.701191 163.935744 
L 361.326115 164.194402 
L 360.953615 164.410996 
L 360.698132 164.98362 
L 359.951263 167.099034 
L 359.326383 167.482291 
L 358.703573 168.831069 
L 358.077197 170.378805 
L 357.829178 170.313726 
L 357.580014 170.117704 
L 357.329577 170.31092 
L 357.082154 170.897035 
L 356.582195 172.343672 
L 356.082987 173.116654 
L 355.705768 173.382515 
L 355.455413 173.620356 
L 353.961892 175.819038 
L 353.209747 176.880895 
L 352.711016 177.737268 
L 352.212612 178.366176 
L 351.7154 178.93526 
L 351.215426 179.277186 
L 349.585738 181.477176 
L 349.212732 181.840444 
L 347.961104 183.394179 
L 345.717291 185.772671 
L 345.342647 186.118249 
L 344.595131 186.929487 
L 343.847295 187.70508 
L 343.094063 188.406043 
L 342.595035 188.783485 
L 341.600014 189.832825 
L 340.60087 190.700343 
L 339.726245 191.478339 
L 338.351259 192.636722 
L 337.604167 193.283153 
L 333.731939 196.406454 
L 330.111793 199.046802 
L 326.747808 201.120734 
L 324.36986 202.271619 
L 321.87357 203.162335 
L 319.000977 203.794153 
L 316.878014 204.06116 
L 312.635347 204.263246 
L 304.266837 204.313672 
L 299.649624 204.324776 
L 288.54321 204.34473 
L 285.172203 204.354046 
L 281.800183 204.357667 
L 278.93296 204.370352 
L 275.811068 204.376172 
L 272.685359 204.392137 
L 270.314132 204.396853 
L 267.445588 204.413956 
L 264.573865 204.422729 
L 261.953529 204.44132 
L 259.581355 204.448967 
L 257.459877 204.467388 
L 255.087941 204.476265 
L 252.718014 204.499916 
L 250.592857 204.513033 
L 248.225421 204.544422 
L 246.100079 204.555992 
L 243.48173 204.585714 
L 241.110109 204.608324 
L 238.991545 204.645517 
L 236.869619 204.673782 
L 234.247377 204.731914 
L 232.124496 204.781384 
L 229.501644 204.892677 
L 227.874552 205.008818 
L 224.50929 205.577893 
L 223.008263 206.052731 
L 221.890383 206.511919 
L 219.520323 207.776047 
L 217.399243 209.136826 
L 206.903733 216.501941 
L 206.15396 217.11379 
L 204.40811 218.821055 
L 202.412669 221.029747 
L 200.665313 223.153867 
L 196.917645 226.955262 
L 195.67113 227.799962 
L 195.047612 228.121351 
L 194.297443 228.41957 
L 193.798291 228.604604 
L 193.047248 228.601011 
L 192.673739 228.7218 
L 192.299486 228.831794 
L 190.180635 228.474972 
L 189.803204 228.315318 
L 189.303353 228.09255 
L 188.680375 227.881644 
L 185.058346 225.439148 
L 184.560314 224.945972 
L 183.811782 224.548802 
L 183.062194 223.936796 
L 181.813249 223.016363 
L 181.438229 222.801251 
L 180.942021 222.647935 
L 179.940004 222.095161 
L 177.194029 221.016751 
L 176.444597 220.806915 
L 175.4468 220.526821 
L 173.823993 220.173674 
L 173.449323 220.022699 
L 172.699895 220.022883 
L 169.949603 219.580896 
L 169.577408 219.566419 
L 169.204491 219.452868 
L 168.580884 219.452894 
L 168.080835 219.349296 
L 166.333379 219.192642 
L 165.334198 219.126897 
L 164.959465 219.076757 
L 164.584955 219.083183 
L 164.209515 219.083391 
L 163.71202 219.12403 
L 162.710546 218.960706 
L 162.211302 219.053473 
L 161.090817 218.917469 
L 160.714476 218.878951 
L 160.091755 218.882946 
L 158.841846 218.758786 
L 158.089485 218.757163 
L 157.715444 218.682398 
L 151.477898 218.887983 
L 150.851939 219.051374 
L 150.353268 219.036757 
L 148.980894 219.235544 
L 148.731864 219.318481 
L 147.855586 219.376158 
L 147.109671 219.437935 
L 146.108197 219.422182 
L 144.734744 219.543794 
L 143.738235 219.514418 
L 142.488609 219.518053 
L 141.994485 219.533574 
L 141.616879 219.556978 
L 140.992022 219.430451 
L 139.991724 219.459193 
L 139.244699 219.321194 
L 138.868642 219.410095 
L 137.868619 219.145478 
L 134.502111 218.68355 
L 134.12874 218.62033 
L 133.626965 218.688374 
L 132.628722 218.371244 
L 132.25355 218.501925 
L 131.880834 218.310389 
L 131.505356 218.154425 
L 130.883215 218.038207 
L 130.506741 217.969 
L 130.131479 218.054237 
L 129.507828 217.907866 
L 128.758644 217.716629 
L 127.386889 217.663794 
L 127.011538 217.628546 
L 126.513373 217.476204 
L 126.136295 217.486132 
L 125.510463 217.604769 
L 125.012476 217.407574 
L 124.265771 217.479101 
L 122.768246 217.522966 
L 121.894373 217.625326 
L 121.517675 217.65822 
L 121.018698 217.776369 
L 119.018944 218.422038 
L 118.394987 218.78799 
L 118.01977 218.935307 
L 117.150817 219.656685 
L 116.523369 220.131304 
L 115.648484 221.032198 
L 115.275291 221.449608 
L 114.650426 222.302319 
L 114.025368 222.98453 
L 111.032052 227.294023 
L 110.157501 228.532119 
L 109.782887 229.004828 
L 108.785291 230.744635 
L 107.662789 232.347656 
L 107.163731 233.360392 
L 106.535986 233.881364 
L 106.161714 234.439475 
L 105.16522 236.37737 
L 104.666891 236.736695 
L 102.793792 239.666974 
L 102.295209 240.299647 
L 101.295232 242.086341 
L 100.545736 242.736998 
L 98.425936 246.092707 
L 98.176645 246.294906 
L 96.551527 248.692263 
L 96.053868 249.5772 
L 95.427537 250.452697 
L 94.678949 251.485938 
L 94.430179 251.647871 
L 94.181572 252.023177 
L 93.557638 253.204346 
L 93.056153 253.645535 
L 92.683236 254.434904 
L 92.432486 254.753999 
L 91.685372 256.179814 
L 91.310446 256.572834 
L 90.563019 257.704236 
L 89.810308 258.977672 
L 88.31544 261.626602 
L 87.816054 262.124233 
L 87.19072 263.37546 
L 86.816657 264.164506 
L 86.443755 264.884191 
L 84.941816 267.178933 
L 84.188361 268.749208 
L 83.566674 269.368227 
L 83.191971 270.512132 
L 82.43789 272.321941 
L 81.566496 273.483064 
L 81.316699 273.62799 
L 81.068033 274.342791 
L 80.693583 275.550062 
L 80.06804 276.340684 
L 79.567255 277.707232 
L 79.195127 278.293105 
L 78.944898 278.797169 
L 78.570924 279.889673 
L 78.323048 280.157979 
L 77.947764 280.675048 
L 77.570709 281.643811 
L 77.196735 282.509825 
L 76.822285 282.968902 
L 75.698949 285.638686 
L 75.322445 286.318815 
L 74.949736 287.126473 
L 74.447299 288.034303 
L 74.076883 288.890985 
L 73.83368 289.18938 
L 73.915507 288.969367 
L 74.784252 287.187827 
L 76.15929 283.276336 
L 76.409325 282.734784 
L 77.035225 280.920704 
L 77.531232 280.566566 
L 77.907751 279.110528 
L 78.285476 277.824445 
L 79.530636 275.644136 
L 80.403311 272.725584 
L 80.651769 272.718017 
L 80.903218 272.128544 
L 81.402917 270.727077 
L 81.653324 270.349318 
L 84.399738 264.141476 
L 84.773563 263.717073 
L 86.149509 260.688211 
L 87.145497 258.782743 
L 87.898476 256.912984 
L 88.145758 256.671663 
L 90.642062 251.644781 
L 91.016721 250.937361 
L 91.389965 250.506675 
L 93.388983 246.788949 
L 93.883337 245.707801 
L 94.260318 245.192745 
L 94.634947 244.550343 
L 95.136536 243.503503 
L 95.386631 243.26609 
L 101.377475 233.297855 
L 105.874837 226.231011 
L 106.622531 225.044003 
L 108.620045 221.954505 
L 109.492824 220.649682 
L 110.242037 219.435616 
L 110.742271 218.642223 
L 111.489251 217.517673 
L 125.100547 195.942503 
L 125.971079 194.686181 
L 126.598631 193.869449 
L 127.595534 192.783605 
L 128.341978 191.828644 
L 129.220087 191.059349 
L 129.840613 190.459498 
L 130.839146 189.875389 
L 132.590346 189.261371 
L 134.586267 189.536289 
L 135.336381 190.09971 
L 135.957175 190.315389 
L 136.83573 191.089768 
L 138.701252 193.082744 
L 139.453486 193.847708 
L 140.077473 194.401604 
L 141.075203 195.386107 
L 142.82359 196.490836 
L 144.198025 197.133658 
L 145.817457 197.790353 
L 146.818335 198.045121 
L 150.4379 198.756639 
L 155.183481 199.134251 
L 157.426728 199.121231 
L 158.554179 199.204717 
L 159.304509 199.269329 
L 160.302708 199.431232 
L 161.304256 199.720431 
L 162.052553 199.875474 
L 163.798543 200.218015 
L 167.540968 200.563307 
L 168.915924 200.572278 
L 170.790616 200.572211 
L 173.908127 200.446451 
L 175.787188 200.694975 
L 179.77692 201.701584 
L 183.392675 202.011752 
L 193.257702 202.308612 
L 194.630544 202.33007 
L 196.253824 202.378037 
L 198.1291 202.416372 
L 199.751293 202.446212 
L 201.871685 202.444916 
L 205.742823 202.525467 
L 207.615957 202.580767 
L 208.989936 202.622153 
L 210.362122 202.652432 
L 212.733185 202.672072 
L 227.836025 202.120902 
L 230.459301 202.088706 
L 232.082872 202.088113 
L 233.955501 202.11482 
L 235.823285 202.145632 
L 245.475737 202.529888 
L 246.098543 202.524576 
L 246.974195 202.567167 
L 247.848338 202.557366 
L 248.471434 202.59089 
L 249.099669 202.581172 
L 249.845363 202.598819 
L 250.718208 202.62154 
L 251.344323 202.617923 
L 251.968771 202.640035 
L 252.590334 202.62684 
L 253.464713 202.659817 
L 254.343461 202.648318 
L 254.964998 202.669822 
L 255.58746 202.660586 
L 256.212651 202.688557 
L 257.087083 202.674447 
L 257.960455 202.708238 
L 258.836614 202.689055 
L 259.7066 202.727661 
L 260.455496 202.731655 
L 261.330802 202.717483 
L 261.957478 202.747112 
L 262.828229 202.732384 
L 263.706501 202.769036 
L 264.577464 202.754988 
L 265.199134 202.776517 
L 265.826973 202.760897 
L 266.448985 202.789942 
L 267.326117 202.778678 
L 267.948181 202.797853 
L 268.574088 202.789203 
L 269.198217 202.804668 
L 269.819461 202.796198 
L 270.695325 202.824491 
L 271.318869 202.802636 
L 272.192005 202.831571 
L 273.068692 202.812141 
L 273.942037 202.841893 
L 275.062112 202.827485 
L 275.939175 202.850705 
L 276.812628 202.837379 
L 277.685422 202.860504 
L 278.560806 202.849086 
L 279.181834 202.869742 
L 279.930656 202.871936 
L 280.807443 202.8606 
L 281.928795 202.880776 
L 282.553932 202.863491 
L 283.428736 202.884714 
L 284.301288 202.870719 
L 285.17694 202.889826 
L 286.051159 202.879009 
L 286.922524 202.896347 
L 288.049354 202.884947 
L 289.173084 202.903856 
L 290.047471 202.893966 
L 290.919595 202.905253 
L 291.916752 202.911126 
L 293.043135 202.899754 
L 294.412956 202.912811 
L 295.537564 202.90003 
L 296.660528 202.913254 
L 298.033895 202.900683 
L 299.404992 202.904954 
L 301.029336 202.889284 
L 303.402037 202.883481 
L 304.52267 202.86805 
L 306.147134 202.868788 
L 307.519507 202.854185 
L 308.89322 202.849612 
L 310.513902 202.819009 
L 311.890876 202.795496 
L 318.377906 202.155217 
L 321.372725 201.288503 
L 324.36954 199.894195 
L 327.113133 198.120577 
L 331.114889 194.753787 
L 333.109664 192.736807 
L 336.105124 189.391747 
L 340.850198 183.100095 
L 341.727815 181.937729 
L 342.348996 181.046991 
L 342.972246 180.038246 
L 343.595809 179.106843 
L 344.468647 177.826317 
L 344.970393 176.961433 
L 345.968085 175.453506 
L 346.468022 174.570279 
L 348.212404 171.764533 
L 348.588976 171.18849 
L 349.836235 168.696812 
L 350.711068 167.376592 
L 351.586393 165.661415 
L 353.582991 161.830122 
L 354.458353 160.21919 
L 354.832476 159.765648 
L 355.328713 158.561578 
L 355.828628 157.401882 
L 357.573553 154.06978 
L 358.324039 152.369964 
L 358.823425 151.306681 
L 359.200822 151.033562 
L 359.449176 150.420564 
L 360.072865 148.53592 
L 360.447479 147.887987 
L 360.949737 147.307192 
L 361.943217 144.763636 
L 362.191347 144.432382 
L 362.567465 143.476676 
L 363.192114 141.943878 
L 363.883511 140.612277 
L 364.32389 139.65179 
L 364.822174 138.142145 
L 365.321084 137.545656 
L 365.949067 135.883272 
L 366.32377 135.126713 
L 366.697953 134.908164 
L 366.822486 134.656161 
L 367.690755 131.18214 
L 367.942488 130.92537 
L 368.192404 130.993746 
L 368.442901 130.71299 
L 368.694216 130.053069 
L 369.690577 126.664272 
L 369.940106 126.485462 
L 370.18892 126.692229 
L 370.316372 126.684534 
L 370.56605 126.072536 
L 371.43932 122.303964 
L 371.689981 122.128513 
L 372.062079 122.200178 
L 372.188548 122.13633 
L 372.314332 121.937071 
L 372.68722 120.451604 
L 373.31239 117.985292 
L 374.309822 116.648901 
L 374.684257 115.214838 
L 374.931568 114.340089 
L 375.435331 113.792561 
L 376.67997 110.500591 
L 377.304828 109.245461 
L 377.930087 107.045 
L 378.305549 106.931338 
L 378.430158 106.792815 
L 378.805248 105.633222 
L 379.678727 102.943658 
L 380.053653 101.610816 
L 380.302676 101.289698 
L 381.052574 100.597179 
L 381.302624 99.752592 
L 381.924877 96.77825 
L 382.174778 96.696202 
L 382.300592 96.706088 
L 382.54774 96.281254 
L 383.051621 95.01831 
L 383.923775 92.100313 
L 384.170967 91.977419 
L 384.422819 91.821808 
L 384.671782 91.141444 
L 385.548774 88.372451 
L 385.921572 87.816255 
L 386.171161 87.529816 
L 386.419826 86.988812 
L 386.794932 85.471792 
L 387.166166 83.776325 
L 387.417928 83.407234 
L 387.918833 83.198637 
L 388.292539 82.06474 
L 389.041483 78.664708 
L 389.289777 78.211679 
L 389.666639 78.494383 
L 390.042607 77.633854 
L 390.918557 74.189996 
L 391.165541 73.169408 
L 391.291906 73.010135 
L 391.666013 73.222217 
L 391.791813 73.09646 
L 392.538153 70.633557 
L 392.78795 70.174306 
L 393.537326 68.055354 
L 394.038216 67.367952 
L 394.284649 66.644727 
L 395.036065 63.76238 
L 395.536671 62.654676 
L 395.907698 62.131925 
L 396.907288 59.601695 
L 397.156475 59.07565 
L 397.529035 57.847746 
L 398.155649 55.651567 
L 398.404449 55.578796 
L 398.486796 55.51517 
L 398.472506 55.599775 
L 398.031621 57.14386 
L 397.532473 58.833541 
L 397.155612 60.716053 
L 396.783871 62.330756 
L 396.282699 64.132938 
L 395.660654 66.433569 
L 395.288139 67.613239 
L 392.912856 76.512477 
L 392.416 78.519838 
L 391.911881 79.848297 
L 391.291519 82.800482 
L 390.915654 83.320912 
L 390.541264 84.900322 
L 390.041848 86.748775 
L 388.794008 90.961291 
L 388.542083 91.466394 
L 388.293372 92.386989 
L 387.795758 94.550994 
L 387.168027 96.252077 
L 385.799583 101.246176 
L 385.549846 101.185923 
L 385.423898 101.276396 
L 385.171287 102.052858 
L 384.425528 105.699156 
L 384.048488 106.611379 
L 383.301448 108.101614 
L 382.925733 109.8204 
L 382.425096 112.285914 
L 382.177115 112.770197 
L 381.676509 112.982461 
L 381.428379 113.829491 
L 380.931657 115.995268 
L 379.801713 119.201718 
L 379.432115 119.614218 
L 379.055283 120.82344 
L 378.058045 124.43842 
L 377.557885 125.273794 
L 377.306897 125.509311 
L 376.933131 126.384978 
L 375.435152 131.163334 
L 375.185013 131.233479 
L 374.935275 131.643659 
L 373.687465 135.510639 
L 373.436209 135.372428 
L 373.187633 135.83987 
L 372.436857 138.695298 
L 372.189545 139.088626 
L 371.81383 140.369338 
L 371.440169 141.32076 
L 370.944222 141.705911 
L 370.314184 143.006824 
L 370.066218 143.684392 
L 369.3183 146.052053 
L 369.069396 146.291786 
L 368.693546 146.936749 
L 367.446808 149.760433 
L 367.195731 149.81916 
L 366.946276 150.163891 
L 366.448155 151.778232 
L 365.950347 153.186287 
L 365.321858 154.252356 
L 364.94778 154.677978 
L 363.701548 157.065235 
L 363.327336 157.626811 
L 362.450002 159.993367 
L 362.074212 160.226507 
L 361.081498 161.996514 
L 358.705716 166.396563 
L 358.330038 166.327703 
L 358.080672 166.67738 
L 356.960522 168.972883 
L 356.088227 170.309942 
L 355.7117 170.941661 
L 354.962592 171.813966 
L 352.960887 174.941687 
L 352.586839 175.463986 
L 351.966574 175.946261 
L 351.217458 177.017336 
L 350.466578 177.972849 
L 349.71729 179.093556 
L 348.339625 180.520312 
L 345.471237 183.788214 
L 344.845777 184.493141 
L 342.972544 186.423982 
L 340.973102 188.42335 
L 340.22837 189.066409 
L 339.231526 190.104248 
L 338.604137 190.59788 
L 337.231317 191.946409 
L 335.23236 193.745074 
L 334.235701 194.609501 
L 333.482276 195.269208 
L 332.737879 195.90137 
L 328.615608 199.131409 
L 326.496224 200.54675 
L 324.248139 201.804761 
L 321.998923 202.780194 
L 320.126322 203.373729 
L 318.004929 203.819157 
L 315.128146 204.138756 
L 312.509496 204.254198 
L 282.927861 204.3547 
L 281.303208 204.366934 
L 279.177599 204.366298 
L 277.304545 204.375043 
L 274.686836 204.380446 
L 273.063876 204.394347 
L 271.191864 204.394826 
L 266.823867 204.421416 
L 265.19842 204.420815 
L 263.830237 204.43526 
L 262.203965 204.435675 
L 260.702966 204.44312 
L 259.084613 204.461535 
L 257.20989 204.464286 
L 255.586294 204.484241 
L 254.214192 204.484255 
L 252.842514 204.502937 
L 251.220561 204.508153 
L 249.846871 204.532269 
L 248.225315 204.538721 
L 246.847785 204.559887 
L 245.479231 204.563003 
L 244.11044 204.586458 
L 242.731269 204.592121 
L 241.362477 204.619177 
L 239.738748 204.633105 
L 238.365561 204.664317 
L 236.991157 204.679021 
L 235.367825 204.720267 
L 233.999059 204.743016 
L 232.374429 204.798521 
L 231.186481 204.836118 
L 227.504009 205.09599 
L 223.761373 205.94692 
L 221.764001 206.845959 
L 220.270412 207.750795 
L 218.023401 209.329794 
L 216.207952 210.684173 
L 213.89571 212.502637 
L 212.524851 213.499293 
L 211.647479 214.161806 
L 211.024594 214.570788 
L 209.905895 215.502704 
L 209.526823 215.697015 
L 207.903836 217.085468 
L 207.278567 217.656464 
L 206.405589 218.464792 
L 204.534784 220.337688 
L 199.919379 225.664553 
L 199.416867 226.119583 
L 198.169295 227.421943 
L 197.170252 228.051108 
L 195.423949 228.966817 
L 194.923979 229.05085 
L 193.675536 229.51106 
L 192.924307 229.375999 
L 192.425345 229.458143 
L 191.925609 229.36162 
L 191.425613 229.28263 
L 190.30646 228.927989 
L 189.804056 228.768348 
L 187.681491 227.231182 
L 187.306367 226.919917 
L 186.681227 226.327985 
L 183.561933 223.539036 
L 183.062968 223.128547 
L 182.309989 222.462541 
L 181.812821 222.221609 
L 178.564989 220.385718 
L 173.574095 219.029794 
L 173.199095 218.935788 
L 172.69825 218.843283 
L 172.325273 218.792405 
L 171.951314 218.82994 
L 171.326621 218.635643 
L 170.327008 218.625964 
L 169.205049 218.477599 
L 168.330052 218.443863 
L 167.954351 218.541967 
L 167.206143 218.308457 
L 165.960298 218.348058 
L 165.209247 218.258609 
L 161.589778 218.157567 
L 161.216698 218.122947 
L 160.71499 218.002884 
L 160.340041 218.064482 
L 160.091829 218.092016 
L 159.591833 218.048206 
L 159.21512 218.0655 
L 157.965189 217.943693 
L 156.972267 218.070403 
L 155.973384 217.973415 
L 155.472249 218.177295 
L 153.972855 218.126898 
L 153.472628 218.373946 
L 151.603124 218.516816 
L 151.102547 218.624134 
L 150.477958 218.666036 
L 149.602432 218.775635 
L 149.105934 218.769658 
L 148.229255 219.103601 
L 147.233862 218.940368 
L 146.483749 219.159644 
L 146.107363 219.185422 
L 145.107073 218.964109 
L 144.610694 219.171432 
L 144.108785 219.010645 
L 143.484143 218.981013 
L 141.864139 219.005174 
L 141.48986 219.04066 
L 140.987072 218.830428 
L 140.612458 218.714975 
L 139.74192 218.918365 
L 138.49085 218.634935 
L 137.496328 218.70678 
L 136.874135 218.338003 
L 136.24886 218.423051 
L 135.498911 218.446266 
L 134.875184 218.185582 
L 134.499871 218.271038 
L 134.250394 218.295729 
L 133.749378 218.152943 
L 132.626236 217.937333 
L 132.252552 217.901933 
L 131.505148 217.859977 
L 130.002882 217.603915 
L 129.756769 217.583437 
L 129.254875 217.422522 
L 128.755169 217.501848 
L 127.881169 217.260703 
L 127.258239 217.258622 
L 125.508029 217.098616 
L 124.886513 217.23262 
L 124.639373 217.218515 
L 124.138364 217.021417 
L 123.139005 217.074656 
L 122.890391 217.11316 
L 122.391504 217.40208 
L 120.766155 217.411593 
L 120.268287 217.741737 
L 119.770375 217.95336 
L 119.390186 218.028782 
L 119.017694 218.049298 
L 118.640125 218.394644 
L 118.144476 218.796004 
L 117.024348 219.33952 
L 116.522201 219.902521 
L 114.650531 221.745467 
L 114.274101 222.197594 
L 113.774975 222.653221 
L 112.032193 224.967639 
L 110.657661 226.634199 
L 108.406003 229.673187 
L 108.035498 230.218919 
L 107.035059 231.728691 
L 106.035736 232.992789 
L 105.289515 234.073911 
L 104.790874 234.591491 
L 104.288615 235.328836 
L 103.792072 236.072863 
L 100.046618 241.245691 
L 99.66937 241.919443 
L 98.797692 242.512754 
L 98.173832 243.98124 
L 97.802597 244.221482 
L 95.551162 247.429301 
L 95.303851 247.488692 
L 95.052387 247.765097 
L 94.302936 249.625725 
L 93.80352 250.116406 
L 93.556611 250.031735 
L 93.307364 250.325071 
L 92.432233 252.363126 
L 91.932282 252.290936 
L 91.433714 253.543965 
L 90.934299 254.576578 
L 90.437027 255.188304 
L 90.061505 255.663502 
L 88.439349 258.349073 
L 87.817096 259.757831 
L 87.312575 260.032458 
L 86.9407 260.766178 
L 86.316006 262.221857 
L 85.317011 263.242075 
L 84.568364 265.146249 
L 84.320814 265.586844 
L 83.695763 266.762205 
L 83.323263 267.149858 
L 82.564508 268.721556 
L 81.941244 270.086142 
L 81.315478 270.717981 
L 80.815958 272.504658 
L 80.566161 272.670519 
L 80.318924 272.765145 
L 80.064051 273.232585 
L 79.567955 274.587648 
L 78.821302 275.479919 
L 78.071226 277.843489 
L 77.821712 278.171682 
L 77.320346 278.244938 
L 77.071561 278.834166 
L 76.571803 280.594952 
L 76.198008 281.202555 
L 75.451415 282.128767 
L 74.201193 285.259948 
L 73.954969 285.394495 
L 73.839411 285.453284 
L 73.847985 285.393939 
L 74.03821 284.837255 
L 74.535943 284.322323 
L 74.910393 283.12207 
L 75.53805 281.194864 
L 75.91183 280.711861 
L 76.160183 280.436413 
L 76.534693 279.455933 
L 77.284724 276.657769 
L 77.657373 276.205772 
L 78.162148 275.656411 
L 78.534261 274.507864 
L 79.280244 272.217672 
L 80.153201 271.016443 
L 80.404472 270.423371 
L 81.281047 267.955228 
L 81.779168 266.970408 
L 83.528388 263.289862 
L 84.14808 261.660699 
L 84.525448 260.857859 
L 84.899347 260.744744 
L 85.151139 260.285789 
L 86.148527 257.664906 
L 86.396195 257.53786 
L 87.396902 255.598326 
L 88.022058 253.81257 
L 88.395883 253.095448 
L 88.770362 253.140747 
L 89.01949 252.685761 
L 89.643008 251.099565 
L 89.890795 250.750744 
L 90.516412 249.3704 
L 92.014555 246.887298 
L 92.515921 245.624105 
L 93.513323 244.512189 
L 94.261539 242.838943 
L 94.385016 242.810923 
L 94.634768 242.375715 
L 95.26296 241.086886 
L 95.887326 240.508216 
L 96.260988 239.698912 
L 96.882451 238.456781 
L 97.259283 237.794358 
L 98.13495 236.812533 
L 99.503498 234.255626 
L 100.255331 233.493572 
L 100.631597 232.592025 
L 101.003055 231.914643 
L 101.252808 231.746641 
L 101.50186 231.70348 
L 101.748948 231.424679 
L 102.381249 230.006367 
L 103.253507 228.917359 
L 103.875283 227.65233 
L 104.251401 227.277327 
L 104.626253 226.962136 
L 105.126562 226.193177 
L 106.000011 224.575447 
L 106.373181 224.410706 
L 106.747943 223.89764 
L 107.747385 222.267077 
L 108.620611 221.124813 
L 109.744914 219.442251 
L 110.367405 218.591369 
L 112.367151 215.660071 
L 114.111817 213.156313 
L 115.485723 211.133168 
L 116.109851 210.237932 
L 117.732841 207.868654 
L 118.481577 206.711954 
L 120.852358 203.233944 
L 122.722748 200.486117 
L 124.783273 197.557699 
L 126.974123 194.67915 
L 128.843061 192.621269 
L 129.469095 192.027369 
L 129.968406 191.589017 
L 131.468678 190.430513 
L 132.090164 190.154284 
L 132.464309 189.938606 
L 133.333694 189.802382 
L 133.832842 189.56417 
L 134.33548 189.632775 
L 135.086368 189.831538 
L 136.709454 190.537799 
L 137.45822 191.100727 
L 138.702152 192.195468 
L 139.455012 193.106814 
L 139.953349 193.413107 
L 141.204314 194.739901 
L 141.828807 195.216988 
L 142.204947 195.501346 
L 142.700544 195.958023 
L 143.948488 196.697989 
L 145.572334 197.538846 
L 146.446542 197.778436 
L 147.56926 198.133351 
L 150.068147 198.681038 
L 150.690154 198.771952 
L 151.687883 198.930044 
L 154.060056 199.176427 
L 159.677515 199.388282 
L 162.173537 200.004045 
L 162.795469 200.163155 
L 164.170031 200.457325 
L 164.795543 200.565795 
L 168.039803 200.74417 
L 173.534477 200.544372 
L 174.034027 200.498519 
L 175.409016 200.591505 
L 178.155308 201.339858 
L 179.028057 201.571958 
L 182.519438 202.025738 
L 183.145654 202.04498 
L 184.019267 202.084394 
L 184.765521 202.138031 
L 192.882314 202.395403 
L 193.758338 202.407783 
L 194.629301 202.439038 
L 195.257032 202.46708 
L 196.379043 202.474399 
L 197.503409 202.54052 
L 198.502877 202.548496 
L 200.625702 202.582329 
L 201.371581 202.596873 
L 202.371707 202.592932 
L 210.736319 202.836426 
L 211.733427 202.853457 
L 213.357822 202.836844 
L 214.354003 202.81743 
L 215.480965 202.789176 
L 216.597653 202.726941 
L 217.724827 202.663809 
L 219.849003 202.508662 
L 220.967943 202.433628 
L 222.094533 202.364362 
L 225.216642 202.257683 
L 227.087101 202.20164 
L 228.333375 202.170167 
L 229.959542 202.149874 
L 231.329023 202.116404 
L 242.356251 202.465957 
L 242.977759 202.500601 
L 243.60271 202.509725 
L 244.228561 202.566751 
L 244.853593 202.556593 
L 245.474917 202.595179 
L 246.349376 202.607721 
L 246.973242 202.637929 
L 247.847171 202.64166 
L 248.470666 202.675902 
L 249.100252 202.662779 
L 249.721256 202.702847 
L 250.591718 202.691551 
L 251.219821 202.724499 
L 252.09306 202.709157 
L 252.965351 202.750587 
L 253.59287 202.731551 
L 254.214408 202.758514 
L 254.836761 202.747779 
L 255.710534 202.781423 
L 256.58388 202.767759 
L 257.212409 202.792657 
L 257.833942 202.786754 
L 258.711581 202.806857 
L 259.579978 202.801255 
L 260.455656 202.827741 
L 261.33022 202.814401 
L 262.204151 202.848707 
L 263.076997 202.835009 
L 263.705178 202.857758 
L 264.57479 202.844888 
L 265.449041 202.879223 
L 266.199132 202.879127 
L 267.072107 202.870007 
L 267.94638 202.894205 
L 268.823967 202.874855 
L 269.445688 202.907821 
L 270.316097 202.892505 
L 271.192995 202.910737 
L 272.316297 202.905259 
L 273.444426 202.93485 
L 274.314675 202.916464 
L 275.19033 202.939081 
L 276.065235 202.93164 
L 276.939327 202.95007 
L 277.809944 202.938005 
L 278.683747 202.956139 
L 279.808058 202.948495 
L 280.682991 202.966968 
L 281.805196 202.957249 
L 282.682277 202.973127 
L 283.554193 202.962815 
L 284.426507 202.976844 
L 285.551219 202.968509 
L 286.424884 202.99017 
L 287.298199 202.974176 
L 288.423976 202.992109 
L 289.794354 202.983116 
L 290.795329 202.987236 
L 292.166799 203.002998 
L 293.042741 202.988936 
L 294.161224 203.002646 
L 295.286491 202.992729 
L 296.660211 203.002672 
L 297.782955 202.988987 
L 299.15416 202.995308 
L 300.528938 202.976317 
L 301.902629 202.976744 
L 303.275895 202.958502 
L 304.398204 202.964344 
L 305.774001 202.950481 
L 306.897344 202.949302 
L 308.51656 202.930284 
L 309.891873 202.928686 
L 311.263383 202.886933 
L 312.387962 202.862018 
L 314.00682 202.769418 
L 315.1341 202.688954 
L 317.009403 202.452877 
L 318.129746 202.256146 
L 322.498108 200.820347 
L 323.617625 200.275285 
L 327.746505 197.532834 
L 328.740655 196.688976 
L 330.489496 195.166024 
L 331.48762 194.257166 
L 331.866514 193.928388 
L 332.983426 192.647315 
L 333.734031 191.871704 
L 336.35405 188.778435 
L 339.601718 184.657739 
L 340.725977 183.189727 
L 341.222862 182.451565 
L 344.220785 177.954545 
L 344.594499 177.476452 
L 345.591395 175.621045 
L 346.342513 174.761466 
L 347.58742 172.587095 
L 347.963322 172.041513 
L 348.96356 170.045353 
L 349.337913 169.633889 
L 350.210253 168.167846 
L 350.709155 166.834599 
L 351.586497 165.619971 
L 352.210201 164.141287 
L 353.330917 162.729929 
L 354.455205 159.929162 
L 354.956518 159.298733 
L 357.699174 153.759303 
L 358.198031 152.292416 
L 358.574953 151.939605 
L 358.824623 151.588094 
L 359.448119 150.309103 
L 359.822777 149.557976 
L 360.947572 146.760519 
L 361.444888 145.920021 
L 362.441115 143.393297 
L 362.943046 142.941846 
L 363.318479 142.054053 
L 364.448037 138.879359 
L 365.071673 137.947286 
L 366.074807 135.498128 
L 366.449034 134.251602 
L 366.698474 134.249952 
L 366.821564 134.267839 
L 366.945457 134.140374 
L 367.19582 133.371056 
L 367.692244 131.330483 
L 368.190722 130.531984 
L 368.8161 129.472694 
L 369.316871 128.04229 
L 369.691872 127.09722 
L 370.065473 126.535154 
L 370.439462 125.610715 
L 370.939964 123.86061 
L 371.562425 122.846795 
L 372.060739 121.608085 
L 372.558726 120.740602 
L 373.18671 118.76096 
L 373.685039 117.394964 
L 374.433909 116.412958 
L 374.68387 115.448957 
L 375.056311 114.137781 
L 375.434408 113.39221 
L 375.685887 113.012741 
L 376.43059 111.326621 
L 377.055492 109.347154 
L 378.304656 106.857468 
L 378.929722 104.706521 
L 379.179787 104.283954 
L 381.550427 98.198204 
L 382.049158 96.419473 
L 382.300786 96.199033 
L 382.673792 95.746849 
L 382.926328 95.11831 
L 383.798318 92.465497 
L 385.046277 89.58394 
L 385.299676 88.983169 
L 386.172098 85.953758 
L 386.667688 85.708102 
L 386.79258 85.646449 
L 387.791292 83.501126 
L 388.291139 80.434099 
L 388.667926 78.590171 
L 388.7906 78.4547 
L 388.916295 78.510078 
L 389.415755 79.372798 
L 389.537565 79.458316 
L 389.790949 78.75738 
L 390.665768 74.091037 
L 390.913124 73.45694 
L 391.04065 73.47532 
L 391.537624 74.369966 
L 391.787272 73.691722 
L 392.535265 68.838468 
L 392.663907 68.666368 
L 393.412048 68.932846 
L 393.535153 68.964345 
L 393.784444 68.395753 
L 394.158879 66.303292 
L 394.535339 63.772517 
L 394.784749 63.407263 
L 395.035797 63.244815 
L 396.283279 60.857507 
L 396.656747 59.210257 
L 397.279773 57.686579 
L 397.658272 56.246588 
L 398.030936 55.531301 
L 398.280019 55.065147 
L 398.482971 54.463571 
L 398.154354 55.752347 
L 397.532086 58.347415 
L 396.533672 62.497596 
L 396.035462 64.538408 
L 395.660446 65.891952 
L 395.411512 66.219714 
L 395.285743 66.185596 
L 395.162757 66.281439 
L 394.910429 67.539198 
L 394.283249 72.449289 
L 394.036295 72.822169 
L 393.659449 72.445144 
L 393.411765 73.019537 
L 393.162087 74.077791 
L 392.285542 78.935269 
L 391.788091 79.513206 
L 391.164648 81.466719 
L 390.666363 83.953115 
L 390.167439 86.084952 
L 389.537877 87.609603 
L 389.166092 87.962762 
L 388.916994 88.999658 
L 388.167796 92.69631 
L 387.414966 95.247182 
L 386.543348 97.655134 
L 384.545283 104.08421 
L 383.672192 106.879694 
L 383.17416 109.230007 
L 382.923113 109.470043 
L 382.673941 109.51424 
L 382.423846 109.96056 
L 382.050378 111.476365 
L 381.425848 113.851654 
L 380.92679 115.32045 
L 379.427902 119.295427 
L 378.928918 121.162318 
L 378.68 121.433853 
L 378.429726 121.696179 
L 378.181313 122.420137 
L 377.555503 124.761116 
L 377.057159 125.742395 
L 376.432108 127.365575 
L 373.312405 135.231285 
L 372.934471 136.162808 
L 372.435666 137.956747 
L 371.937099 138.592983 
L 371.690174 139.009141 
L 371.31437 140.115505 
L 370.817232 141.564033 
L 370.315494 142.539752 
L 369.817492 143.323908 
L 369.068369 145.550855 
L 367.941818 147.454063 
L 367.443861 148.824336 
L 366.944713 149.888514 
L 366.447813 150.862095 
L 365.950809 152.053675 
L 365.697886 152.230656 
L 365.570732 152.360497 
L 365.195686 153.484015 
L 364.698384 154.854237 
L 364.449123 155.083028 
L 364.198731 155.128873 
L 363.948383 155.483988 
L 363.448863 156.703468 
L 362.698697 158.519992 
L 362.19818 159.017649 
L 361.825784 159.531302 
L 361.329688 160.674655 
L 360.829699 162.099134 
L 360.580296 162.369758 
L 359.955603 162.678535 
L 359.705954 163.33919 
L 359.204856 164.983804 
L 358.955588 165.17012 
L 358.58212 165.134592 
L 358.329904 165.370601 
L 357.956511 166.331486 
L 357.581822 167.230102 
L 356.210141 168.996205 
L 355.460787 170.48814 
L 354.834009 170.94813 
L 354.46206 171.699074 
L 353.961237 172.462594 
L 352.837351 174.128514 
L 352.461665 174.78697 
L 352.091264 175.16162 
L 351.465625 175.612088 
L 349.966723 177.784454 
L 349.465074 178.237366 
L 348.337161 179.729815 
L 347.590405 180.433221 
L 347.092768 181.097765 
L 346.21751 182.169397 
L 345.221552 183.278823 
L 344.593724 183.756924 
L 343.347567 185.224593 
L 342.597982 185.999021 
L 341.727302 186.880946 
L 341.101953 187.441964 
L 339.480348 189.076356 
L 338.602388 189.920646 
L 336.857202 191.588895 
L 334.487434 193.793281 
L 333.110408 195.028856 
L 331.114815 196.72809 
L 324.873004 201.193474 
L 321.125362 202.934871 
L 318.379074 203.683699 
L 314.505864 204.155693 
L 312.885814 204.237464 
L 310.012447 204.286926 
L 308.142444 204.3074 
L 306.268445 204.308031 
L 304.396239 204.320114 
L 302.526965 204.317773 
L 300.652884 204.331127 
L 299.027088 204.327432 
L 297.405375 204.339527 
L 295.78271 204.334997 
L 294.158578 204.346816 
L 292.288411 204.343224 
L 290.667171 204.354163 
L 289.292955 204.346357 
L 287.671741 204.355154 
L 286.049046 204.349174 
L 284.425398 204.361135 
L 282.803971 204.356804 
L 281.179973 204.369559 
L 279.804805 204.365062 
L 278.184834 204.379347 
L 276.562432 204.376046 
L 274.934724 204.390716 
L 273.314492 204.388225 
L 271.691295 204.402854 
L 270.19048 204.407993 
L 268.571469 204.40627 
L 267.196665 204.42228 
L 265.822628 204.418778 
L 264.698317 204.434773 
L 263.454 204.440513 
L 262.076657 204.437582 
L 260.702517 204.456165 
L 259.33084 204.452275 
L 257.955268 204.471693 
L 256.58383 204.469422 
L 255.21125 204.489518 
L 253.840393 204.488593 
L 252.467179 204.510181 
L 251.097223 204.51118 
L 249.969441 204.534989 
L 248.849815 204.537254 
L 247.725318 204.557867 
L 246.60463 204.552862 
L 245.478252 204.576815 
L 244.110202 204.579209 
L 242.983585 204.603978 
L 241.859484 204.607429 
L 240.735037 204.633815 
L 239.614775 204.640956 
L 238.24029 204.673012 
L 236.869619 204.685722 
L 235.74279 204.721136 
L 234.621601 204.735618 
L 233.248943 204.781158 
L 231.876576 204.817413 
L 227.628327 205.110712 
L 223.386353 206.217565 
L 220.641405 207.716868 
L 219.272852 208.702063 
L 218.522288 209.29506 
L 217.149656 210.371722 
L 214.271364 212.803625 
L 213.522333 213.40627 
L 206.779363 219.278573 
L 204.158972 222.085037 
L 203.286468 223.206294 
L 201.286981 225.771096 
L 200.791566 226.296628 
L 200.416677 226.500463 
L 199.166169 228.056189 
L 198.665693 228.439644 
L 197.79409 229.391106 
L 197.168849 229.600992 
L 196.295132 230.352093 
L 195.673571 230.511763 
L 194.548249 230.990213 
L 192.05133 230.937671 
L 191.553317 230.761948 
L 190.929587 230.665723 
L 190.554698 230.582017 
L 189.053146 229.664541 
L 188.680981 229.392083 
L 188.30697 229.248742 
L 187.180966 228.119991 
L 186.808381 228.019813 
L 185.43808 226.500867 
L 185.060277 226.123053 
L 184.31096 225.212473 
L 183.937187 224.987935 
L 183.562223 224.729306 
L 182.811496 223.90447 
L 182.185325 223.449292 
L 181.688134 223.122948 
L 180.192139 222.114438 
L 177.94348 221.146822 
L 177.567222 220.969453 
L 177.069105 220.695945 
L 176.569503 220.59592 
L 175.699805 220.3365 
L 175.195179 220.161765 
L 174.821273 220.149953 
L 174.198488 219.913699 
L 173.573798 219.894727 
L 172.698272 219.621243 
L 172.199281 219.568541 
L 170.955081 219.292063 
L 170.077166 219.218474 
L 169.70253 219.132384 
L 169.202824 219.141709 
L 167.954113 218.985862 
L 167.581762 219.157199 
L 166.460362 218.911627 
L 166.086961 218.915133 
L 165.712131 218.842149 
L 165.085778 218.924506 
L 164.590091 218.761024 
L 164.088316 218.776787 
L 163.463131 218.747332 
L 163.0874 218.833508 
L 162.21352 218.534112 
L 161.717178 218.687056 
L 160.591877 218.36839 
L 160.342073 218.372781 
L 159.967221 218.451163 
L 158.469926 218.226068 
L 154.222385 218.360531 
L 153.220971 218.487741 
L 152.350774 218.538192 
L 151.977969 218.606023 
L 151.227781 218.978647 
L 149.978542 219.054936 
L 149.228816 219.24188 
L 148.732005 219.370981 
L 147.978103 219.259832 
L 147.355374 219.561925 
L 145.610902 219.421334 
L 144.984564 219.550319 
L 143.611915 219.269773 
L 143.236132 219.409174 
L 142.861667 219.282134 
L 142.4866 219.142569 
L 141.242697 219.25102 
L 140.740356 219.038173 
L 139.991449 218.996398 
L 139.494526 219.171463 
L 138.24435 218.899015 
L 137.7455 219.020231 
L 137.123441 218.676257 
L 136.751514 218.540905 
L 135.875251 218.780282 
L 134.875021 218.507438 
L 134.626213 218.511152 
L 134.002509 218.354468 
L 133.501612 218.448729 
L 132.753866 218.190522 
L 132.378657 218.27597 
L 131.629779 218.046645 
L 131.12973 217.847193 
L 130.50718 218.00178 
L 129.00897 217.756769 
L 128.634267 217.638882 
L 128.262303 217.58878 
L 127.884786 217.589053 
L 127.387804 217.54131 
L 126.765447 217.586754 
L 126.135677 217.31288 
L 125.512822 217.671002 
L 124.640653 217.252507 
L 123.887503 217.531619 
L 123.141319 217.435479 
L 122.642581 217.456408 
L 122.143768 217.493445 
L 121.267848 217.585346 
L 120.893554 217.448921 
L 120.643995 217.663221 
L 120.270379 218.109195 
L 119.894217 218.080033 
L 119.269835 217.996535 
L 118.270513 218.711213 
L 117.398523 219.051692 
L 116.648446 219.813966 
L 116.147349 220.111247 
L 115.02536 221.215482 
L 114.401649 221.677062 
L 114.026521 222.194088 
L 113.4015 223.087299 
L 112.280807 224.260951 
L 111.528937 225.202181 
L 111.03293 225.740538 
L 109.535263 227.662587 
L 106.786914 231.17546 
L 106.412181 231.881246 
L 106.038877 232.141266 
L 105.790092 232.234423 
L 105.540087 232.539946 
L 104.416647 234.271144 
L 103.415478 235.30201 
L 102.421946 236.878052 
L 101.667077 237.609068 
L 101.045896 238.558693 
L 100.671625 239.025901 
L 100.047362 239.99684 
L 99.170817 240.815556 
L 98.049834 242.687329 
L 97.301306 243.363033 
L 97.051151 243.751011 
L 96.428005 244.874848 
L 95.551207 245.716054 
L 94.929178 246.847236 
L 94.427336 247.358835 
L 93.803356 248.445112 
L 93.307989 249.221756 
L 92.180858 250.594421 
L 91.435039 252.074511 
L 90.559595 253.206139 
L 89.560213 254.566835 
L 89.311012 255.012755 
L 88.937767 255.778072 
L 88.440897 256.917683 
L 88.191055 257.095876 
L 87.940231 257.227749 
L 87.441217 257.954245 
L 86.567411 259.79949 
L 86.317063 260.063485 
L 85.567389 261.081248 
L 85.318023 261.525092 
L 84.568512 263.468672 
L 84.068591 263.664548 
L 83.82119 263.96582 
L 83.572227 264.613312 
L 83.075014 266.181715 
L 82.071494 267.142527 
L 81.066931 269.782192 
L 80.816881 269.928887 
L 80.568066 269.847203 
L 80.444187 269.881148 
L 80.193795 270.421902 
L 79.689884 272.280734 
L 79.318009 273.021363 
L 78.44907 274.16783 
L 78.072327 275.177674 
L 77.695019 276.142467 
L 77.321328 276.549164 
L 77.073526 276.850984 
L 75.451474 280.159139 
L 75.075506 280.600696 
L 74.07727 283.416257 
L 73.841316 283.618204 
L 73.847047 283.545674 
L 74.289689 282.091592 
L 74.784966 280.948115 
L 75.285409 279.550617 
L 75.662345 279.456668 
L 75.912306 278.631364 
L 76.411141 276.324873 
L 76.786663 275.704759 
L 77.033171 275.586142 
L 77.409318 275.125114 
L 77.784631 274.141639 
L 78.533278 272.101441 
L 78.783537 271.595477 
L 79.904327 268.584256 
L 80.153975 268.584991 
L 80.404949 268.143801 
L 80.904126 266.893489 
L 81.279306 266.11953 
L 81.903627 264.585287 
L 82.401346 263.745646 
L 82.778044 263.021562 
L 83.525813 260.638212 
L 83.775938 260.751458 
L 83.895634 260.791381 
L 84.149405 260.479002 
L 84.774218 258.750688 
L 85.274869 257.389702 
L 85.772201 256.752123 
L 86.146413 256.147143 
L 86.646112 255.079731 
L 87.394312 253.298428 
L 87.773302 253.406487 
L 88.022995 252.894053 
L 88.767445 250.763563 
L 89.890527 248.906074 
L 90.141277 248.661212 
L 90.393441 248.276613 
L 90.764155 247.37177 
L 91.265104 246.297762 
L 91.640879 245.901687 
L 92.891755 243.68042 
L 93.264776 243.188743 
L 94.13766 241.366543 
L 94.511306 241.25568 
L 94.759793 240.860887 
L 95.886523 238.501408 
L 96.386772 237.952653 
L 96.883597 237.38302 
L 97.509631 236.172512 
L 98.133968 235.189345 
L 98.757605 234.332608 
L 104.251966 226.223004 
L 110.119036 218.217269 
L 110.494752 217.783216 
L 111.615899 216.152575 
L 112.990706 214.279301 
L 113.614477 213.457038 
L 114.738334 211.903718 
L 126.601437 195.43138 
L 129.844267 191.707648 
L 133.215494 189.223135 
L 133.587957 189.276764 
L 133.964089 189.288552 
L 134.712178 188.970269 
L 135.211214 189.060183 
L 136.210157 189.138284 
L 136.836987 189.484466 
L 138.452244 190.606411 
L 138.828949 190.909052 
L 141.331141 193.626682 
L 142.699852 194.890205 
L 144.075233 195.904956 
L 144.822808 196.305223 
L 148.065713 197.637828 
L 148.695148 197.764106 
L 149.070834 197.842188 
L 149.940464 198.180814 
L 150.69089 198.239693 
L 152.188326 198.497498 
L 153.938514 198.735569 
L 154.435623 198.802144 
L 156.434357 198.971042 
L 158.053789 198.958657 
L 159.679659 199.179128 
L 160.304568 199.242612 
L 160.802019 199.351491 
L 165.673175 200.581407 
L 171.912158 200.657593 
L 172.537052 200.551281 
L 175.787132 200.65694 
L 179.404923 201.699321 
L 180.026963 201.813567 
L 183.396832 202.180221 
L 184.021757 202.198386 
L 185.146395 202.274766 
L 185.894413 202.304624 
L 188.391045 202.424077 
L 188.766008 202.382468 
L 189.639141 202.473544 
L 190.142717 202.407716 
L 192.008515 202.434053 
L 192.88512 202.497555 
L 193.760586 202.485272 
L 194.883549 202.552395 
L 196.254542 202.553482 
L 197.006483 202.588157 
L 198.129547 202.668562 
L 199.003532 202.64892 
L 199.879373 202.691607 
L 200.50125 202.677046 
L 201.249644 202.710666 
L 202.12408 202.716044 
L 202.999095 202.732529 
L 204.122033 202.775526 
L 204.749261 202.761676 
L 205.372704 202.808039 
L 205.99305 202.80204 
L 206.617074 202.847723 
L 207.244648 202.845781 
L 208.118021 202.891623 
L 209.239637 202.895066 
L 209.867367 202.929021 
L 210.988211 202.924085 
L 212.113266 202.943556 
L 213.486323 202.909382 
L 214.612568 202.901384 
L 215.728593 202.836332 
L 216.603346 202.812344 
L 217.724481 202.717843 
L 218.599604 202.664079 
L 219.476261 202.587779 
L 220.348497 202.536658 
L 221.470829 202.434383 
L 222.34378 202.420095 
L 223.469496 202.346927 
L 224.342966 202.349805 
L 224.96761 202.311586 
L 226.086523 202.308564 
L 227.463654 202.253919 
L 228.462354 202.266206 
L 229.835013 202.24 
L 231.585309 202.20529 
L 233.705039 202.205245 
L 236.075606 202.241688 
L 236.363028 202.240582 
L 237.611553 202.298628 
L 245.728079 202.6456 
L 246.60283 202.639891 
L 247.473372 202.681851 
L 248.601287 202.68606 
L 249.34902 202.701075 
L 250.469385 202.737949 
L 251.347368 202.728978 
L 252.220824 202.757901 
L 253.092291 202.759193 
L 254.219385 202.784288 
L 255.339487 202.776777 
L 256.463351 202.812224 
L 257.587505 202.804736 
L 258.211423 202.826052 
L 258.839842 202.826691 
L 259.461218 202.841302 
L 260.083653 202.828091 
L 260.959836 202.868302 
L 261.833606 202.840988 
L 262.45726 202.87959 
L 263.332808 202.8626 
L 264.205812 202.894822 
L 265.077652 202.878661 
L 265.952297 202.907585 
L 266.827071 202.891856 
L 267.699437 202.922386 
L 268.326375 202.90575 
L 268.951196 202.929015 
L 269.821552 202.921457 
L 270.697543 202.941463 
L 271.318448 202.926765 
L 271.945066 202.955027 
L 272.81971 202.93777 
L 273.445963 202.961534 
L 274.314544 202.948702 
L 275.18927 202.972921 
L 276.065395 202.958312 
L 276.940198 202.984019 
L 277.812992 202.968247 
L 278.686158 202.990696 
L 279.559715 202.976031 
L 280.434069 202.996627 
L 281.307127 202.9879 
L 282.180156 203.000499 
L 283.306617 202.989454 
L 284.176389 203.007218 
L 285.302393 202.995958 
L 286.300904 203.003533 
L 287.423101 203.018381 
L 288.549488 203.008149 
L 289.920682 203.021298 
L 291.293949 203.01433 
L 292.417924 203.023769 
L 293.786234 203.01684 
L 295.288508 203.01839 
L 296.659363 203.02848 
L 298.034114 203.014627 
L 299.404329 203.017273 
L 301.030095 202.997994 
L 303.153222 202.989594 
L 305.024736 202.975502 
L 307.771589 202.961294 
L 310.516946 202.928437 
L 312.639806 202.868652 
L 317.384374 202.409563 
L 320.376916 201.671703 
L 322.873518 200.650333 
L 326.114778 198.722984 
L 328.119861 197.207752 
L 333.360585 192.295358 
L 334.487679 190.999819 
L 336.107982 189.137778 
L 340.103814 184.011644 
L 341.224157 182.353667 
L 342.101156 181.457301 
L 342.97241 179.828343 
L 343.596545 178.975899 
L 344.471438 177.74202 
L 345.097397 176.738638 
L 345.843492 175.502362 
L 346.346324 174.806484 
L 347.46602 172.875765 
L 347.841899 172.365338 
L 348.465216 171.345466 
L 349.089612 170.18351 
L 349.588894 168.928212 
L 350.213067 168.173448 
L 350.587011 167.727019 
L 351.214041 166.41755 
L 351.837604 165.000198 
L 353.084022 162.895987 
L 353.711395 161.429734 
L 354.583646 160.389129 
L 355.083553 159.205069 
L 355.956809 157.161417 
L 356.705076 155.739588 
L 357.079452 155.368821 
L 357.451907 154.720204 
L 358.57502 151.717207 
L 359.450054 150.623542 
L 359.947356 148.835633 
L 360.321493 147.722127 
L 360.572958 147.41284 
L 360.822643 147.454419 
L 361.199855 147.576565 
L 361.324135 147.345824 
L 361.698154 145.598791 
L 362.069582 144.087182 
L 362.320764 143.683382 
L 363.191727 142.639676 
L 363.567353 141.654676 
L 364.324768 139.598065 
L 365.826796 136.432764 
L 366.57449 134.308434 
L 366.945353 133.870175 
L 367.320175 133.486067 
L 367.693122 132.344666 
L 368.195947 130.667205 
L 368.570531 129.94654 
L 369.068473 128.5966 
L 369.569675 127.765256 
L 370.192463 126.379543 
L 370.568015 125.612602 
L 371.316454 123.481386 
L 371.814545 123.21241 
L 372.063672 122.546445 
L 372.813823 119.416607 
L 373.313149 119.215273 
L 373.562142 118.727197 
L 374.1877 116.857073 
L 374.812423 114.660898 
L 375.059943 114.497473 
L 375.308921 114.463166 
L 375.563467 113.929245 
L 376.061573 112.233717 
L 376.680044 110.555776 
L 377.18266 109.124151 
L 377.681347 108.733639 
L 378.058372 107.314404 
L 378.431155 106.155907 
L 379.928107 102.646546 
L 380.43111 101.409301 
L 380.805813 100.727756 
L 381.925874 97.606106 
L 382.300548 96.942462 
L 383.05049 94.492996 
L 383.300391 93.779108 
L 383.674782 93.490976 
L 384.047967 92.438448 
L 384.421047 91.192958 
L 384.670755 90.767529 
L 385.297712 89.180596 
L 385.670911 88.068992 
L 386.172039 85.867625 
L 386.298091 85.830378 
L 386.669564 86.200203 
L 386.919421 85.635696 
L 387.665478 82.432421 
L 388.042652 81.225807 
L 388.169449 81.19475 
L 388.667257 81.823843 
L 388.793354 81.651509 
L 389.043225 80.411695 
L 389.54145 77.007458 
L 389.790101 76.287039 
L 389.916659 76.18917 
L 390.043634 76.262121 
L 390.418114 76.723336 
L 390.542961 76.636529 
L 390.792133 76.047603 
L 391.042049 74.992461 
L 391.666996 71.425956 
L 391.789089 71.35563 
L 392.163137 71.575091 
L 392.411401 71.20362 
L 393.411215 67.749867 
L 394.036682 66.519276 
L 394.411505 65.262925 
L 394.785806 64.228726 
L 395.28805 63.498167 
L 395.784489 61.402048 
L 396.159207 60.142574 
L 396.4082 59.547547 
L 396.781593 59.288951 
L 397.157249 59.044206 
L 397.53094 57.695129 
L 398.482033 53.568 
L 398.281582 54.746839 
L 397.53033 59.27558 
L 396.904445 60.916661 
L 396.407843 61.837744 
L 396.158864 62.737269 
L 395.66058 66.289432 
L 395.287008 68.603069 
L 395.16307 68.685542 
L 394.534952 68.137636 
L 394.410641 68.248865 
L 394.160323 69.404124 
L 393.288467 76.407658 
L 393.163799 76.394106 
L 392.913883 75.818625 
L 392.66477 75.117366 
L 392.538242 75.216939 
L 392.288013 76.369687 
L 391.291831 82.643652 
L 390.915863 83.262304 
L 390.664785 83.454359 
L 390.418844 83.659235 
L 390.167111 84.442589 
L 389.292635 89.30257 
L 388.792684 90.275783 
L 388.541993 90.686148 
L 388.044349 92.259599 
L 386.667867 97.702078 
L 386.420437 97.77735 
L 386.170595 97.970318 
L 385.923165 98.724133 
L 384.799487 103.270449 
L 384.549154 103.544001 
L 384.4227 103.76627 
L 383.423541 107.212884 
L 383.0511 108.017734 
L 382.177085 111.165089 
L 381.425952 113.149551 
L 380.680357 115.679412 
L 379.678503 118.337226 
L 379.305914 118.88354 
L 378.933101 120.113465 
L 378.183829 123.340916 
L 378.057509 123.491824 
L 377.681243 123.434925 
L 377.43155 123.997236 
L 376.807347 126.440223 
L 376.061707 128.137094 
L 375.684919 129.372815 
L 375.309457 130.446823 
L 374.933399 130.503472 
L 374.684049 131.332619 
L 374.060129 133.928721 
L 373.563556 134.792418 
L 372.686728 135.992059 
L 371.936861 139.617233 
L 371.441256 139.59819 
L 370.440355 141.66452 
L 369.569645 144.39553 
L 369.194852 144.651806 
L 367.570166 148.24298 
L 367.195731 149.171572 
L 366.823692 150.056755 
L 366.446979 150.410038 
L 366.199966 150.943161 
L 365.446987 153.327552 
L 364.949298 153.823438 
L 363.947936 155.57104 
L 363.574186 156.64865 
L 362.823841 157.802136 
L 361.829357 159.850517 
L 361.33006 160.59853 
L 361.078417 160.750966 
L 360.705031 161.450812 
L 360.204127 162.558517 
L 359.581338 163.511953 
L 358.954508 164.744438 
L 357.331802 167.163073 
L 356.462781 168.657025 
L 355.835661 169.235937 
L 354.713301 171.134571 
L 353.713293 172.409909 
L 352.712981 174.152689 
L 352.340406 174.521415 
L 351.841943 174.849241 
L 351.341887 175.650243 
L 350.342729 177.053781 
L 349.844146 177.56664 
L 348.464695 179.350256 
L 347.589206 180.196797 
L 346.220897 181.908372 
L 345.221291 182.837661 
L 344.720216 183.442795 
L 343.973288 184.304093 
L 343.472413 184.638499 
L 341.727808 186.505718 
L 341.352971 186.798923 
L 339.604763 188.582333 
L 339.106173 189.041833 
L 338.229248 190.082337 
L 330.991263 196.538519 
L 328.742888 198.367458 
L 327.497266 199.308114 
L 325.248995 200.800762 
L 322.125756 202.434491 
L 320.750272 202.97415 
L 318.009001 203.713736 
L 314.758958 204.134683 
L 303.772765 204.324449 
L 301.899793 204.322819 
L 300.028406 204.334987 
L 298.405896 204.332284 
L 296.781299 204.344117 
L 295.158388 204.340377 
L 293.539849 204.35137 
L 291.666828 204.347229 
L 290.043969 204.357217 
L 288.422755 204.348112 
L 287.044907 204.359048 
L 285.424408 204.35301 
L 284.048681 204.365643 
L 282.428021 204.361079 
L 280.805408 204.374408 
L 279.182519 204.371027 
L 277.559775 204.385503 
L 275.937638 204.381769 
L 274.563147 204.39667 
L 273.192668 204.390962 
L 271.816141 204.406073 
L 270.193602 204.402004 
L 268.822326 204.419284 
L 267.447445 204.415095 
L 266.076506 204.431638 
L 264.702206 204.429151 
L 263.080147 204.446515 
L 261.706775 204.443748 
L 260.330994 204.461459 
L 258.960375 204.458028 
L 257.834418 204.476598 
L 256.464011 204.47453 
L 255.089316 204.494815 
L 253.969716 204.491108 
L 252.843469 204.511791 
L 251.472321 204.511125 
L 250.346975 204.535439 
L 249.223906 204.536949 
L 248.099197 204.556709 
L 246.728287 204.557674 
L 245.352318 204.582528 
L 243.983951 204.585695 
L 242.60952 204.613325 
L 241.234903 204.621325 
L 239.866747 204.65207 
L 238.491733 204.664673 
L 237.367022 204.693943 
L 236.241808 204.707471 
L 235.120407 204.742094 
L 233.746213 204.76574 
L 232.375912 204.818873 
L 231.247335 204.848765 
L 229.378228 204.963936 
L 228.003001 205.081413 
L 224.387389 205.868096 
L 223.511941 206.201654 
L 220.640506 207.794657 
L 219.272746 208.763117 
L 210.401389 216.096812 
L 209.778343 216.611783 
L 209.152864 217.095617 
L 208.280046 217.951828 
L 206.907414 219.254497 
L 204.66228 221.545241 
L 203.536324 222.868198 
L 199.793289 227.23634 
L 198.168581 228.714133 
L 197.795418 228.860372 
L 196.670471 229.716108 
L 195.5443 230.142561 
L 195.049119 230.297252 
L 194.549227 230.495511 
L 192.301685 230.5556 
L 191.923864 230.394494 
L 191.176448 230.095896 
L 189.92996 229.600248 
L 189.054467 228.843497 
L 188.680244 228.692877 
L 188.179876 228.102914 
L 187.806494 227.664783 
L 186.807715 226.828046 
L 186.431802 226.374278 
L 186.058744 225.888153 
L 185.558479 225.593526 
L 184.558669 224.366934 
L 184.059752 223.816684 
L 183.686538 223.518222 
L 183.308716 223.267582 
L 182.186303 222.252039 
L 181.686281 221.92178 
L 181.064665 221.429472 
L 180.3155 221.020117 
L 179.440198 220.519973 
L 178.692693 220.198452 
L 178.06836 219.999038 
L 177.693516 219.795198 
L 177.068096 219.657996 
L 176.567914 219.497208 
L 176.196017 219.407254 
L 175.823144 219.224201 
L 174.575521 218.987227 
L 173.574564 218.842979 
L 172.948977 218.717903 
L 172.575391 218.603924 
L 172.073876 218.635033 
L 171.577854 218.556944 
L 171.202414 218.589741 
L 170.449458 218.360768 
L 170.201469 218.459262 
L 169.578055 218.38077 
L 168.953845 218.246181 
L 168.580653 218.214049 
L 168.082421 218.26072 
L 167.204067 218.141833 
L 161.841779 217.803683 
L 160.714848 217.738614 
L 158.591044 217.660709 
L 158.342438 217.8241 
L 157.839918 217.71985 
L 157.217174 217.536187 
L 156.347901 217.904976 
L 155.97293 217.85717 
L 155.345021 217.745657 
L 154.971136 217.791918 
L 154.220725 218.305212 
L 153.72317 218.006932 
L 153.474876 217.96794 
L 153.097337 218.188393 
L 152.600653 218.430447 
L 152.103091 218.476196 
L 151.601948 218.455529 
L 150.72876 218.608712 
L 149.106738 218.768085 
L 148.732027 218.763841 
L 147.729251 219.060492 
L 146.609436 218.761585 
L 145.235887 218.843387 
L 143.862374 218.635959 
L 143.486614 218.623526 
L 142.987779 218.652583 
L 142.487865 218.50903 
L 142.117032 218.371196 
L 141.116221 218.614341 
L 140.241268 218.188277 
L 139.865575 218.298541 
L 139.49021 218.412859 
L 137.866379 217.982034 
L 137.618792 217.967117 
L 137.000008 218.097206 
L 135.624926 217.875954 
L 135.125815 218.010311 
L 134.254122 217.641639 
L 133.875147 217.770228 
L 133.127482 217.747871 
L 132.877886 217.730869 
L 132.379259 217.422136 
L 131.253304 217.315234 
L 130.630553 217.106502 
L 130.253669 217.237798 
L 130.004973 217.327985 
L 129.632041 217.188054 
L 129.005308 216.820747 
L 128.755228 216.810081 
L 128.133139 217.086091 
L 127.634483 216.838353 
L 127.261045 216.685097 
L 126.888024 216.854398 
L 126.509688 217.052672 
L 126.262154 216.949641 
L 125.761428 216.708265 
L 125.263836 216.672407 
L 124.763497 216.609875 
L 124.138149 216.809905 
L 123.140218 216.683738 
L 122.640542 216.754837 
L 122.266769 216.639153 
L 121.894164 216.699478 
L 121.015416 217.002746 
L 120.516626 216.960032 
L 119.768514 217.251476 
L 119.392151 217.52701 
L 118.767621 217.591315 
L 117.395806 218.49687 
L 117.022539 218.850528 
L 116.646668 219.004339 
L 115.275485 220.121699 
L 114.025643 221.575434 
L 112.777945 222.825352 
L 112.030154 223.815434 
L 110.282452 225.97684 
L 109.656731 226.584565 
L 108.905836 227.289439 
L 108.533112 227.913623 
L 108.160166 228.59862 
L 106.787346 230.111789 
L 106.409353 230.610081 
L 105.788008 231.170715 
L 105.288235 232.207827 
L 105.037441 232.301563 
L 104.790978 232.355631 
L 104.41169 232.82211 
L 103.538762 234.212568 
L 102.667814 235.076057 
L 102.167966 235.508589 
L 101.169448 237.061911 
L 99.29675 239.418113 
L 99.047251 239.480468 
L 98.796248 239.852027 
L 98.299288 240.881782 
L 97.801629 241.30698 
L 97.551862 241.568743 
L 96.674781 243.025491 
L 95.802939 243.937927 
L 95.303479 244.725975 
L 94.802217 245.659352 
L 94.302906 246.045294 
L 93.678912 246.915402 
L 93.054783 248.178263 
L 92.683564 248.631814 
L 92.305332 248.586306 
L 92.055461 248.963516 
L 91.183426 250.83162 
L 90.808723 251.316667 
L 90.43402 251.772192 
L 90.183225 251.991533 
L 89.93124 252.532998 
L 89.560318 253.2472 
L 89.060664 253.891458 
L 88.189626 255.307293 
L 87.567478 256.38029 
L 87.190765 257.057782 
L 86.938616 257.346569 
L 86.43993 258.147162 
L 86.315768 258.214086 
L 85.691133 259.470695 
L 85.317755 260.302401 
L 84.693984 260.893561 
L 83.944667 262.405712 
L 80.753989 268.044765 
L 80.318716 268.922763 
L 79.817275 269.470359 
L 79.318545 271.001854 
L 78.9446 271.915611 
L 78.57091 272.241299 
L 78.321723 272.358445 
L 77.945218 273.313044 
L 77.444537 274.799243 
L 76.948099 275.207039 
L 76.822076 275.261555 
L 76.572205 275.818976 
L 76.073786 277.215557 
L 75.824272 277.384961 
L 75.323472 278.706944 
L 75.071918 279.168399 
L 74.574929 279.952676 
L 73.954522 281.426177 
L 73.8356 281.623786 
L 73.914539 281.317757 
L 74.411826 279.854146 
L 74.66082 279.330845 
L 75.034228 278.409335 
L 75.537171 277.377577 
L 76.28631 275.23292 
L 76.785889 274.221246 
L 77.282923 272.973258 
L 77.658445 272.326519 
L 78.409221 270.735077 
L 78.783522 269.762591 
L 79.407397 267.659632 
L 79.530711 267.551094 
L 79.78018 267.727764 
L 79.905146 267.651699 
L 80.156193 267.016193 
L 80.904989 265.005175 
L 81.151155 264.732476 
L 82.027596 262.385207 
L 82.527041 261.688652 
L 84.273269 258.282456 
L 84.522843 257.697502 
L 85.151765 256.177301 
L 85.771754 255.087239 
L 86.771018 253.060829 
L 87.393672 252.004167 
L 87.77107 251.35413 
L 88.145118 250.819662 
L 89.017004 248.844718 
L 89.516122 248.400049 
L 91.765457 244.254692 
L 92.516084 242.96232 
L 93.014205 241.88337 
L 93.635475 241.149276 
L 94.26066 239.982356 
L 94.885607 238.888752 
L 97.763179 234.499816 
L 98.132688 233.912969 
L 98.504741 233.543753 
L 99.757299 231.675827 
L 100.255539 231.214857 
L 100.755193 230.259102 
L 101.255353 229.318483 
L 102.315469 228.2056 
L 103.254356 226.68567 
L 103.626737 226.337981 
L 108.121016 220.33412 
L 108.868681 219.338397 
L 111.365596 216.096539 
L 127.224992 195.180289 
L 129.094846 193.110047 
L 130.841922 191.415517 
L 131.593502 190.958161 
L 132.21539 190.559418 
L 132.591574 190.349465 
L 133.089018 190.006712 
L 134.46573 189.760779 
L 135.085758 189.78749 
L 135.711873 189.781715 
L 136.338078 190.02844 
L 137.70475 190.809069 
L 138.330337 191.35427 
L 139.081932 191.854117 
L 141.077295 193.899306 
L 143.075188 195.698986 
L 144.075292 196.44691 
L 144.823471 196.816071 
L 145.697321 197.363234 
L 146.446408 197.62293 
L 147.318912 197.994426 
L 148.692893 198.319697 
L 149.442716 198.53618 
L 150.93934 198.795217 
L 153.061143 199.113188 
L 153.687764 199.169292 
L 154.31126 199.220402 
L 154.935544 199.233001 
L 155.808636 199.312529 
L 157.179648 199.300808 
L 160.930103 199.678512 
L 161.679063 199.898691 
L 162.300921 200.044287 
L 162.922749 200.234054 
L 163.674009 200.40416 
L 164.673071 200.5533 
L 165.171475 200.660483 
L 170.290136 200.827589 
L 173.161791 200.674479 
L 174.034927 200.639706 
L 174.660786 200.658312 
L 176.906415 201.170301 
L 178.030629 201.60953 
L 179.462642 201.884193 
L 180.275915 202.035162 
L 180.776314 202.095485 
L 181.895939 202.197038 
L 182.520171 202.236723 
L 183.147269 202.258278 
L 184.021757 202.384942 
L 186.392191 202.426796 
L 187.016081 202.537016 
L 187.640816 202.493466 
L 200.502605 202.79826 
L 201.123525 202.793857 
L 202.122282 202.816842 
L 203.499333 202.84147 
L 204.370613 202.849983 
L 204.99676 202.872184 
L 205.867275 202.884199 
L 206.99066 202.976788 
L 208.116512 202.925146 
L 208.741332 202.990568 
L 209.363607 202.955077 
L 210.240057 202.977591 
L 211.609588 202.95869 
L 212.487227 202.995511 
L 213.358854 202.972005 
L 214.23305 202.966096 
L 215.106636 202.933217 
L 215.72992 202.927636 
L 216.849543 202.847145 
L 217.475396 202.821764 
L 218.098335 202.762424 
L 218.971472 202.727624 
L 220.096529 202.622078 
L 221.217823 202.572957 
L 222.095302 202.502357 
L 222.717526 202.499136 
L 223.590265 202.445013 
L 224.466951 202.431914 
L 225.340511 202.416861 
L 225.96382 202.408909 
L 226.586176 202.379393 
L 227.461166 202.393223 
L 228.587148 202.342874 
L 229.463039 202.360838 
L 230.582004 202.302641 
L 231.709204 202.319561 
L 232.831638 202.264662 
L 233.703848 202.309143 
L 234.32864 202.280067 
L 235.451498 202.314965 
L 236.201402 202.328873 
L 237.32545 202.338857 
L 238.076546 202.378623 
L 238.949391 202.419369 
L 239.823613 202.442872 
L 240.545296 202.487655 
L 240.583951 202.463544 
L 240.583951 202.463544 
" style="fill:none;stroke:#1f77b4;stroke-linecap:square;stroke-width:1.5;"/>
   </g>
   <g id="patch_3">
    <path d="M 57.6 307.584 
L 57.6 41.472 
" style="fill:none;stroke:#000000;stroke-linecap:square;stroke-linejoin:miter;stroke-width:0.8;"/>
   </g>
   <g id="patch_4">
    <path d="M 414.72 307.584 
L 414.72 41.472 
" style="fill:none;stroke:#000000;stroke-linecap:square;stroke-linejoin:miter;stroke-width:0.8;"/>
   </g>
   <g id="patch_5">
    <path d="M 57.6 307.584 
L 414.72 307.584 
" style="fill:none;stroke:#000000;stroke-linecap:square;stroke-linejoin:miter;stroke-width:0.8;"/>
   </g>
   <g id="patch_6">
    <path d="M 57.6 41.472 
L 414.72 41.472 
" style="fill:none;stroke:#000000;stroke-linecap:square;stroke-linejoin:miter;stroke-width:0.8;"/>
   </g>
  </g>
 </g>
 <defs>
  <clipPath id="p295eb6a271">
   <rect height="266.112" width="357.12" x="57.6" y="41.472"/>
  </clipPath>
 </defs>
</svg>
