<?xml version="1.0" encoding="utf-8" standalone="no"?>
<!DOCTYPE svg PUBLIC "-//W3C//DTD SVG 1.1//EN"
  "http://www.w3.org/Graphics/SVG/1.1/DTD/svg11.dtd">
<!-- Created with matplotlib (https://matplotlib.org/) -->
<svg height="345.6pt" version="1.1" viewBox="0 0 460.8 345.6" width="460.8pt" xmlns="http://www.w3.org/2000/svg" xmlns:xlink="http://www.w3.org/1999/xlink">
 <metadata>
  <rdf:RDF xmlns:cc="http://creativecommons.org/ns#" xmlns:dc="http://purl.org/dc/elements/1.1/" xmlns:rdf="http://www.w3.org/1999/02/22-rdf-syntax-ns#">
   <cc:Work>
    <dc:type rdf:resource="http://purl.org/dc/dcmitype/StillImage"/>
    <dc:date>2022-01-08T00:19:27.259349</dc:date>
    <dc:format>image/svg+xml</dc:format>
    <dc:creator>
     <cc:Agent>
      <dc:title>Matplotlib v3.3.4, https://matplotlib.org/</dc:title>
     </cc:Agent>
    </dc:creator>
   </cc:Work>
  </rdf:RDF>
 </metadata>
 <defs>
  <style type="text/css">*{stroke-linecap:butt;stroke-linejoin:round;}</style>
 </defs>
 <g id="figure_1">
  <g id="patch_1">
   <path d="M 0 345.6 
L 460.8 345.6 
L 460.8 0 
L 0 0 
z
" style="fill:#ffffff;"/>
  </g>
  <g id="axes_1">
   <g id="patch_2">
    <path d="M 57.6 307.584 
L 414.72 307.584 
L 414.72 41.472 
L 57.6 41.472 
z
" style="fill:#ffffff;"/>
   </g>
   <g id="matplotlib.axis_1">
    <g id="xtick_1">
     <g id="line2d_1">
      <path clip-path="url(#pda4a60d7ab)" d="M 111.263243 307.584 
L 111.263243 41.472 
" style="fill:none;stroke:#b0b0b0;stroke-linecap:square;stroke-width:0.8;"/>
     </g>
     <g id="line2d_2">
      <defs>
       <path d="M 0 0 
L 0 3.5 
" id="m5b96839dda" style="stroke:#000000;stroke-width:0.8;"/>
      </defs>
      <g>
       <use style="stroke:#000000;stroke-width:0.8;" x="111.263243" xlink:href="#m5b96839dda" y="307.584"/>
      </g>
     </g>
     <g id="text_1">
      <!-- −1.0 -->
      <g transform="translate(99.121837 322.182437)scale(0.1 -0.1)">
       <defs>
        <path d="M 10.59375 35.5 
L 73.1875 35.5 
L 73.1875 27.203125 
L 10.59375 27.203125 
z
" id="DejaVuSans-8722"/>
        <path d="M 12.40625 8.296875 
L 28.515625 8.296875 
L 28.515625 63.921875 
L 10.984375 60.40625 
L 10.984375 69.390625 
L 28.421875 72.90625 
L 38.28125 72.90625 
L 38.28125 8.296875 
L 54.390625 8.296875 
L 54.390625 0 
L 12.40625 0 
z
" id="DejaVuSans-49"/>
        <path d="M 10.6875 12.40625 
L 21 12.40625 
L 21 0 
L 10.6875 0 
z
" id="DejaVuSans-46"/>
        <path d="M 31.78125 66.40625 
Q 24.171875 66.40625 20.328125 58.90625 
Q 16.5 51.421875 16.5 36.375 
Q 16.5 21.390625 20.328125 13.890625 
Q 24.171875 6.390625 31.78125 6.390625 
Q 39.453125 6.390625 43.28125 13.890625 
Q 47.125 21.390625 47.125 36.375 
Q 47.125 51.421875 43.28125 58.90625 
Q 39.453125 66.40625 31.78125 66.40625 
z
M 31.78125 74.21875 
Q 44.046875 74.21875 50.515625 64.515625 
Q 56.984375 54.828125 56.984375 36.375 
Q 56.984375 17.96875 50.515625 8.265625 
Q 44.046875 -1.421875 31.78125 -1.421875 
Q 19.53125 -1.421875 13.0625 8.265625 
Q 6.59375 17.96875 6.59375 36.375 
Q 6.59375 54.828125 13.0625 64.515625 
Q 19.53125 74.21875 31.78125 74.21875 
z
" id="DejaVuSans-48"/>
       </defs>
       <use xlink:href="#DejaVuSans-8722"/>
       <use x="83.789062" xlink:href="#DejaVuSans-49"/>
       <use x="147.412109" xlink:href="#DejaVuSans-46"/>
       <use x="179.199219" xlink:href="#DejaVuSans-48"/>
      </g>
     </g>
    </g>
    <g id="xtick_2">
     <g id="line2d_3">
      <path clip-path="url(#pda4a60d7ab)" d="M 173.690907 307.584 
L 173.690907 41.472 
" style="fill:none;stroke:#b0b0b0;stroke-linecap:square;stroke-width:0.8;"/>
     </g>
     <g id="line2d_4">
      <g>
       <use style="stroke:#000000;stroke-width:0.8;" x="173.690907" xlink:href="#m5b96839dda" y="307.584"/>
      </g>
     </g>
     <g id="text_2">
      <!-- −0.5 -->
      <g transform="translate(161.549501 322.182437)scale(0.1 -0.1)">
       <defs>
        <path d="M 10.796875 72.90625 
L 49.515625 72.90625 
L 49.515625 64.59375 
L 19.828125 64.59375 
L 19.828125 46.734375 
Q 21.96875 47.46875 24.109375 47.828125 
Q 26.265625 48.1875 28.421875 48.1875 
Q 40.625 48.1875 47.75 41.5 
Q 54.890625 34.8125 54.890625 23.390625 
Q 54.890625 11.625 47.5625 5.09375 
Q 40.234375 -1.421875 26.90625 -1.421875 
Q 22.3125 -1.421875 17.546875 -0.640625 
Q 12.796875 0.140625 7.71875 1.703125 
L 7.71875 11.625 
Q 12.109375 9.234375 16.796875 8.0625 
Q 21.484375 6.890625 26.703125 6.890625 
Q 35.15625 6.890625 40.078125 11.328125 
Q 45.015625 15.765625 45.015625 23.390625 
Q 45.015625 31 40.078125 35.4375 
Q 35.15625 39.890625 26.703125 39.890625 
Q 22.75 39.890625 18.8125 39.015625 
Q 14.890625 38.140625 10.796875 36.28125 
z
" id="DejaVuSans-53"/>
       </defs>
       <use xlink:href="#DejaVuSans-8722"/>
       <use x="83.789062" xlink:href="#DejaVuSans-48"/>
       <use x="147.412109" xlink:href="#DejaVuSans-46"/>
       <use x="179.199219" xlink:href="#DejaVuSans-53"/>
      </g>
     </g>
    </g>
    <g id="xtick_3">
     <g id="line2d_5">
      <path clip-path="url(#pda4a60d7ab)" d="M 236.118571 307.584 
L 236.118571 41.472 
" style="fill:none;stroke:#b0b0b0;stroke-linecap:square;stroke-width:0.8;"/>
     </g>
     <g id="line2d_6">
      <g>
       <use style="stroke:#000000;stroke-width:0.8;" x="236.118571" xlink:href="#m5b96839dda" y="307.584"/>
      </g>
     </g>
     <g id="text_3">
      <!-- 0.0 -->
      <g transform="translate(228.167008 322.182437)scale(0.1 -0.1)">
       <use xlink:href="#DejaVuSans-48"/>
       <use x="63.623047" xlink:href="#DejaVuSans-46"/>
       <use x="95.410156" xlink:href="#DejaVuSans-48"/>
      </g>
     </g>
    </g>
    <g id="xtick_4">
     <g id="line2d_7">
      <path clip-path="url(#pda4a60d7ab)" d="M 298.546234 307.584 
L 298.546234 41.472 
" style="fill:none;stroke:#b0b0b0;stroke-linecap:square;stroke-width:0.8;"/>
     </g>
     <g id="line2d_8">
      <g>
       <use style="stroke:#000000;stroke-width:0.8;" x="298.546234" xlink:href="#m5b96839dda" y="307.584"/>
      </g>
     </g>
     <g id="text_4">
      <!-- 0.5 -->
      <g transform="translate(290.594672 322.182437)scale(0.1 -0.1)">
       <use xlink:href="#DejaVuSans-48"/>
       <use x="63.623047" xlink:href="#DejaVuSans-46"/>
       <use x="95.410156" xlink:href="#DejaVuSans-53"/>
      </g>
     </g>
    </g>
    <g id="xtick_5">
     <g id="line2d_9">
      <path clip-path="url(#pda4a60d7ab)" d="M 360.973898 307.584 
L 360.973898 41.472 
" style="fill:none;stroke:#b0b0b0;stroke-linecap:square;stroke-width:0.8;"/>
     </g>
     <g id="line2d_10">
      <g>
       <use style="stroke:#000000;stroke-width:0.8;" x="360.973898" xlink:href="#m5b96839dda" y="307.584"/>
      </g>
     </g>
     <g id="text_5">
      <!-- 1.0 -->
      <g transform="translate(353.022336 322.182437)scale(0.1 -0.1)">
       <use xlink:href="#DejaVuSans-49"/>
       <use x="63.623047" xlink:href="#DejaVuSans-46"/>
       <use x="95.410156" xlink:href="#DejaVuSans-48"/>
      </g>
     </g>
    </g>
    <g id="text_6">
     <!-- Voltage (E/V) -->
     <g transform="translate(203.649062 335.860562)scale(0.1 -0.1)">
      <defs>
       <path d="M 28.609375 0 
L 0.78125 72.90625 
L 11.078125 72.90625 
L 34.1875 11.53125 
L 57.328125 72.90625 
L 67.578125 72.90625 
L 39.796875 0 
z
" id="DejaVuSans-86"/>
       <path d="M 30.609375 48.390625 
Q 23.390625 48.390625 19.1875 42.75 
Q 14.984375 37.109375 14.984375 27.296875 
Q 14.984375 17.484375 19.15625 11.84375 
Q 23.34375 6.203125 30.609375 6.203125 
Q 37.796875 6.203125 41.984375 11.859375 
Q 46.1875 17.53125 46.1875 27.296875 
Q 46.1875 37.015625 41.984375 42.703125 
Q 37.796875 48.390625 30.609375 48.390625 
z
M 30.609375 56 
Q 42.328125 56 49.015625 48.375 
Q 55.71875 40.765625 55.71875 27.296875 
Q 55.71875 13.875 49.015625 6.21875 
Q 42.328125 -1.421875 30.609375 -1.421875 
Q 18.84375 -1.421875 12.171875 6.21875 
Q 5.515625 13.875 5.515625 27.296875 
Q 5.515625 40.765625 12.171875 48.375 
Q 18.84375 56 30.609375 56 
z
" id="DejaVuSans-111"/>
       <path d="M 9.421875 75.984375 
L 18.40625 75.984375 
L 18.40625 0 
L 9.421875 0 
z
" id="DejaVuSans-108"/>
       <path d="M 18.3125 70.21875 
L 18.3125 54.6875 
L 36.8125 54.6875 
L 36.8125 47.703125 
L 18.3125 47.703125 
L 18.3125 18.015625 
Q 18.3125 11.328125 20.140625 9.421875 
Q 21.96875 7.515625 27.59375 7.515625 
L 36.8125 7.515625 
L 36.8125 0 
L 27.59375 0 
Q 17.1875 0 13.234375 3.875 
Q 9.28125 7.765625 9.28125 18.015625 
L 9.28125 47.703125 
L 2.6875 47.703125 
L 2.6875 54.6875 
L 9.28125 54.6875 
L 9.28125 70.21875 
z
" id="DejaVuSans-116"/>
       <path d="M 34.28125 27.484375 
Q 23.390625 27.484375 19.1875 25 
Q 14.984375 22.515625 14.984375 16.5 
Q 14.984375 11.71875 18.140625 8.90625 
Q 21.296875 6.109375 26.703125 6.109375 
Q 34.1875 6.109375 38.703125 11.40625 
Q 43.21875 16.703125 43.21875 25.484375 
L 43.21875 27.484375 
z
M 52.203125 31.203125 
L 52.203125 0 
L 43.21875 0 
L 43.21875 8.296875 
Q 40.140625 3.328125 35.546875 0.953125 
Q 30.953125 -1.421875 24.3125 -1.421875 
Q 15.921875 -1.421875 10.953125 3.296875 
Q 6 8.015625 6 15.921875 
Q 6 25.140625 12.171875 29.828125 
Q 18.359375 34.515625 30.609375 34.515625 
L 43.21875 34.515625 
L 43.21875 35.40625 
Q 43.21875 41.609375 39.140625 45 
Q 35.0625 48.390625 27.6875 48.390625 
Q 23 48.390625 18.546875 47.265625 
Q 14.109375 46.140625 10.015625 43.890625 
L 10.015625 52.203125 
Q 14.9375 54.109375 19.578125 55.046875 
Q 24.21875 56 28.609375 56 
Q 40.484375 56 46.34375 49.84375 
Q 52.203125 43.703125 52.203125 31.203125 
z
" id="DejaVuSans-97"/>
       <path d="M 45.40625 27.984375 
Q 45.40625 37.75 41.375 43.109375 
Q 37.359375 48.484375 30.078125 48.484375 
Q 22.859375 48.484375 18.828125 43.109375 
Q 14.796875 37.75 14.796875 27.984375 
Q 14.796875 18.265625 18.828125 12.890625 
Q 22.859375 7.515625 30.078125 7.515625 
Q 37.359375 7.515625 41.375 12.890625 
Q 45.40625 18.265625 45.40625 27.984375 
z
M 54.390625 6.78125 
Q 54.390625 -7.171875 48.1875 -13.984375 
Q 42 -20.796875 29.203125 -20.796875 
Q 24.46875 -20.796875 20.265625 -20.09375 
Q 16.0625 -19.390625 12.109375 -17.921875 
L 12.109375 -9.1875 
Q 16.0625 -11.328125 19.921875 -12.34375 
Q 23.78125 -13.375 27.78125 -13.375 
Q 36.625 -13.375 41.015625 -8.765625 
Q 45.40625 -4.15625 45.40625 5.171875 
L 45.40625 9.625 
Q 42.625 4.78125 38.28125 2.390625 
Q 33.9375 0 27.875 0 
Q 17.828125 0 11.671875 7.65625 
Q 5.515625 15.328125 5.515625 27.984375 
Q 5.515625 40.671875 11.671875 48.328125 
Q 17.828125 56 27.875 56 
Q 33.9375 56 38.28125 53.609375 
Q 42.625 51.21875 45.40625 46.390625 
L 45.40625 54.6875 
L 54.390625 54.6875 
z
" id="DejaVuSans-103"/>
       <path d="M 56.203125 29.59375 
L 56.203125 25.203125 
L 14.890625 25.203125 
Q 15.484375 15.921875 20.484375 11.0625 
Q 25.484375 6.203125 34.421875 6.203125 
Q 39.59375 6.203125 44.453125 7.46875 
Q 49.3125 8.734375 54.109375 11.28125 
L 54.109375 2.78125 
Q 49.265625 0.734375 44.1875 -0.34375 
Q 39.109375 -1.421875 33.890625 -1.421875 
Q 20.796875 -1.421875 13.15625 6.1875 
Q 5.515625 13.8125 5.515625 26.8125 
Q 5.515625 40.234375 12.765625 48.109375 
Q 20.015625 56 32.328125 56 
Q 43.359375 56 49.78125 48.890625 
Q 56.203125 41.796875 56.203125 29.59375 
z
M 47.21875 32.234375 
Q 47.125 39.59375 43.09375 43.984375 
Q 39.0625 48.390625 32.421875 48.390625 
Q 24.90625 48.390625 20.390625 44.140625 
Q 15.875 39.890625 15.1875 32.171875 
z
" id="DejaVuSans-101"/>
       <path id="DejaVuSans-32"/>
       <path d="M 31 75.875 
Q 24.46875 64.65625 21.28125 53.65625 
Q 18.109375 42.671875 18.109375 31.390625 
Q 18.109375 20.125 21.3125 9.0625 
Q 24.515625 -2 31 -13.1875 
L 23.1875 -13.1875 
Q 15.875 -1.703125 12.234375 9.375 
Q 8.59375 20.453125 8.59375 31.390625 
Q 8.59375 42.28125 12.203125 53.3125 
Q 15.828125 64.359375 23.1875 75.875 
z
" id="DejaVuSans-40"/>
       <path d="M 9.8125 72.90625 
L 55.90625 72.90625 
L 55.90625 64.59375 
L 19.671875 64.59375 
L 19.671875 43.015625 
L 54.390625 43.015625 
L 54.390625 34.71875 
L 19.671875 34.71875 
L 19.671875 8.296875 
L 56.78125 8.296875 
L 56.78125 0 
L 9.8125 0 
z
" id="DejaVuSans-69"/>
       <path d="M 25.390625 72.90625 
L 33.6875 72.90625 
L 8.296875 -9.28125 
L 0 -9.28125 
z
" id="DejaVuSans-47"/>
       <path d="M 8.015625 75.875 
L 15.828125 75.875 
Q 23.140625 64.359375 26.78125 53.3125 
Q 30.421875 42.28125 30.421875 31.390625 
Q 30.421875 20.453125 26.78125 9.375 
Q 23.140625 -1.703125 15.828125 -13.1875 
L 8.015625 -13.1875 
Q 14.5 -2 17.703125 9.0625 
Q 20.90625 20.125 20.90625 31.390625 
Q 20.90625 42.671875 17.703125 53.65625 
Q 14.5 64.65625 8.015625 75.875 
z
" id="DejaVuSans-41"/>
      </defs>
      <use xlink:href="#DejaVuSans-86"/>
      <use x="60.658203" xlink:href="#DejaVuSans-111"/>
      <use x="121.839844" xlink:href="#DejaVuSans-108"/>
      <use x="149.623047" xlink:href="#DejaVuSans-116"/>
      <use x="188.832031" xlink:href="#DejaVuSans-97"/>
      <use x="250.111328" xlink:href="#DejaVuSans-103"/>
      <use x="313.587891" xlink:href="#DejaVuSans-101"/>
      <use x="375.111328" xlink:href="#DejaVuSans-32"/>
      <use x="406.898438" xlink:href="#DejaVuSans-40"/>
      <use x="445.912109" xlink:href="#DejaVuSans-69"/>
      <use x="509.095703" xlink:href="#DejaVuSans-47"/>
      <use x="542.787109" xlink:href="#DejaVuSans-86"/>
      <use x="611.195312" xlink:href="#DejaVuSans-41"/>
     </g>
    </g>
   </g>
   <g id="matplotlib.axis_2">
    <g id="ytick_1">
     <g id="line2d_11">
      <path clip-path="url(#pda4a60d7ab)" d="M 57.6 285.545161 
L 414.72 285.545161 
" style="fill:none;stroke:#b0b0b0;stroke-linecap:square;stroke-width:0.8;"/>
     </g>
     <g id="line2d_12">
      <defs>
       <path d="M 0 0 
L -3.5 0 
" id="m94e642a7c9" style="stroke:#000000;stroke-width:0.8;"/>
      </defs>
      <g>
       <use style="stroke:#000000;stroke-width:0.8;" x="57.6" xlink:href="#m94e642a7c9" y="285.545161"/>
      </g>
     </g>
     <g id="text_7">
      <!-- −5 -->
      <g transform="translate(35.857813 289.34438)scale(0.1 -0.1)">
       <use xlink:href="#DejaVuSans-8722"/>
       <use x="83.789062" xlink:href="#DejaVuSans-53"/>
      </g>
     </g>
    </g>
    <g id="ytick_2">
     <g id="line2d_13">
      <path clip-path="url(#pda4a60d7ab)" d="M 57.6 247.589458 
L 414.72 247.589458 
" style="fill:none;stroke:#b0b0b0;stroke-linecap:square;stroke-width:0.8;"/>
     </g>
     <g id="line2d_14">
      <g>
       <use style="stroke:#000000;stroke-width:0.8;" x="57.6" xlink:href="#m94e642a7c9" y="247.589458"/>
      </g>
     </g>
     <g id="text_8">
      <!-- 0 -->
      <g transform="translate(44.2375 251.388677)scale(0.1 -0.1)">
       <use xlink:href="#DejaVuSans-48"/>
      </g>
     </g>
    </g>
    <g id="ytick_3">
     <g id="line2d_15">
      <path clip-path="url(#pda4a60d7ab)" d="M 57.6 209.633754 
L 414.72 209.633754 
" style="fill:none;stroke:#b0b0b0;stroke-linecap:square;stroke-width:0.8;"/>
     </g>
     <g id="line2d_16">
      <g>
       <use style="stroke:#000000;stroke-width:0.8;" x="57.6" xlink:href="#m94e642a7c9" y="209.633754"/>
      </g>
     </g>
     <g id="text_9">
      <!-- 5 -->
      <g transform="translate(44.2375 213.432973)scale(0.1 -0.1)">
       <use xlink:href="#DejaVuSans-53"/>
      </g>
     </g>
    </g>
    <g id="ytick_4">
     <g id="line2d_17">
      <path clip-path="url(#pda4a60d7ab)" d="M 57.6 171.678051 
L 414.72 171.678051 
" style="fill:none;stroke:#b0b0b0;stroke-linecap:square;stroke-width:0.8;"/>
     </g>
     <g id="line2d_18">
      <g>
       <use style="stroke:#000000;stroke-width:0.8;" x="57.6" xlink:href="#m94e642a7c9" y="171.678051"/>
      </g>
     </g>
     <g id="text_10">
      <!-- 10 -->
      <g transform="translate(37.875 175.47727)scale(0.1 -0.1)">
       <use xlink:href="#DejaVuSans-49"/>
       <use x="63.623047" xlink:href="#DejaVuSans-48"/>
      </g>
     </g>
    </g>
    <g id="ytick_5">
     <g id="line2d_19">
      <path clip-path="url(#pda4a60d7ab)" d="M 57.6 133.722348 
L 414.72 133.722348 
" style="fill:none;stroke:#b0b0b0;stroke-linecap:square;stroke-width:0.8;"/>
     </g>
     <g id="line2d_20">
      <g>
       <use style="stroke:#000000;stroke-width:0.8;" x="57.6" xlink:href="#m94e642a7c9" y="133.722348"/>
      </g>
     </g>
     <g id="text_11">
      <!-- 15 -->
      <g transform="translate(37.875 137.521566)scale(0.1 -0.1)">
       <use xlink:href="#DejaVuSans-49"/>
       <use x="63.623047" xlink:href="#DejaVuSans-53"/>
      </g>
     </g>
    </g>
    <g id="ytick_6">
     <g id="line2d_21">
      <path clip-path="url(#pda4a60d7ab)" d="M 57.6 95.766644 
L 414.72 95.766644 
" style="fill:none;stroke:#b0b0b0;stroke-linecap:square;stroke-width:0.8;"/>
     </g>
     <g id="line2d_22">
      <g>
       <use style="stroke:#000000;stroke-width:0.8;" x="57.6" xlink:href="#m94e642a7c9" y="95.766644"/>
      </g>
     </g>
     <g id="text_12">
      <!-- 20 -->
      <g transform="translate(37.875 99.565863)scale(0.1 -0.1)">
       <defs>
        <path d="M 19.1875 8.296875 
L 53.609375 8.296875 
L 53.609375 0 
L 7.328125 0 
L 7.328125 8.296875 
Q 12.9375 14.109375 22.625 23.890625 
Q 32.328125 33.6875 34.8125 36.53125 
Q 39.546875 41.84375 41.421875 45.53125 
Q 43.3125 49.21875 43.3125 52.78125 
Q 43.3125 58.59375 39.234375 62.25 
Q 35.15625 65.921875 28.609375 65.921875 
Q 23.96875 65.921875 18.8125 64.3125 
Q 13.671875 62.703125 7.8125 59.421875 
L 7.8125 69.390625 
Q 13.765625 71.78125 18.9375 73 
Q 24.125 74.21875 28.421875 74.21875 
Q 39.75 74.21875 46.484375 68.546875 
Q 53.21875 62.890625 53.21875 53.421875 
Q 53.21875 48.921875 51.53125 44.890625 
Q 49.859375 40.875 45.40625 35.40625 
Q 44.1875 33.984375 37.640625 27.21875 
Q 31.109375 20.453125 19.1875 8.296875 
z
" id="DejaVuSans-50"/>
       </defs>
       <use xlink:href="#DejaVuSans-50"/>
       <use x="63.623047" xlink:href="#DejaVuSans-48"/>
      </g>
     </g>
    </g>
    <g id="ytick_7">
     <g id="line2d_23">
      <path clip-path="url(#pda4a60d7ab)" d="M 57.6 57.810941 
L 414.72 57.810941 
" style="fill:none;stroke:#b0b0b0;stroke-linecap:square;stroke-width:0.8;"/>
     </g>
     <g id="line2d_24">
      <g>
       <use style="stroke:#000000;stroke-width:0.8;" x="57.6" xlink:href="#m94e642a7c9" y="57.810941"/>
      </g>
     </g>
     <g id="text_13">
      <!-- 25 -->
      <g transform="translate(37.875 61.61016)scale(0.1 -0.1)">
       <use xlink:href="#DejaVuSans-50"/>
       <use x="63.623047" xlink:href="#DejaVuSans-53"/>
      </g>
     </g>
    </g>
    <g id="text_14">
     <!-- Current (I/mA) -->
     <g transform="translate(29.778125 210.245187)rotate(-90)scale(0.1 -0.1)">
      <defs>
       <path d="M 64.40625 67.28125 
L 64.40625 56.890625 
Q 59.421875 61.53125 53.78125 63.8125 
Q 48.140625 66.109375 41.796875 66.109375 
Q 29.296875 66.109375 22.65625 58.46875 
Q 16.015625 50.828125 16.015625 36.375 
Q 16.015625 21.96875 22.65625 14.328125 
Q 29.296875 6.6875 41.796875 6.6875 
Q 48.140625 6.6875 53.78125 8.984375 
Q 59.421875 11.28125 64.40625 15.921875 
L 64.40625 5.609375 
Q 59.234375 2.09375 53.4375 0.328125 
Q 47.65625 -1.421875 41.21875 -1.421875 
Q 24.65625 -1.421875 15.125 8.703125 
Q 5.609375 18.84375 5.609375 36.375 
Q 5.609375 53.953125 15.125 64.078125 
Q 24.65625 74.21875 41.21875 74.21875 
Q 47.75 74.21875 53.53125 72.484375 
Q 59.328125 70.75 64.40625 67.28125 
z
" id="DejaVuSans-67"/>
       <path d="M 8.5 21.578125 
L 8.5 54.6875 
L 17.484375 54.6875 
L 17.484375 21.921875 
Q 17.484375 14.15625 20.5 10.265625 
Q 23.53125 6.390625 29.59375 6.390625 
Q 36.859375 6.390625 41.078125 11.03125 
Q 45.3125 15.671875 45.3125 23.6875 
L 45.3125 54.6875 
L 54.296875 54.6875 
L 54.296875 0 
L 45.3125 0 
L 45.3125 8.40625 
Q 42.046875 3.421875 37.71875 1 
Q 33.40625 -1.421875 27.6875 -1.421875 
Q 18.265625 -1.421875 13.375 4.4375 
Q 8.5 10.296875 8.5 21.578125 
z
M 31.109375 56 
z
" id="DejaVuSans-117"/>
       <path d="M 41.109375 46.296875 
Q 39.59375 47.171875 37.8125 47.578125 
Q 36.03125 48 33.890625 48 
Q 26.265625 48 22.1875 43.046875 
Q 18.109375 38.09375 18.109375 28.8125 
L 18.109375 0 
L 9.078125 0 
L 9.078125 54.6875 
L 18.109375 54.6875 
L 18.109375 46.1875 
Q 20.953125 51.171875 25.484375 53.578125 
Q 30.03125 56 36.53125 56 
Q 37.453125 56 38.578125 55.875 
Q 39.703125 55.765625 41.0625 55.515625 
z
" id="DejaVuSans-114"/>
       <path d="M 54.890625 33.015625 
L 54.890625 0 
L 45.90625 0 
L 45.90625 32.71875 
Q 45.90625 40.484375 42.875 44.328125 
Q 39.84375 48.1875 33.796875 48.1875 
Q 26.515625 48.1875 22.3125 43.546875 
Q 18.109375 38.921875 18.109375 30.90625 
L 18.109375 0 
L 9.078125 0 
L 9.078125 54.6875 
L 18.109375 54.6875 
L 18.109375 46.1875 
Q 21.34375 51.125 25.703125 53.5625 
Q 30.078125 56 35.796875 56 
Q 45.21875 56 50.046875 50.171875 
Q 54.890625 44.34375 54.890625 33.015625 
z
" id="DejaVuSans-110"/>
       <path d="M 9.8125 72.90625 
L 19.671875 72.90625 
L 19.671875 0 
L 9.8125 0 
z
" id="DejaVuSans-73"/>
       <path d="M 52 44.1875 
Q 55.375 50.25 60.0625 53.125 
Q 64.75 56 71.09375 56 
Q 79.640625 56 84.28125 50.015625 
Q 88.921875 44.046875 88.921875 33.015625 
L 88.921875 0 
L 79.890625 0 
L 79.890625 32.71875 
Q 79.890625 40.578125 77.09375 44.375 
Q 74.3125 48.1875 68.609375 48.1875 
Q 61.625 48.1875 57.5625 43.546875 
Q 53.515625 38.921875 53.515625 30.90625 
L 53.515625 0 
L 44.484375 0 
L 44.484375 32.71875 
Q 44.484375 40.625 41.703125 44.40625 
Q 38.921875 48.1875 33.109375 48.1875 
Q 26.21875 48.1875 22.15625 43.53125 
Q 18.109375 38.875 18.109375 30.90625 
L 18.109375 0 
L 9.078125 0 
L 9.078125 54.6875 
L 18.109375 54.6875 
L 18.109375 46.1875 
Q 21.1875 51.21875 25.484375 53.609375 
Q 29.78125 56 35.6875 56 
Q 41.65625 56 45.828125 52.96875 
Q 50 49.953125 52 44.1875 
z
" id="DejaVuSans-109"/>
       <path d="M 34.1875 63.1875 
L 20.796875 26.90625 
L 47.609375 26.90625 
z
M 28.609375 72.90625 
L 39.796875 72.90625 
L 67.578125 0 
L 57.328125 0 
L 50.6875 18.703125 
L 17.828125 18.703125 
L 11.1875 0 
L 0.78125 0 
z
" id="DejaVuSans-65"/>
      </defs>
      <use xlink:href="#DejaVuSans-67"/>
      <use x="69.824219" xlink:href="#DejaVuSans-117"/>
      <use x="133.203125" xlink:href="#DejaVuSans-114"/>
      <use x="172.566406" xlink:href="#DejaVuSans-114"/>
      <use x="211.429688" xlink:href="#DejaVuSans-101"/>
      <use x="272.953125" xlink:href="#DejaVuSans-110"/>
      <use x="336.332031" xlink:href="#DejaVuSans-116"/>
      <use x="375.541016" xlink:href="#DejaVuSans-32"/>
      <use x="407.328125" xlink:href="#DejaVuSans-40"/>
      <use x="446.341797" xlink:href="#DejaVuSans-73"/>
      <use x="475.833984" xlink:href="#DejaVuSans-47"/>
      <use x="509.525391" xlink:href="#DejaVuSans-109"/>
      <use x="606.9375" xlink:href="#DejaVuSans-65"/>
      <use x="675.345703" xlink:href="#DejaVuSans-41"/>
     </g>
    </g>
   </g>
   <g id="line2d_25">
    <path clip-path="url(#pda4a60d7ab)" d="M 237.723677 234.80197 
L 238.295871 238.902002 
L 238.793957 240.833452 
L 239.294371 241.993686 
L 239.795049 242.750427 
L 240.419182 243.360237 
L 241.41445 243.913773 
L 242.665366 244.256022 
L 244.785925 244.464343 
L 246.403315 244.503206 
L 265.999308 243.471956 
L 297.082561 243.343248 
L 299.206924 243.208687 
L 302.078135 243.012699 
L 308.320442 243.15246 
L 309.441104 243.254887 
L 316.181002 243.707347 
L 317.556648 243.687044 
L 318.428667 243.684788 
L 325.169845 242.862189 
L 326.542201 242.499016 
L 327.415954 242.241908 
L 328.2899 241.937048 
L 329.658186 241.413854 
L 333.718287 239.112636 
L 335.658644 237.68047 
L 339.277794 234.158472 
L 340.653209 232.468815 
L 341.524648 231.355388 
L 342.150948 230.490992 
L 343.521213 228.443562 
L 345.268763 225.672234 
L 348.015285 220.639825 
L 348.636792 219.512597 
L 349.13358 218.236982 
L 349.88853 216.49904 
L 351.382309 213.477758 
L 352.008379 211.83668 
L 352.505784 210.969817 
L 353.505797 208.43235 
L 354.252099 206.724436 
L 354.877097 205.156755 
L 355.501239 203.392638 
L 359.99278 191.317883 
L 361.241109 187.717278 
L 362.114974 185.124962 
L 363.234839 181.839099 
L 364.112261 179.16968 
L 364.734438 177.116216 
L 365.108977 176.137072 
L 365.981309 173.255282 
L 367.482277 168.620861 
L 368.105139 166.293303 
L 368.476716 165.196874 
L 368.85313 164.255631 
L 369.985707 160.782546 
L 370.856416 157.447095 
L 371.232518 155.912687 
L 372.356581 152.965848 
L 372.855326 151.136055 
L 373.227662 149.479118 
L 373.728833 147.365298 
L 374.353585 145.562642 
L 374.726561 144.391004 
L 374.977266 144.542033 
L 375.101249 144.211959 
L 376.226071 138.552076 
L 376.727465 137.597325 
L 376.976295 136.87517 
L 377.973324 132.865785 
L 379.098086 128.734027 
L 380.346951 124.051514 
L 380.5938 123.303928 
L 380.970825 121.835056 
L 381.346733 120.912027 
L 383.462616 112.691739 
L 383.591942 112.703734 
L 383.717607 112.535872 
L 384.714889 107.60789 
L 385.46215 105.658945 
L 386.090237 102.234216 
L 386.213416 101.994305 
L 386.712474 102.298706 
L 386.83732 101.937301 
L 387.331927 98.073971 
L 387.707151 95.816436 
L 387.956635 95.087196 
L 388.206357 95.463728 
L 388.833164 94.11521 
L 389.454582 91.200339 
L 389.955917 89.170813 
L 390.083293 89.053894 
L 390.204032 88.72094 
L 390.830734 85.648984 
L 391.578859 82.625588 
L 392.325555 80.838773 
L 393.700725 74.24251 
L 393.825333 73.974819 
L 394.323914 71.996089 
L 394.823805 71.524551 
L 395.072754 70.183684 
L 395.447188 68.041131 
L 395.697268 67.614838 
L 395.94894 66.649786 
L 397.068821 61.754895 
L 397.441827 60.503644 
L 397.942402 58.855802 
L 398.194908 57.915216 
L 398.487273 56.18515 
L 398.169531 57.638338 
L 397.791896 59.068332 
L 397.04075 62.705533 
L 396.670304 63.759468 
L 396.54702 63.82959 
L 396.419837 63.725812 
L 396.297507 63.961862 
L 396.046772 65.502217 
L 395.544916 68.63432 
L 394.422818 72.071685 
L 394.17506 72.973065 
L 392.923561 78.928319 
L 392.676146 79.448325 
L 391.179911 84.987843 
L 390.430089 88.93645 
L 389.933576 90.726226 
L 389.679612 91.365457 
L 388.807474 94.515667 
L 387.808242 99.747411 
L 386.687513 102.62484 
L 385.687076 107.251409 
L 385.189864 108.832265 
L 383.566193 115.851762 
L 383.189019 117.302771 
L 381.569545 122.310781 
L 380.692823 126.875656 
L 379.946157 129.226655 
L 378.44437 134.462667 
L 377.447936 138.51021 
L 376.451294 141.840747 
L 375.949796 144.101577 
L 375.575912 144.992156 
L 375.327842 145.634533 
L 373.830654 151.55703 
L 372.581536 155.350418 
L 371.458545 159.805016 
L 371.207319 160.465744 
L 370.459521 162.948133 
L 369.833563 164.996262 
L 368.963524 168.739885 
L 368.332119 169.975286 
L 367.588414 172.983632 
L 367.087824 174.867359 
L 366.337793 176.773155 
L 363.715828 185.157584 
L 363.343343 186.250973 
L 362.343754 189.56017 
L 361.722827 191.281677 
L 359.098704 198.942911 
L 358.226037 201.490431 
L 355.978224 207.527254 
L 355.354699 209.208583 
L 354.731056 210.796126 
L 349.109037 223.351751 
L 348.611586 224.414062 
L 347.98955 225.655177 
L 344.495276 231.569989 
L 342.871166 233.939456 
L 340.499801 236.888784 
L 337.756174 239.672335 
L 336.62781 240.644201 
L 334.382683 242.311429 
L 333.011257 243.163135 
L 332.136633 243.697218 
L 331.26297 244.154206 
L 330.383107 244.633117 
L 329.259014 245.166841 
L 328.388387 245.597018 
L 327.519189 245.978194 
L 326.641827 246.383772 
L 325.894394 246.708451 
L 325.018929 247.066386 
L 324.146404 247.45772 
L 323.273716 247.814242 
L 322.402143 248.20681 
L 321.776818 248.459925 
L 320.904643 248.855769 
L 320.027653 249.209312 
L 319.158306 249.584788 
L 318.285699 249.896314 
L 317.660984 250.1336 
L 316.786174 250.369555 
L 316.162204 250.542415 
L 315.290311 250.666674 
L 314.663877 250.74919 
L 310.670776 250.384629 
L 309.795148 250.216744 
L 308.926232 250.093739 
L 308.051073 249.952792 
L 307.176352 249.851664 
L 306.301893 249.737609 
L 305.429256 249.661488 
L 304.429228 249.571708 
L 303.309043 249.46475 
L 302.431465 249.415592 
L 301.307342 249.319165 
L 300.182572 249.256362 
L 299.062312 249.175407 
L 297.936586 249.114303 
L 296.564914 249.021603 
L 295.18903 248.947572 
L 293.822281 248.852299 
L 292.446267 248.782364 
L 290.823023 248.685018 
L 288.703237 248.57616 
L 286.080498 248.447673 
L 278.591146 248.208301 
L 274.968796 248.116213 
L 271.598475 248.052924 
L 269.979004 248.01585 
L 267.35602 247.977115 
L 264.984208 247.944833 
L 261.862532 247.91786 
L 255.620555 247.868978 
L 253.247793 247.847714 
L 250.626187 247.836545 
L 247.756849 247.818297 
L 244.384659 247.805838 
L 240.889358 247.788411 
L 236.02297 247.771103 
L 231.654291 247.765812 
L 226.53673 247.753967 
L 219.797457 247.750946 
L 199.410278 248.035289 
L 193.79678 248.25672 
L 188.92549 248.626398 
L 184.93009 249.200391 
L 182.18611 249.862173 
L 180.066584 250.65092 
L 178.818002 251.292731 
L 177.320617 252.293576 
L 175.952737 253.471651 
L 174.456736 255.06166 
L 172.824909 257.097764 
L 169.831537 261.164997 
L 168.458147 262.901441 
L 166.586167 264.995363 
L 164.336031 266.607011 
L 162.963705 267.042856 
L 162.21258 267.063075 
L 161.21864 266.782189 
L 160.093885 266.111098 
L 158.21648 263.837583 
L 157.095773 261.64276 
L 155.85054 258.816086 
L 154.475133 255.851647 
L 153.727454 254.901406 
L 153.101652 254.47 
L 152.478277 254.297806 
L 151.731938 254.329139 
L 150.72903 254.600439 
L 149.730989 255.131433 
L 148.484491 256.161445 
L 147.486398 257.293804 
L 146.611849 258.556922 
L 145.363193 260.703232 
L 144.363842 262.704459 
L 138.497205 274.498229 
L 137.004885 276.89805 
L 136.004529 278.527083 
L 134.507609 280.812042 
L 133.754535 281.980218 
L 133.132417 282.990553 
L 130.390651 287.132749 
L 128.140315 289.860542 
L 127.51813 290.380987 
L 126.770727 290.850373 
L 125.269468 291.332182 
L 124.39416 290.895586 
L 123.89607 290.444752 
L 123.272069 289.982108 
L 122.651269 289.101597 
L 121.777307 287.597499 
L 121.27336 286.355144 
L 119.400986 281.642508 
L 118.651194 280.159382 
L 118.028005 279.258449 
L 117.156596 278.411534 
L 116.779162 278.17079 
L 115.781166 277.744601 
L 114.660214 277.532027 
L 113.782874 277.37623 
L 113.037473 277.362069 
L 109.790881 277.293427 
L 108.916005 277.365133 
L 108.291669 277.306987 
L 106.169804 277.363684 
L 105.168771 277.345332 
L 104.046167 277.381659 
L 102.177208 277.492106 
L 101.05444 277.565226 
L 100.178432 277.653137 
L 99.553948 277.72033 
L 99.17871 277.760863 
L 98.805912 277.73906 
L 97.687148 277.820143 
L 95.935713 277.913392 
L 91.69213 278.027249 
L 90.318047 277.950003 
L 89.568761 277.920325 
L 87.197084 277.744497 
L 86.201097 277.632185 
L 85.07501 277.542232 
L 84.074781 277.551763 
L 83.453556 277.420126 
L 82.830381 277.350714 
L 80.331625 277.090455 
L 77.584798 276.727142 
L 77.087051 276.652221 
L 75.340051 276.493039 
L 73.840333 276.326948 
L 74.029463 275.893701 
L 75.775793 273.81834 
L 78.523185 271.456649 
L 80.767128 269.818107 
L 81.642094 269.28943 
L 82.514902 268.716568 
L 84.012655 267.902404 
L 87.882548 265.925119 
L 92.503929 264.042509 
L 93.374697 263.697815 
L 94.618382 263.219876 
L 97.622046 262.203221 
L 103.861532 260.100525 
L 108.852376 258.656381 
L 110.225373 258.303662 
L 110.851167 258.142743 
L 111.974516 257.862194 
L 112.724062 257.702241 
L 121.710159 255.718611 
L 122.333646 255.605239 
L 123.332014 255.407985 
L 127.203529 254.710932 
L 129.323757 254.340447 
L 133.193724 253.57633 
L 135.939137 253.076548 
L 141.431681 252.189038 
L 142.798902 251.988736 
L 143.92531 251.879932 
L 145.047683 251.721932 
L 146.796893 251.471068 
L 149.917194 251.043804 
L 152.54489 250.723623 
L 153.919107 250.549963 
L 156.040295 250.314012 
L 157.532408 250.176444 
L 160.655805 249.897494 
L 163.528207 249.667436 
L 164.775821 249.571743 
L 169.142725 249.314598 
L 172.013385 249.329121 
L 173.014232 249.331361 
L 175.134323 249.35253 
L 176.631808 249.343722 
L 178.257411 249.33244 
L 184.493823 248.80302 
L 187.989315 247.897925 
L 194.473968 245.234065 
L 196.097978 244.549188 
L 198.846081 243.789043 
L 202.463996 243.513376 
L 203.461985 243.722895 
L 205.336194 244.218601 
L 206.830474 244.523706 
L 208.706584 244.7365 
L 212.32645 244.758628 
L 214.574597 244.537763 
L 215.942829 244.309812 
L 218.939011 243.538032 
L 222.554827 242.352841 
L 225.551065 241.831007 
L 228.546084 241.934112 
L 230.545094 242.019171 
L 233.538762 242.053534 
L 238.085194 241.907413 
L 242.201557 241.605024 
L 246.818069 241.24483 
L 248.192546 241.168628 
L 249.813324 241.076811 
L 252.184763 240.95078 
L 255.058181 240.859319 
L 256.680176 240.785556 
L 258.929435 240.762416 
L 265.041496 240.630647 
L 267.662651 240.575668 
L 270.034012 240.475071 
L 273.157435 240.296783 
L 273.40837 240.323305 
L 273.905471 240.31443 
L 275.779389 240.253135 
L 275.903402 240.204956 
L 276.025714 239.746967 
L 276.276385 240.083282 
L 277.902196 240.144703 
L 279.896172 240.046151 
L 281.520922 240.030039 
L 282.643095 239.972478 
L 296.125567 240.35653 
L 297.499702 240.456131 
L 298.869253 240.534814 
L 300.243172 240.611239 
L 302.118568 240.681716 
L 302.991256 240.713794 
L 304.113079 240.718422 
L 305.239159 240.789155 
L 306.111267 240.72468 
L 307.486876 240.784186 
L 308.108346 240.787224 
L 317.472636 241.378897 
L 318.095952 241.348121 
L 318.719491 241.345065 
L 319.344667 241.325062 
L 319.967284 241.264104 
L 320.590578 241.185628 
L 321.216826 241.112716 
L 322.089723 240.947728 
L 322.71606 240.837914 
L 323.335037 240.676904 
L 323.834103 240.5245 
L 324.708875 240.283456 
L 328.961269 238.251764 
L 329.711768 237.769425 
L 331.209335 236.67629 
L 332.58455 235.495854 
L 333.205715 234.972315 
L 334.080018 234.067489 
L 334.578771 233.586406 
L 336.20053 231.791265 
L 339.198314 227.868536 
L 340.071568 226.664746 
L 340.695107 225.753728 
L 342.815217 222.217037 
L 343.438667 221.258095 
L 346.561588 215.241003 
L 347.189086 214.137097 
L 347.931808 212.350351 
L 348.556776 210.867655 
L 349.808 208.386736 
L 350.43014 206.832017 
L 350.926891 205.661505 
L 354.175067 197.768709 
L 355.796536 193.294888 
L 356.671241 191.185941 
L 358.292181 186.317876 
L 359.414868 183.379179 
L 360.041094 181.464822 
L 361.412483 177.52401 
L 362.15967 175.055116 
L 362.908301 173.379814 
L 363.78416 170.413328 
L 364.281729 168.903954 
L 365.278594 165.70143 
L 365.906755 164.443764 
L 369.778285 152.170429 
L 371.029114 148.025783 
L 372.148474 143.54599 
L 372.400071 143.317185 
L 372.649407 143.116237 
L 373.150399 141.689479 
L 374.146729 137.344211 
L 375.39796 133.373465 
L 375.649617 132.645754 
L 376.022429 131.444327 
L 376.645485 129.784581 
L 378.643561 122.402628 
L 378.892346 122.239125 
L 379.889747 118.691446 
L 380.516151 116.138296 
L 381.391474 113.157004 
L 381.887332 111.534675 
L 382.262377 110.581059 
L 382.635978 109.034502 
L 383.386722 106.949016 
L 384.13385 103.782869 
L 384.383766 102.624842 
L 384.632789 101.362559 
L 385.385662 99.673094 
L 385.636322 99.228846 
L 386.133355 97.138294 
L 386.754863 94.826579 
L 387.880385 90.933132 
L 388.380588 88.438187 
L 388.752091 87.657507 
L 388.879066 87.590034 
L 389.251655 86.794049 
L 389.502434 85.562431 
L 389.877136 83.540472 
L 390.878779 80.065829 
L 391.249284 78.494792 
L 392.375833 76.249506 
L 392.750193 74.02626 
L 393.49805 70.318858 
L 393.749038 69.831789 
L 393.998373 69.556856 
L 394.246875 68.783171 
L 394.619926 67.432162 
L 395.497481 63.8729 
L 396.119971 61.958583 
L 396.740883 59.562893 
L 397.115586 58.070275 
L 397.991966 54.717683 
L 398.454201 53.568 
L 398.254384 54.229397 
L 397.629736 57.106423 
L 397.505381 57.153292 
L 397.253694 58.314465 
L 397.003346 59.978566 
L 396.505926 61.061955 
L 396.006407 63.008319 
L 395.63544 64.604153 
L 395.386953 65.991952 
L 395.135921 66.611223 
L 394.883148 68.083395 
L 394.381917 71.252195 
L 394.132983 72.0233 
L 393.885226 72.736761 
L 393.26223 75.040182 
L 393.010424 75.181398 
L 392.884908 75.30667 
L 392.638296 76.301589 
L 391.516168 83.519468 
L 391.264674 83.771529 
L 390.889674 84.155479 
L 390.7659 84.245566 
L 390.393712 85.820782 
L 389.76515 89.004231 
L 389.390001 90.680902 
L 385.147802 106.973814 
L 384.647613 109.23118 
L 383.027142 114.270502 
L 382.402122 117.308238 
L 381.778367 119.102448 
L 381.526367 120.077309 
L 380.781546 123.315186 
L 380.280226 124.978571 
L 380.029313 125.55428 
L 379.779487 126.465869 
L 379.034011 129.956056 
L 378.907349 130.101779 
L 375.036549 144.30003 
L 374.787436 144.864876 
L 374.162684 147.087788 
L 373.414098 150.191132 
L 372.914028 151.593506 
L 372.665511 152.205203 
L 371.545005 156.297755 
L 371.170928 157.857762 
L 370.796389 159.306186 
L 370.292092 160.497462 
L 369.795863 162.263331 
L 369.297445 164.243428 
L 368.795797 165.660692 
L 368.174067 167.861619 
L 367.297449 170.434743 
L 366.42857 173.868814 
L 365.926447 175.1716 
L 365.051957 177.887866 
L 364.430613 179.91796 
L 363.92706 181.561285 
L 362.554942 185.861068 
L 362.055021 187.129552 
L 359.934651 193.592822 
L 359.434805 194.959449 
L 358.686367 197.148544 
L 357.1872 201.242788 
L 354.941567 207.352067 
L 351.823163 215.039707 
L 350.694739 217.525349 
L 349.696721 219.615082 
L 347.948076 223.22613 
L 346.826239 225.405351 
L 346.076074 226.771266 
L 343.07954 231.667535 
L 342.083576 233.137685 
L 341.086234 234.451398 
L 339.835941 235.974461 
L 338.586518 237.398465 
L 336.716131 239.280763 
L 332.223496 242.818353 
L 330.848028 243.681456 
L 329.976151 244.217845 
L 328.661232 244.968315 
L 317.744483 250.616071 
L 316.374954 251.088741 
L 315.750157 251.258826 
L 312.758453 251.446498 
L 307.137558 250.397118 
L 306.513036 250.328905 
L 305.639945 250.19959 
L 304.764823 250.116707 
L 304.140905 250.033912 
L 303.270702 249.972075 
L 302.394099 249.886387 
L 301.518709 249.824562 
L 300.648773 249.743572 
L 299.766537 249.703421 
L 298.895649 249.625069 
L 298.022801 249.584686 
L 297.399596 249.52335 
L 296.774647 249.502748 
L 296.149794 249.443388 
L 295.276808 249.411321 
L 294.401299 249.330476 
L 293.531155 249.29235 
L 292.660081 249.214388 
L 292.032877 249.188973 
L 291.161063 249.101372 
L 290.533356 249.076762 
L 289.661248 248.996837 
L 288.910567 248.947918 
L 288.038354 248.905565 
L 287.162067 248.838703 
L 286.291548 248.799017 
L 285.414127 248.732448 
L 284.541996 248.701134 
L 283.419213 248.634095 
L 282.293215 248.595464 
L 281.29705 248.54997 
L 280.170464 248.49316 
L 279.297351 248.472032 
L 278.426672 248.428594 
L 277.549566 248.410863 
L 276.67802 248.369341 
L 275.301928 248.335491 
L 274.179495 248.293352 
L 273.057649 248.274544 
L 271.932068 248.236531 
L 270.559496 248.212373 
L 268.937235 248.169343 
L 267.317039 248.148152 
L 264.943268 248.101571 
L 262.571753 248.071832 
L 259.201681 248.024164 
L 255.330799 247.9796 
L 247.21642 247.909546 
L 241.224159 247.88049 
L 212.891678 247.829253 
L 194.171274 248.395435 
L 187.803906 249.137438 
L 185.433318 249.580962 
L 182.18429 250.486497 
L 179.816207 251.545844 
L 178.569341 252.296565 
L 177.446305 253.141265 
L 175.205468 255.358171 
L 172.822847 258.485925 
L 171.080201 261.072359 
L 167.707402 265.802908 
L 166.090518 267.589003 
L 165.087811 268.310109 
L 164.463095 268.761661 
L 163.964082 269.05942 
L 163.589558 269.16167 
L 162.837861 269.084029 
L 161.967666 269.042532 
L 161.593931 268.880124 
L 160.346353 267.9693 
L 159.220661 266.662124 
L 158.723248 265.95042 
L 157.84468 264.362987 
L 155.225892 259.224153 
L 154.474158 258.273093 
L 153.851876 257.82056 
L 153.349611 257.655974 
L 152.726273 257.662697 
L 151.729943 257.991708 
L 150.233515 258.885676 
L 148.232506 260.528987 
L 145.737389 263.183331 
L 143.489881 266.263249 
L 141.494483 269.631632 
L 137.747153 277.280278 
L 136.879361 279.118352 
L 134.505362 284.081759 
L 133.630016 285.891168 
L 132.757469 287.412935 
L 132.134719 288.620061 
L 131.636398 289.54365 
L 130.014073 292.043436 
L 129.63658 292.559406 
L 129.011366 293.516169 
L 128.510798 293.967481 
L 126.392705 295.391194 
L 125.768533 295.427513 
L 125.393035 295.16687 
L 124.77149 294.594219 
L 124.017709 293.618418 
L 123.145578 291.941105 
L 122.398168 289.865327 
L 121.649775 286.949416 
L 120.399005 281.449627 
L 119.273826 277.895789 
L 118.773934 276.774536 
L 118.149658 275.782548 
L 117.155204 275.094567 
L 116.528815 274.803098 
L 115.28094 274.526795 
L 112.287852 274.424724 
L 110.038237 274.42942 
L 109.288058 274.432381 
L 108.042706 274.525944 
L 107.419621 274.507196 
L 106.91781 274.567764 
L 106.295468 274.588827 
L 104.669535 274.586607 
L 103.921157 274.701459 
L 102.426186 274.681064 
L 100.552599 274.725507 
L 99.676979 274.706799 
L 98.803665 274.699296 
L 98.181353 274.707427 
L 97.807946 274.753526 
L 97.308174 274.742917 
L 95.68413 274.751025 
L 95.310678 274.775223 
L 88.318959 274.858003 
L 87.696394 274.802496 
L 87.321722 274.81677 
L 85.573993 274.794252 
L 82.326189 274.704081 
L 82.201878 274.780555 
L 82.077181 275.024506 
L 81.703327 274.617377 
L 81.204314 274.824965 
L 80.45659 274.788509 
L 79.954362 274.649707 
L 73.832727 274.891129 
L 74.027602 274.503538 
L 75.148004 273.623001 
L 78.396374 271.704673 
L 78.772074 271.629526 
L 79.392807 271.2517 
L 80.141111 270.997579 
L 80.392083 270.89914 
L 81.141131 270.500821 
L 81.640144 270.365959 
L 83.390656 269.626806 
L 83.887035 269.427887 
L 85.262547 268.92603 
L 85.884114 268.688693 
L 86.507572 268.50803 
L 91.001323 266.972624 
L 93.124454 266.342814 
L 93.746974 266.121014 
L 95.370794 265.644852 
L 96.993706 265.168449 
L 97.621063 264.966981 
L 98.120478 264.869604 
L 126.828454 257.663187 
L 127.200061 257.643846 
L 127.949302 257.406662 
L 128.197239 257.408865 
L 130.194221 256.926222 
L 144.427649 254.020917 
L 145.299571 253.897033 
L 146.173525 253.716202 
L 147.050932 253.562947 
L 147.921752 253.435822 
L 148.544987 253.337473 
L 149.167008 253.203826 
L 150.042256 253.09934 
L 150.913836 252.933532 
L 151.789382 252.81358 
L 152.660694 252.654334 
L 153.535399 252.521539 
L 154.410142 252.388029 
L 155.282645 252.269051 
L 155.909451 252.178454 
L 156.531628 252.091991 
L 157.156001 251.976544 
L 158.027878 251.89682 
L 158.779159 251.77962 
L 159.903922 251.616891 
L 160.777667 251.527204 
L 161.652916 251.400175 
L 162.523468 251.329636 
L 163.147729 251.24988 
L 163.77147 251.212805 
L 164.397323 251.141719 
L 165.017469 251.092764 
L 165.645511 251.00968 
L 166.52611 250.925867 
L 167.395755 250.860141 
L 168.022189 250.852932 
L 168.893375 250.815336 
L 169.517412 250.826426 
L 170.392281 250.818176 
L 171.018887 250.845265 
L 171.639769 250.837405 
L 172.511453 250.87076 
L 173.14204 250.867788 
L 173.763871 250.912242 
L 174.388241 250.907466 
L 175.011564 250.937199 
L 175.887188 250.923745 
L 176.758415 250.93945 
L 177.63203 250.910943 
L 178.758084 250.917713 
L 179.63088 250.851943 
L 180.382678 250.80889 
L 181.500873 250.719768 
L 182.874532 250.539518 
L 183.74616 250.378633 
L 185.119733 250.031145 
L 186.244574 249.627901 
L 187.864141 248.926815 
L 188.738396 248.503807 
L 191.605979 246.940952 
L 193.975007 245.668301 
L 195.598043 244.862716 
L 198.844023 243.69983 
L 200.5901 243.383869 
L 201.833875 243.437463 
L 202.963746 243.740897 
L 205.710081 244.638801 
L 207.332845 244.918827 
L 210.825024 245.085356 
L 213.700531 244.881232 
L 215.448792 244.573911 
L 216.816784 244.229255 
L 220.808712 242.685947 
L 222.181997 242.09228 
L 224.677133 241.291225 
L 226.425685 241.202405 
L 230.294238 241.578226 
L 231.292657 241.65569 
L 233.789009 241.737835 
L 235.909938 241.67331 
L 237.333236 241.606805 
L 239.456627 241.404576 
L 240.703545 241.28296 
L 245.693626 240.675866 
L 251.564415 239.922627 
L 262.805238 238.856321 
L 264.304839 238.732517 
L 268.176008 238.394089 
L 270.797464 238.227967 
L 273.045284 238.062552 
L 278.536921 237.936417 
L 279.282579 237.945979 
L 281.532655 237.98759 
L 282.907102 238.071801 
L 284.772913 238.183525 
L 307.99243 241.036465 
L 308.865059 241.201123 
L 309.736564 241.350348 
L 310.612185 241.550666 
L 310.986679 241.616638 
L 311.360005 241.687772 
L 311.737104 241.710129 
L 312.11174 241.775731 
L 312.985634 241.944949 
L 313.6079 242.049226 
L 314.2324 242.063268 
L 315.107544 242.191044 
L 315.731835 242.232824 
L 316.356104 242.281906 
L 316.98262 242.295618 
L 317.603956 242.310963 
L 318.228426 242.299189 
L 319.351179 242.262943 
L 319.975172 242.206285 
L 320.348141 242.183412 
L 320.975416 242.072348 
L 321.972914 241.930175 
L 323.094365 241.725466 
L 324.469326 241.348321 
L 325.094294 241.183076 
L 325.968181 240.873994 
L 326.589979 240.614613 
L 327.717123 240.142561 
L 328.089295 239.969459 
L 328.958791 239.460629 
L 329.586981 239.13017 
L 331.45716 237.87868 
L 331.833277 237.613855 
L 332.457099 237.126426 
L 333.205321 236.500629 
L 335.326301 234.524809 
L 337.820979 231.745577 
L 338.568784 230.764912 
L 340.942873 227.495107 
L 344.314191 221.997827 
L 345.059949 220.599767 
L 346.56199 217.799923 
L 348.679859 213.256344 
L 349.055767 212.562212 
L 350.427565 209.318251 
L 350.924547 208.057813 
L 351.428665 207.037258 
L 351.680129 206.610253 
L 353.551096 201.756003 
L 355.919045 195.673116 
L 356.543679 193.97074 
L 358.165095 189.45703 
L 358.415978 188.984179 
L 358.915609 187.352099 
L 359.912921 184.522766 
L 360.162665 183.864965 
L 361.16343 180.891021 
L 361.537999 180.167648 
L 362.283891 177.39938 
L 362.656614 176.303433 
L 363.031108 175.472297 
L 363.53283 173.841699 
L 363.906223 172.847129 
L 364.406769 171.304689 
L 365.281229 168.347417 
L 366.029711 166.256313 
L 366.526864 164.509016 
L 367.531915 161.437963 
L 368.406717 158.577987 
L 369.030889 156.493154 
L 369.531152 154.732279 
L 370.152496 153.391737 
L 370.779838 150.683765 
L 371.526475 148.240017 
L 371.900865 147.268529 
L 372.15148 146.643707 
L 374.647185 138.238492 
L 374.895568 137.844169 
L 375.270286 136.189961 
L 375.898342 133.965201 
L 376.768887 131.101931 
L 378.018541 126.516993 
L 378.517628 124.619416 
L 379.140729 122.94051 
L 380.517446 118.148583 
L 381.262981 114.882776 
L 382.135253 112.804044 
L 382.634534 110.609889 
L 385.132725 101.682745 
L 385.634179 99.72567 
L 386.25719 98.044419 
L 387.501351 93.059592 
L 387.75088 92.330352 
L 388.12722 90.807383 
L 388.501342 90.022337 
L 389.372631 86.855633 
L 389.625673 86.756286 
L 389.749685 86.31503 
L 390.375614 82.440652 
L 390.625113 81.48285 
L 390.874552 81.03369 
L 391.24799 79.721809 
L 391.373833 79.750466 
L 391.625029 79.943536 
L 391.873799 78.624078 
L 392.24807 76.311643 
L 393.245843 72.841902 
L 394.244434 69.567963 
L 394.492653 68.118737 
L 395.868046 63.497972 
L 396.118051 62.428345 
L 396.366092 61.85062 
L 397.112832 58.483204 
L 397.489634 57.465899 
L 397.73943 56.517511 
L 398.114029 54.798657 
L 398.445151 54.121574 
L 398.377176 54.497243 
L 398.003635 56.355768 
L 397.627191 57.626518 
L 397.125112 59.635106 
L 396.628703 61.49565 
L 396.376347 62.185048 
L 396.253108 62.4203 
L 395.88226 64.229226 
L 395.383545 66.665962 
L 394.381694 71.179018 
L 394.007899 72.472618 
L 393.135002 75.779977 
L 392.51089 78.02366 
L 391.511375 82.576542 
L 390.886623 84.527497 
L 390.391882 86.69358 
L 390.013637 88.190229 
L 389.890472 88.294721 
L 389.636582 89.015756 
L 388.513576 94.250788 
L 388.140109 95.23218 
L 387.264563 98.372406 
L 387.015153 100.214276 
L 386.143849 102.791421 
L 385.39876 105.840012 
L 384.646363 108.195851 
L 383.773689 112.047593 
L 383.396724 113.244835 
L 382.64726 115.997728 
L 380.405608 124.53553 
L 379.775379 126.16509 
L 378.780225 130.546586 
L 378.155696 132.247968 
L 377.530676 135.20406 
L 377.28082 135.895544 
L 375.91077 140.920056 
L 374.657396 145.14102 
L 373.660084 149.164339 
L 373.286513 150.10861 
L 373.034632 150.516145 
L 372.659066 152.052558 
L 371.665431 156.025802 
L 371.289731 157.051075 
L 364.426594 179.50246 
L 363.678931 182.044336 
L 362.175387 186.625253 
L 360.182394 192.542032 
L 359.681305 194.118864 
L 358.683643 196.733445 
L 357.686049 199.810548 
L 356.687264 202.355812 
L 355.93803 204.347179 
L 354.938709 207.044605 
L 353.31439 211.136513 
L 352.31626 213.556587 
L 349.69332 219.430494 
L 349.067332 220.706271 
L 347.320578 224.315592 
L 343.079637 231.56415 
L 340.583099 235.050293 
L 336.088074 239.841915 
L 332.094348 242.916405 
L 330.721143 243.803794 
L 329.47335 244.558236 
L 323.356024 247.969007 
L 322.483253 248.430895 
L 321.610356 248.918228 
L 320.736276 249.373696 
L 319.863789 249.844584 
L 318.98883 250.259252 
L 318.2429 250.590888 
L 317.372206 250.96296 
L 316.251448 251.289368 
L 315.627365 251.441394 
L 312.381124 251.407623 
L 311.505711 251.219815 
L 310.75714 251.062405 
L 309.884109 250.891135 
L 309.005147 250.699945 
L 308.135926 250.563442 
L 307.262873 250.418535 
L 306.635635 250.344142 
L 305.887763 250.24512 
L 305.015007 250.121482 
L 304.385879 250.070989 
L 303.513719 249.960887 
L 302.643151 249.895973 
L 301.765462 249.797381 
L 300.894046 249.738913 
L 300.020724 249.647547 
L 299.145736 249.588684 
L 298.272605 249.504054 
L 297.399537 249.447699 
L 296.523336 249.358746 
L 295.649516 249.297803 
L 294.773251 249.21131 
L 293.901493 249.155748 
L 293.030107 249.071621 
L 292.154397 249.0257 
L 291.283141 248.943266 
L 290.410504 248.899424 
L 289.533589 248.828271 
L 288.661614 248.795091 
L 287.789242 248.730797 
L 286.912583 248.702294 
L 286.040933 248.645816 
L 285.16404 248.624263 
L 284.290741 248.57372 
L 283.416448 248.553487 
L 282.541561 248.503196 
L 281.668894 248.486348 
L 280.79682 248.441996 
L 279.92153 248.427076 
L 279.048663 248.379929 
L 278.177247 248.365694 
L 277.300038 248.324362 
L 276.427647 248.313935 
L 275.552309 248.275546 
L 274.426646 248.260905 
L 273.307892 248.221327 
L 272.181887 248.208541 
L 271.059011 248.171337 
L 269.932634 248.162472 
L 268.812429 248.128792 
L 267.687432 248.119697 
L 266.313457 248.084484 
L 265.190419 248.079235 
L 263.820814 248.04707 
L 262.446259 248.038264 
L 260.823626 248.00773 
L 259.201471 247.992725 
L 257.578281 247.965762 
L 255.955384 247.956501 
L 254.334657 247.931595 
L 252.458998 247.922299 
L 250.086314 247.904942 
L 247.463517 247.891039 
L 244.593701 247.865234 
L 241.472182 247.851919 
L 238.351697 247.835223 
L 234.48235 247.825794 
L 230.860337 247.808935 
L 227.242719 247.803433 
L 222.870654 247.790189 
L 218.752409 247.789974 
L 214.386513 247.792587 
L 209.770741 247.815955 
L 206.27356 247.84822 
L 202.90584 247.901488 
L 190.053345 248.60448 
L 187.054069 249.013415 
L 185.309775 249.342962 
L 183.561123 249.784802 
L 181.562663 250.466353 
L 180.31842 251.043968 
L 179.319285 251.625211 
L 178.195959 252.403644 
L 176.201209 254.248977 
L 174.198969 256.682355 
L 167.581328 266.205482 
L 167.084517 266.722924 
L 165.712682 268.152689 
L 164.090655 269.176258 
L 163.089042 269.47487 
L 161.593462 269.236914 
L 160.593024 268.627965 
L 159.468091 267.601718 
L 158.346766 265.997927 
L 156.726935 262.661674 
L 154.474396 257.697207 
L 153.728109 256.837072 
L 153.102568 256.528577 
L 152.602848 256.46411 
L 151.85729 256.621039 
L 150.854933 257.070678 
L 149.857487 257.714434 
L 148.733335 258.594199 
L 146.488588 260.837032 
L 144.488911 263.470595 
L 143.239481 265.424806 
L 141.245684 269.053372 
L 131.762599 288.841732 
L 131.01268 290.1233 
L 130.636697 290.676774 
L 130.262598 291.146413 
L 128.638323 293.489743 
L 126.771985 294.546657 
L 126.393956 294.54819 
L 125.269148 294.314467 
L 124.52304 293.319173 
L 124.020306 293.029065 
L 123.647449 292.16597 
L 122.775475 289.794071 
L 122.523736 289.432781 
L 122.277303 288.621576 
L 119.65207 277.068064 
L 118.901542 274.691134 
L 118.276588 273.44833 
L 117.531336 272.563675 
L 116.780584 272.088856 
L 114.282222 271.467764 
L 113.906857 271.459963 
L 112.287256 271.362088 
L 111.662727 271.345915 
L 110.788193 271.354729 
L 110.163337 271.356289 
L 105.171807 271.628764 
L 104.79834 271.695274 
L 104.045616 271.796098 
L 102.678201 271.925074 
L 101.926891 271.902523 
L 87.446613 273.096614 
L 86.698904 273.159417 
L 86.074167 273.17477 
L 85.451975 273.118513 
L 85.075352 273.165417 
L 84.699265 273.210036 
L 84.327599 273.269847 
L 84.075555 273.25936 
L 83.578789 273.211966 
L 83.203848 273.287723 
L 82.578025 273.280485 
L 81.95613 273.299538 
L 76.58768 273.343819 
L 75.213687 273.356606 
L 74.590914 273.38198 
L 73.83749 273.413691 
L 74.029775 273.015718 
L 75.276616 272.097275 
L 76.026899 271.705494 
L 77.775253 270.856717 
L 77.900858 270.921489 
L 78.401538 270.584719 
L 82.266742 269.092465 
L 82.893906 268.920592 
L 84.015543 268.496634 
L 84.889184 268.224256 
L 87.137027 267.518616 
L 87.638288 267.346172 
L 88.012633 267.221605 
L 88.385728 267.160089 
L 88.882702 267.022019 
L 90.381244 266.566252 
L 93.624375 265.690243 
L 94.248145 265.503299 
L 94.622594 265.40713 
L 102.741472 263.353563 
L 103.986824 263.013292 
L 106.855148 262.376597 
L 107.232337 262.272482 
L 107.609748 262.251668 
L 108.230645 262.01931 
L 109.979416 261.654075 
L 110.725755 261.466537 
L 111.9752 261.14683 
L 112.598658 261.013046 
L 113.220835 260.81313 
L 114.721171 260.509613 
L 116.340824 260.104546 
L 119.337238 259.432586 
L 119.83742 259.302493 
L 124.457067 258.19271 
L 127.081615 257.653223 
L 128.449275 257.37672 
L 142.304808 254.774121 
L 142.926465 254.701667 
L 145.173884 254.294726 
L 147.050478 253.983488 
L 148.42209 253.725643 
L 150.295975 253.431689 
L 153.663401 252.894478 
L 154.537042 252.781668 
L 155.910731 252.572689 
L 158.282416 252.28861 
L 162.648716 251.797562 
L 163.896837 251.673091 
L 168.391348 251.28751 
L 173.13465 251.328518 
L 179.377452 251.307383 
L 182.869925 250.898173 
L 184.995352 250.324046 
L 186.869103 249.5178 
L 189.610627 248.036289 
L 193.229349 245.946226 
L 196.220611 244.48514 
L 198.219803 243.748145 
L 200.092155 243.372262 
L 201.089731 243.342057 
L 202.215018 243.536817 
L 206.583326 244.987052 
L 208.956144 245.224254 
L 210.826665 245.253721 
L 214.323531 244.910394 
L 217.064462 244.16531 
L 220.059639 242.802532 
L 223.428096 241.056472 
L 224.303113 240.694782 
L 225.052744 240.48307 
L 226.29778 240.287594 
L 227.050136 240.332125 
L 231.794474 240.678239 
L 238.085618 240.489671 
L 241.204118 240.062202 
L 247.330318 239.200975 
L 249.703081 238.916052 
L 252.945169 238.56231 
L 259.187859 237.969711 
L 260.185511 237.888597 
L 262.060138 237.770303 
L 262.932295 237.680486 
L 265.551468 237.511613 
L 271.795877 237.222323 
L 276.539767 237.236453 
L 277.91289 237.252691 
L 279.905285 237.361302 
L 282.402511 237.574737 
L 283.403406 237.667988 
L 288.022045 238.333466 
L 295.383801 239.559357 
L 296.38336 239.698778 
L 297.757625 239.899659 
L 300.127241 240.273972 
L 301.49956 240.480137 
L 303.125539 240.784764 
L 303.99944 240.922191 
L 304.621752 241.049839 
L 306.99558 241.499268 
L 308.119129 241.719225 
L 309.740873 242.00332 
L 310.363735 242.110967 
L 311.736412 242.302109 
L 313.112341 242.499893 
L 313.734444 242.537322 
L 314.609357 242.628442 
L 316.231109 242.690022 
L 317.104757 242.739932 
L 318.226915 242.685502 
L 318.849383 242.683693 
L 319.475765 242.566411 
L 320.224329 242.561071 
L 320.723848 242.448986 
L 323.342785 242.012553 
L 323.840867 241.883208 
L 328.338489 240.260759 
L 329.21117 239.767179 
L 329.835625 239.440756 
L 330.958631 238.690119 
L 332.209549 237.830041 
L 333.329988 236.945707 
L 333.953513 236.378877 
L 334.578265 235.907854 
L 335.702283 234.730692 
L 336.578909 233.857811 
L 340.820006 228.543607 
L 342.071468 226.549209 
L 342.815224 225.50559 
L 344.190736 223.056447 
L 345.063842 221.50325 
L 345.937401 219.956253 
L 346.437835 219.020625 
L 347.43351 216.870786 
L 348.557662 214.558186 
L 350.430163 210.244222 
L 351.305627 208.37557 
L 352.677284 204.950889 
L 353.550285 202.721266 
L 356.546045 194.923979 
L 357.542531 192.312158 
L 357.917263 191.373955 
L 361.6628 180.455192 
L 363.907429 173.741685 
L 364.158357 173.002667 
L 366.032569 166.894129 
L 366.40495 165.843285 
L 367.658711 162.051356 
L 368.034083 160.826745 
L 368.407833 159.811291 
L 370.155369 153.944426 
L 371.157607 151.607914 
L 371.653643 149.192268 
L 372.026381 147.539835 
L 374.024904 141.46977 
L 374.7748 138.286876 
L 375.023019 137.387848 
L 375.396888 136.495007 
L 376.022117 135.05222 
L 377.147326 129.853814 
L 377.643139 129.477596 
L 377.769622 129.360938 
L 378.019285 128.506112 
L 378.767901 124.420166 
L 379.393606 122.896552 
L 379.642123 122.107169 
L 380.393031 119.260643 
L 381.889014 114.166328 
L 382.762833 112.029971 
L 383.888906 106.493667 
L 384.757829 104.79696 
L 385.134838 103.371083 
L 386.381411 97.931705 
L 386.631669 97.707727 
L 387.004987 96.393348 
L 388.007702 92.832722 
L 388.256352 92.166755 
L 389.128967 87.994183 
L 389.754582 86.52998 
L 391.376765 80.335364 
L 391.751602 79.812392 
L 392.000193 78.648165 
L 392.501007 75.36085 
L 393.248909 73.659221 
L 393.49814 73.090275 
L 394.871836 67.299488 
L 395.126678 66.818286 
L 396.495165 62.134651 
L 397.620538 56.992193 
L 398.117675 55.6246 
L 398.440388 55.990973 
L 398.447548 55.976465 
L 398.257778 56.729488 
L 398.130401 56.919333 
L 397.883551 56.593838 
L 397.759122 56.690767 
L 397.255584 59.055288 
L 396.633377 62.494767 
L 396.38355 62.942395 
L 396.260535 63.043428 
L 395.884299 64.334539 
L 395.25977 67.79485 
L 394.885752 69.420964 
L 394.633306 69.854407 
L 394.258738 70.32087 
L 394.010414 71.152281 
L 393.385885 75.015305 
L 392.638638 77.032355 
L 391.638945 81.051242 
L 391.515677 81.137067 
L 391.387571 81.383657 
L 390.767567 84.788584 
L 389.766162 89.926134 
L 389.514296 90.838864 
L 389.267104 91.193255 
L 389.142407 91.713019 
L 389.018647 91.742571 
L 388.76888 91.67188 
L 388.518726 92.633312 
L 387.89451 96.928012 
L 387.392282 98.540916 
L 387.018026 100.427694 
L 386.394836 102.128353 
L 386.147168 102.500054 
L 385.896299 103.417452 
L 384.772727 108.774385 
L 384.39871 110.990847 
L 384.273863 111.12747 
L 384.023382 111.134471 
L 383.775059 111.568088 
L 383.276477 113.634411 
L 382.650758 116.626165 
L 382.276263 117.359684 
L 381.901605 118.449367 
L 381.526873 120.495157 
L 381.028485 122.835278 
L 380.405936 124.428224 
L 379.533143 127.392359 
L 378.15525 133.079672 
L 377.780562 134.338516 
L 377.282308 135.980483 
L 377.155824 136.167989 
L 376.78197 138.209669 
L 376.411272 139.817658 
L 375.286345 142.827696 
L 374.413463 146.550958 
L 373.787743 149.052264 
L 372.663159 151.962872 
L 371.792108 155.747003 
L 371.418388 156.693619 
L 370.92003 158.509641 
L 370.418278 159.947677 
L 369.046219 164.785248 
L 368.668183 166.213138 
L 368.418966 166.671716 
L 366.676283 172.413961 
L 366.300122 173.381247 
L 366.053585 174.188594 
L 365.549065 176.006069 
L 363.302249 183.014459 
L 362.925433 184.242452 
L 362.426643 185.858575 
L 361.928433 187.312143 
L 359.433004 194.559725 
L 359.058457 195.654638 
L 358.181631 198.553251 
L 357.060188 201.404207 
L 354.315616 208.698646 
L 353.818047 209.859895 
L 352.817572 212.583646 
L 352.071062 214.12449 
L 351.319759 216.032907 
L 350.565666 217.76177 
L 349.694674 219.462068 
L 348.819291 221.46803 
L 344.077499 230.062351 
L 341.957658 233.262341 
L 339.086327 236.850864 
L 338.210521 237.773632 
L 337.462775 238.545598 
L 336.337983 239.614439 
L 331.595796 243.279009 
L 329.971098 244.27049 
L 328.907493 244.910733 
L 326.60039 246.225581 
L 325.851684 246.63664 
L 324.229315 247.503302 
L 323.107537 248.12741 
L 322.235235 248.580084 
L 321.359242 249.06666 
L 320.238975 249.636662 
L 319.110514 250.193844 
L 316.246923 251.257175 
L 315.498567 251.413756 
L 314.875891 251.496284 
L 311.631949 251.240598 
L 310.505892 250.976862 
L 309.883201 250.873091 
L 309.253887 250.737029 
L 308.384026 250.582849 
L 307.761246 250.462632 
L 306.635322 250.330295 
L 305.762477 250.182888 
L 305.139459 250.130693 
L 304.262075 250.012742 
L 303.636995 249.960119 
L 302.768563 249.853589 
L 301.891618 249.783955 
L 301.017448 249.680922 
L 300.14368 249.617964 
L 299.267814 249.523519 
L 298.396792 249.464822 
L 297.523583 249.374785 
L 296.648967 249.322957 
L 295.774049 249.233563 
L 294.898697 249.181326 
L 294.024791 249.100386 
L 293.155284 249.047142 
L 292.028769 248.951893 
L 291.157305 248.910598 
L 290.281412 248.841026 
L 289.407585 248.808007 
L 288.660662 248.762248 
L 287.787944 248.702261 
L 286.910418 248.67189 
L 286.038045 248.615295 
L 285.161078 248.592883 
L 284.289494 248.544197 
L 283.416121 248.527879 
L 282.542275 248.478996 
L 281.419894 248.46243 
L 280.668807 248.441817 
L 279.794425 248.402631 
L 278.923065 248.393241 
L 278.050507 248.355672 
L 276.676297 248.332421 
L 275.551937 248.290852 
L 274.427888 248.275577 
L 273.057199 248.233933 
L 271.93199 248.222025 
L 270.80924 248.188921 
L 269.43336 248.170892 
L 268.062857 248.137347 
L 266.439163 248.119919 
L 264.818014 248.086616 
L 262.696346 248.05975 
L 260.320644 248.021702 
L 256.702152 247.980882 
L 252.83487 247.937028 
L 238.725346 247.859645 
L 226.993849 247.818193 
L 200.658648 247.939037 
L 196.039946 248.095587 
L 189.17711 248.6327 
L 186.057126 249.103662 
L 183.311456 249.758822 
L 181.191637 250.555313 
L 179.94096 251.205598 
L 178.568946 252.117837 
L 177.073689 253.404311 
L 175.455399 255.202845 
L 173.571709 257.739951 
L 171.700972 260.518427 
L 169.206004 264.360381 
L 167.709314 266.356228 
L 166.586956 267.597085 
L 164.964244 269.084906 
L 164.463296 269.368391 
L 163.838507 269.760645 
L 162.964784 269.90946 
L 162.466723 269.931819 
L 161.843571 269.940472 
L 160.720319 269.433903 
L 159.221353 268.062093 
L 158.221087 266.596331 
L 157.470796 265.039547 
L 156.349576 262.400266 
L 154.474686 257.766193 
L 153.852851 256.798614 
L 153.226089 256.285804 
L 152.728714 256.128078 
L 152.107913 256.14224 
L 151.109894 256.474356 
L 149.732634 257.306792 
L 148.609426 258.180952 
L 147.484783 259.242321 
L 145.988272 260.949584 
L 144.36373 263.216184 
L 141.747771 267.813158 
L 140.996319 269.396586 
L 136.131682 279.883367 
L 135.258138 281.78097 
L 131.137913 289.933155 
L 129.016338 293.084451 
L 127.268118 294.51119 
L 126.771605 294.61709 
L 126.271602 294.389316 
L 125.770178 294.22711 
L 125.645421 294.264348 
L 125.395312 294.518098 
L 125.146832 294.435046 
L 124.894416 294.163731 
L 124.27107 292.988472 
L 123.273654 291.213764 
L 122.524837 289.106261 
L 121.401072 284.385694 
L 119.276884 274.371418 
L 118.652578 272.850407 
L 117.903017 271.747902 
L 117.031311 271.182133 
L 116.280514 270.909877 
L 114.906974 270.671567 
L 113.783313 270.651526 
L 113.411096 270.629087 
L 112.786567 270.62168 
L 111.662898 270.644174 
L 111.038362 270.661199 
L 109.164373 270.655747 
L 105.545468 270.923701 
L 104.420765 270.919448 
L 104.170343 271.000191 
L 103.421846 271.027945 
L 100.68011 271.204081 
L 100.30377 271.229607 
L 99.679003 271.291663 
L 99.303943 271.330965 
L 98.931488 271.343776 
L 98.555431 271.383513 
L 98.183006 271.401649 
L 97.811324 271.454075 
L 97.057811 271.54826 
L 92.817071 272.154812 
L 92.439898 272.196729 
L 92.314903 272.336888 
L 91.938117 272.293188 
L 90.815691 272.378356 
L 90.56704 272.480926 
L 87.821717 272.748993 
L 87.445943 272.790284 
L 85.696398 272.989757 
L 85.324077 273.073253 
L 84.950625 273.061823 
L 84.574136 273.089458 
L 84.075198 273.175261 
L 83.580382 273.252113 
L 82.327052 273.459992 
L 81.95543 273.470108 
L 81.581963 273.581334 
L 81.205698 273.562762 
L 80.204725 273.777373 
L 77.335746 274.15594 
L 76.961579 274.190137 
L 73.835109 274.323518 
L 74.027781 273.952839 
L 75.025971 273.10645 
L 76.774087 272.024186 
L 77.024464 271.925927 
L 77.774092 271.625529 
L 78.650531 271.132126 
L 79.020367 271.028702 
L 80.268606 270.581043 
L 81.893082 270.003452 
L 82.515527 269.864834 
L 83.01838 269.66508 
L 83.515309 269.511325 
L 95.37261 266.31452 
L 95.747744 266.212456 
L 96.124426 266.158427 
L 96.372705 266.068868 
L 97.497988 265.76399 
L 98.244982 265.595745 
L 99.866153 265.201142 
L 100.365568 265.101835 
L 103.485519 264.40418 
L 104.108709 264.234269 
L 104.357702 264.24947 
L 104.98424 264.096327 
L 105.859117 263.871338 
L 106.105862 263.837632 
L 107.356677 263.523409 
L 108.229484 263.335194 
L 108.727247 263.204957 
L 112.97237 262.177477 
L 113.473333 262.06199 
L 114.597575 261.795226 
L 115.968845 261.465185 
L 116.717744 261.277726 
L 129.822503 258.231811 
L 130.696665 258.044377 
L 131.320107 257.913915 
L 132.070428 257.765768 
L 133.565718 257.432285 
L 135.938973 256.940988 
L 140.055648 256.19597 
L 140.804889 256.064504 
L 142.802661 255.753048 
L 149.791514 254.522951 
L 154.53312 253.723279 
L 155.657191 253.565175 
L 156.783732 253.390006 
L 159.402899 253.033667 
L 160.900437 252.852014 
L 164.269954 252.428643 
L 164.521731 252.588323 
L 164.770255 252.411778 
L 168.015923 252.149936 
L 168.64008 252.132879 
L 169.762833 252.094581 
L 171.636554 252.147162 
L 172.883745 252.157906 
L 175.506491 252.154207 
L 181.996124 251.700925 
L 183.992228 251.234551 
L 185.74472 250.545992 
L 188.240596 249.171548 
L 193.23073 246.173999 
L 194.601602 245.477182 
L 198.221206 243.970606 
L 199.591345 243.632756 
L 201.214689 243.528361 
L 202.212105 243.715005 
L 203.336837 244.108273 
L 205.210728 244.829264 
L 207.081489 245.206573 
L 208.453925 245.336006 
L 211.698984 245.316481 
L 214.699826 244.878609 
L 216.939498 244.174815 
L 220.308273 242.416152 
L 221.678195 241.555735 
L 222.804465 240.814787 
L 225.178633 239.609378 
L 226.172499 239.302512 
L 227.307054 239.224813 
L 231.677108 239.628408 
L 237.969999 239.489042 
L 239.844229 239.277296 
L 240.711408 239.151121 
L 242.961802 238.849976 
L 250.073103 237.927337 
L 262.059556 236.888092 
L 262.931104 236.838793 
L 266.552084 236.67185 
L 269.297515 236.583449 
L 275.53994 236.574755 
L 277.162759 236.677134 
L 280.410809 236.970204 
L 287.146179 238.01778 
L 290.769437 238.748908 
L 291.768836 238.964274 
L 296.136238 239.813357 
L 297.634565 240.110263 
L 299.626799 240.514952 
L 301.128594 240.810677 
L 302.504976 241.064146 
L 304.870522 241.5456 
L 305.746886 241.717802 
L 307.120873 241.949869 
L 308.245248 242.167038 
L 310.113514 242.430665 
L 310.863202 242.531765 
L 311.738831 242.644036 
L 312.614131 242.728175 
L 313.3605 242.791355 
L 314.232817 242.866108 
L 320.227224 242.684658 
L 321.098796 242.557227 
L 321.723556 242.473675 
L 322.597473 242.297621 
L 323.095161 242.193224 
L 324.222751 241.945649 
L 325.094435 241.678869 
L 325.71819 241.509819 
L 326.590016 241.172147 
L 327.093472 240.971611 
L 327.963593 240.616157 
L 332.085931 238.189621 
L 333.453525 237.182224 
L 334.580237 236.169543 
L 335.078357 235.738434 
L 337.698224 232.997668 
L 338.823314 231.645104 
L 339.199006 231.207345 
L 340.070712 229.984816 
L 341.195765 228.408521 
L 341.822147 227.564921 
L 342.563069 226.333786 
L 344.690397 222.756556 
L 347.932002 216.508006 
L 348.430628 215.368201 
L 349.181812 213.834443 
L 350.553759 210.771276 
L 351.054044 209.525712 
L 354.049477 202.195202 
L 354.796061 200.30031 
L 355.671831 197.929024 
L 356.671792 195.34338 
L 357.168558 193.982596 
L 358.291549 191.041365 
L 358.542931 190.427852 
L 359.16388 188.498143 
L 359.913695 186.361409 
L 360.915003 183.310762 
L 366.279002 166.938207 
L 366.779652 165.46833 
L 367.152182 164.429163 
L 368.780705 158.914031 
L 369.03208 158.354337 
L 369.656936 156.080703 
L 370.527556 153.715218 
L 371.031317 151.521928 
L 371.402864 150.211578 
L 371.776376 149.397566 
L 372.024803 148.757767 
L 372.522893 146.74192 
L 372.896509 145.645482 
L 373.149804 144.928475 
L 373.899879 143.287238 
L 374.147994 142.380636 
L 374.771392 138.701339 
L 376.145385 135.214205 
L 377.394741 130.23615 
L 377.892682 128.587742 
L 381.137257 117.536805 
L 381.390566 116.769885 
L 382.137277 113.294833 
L 382.386508 112.852029 
L 382.635948 112.355221 
L 383.261251 110.040131 
L 383.885914 107.438514 
L 384.634084 104.729006 
L 385.009292 103.462294 
L 386.009506 100.15485 
L 386.134055 99.948676 
L 386.383375 98.693316 
L 386.754729 97.084349 
L 387.003975 96.128168 
L 387.379109 94.17173 
L 387.629784 93.791731 
L 387.881814 93.348944 
L 388.378773 91.313779 
L 388.753728 89.990617 
L 389.129398 88.935405 
L 389.503133 87.761993 
L 389.754314 87.262935 
L 390.132098 85.541018 
L 390.878407 81.515378 
L 391.127802 80.912371 
L 391.500986 80.655141 
L 392.626195 77.122444 
L 393.623671 72.230361 
L 394.247158 70.19432 
L 394.372391 70.147139 
L 394.746454 68.841533 
L 395.249962 66.723531 
L 395.372933 66.527091 
L 395.747486 64.993413 
L 396.122427 63.028524 
L 396.869882 60.529963 
L 397.238542 58.739138 
L 397.493742 58.21768 
L 397.867194 56.867721 
L 398.365299 54.947762 
L 398.448024 54.69253 
L 397.755996 57.334759 
L 397.253218 58.929139 
L 396.631665 61.165484 
L 396.008907 65.043483 
L 395.884656 64.971033 
L 395.757325 65.189783 
L 395.51104 66.893003 
L 394.883088 70.79555 
L 394.758837 70.88629 
L 394.385162 69.942887 
L 394.135186 70.026054 
L 394.009045 70.379568 
L 393.385052 75.419859 
L 393.136848 76.939538 
L 392.639204 78.771015 
L 392.385478 79.26831 
L 392.258459 79.217754 
L 392.136396 79.338434 
L 391.639853 80.932655 
L 391.514054 81.041907 
L 391.389967 81.362395 
L 391.140602 83.09889 
L 390.765423 85.94412 
L 390.394486 86.368486 
L 389.889416 88.515149 
L 389.266062 91.102918 
L 388.891166 92.276565 
L 388.142967 95.156181 
L 387.642867 97.38562 
L 386.643442 100.903013 
L 385.398998 105.783174 
L 384.39734 108.970581 
L 383.649691 112.563014 
L 383.275048 114.248524 
L 382.775887 115.55824 
L 382.274388 117.179908 
L 381.648728 119.772506 
L 381.402726 120.401195 
L 380.655182 123.363182 
L 380.154115 126.08854 
L 379.033654 128.777585 
L 378.285767 132.589557 
L 377.908846 133.468712 
L 377.655597 134.014155 
L 377.282248 135.712549 
L 375.160785 143.470634 
L 372.165709 153.602752 
L 371.667783 155.20591 
L 371.045293 157.839324 
L 370.417385 159.966115 
L 369.794702 161.872146 
L 366.922746 171.449874 
L 366.674884 172.027356 
L 365.423698 176.2773 
L 365.299387 176.483404 
L 362.927248 184.301224 
L 358.685787 196.776679 
L 358.309931 197.878108 
L 357.186775 201.107855 
L 356.564896 202.714555 
L 355.939459 204.508841 
L 355.065364 206.72378 
L 353.817042 209.911261 
L 352.816731 212.457411 
L 352.194569 213.854066 
L 351.820715 214.766544 
L 349.69483 219.734245 
L 348.193959 222.672289 
L 346.700053 225.631822 
L 345.823167 227.116226 
L 344.453311 229.524756 
L 342.206926 232.988412 
L 341.333918 234.099096 
L 340.336844 235.400198 
L 338.96192 237.028954 
L 335.216078 240.602364 
L 334.344193 241.315211 
L 333.71595 241.790022 
L 332.841468 242.426371 
L 331.970968 243.044575 
L 331.346707 243.449402 
L 330.472671 243.990907 
L 329.598211 244.529259 
L 328.844854 244.980962 
L 327.726231 245.634704 
L 327.101167 245.972451 
L 325.97752 246.613757 
L 325.351875 246.937792 
L 324.606228 247.342294 
L 323.727817 247.837012 
L 322.8603 248.289547 
L 321.86246 248.828407 
L 320.736581 249.441314 
L 319.866393 249.862311 
L 318.990936 250.298441 
L 318.117466 250.663386 
L 317.496554 250.909317 
L 314.250506 251.550536 
L 313.130945 251.458456 
L 312.384264 251.375799 
L 311.756587 251.280786 
L 310.754914 251.068102 
L 309.633731 250.826774 
L 308.260527 250.578075 
L 307.262448 250.421609 
L 305.887711 250.221695 
L 304.263116 250.030582 
L 302.89335 249.871912 
L 301.518947 249.748378 
L 300.144499 249.61091 
L 298.023545 249.436708 
L 295.52714 249.225777 
L 292.907281 249.02254 
L 271.808561 248.208375 
L 270.184603 248.185368 
L 268.814654 248.150505 
L 266.941008 248.127086 
L 265.31668 248.094121 
L 263.447535 248.075517 
L 262.072395 248.047207 
L 260.44942 248.033739 
L 258.577836 248.003072 
L 256.456222 247.986582 
L 254.334155 247.960874 
L 251.961815 247.946084 
L 250.090444 247.921941 
L 248.153424 247.917455 
L 208.395259 247.82885 
L 197.285938 248.037962 
L 191.299341 248.388442 
L 187.426974 248.817783 
L 184.931708 249.278683 
L 182.937859 249.824365 
L 181.312628 250.453057 
L 179.56903 251.399018 
L 178.072292 252.51934 
L 176.821102 253.707115 
L 175.329745 255.454669 
L 174.076013 257.151728 
L 173.32506 258.25569 
L 168.085848 265.947952 
L 165.33821 268.820371 
L 164.716509 269.18237 
L 164.088988 269.582372 
L 163.21525 269.775798 
L 162.841463 269.876206 
L 161.720831 269.796908 
L 161.345622 269.651495 
L 160.095924 268.855272 
L 159.347561 268.139749 
L 158.847335 267.493668 
L 157.471086 265.004282 
L 156.351518 262.364124 
L 154.228841 257.146549 
L 153.605681 256.317909 
L 153.101355 255.954428 
L 152.603577 255.820886 
L 151.856702 255.895333 
L 150.855565 256.275831 
L 149.359829 257.211169 
L 147.364186 258.995446 
L 145.614485 261.060745 
L 143.366448 264.530742 
L 141.373879 268.389171 
L 133.010205 286.244329 
L 132.636262 286.795137 
L 132.014003 288.032546 
L 131.263377 289.370074 
L 130.765346 290.253023 
L 130.265463 290.978168 
L 129.892442 291.568102 
L 129.39267 292.063243 
L 128.515851 293.300545 
L 127.272233 293.887184 
L 127.022994 293.971992 
L 126.520238 294.377598 
L 126.021597 294.235653 
L 125.273911 293.746154 
L 124.898807 293.51842 
L 124.774243 293.448703 
L 124.151307 292.411597 
L 123.898005 292.248924 
L 123.649912 291.855601 
L 123.026247 290.115063 
L 122.526914 288.560783 
L 121.026079 282.141772 
L 119.780987 275.64188 
L 119.152246 273.306551 
L 118.65304 272.320081 
L 117.780522 271.283837 
L 117.283891 270.94133 
L 116.658297 270.629361 
L 115.656372 270.427756 
L 115.283448 270.363772 
L 114.910703 270.341534 
L 112.290092 270.267891 
L 109.668312 270.325755 
L 109.415063 270.452606 
L 108.792067 270.40962 
L 108.419046 270.412001 
L 107.298972 270.501738 
L 106.545325 270.59149 
L 106.046922 270.650688 
L 105.422959 270.605388 
L 104.545477 270.743249 
L 103.178152 270.770623 
L 102.677486 270.888871 
L 96.184974 271.519137 
L 95.811611 271.576222 
L 94.93666 271.659774 
L 94.559844 271.769279 
L 94.18794 271.771948 
L 93.061659 272.003608 
L 92.817176 271.989123 
L 92.313608 272.208204 
L 91.815458 272.20041 
L 89.0682 272.779844 
L 88.818404 272.82821 
L 88.324243 272.87053 
L 87.950761 272.919699 
L 86.946543 273.087913 
L 86.701449 273.189817 
L 85.451439 273.350399 
L 84.700828 273.548335 
L 78.336392 274.843849 
L 77.458881 274.95094 
L 77.086753 275.02657 
L 76.585254 275.03968 
L 75.713697 275.068439 
L 75.467413 275.121462 
L 75.091207 275.140989 
L 74.089847 275.155159 
L 73.833204 275.099369 
L 74.02918 274.716733 
L 75.277375 273.619228 
L 75.776046 273.210946 
L 76.400604 272.892564 
L 77.899906 272.01432 
L 78.024321 272.082389 
L 78.776033 271.557668 
L 84.387343 269.661292 
L 84.76276 269.500984 
L 85.138132 269.30077 
L 85.763182 269.185981 
L 86.387801 268.970906 
L 94.251107 266.896912 
L 94.496706 266.90423 
L 95.000348 266.682819 
L 97.748157 266.024706 
L 98.122622 265.903887 
L 98.494615 265.8777 
L 99.118043 265.656289 
L 99.491212 265.585871 
L 100.243728 265.389702 
L 100.867007 265.297979 
L 103.985827 264.588334 
L 104.359071 264.507041 
L 104.73547 264.468849 
L 105.110694 264.305292 
L 105.483402 264.245103 
L 106.606021 264.002618 
L 106.855267 264.017079 
L 107.855883 263.719039 
L 109.479138 263.373686 
L 110.351529 263.150301 
L 111.724012 262.871709 
L 112.349985 262.727026 
L 113.971892 262.34257 
L 114.597106 262.231763 
L 116.716888 261.702321 
L 117.842529 261.445907 
L 119.213516 261.059016 
L 123.582138 259.988777 
L 123.835768 260.027179 
L 124.333642 259.831051 
L 125.954508 259.500809 
L 126.581463 259.344378 
L 127.205196 259.21127 
L 127.951602 259.040837 
L 139.186398 256.871229 
L 139.809096 256.747264 
L 140.182556 256.690654 
L 141.056301 256.528239 
L 142.67931 256.21964 
L 143.301718 256.093778 
L 144.179333 255.949465 
L 144.79939 255.803144 
L 145.426546 255.6989 
L 146.300738 255.536637 
L 147.92202 255.267066 
L 148.796986 255.106124 
L 150.919298 254.824747 
L 151.793408 254.675128 
L 152.66731 254.530366 
L 153.2921 254.448254 
L 153.916934 254.349969 
L 155.039449 254.169258 
L 155.914943 254.048953 
L 156.788108 253.899133 
L 157.908137 253.755279 
L 158.53548 253.635497 
L 159.157069 253.571794 
L 160.032169 253.422569 
L 160.53049 253.366313 
L 161.405954 253.248806 
L 162.026435 253.165014 
L 162.649304 253.109015 
L 163.279288 253.007537 
L 163.897819 252.94652 
L 165.024279 252.674472 
L 165.649857 252.596848 
L 166.024984 252.51895 
L 166.65013 252.503959 
L 167.270135 252.462252 
L 168.145205 252.468878 
L 168.766898 252.445886 
L 169.643769 252.487987 
L 170.265984 252.476607 
L 171.14025 252.521813 
L 171.515012 252.532799 
L 171.887735 252.580482 
L 172.511468 252.581415 
L 173.636469 252.61845 
L 174.26127 252.613705 
L 174.76176 252.625752 
L 175.634768 252.639215 
L 176.135073 252.612514 
L 177.005406 252.587342 
L 178.129402 252.554312 
L 178.754932 252.492627 
L 179.25265 252.457217 
L 180.628032 252.342518 
L 181.498119 252.234726 
L 183.62387 251.760053 
L 186.622729 250.412851 
L 187.87213 249.644971 
L 193.480895 246.218727 
L 195.104957 245.47448 
L 195.977247 245.083944 
L 197.097191 244.640282 
L 198.222133 244.225643 
L 200.72013 243.711113 
L 202.341044 243.901436 
L 203.215318 244.200379 
L 204.715449 244.794848 
L 205.836159 245.123869 
L 208.333756 245.439867 
L 212.327155 245.332107 
L 214.844811 244.863334 
L 214.844811 244.863334 
" style="fill:none;stroke:#1f77b4;stroke-linecap:square;stroke-width:1.5;"/>
   </g>
   <g id="patch_3">
    <path d="M 57.6 307.584 
L 57.6 41.472 
" style="fill:none;stroke:#000000;stroke-linecap:square;stroke-linejoin:miter;stroke-width:0.8;"/>
   </g>
   <g id="patch_4">
    <path d="M 414.72 307.584 
L 414.72 41.472 
" style="fill:none;stroke:#000000;stroke-linecap:square;stroke-linejoin:miter;stroke-width:0.8;"/>
   </g>
   <g id="patch_5">
    <path d="M 57.6 307.584 
L 414.72 307.584 
" style="fill:none;stroke:#000000;stroke-linecap:square;stroke-linejoin:miter;stroke-width:0.8;"/>
   </g>
   <g id="patch_6">
    <path d="M 57.6 41.472 
L 414.72 41.472 
" style="fill:none;stroke:#000000;stroke-linecap:square;stroke-linejoin:miter;stroke-width:0.8;"/>
   </g>
  </g>
 </g>
 <defs>
  <clipPath id="pda4a60d7ab">
   <rect height="266.112" width="357.12" x="57.6" y="41.472"/>
  </clipPath>
 </defs>
</svg>
