<?xml version="1.0" encoding="utf-8" standalone="no"?>
<!DOCTYPE svg PUBLIC "-//W3C//DTD SVG 1.1//EN"
  "http://www.w3.org/Graphics/SVG/1.1/DTD/svg11.dtd">
<!-- Created with matplotlib (https://matplotlib.org/) -->
<svg height="345.6pt" version="1.1" viewBox="0 0 460.8 345.6" width="460.8pt" xmlns="http://www.w3.org/2000/svg" xmlns:xlink="http://www.w3.org/1999/xlink">
 <metadata>
  <rdf:RDF xmlns:cc="http://creativecommons.org/ns#" xmlns:dc="http://purl.org/dc/elements/1.1/" xmlns:rdf="http://www.w3.org/1999/02/22-rdf-syntax-ns#">
   <cc:Work>
    <dc:type rdf:resource="http://purl.org/dc/dcmitype/StillImage"/>
    <dc:date>2022-01-08T00:19:26.471755</dc:date>
    <dc:format>image/svg+xml</dc:format>
    <dc:creator>
     <cc:Agent>
      <dc:title>Matplotlib v3.3.4, https://matplotlib.org/</dc:title>
     </cc:Agent>
    </dc:creator>
   </cc:Work>
  </rdf:RDF>
 </metadata>
 <defs>
  <style type="text/css">*{stroke-linecap:butt;stroke-linejoin:round;}</style>
 </defs>
 <g id="figure_1">
  <g id="patch_1">
   <path d="M 0 345.6 
L 460.8 345.6 
L 460.8 0 
L 0 0 
z
" style="fill:#ffffff;"/>
  </g>
  <g id="axes_1">
   <g id="patch_2">
    <path d="M 57.6 307.584 
L 414.72 307.584 
L 414.72 41.472 
L 57.6 41.472 
z
" style="fill:#ffffff;"/>
   </g>
   <g id="matplotlib.axis_1">
    <g id="xtick_1">
     <g id="line2d_1">
      <path clip-path="url(#pb8b3dbb021)" d="M 111.281885 307.584 
L 111.281885 41.472 
" style="fill:none;stroke:#b0b0b0;stroke-linecap:square;stroke-width:0.8;"/>
     </g>
     <g id="line2d_2">
      <defs>
       <path d="M 0 0 
L 0 3.5 
" id="m5080a40241" style="stroke:#000000;stroke-width:0.8;"/>
      </defs>
      <g>
       <use style="stroke:#000000;stroke-width:0.8;" x="111.281885" xlink:href="#m5080a40241" y="307.584"/>
      </g>
     </g>
     <g id="text_1">
      <!-- −1.0 -->
      <g transform="translate(99.140479 322.182437)scale(0.1 -0.1)">
       <defs>
        <path d="M 10.59375 35.5 
L 73.1875 35.5 
L 73.1875 27.203125 
L 10.59375 27.203125 
z
" id="DejaVuSans-8722"/>
        <path d="M 12.40625 8.296875 
L 28.515625 8.296875 
L 28.515625 63.921875 
L 10.984375 60.40625 
L 10.984375 69.390625 
L 28.421875 72.90625 
L 38.28125 72.90625 
L 38.28125 8.296875 
L 54.390625 8.296875 
L 54.390625 0 
L 12.40625 0 
z
" id="DejaVuSans-49"/>
        <path d="M 10.6875 12.40625 
L 21 12.40625 
L 21 0 
L 10.6875 0 
z
" id="DejaVuSans-46"/>
        <path d="M 31.78125 66.40625 
Q 24.171875 66.40625 20.328125 58.90625 
Q 16.5 51.421875 16.5 36.375 
Q 16.5 21.390625 20.328125 13.890625 
Q 24.171875 6.390625 31.78125 6.390625 
Q 39.453125 6.390625 43.28125 13.890625 
Q 47.125 21.390625 47.125 36.375 
Q 47.125 51.421875 43.28125 58.90625 
Q 39.453125 66.40625 31.78125 66.40625 
z
M 31.78125 74.21875 
Q 44.046875 74.21875 50.515625 64.515625 
Q 56.984375 54.828125 56.984375 36.375 
Q 56.984375 17.96875 50.515625 8.265625 
Q 44.046875 -1.421875 31.78125 -1.421875 
Q 19.53125 -1.421875 13.0625 8.265625 
Q 6.59375 17.96875 6.59375 36.375 
Q 6.59375 54.828125 13.0625 64.515625 
Q 19.53125 74.21875 31.78125 74.21875 
z
" id="DejaVuSans-48"/>
       </defs>
       <use xlink:href="#DejaVuSans-8722"/>
       <use x="83.789062" xlink:href="#DejaVuSans-49"/>
       <use x="147.412109" xlink:href="#DejaVuSans-46"/>
       <use x="179.199219" xlink:href="#DejaVuSans-48"/>
      </g>
     </g>
    </g>
    <g id="xtick_2">
     <g id="line2d_3">
      <path clip-path="url(#pb8b3dbb021)" d="M 173.719115 307.584 
L 173.719115 41.472 
" style="fill:none;stroke:#b0b0b0;stroke-linecap:square;stroke-width:0.8;"/>
     </g>
     <g id="line2d_4">
      <g>
       <use style="stroke:#000000;stroke-width:0.8;" x="173.719115" xlink:href="#m5080a40241" y="307.584"/>
      </g>
     </g>
     <g id="text_2">
      <!-- −0.5 -->
      <g transform="translate(161.577709 322.182437)scale(0.1 -0.1)">
       <defs>
        <path d="M 10.796875 72.90625 
L 49.515625 72.90625 
L 49.515625 64.59375 
L 19.828125 64.59375 
L 19.828125 46.734375 
Q 21.96875 47.46875 24.109375 47.828125 
Q 26.265625 48.1875 28.421875 48.1875 
Q 40.625 48.1875 47.75 41.5 
Q 54.890625 34.8125 54.890625 23.390625 
Q 54.890625 11.625 47.5625 5.09375 
Q 40.234375 -1.421875 26.90625 -1.421875 
Q 22.3125 -1.421875 17.546875 -0.640625 
Q 12.796875 0.140625 7.71875 1.703125 
L 7.71875 11.625 
Q 12.109375 9.234375 16.796875 8.0625 
Q 21.484375 6.890625 26.703125 6.890625 
Q 35.15625 6.890625 40.078125 11.328125 
Q 45.015625 15.765625 45.015625 23.390625 
Q 45.015625 31 40.078125 35.4375 
Q 35.15625 39.890625 26.703125 39.890625 
Q 22.75 39.890625 18.8125 39.015625 
Q 14.890625 38.140625 10.796875 36.28125 
z
" id="DejaVuSans-53"/>
       </defs>
       <use xlink:href="#DejaVuSans-8722"/>
       <use x="83.789062" xlink:href="#DejaVuSans-48"/>
       <use x="147.412109" xlink:href="#DejaVuSans-46"/>
       <use x="179.199219" xlink:href="#DejaVuSans-53"/>
      </g>
     </g>
    </g>
    <g id="xtick_3">
     <g id="line2d_5">
      <path clip-path="url(#pb8b3dbb021)" d="M 236.156345 307.584 
L 236.156345 41.472 
" style="fill:none;stroke:#b0b0b0;stroke-linecap:square;stroke-width:0.8;"/>
     </g>
     <g id="line2d_6">
      <g>
       <use style="stroke:#000000;stroke-width:0.8;" x="236.156345" xlink:href="#m5080a40241" y="307.584"/>
      </g>
     </g>
     <g id="text_3">
      <!-- 0.0 -->
      <g transform="translate(228.204783 322.182437)scale(0.1 -0.1)">
       <use xlink:href="#DejaVuSans-48"/>
       <use x="63.623047" xlink:href="#DejaVuSans-46"/>
       <use x="95.410156" xlink:href="#DejaVuSans-48"/>
      </g>
     </g>
    </g>
    <g id="xtick_4">
     <g id="line2d_7">
      <path clip-path="url(#pb8b3dbb021)" d="M 298.593576 307.584 
L 298.593576 41.472 
" style="fill:none;stroke:#b0b0b0;stroke-linecap:square;stroke-width:0.8;"/>
     </g>
     <g id="line2d_8">
      <g>
       <use style="stroke:#000000;stroke-width:0.8;" x="298.593576" xlink:href="#m5080a40241" y="307.584"/>
      </g>
     </g>
     <g id="text_4">
      <!-- 0.5 -->
      <g transform="translate(290.642013 322.182437)scale(0.1 -0.1)">
       <use xlink:href="#DejaVuSans-48"/>
       <use x="63.623047" xlink:href="#DejaVuSans-46"/>
       <use x="95.410156" xlink:href="#DejaVuSans-53"/>
      </g>
     </g>
    </g>
    <g id="xtick_5">
     <g id="line2d_9">
      <path clip-path="url(#pb8b3dbb021)" d="M 361.030806 307.584 
L 361.030806 41.472 
" style="fill:none;stroke:#b0b0b0;stroke-linecap:square;stroke-width:0.8;"/>
     </g>
     <g id="line2d_10">
      <g>
       <use style="stroke:#000000;stroke-width:0.8;" x="361.030806" xlink:href="#m5080a40241" y="307.584"/>
      </g>
     </g>
     <g id="text_5">
      <!-- 1.0 -->
      <g transform="translate(353.079243 322.182437)scale(0.1 -0.1)">
       <use xlink:href="#DejaVuSans-49"/>
       <use x="63.623047" xlink:href="#DejaVuSans-46"/>
       <use x="95.410156" xlink:href="#DejaVuSans-48"/>
      </g>
     </g>
    </g>
    <g id="text_6">
     <!-- Voltage (E/V) -->
     <g transform="translate(203.649062 335.860562)scale(0.1 -0.1)">
      <defs>
       <path d="M 28.609375 0 
L 0.78125 72.90625 
L 11.078125 72.90625 
L 34.1875 11.53125 
L 57.328125 72.90625 
L 67.578125 72.90625 
L 39.796875 0 
z
" id="DejaVuSans-86"/>
       <path d="M 30.609375 48.390625 
Q 23.390625 48.390625 19.1875 42.75 
Q 14.984375 37.109375 14.984375 27.296875 
Q 14.984375 17.484375 19.15625 11.84375 
Q 23.34375 6.203125 30.609375 6.203125 
Q 37.796875 6.203125 41.984375 11.859375 
Q 46.1875 17.53125 46.1875 27.296875 
Q 46.1875 37.015625 41.984375 42.703125 
Q 37.796875 48.390625 30.609375 48.390625 
z
M 30.609375 56 
Q 42.328125 56 49.015625 48.375 
Q 55.71875 40.765625 55.71875 27.296875 
Q 55.71875 13.875 49.015625 6.21875 
Q 42.328125 -1.421875 30.609375 -1.421875 
Q 18.84375 -1.421875 12.171875 6.21875 
Q 5.515625 13.875 5.515625 27.296875 
Q 5.515625 40.765625 12.171875 48.375 
Q 18.84375 56 30.609375 56 
z
" id="DejaVuSans-111"/>
       <path d="M 9.421875 75.984375 
L 18.40625 75.984375 
L 18.40625 0 
L 9.421875 0 
z
" id="DejaVuSans-108"/>
       <path d="M 18.3125 70.21875 
L 18.3125 54.6875 
L 36.8125 54.6875 
L 36.8125 47.703125 
L 18.3125 47.703125 
L 18.3125 18.015625 
Q 18.3125 11.328125 20.140625 9.421875 
Q 21.96875 7.515625 27.59375 7.515625 
L 36.8125 7.515625 
L 36.8125 0 
L 27.59375 0 
Q 17.1875 0 13.234375 3.875 
Q 9.28125 7.765625 9.28125 18.015625 
L 9.28125 47.703125 
L 2.6875 47.703125 
L 2.6875 54.6875 
L 9.28125 54.6875 
L 9.28125 70.21875 
z
" id="DejaVuSans-116"/>
       <path d="M 34.28125 27.484375 
Q 23.390625 27.484375 19.1875 25 
Q 14.984375 22.515625 14.984375 16.5 
Q 14.984375 11.71875 18.140625 8.90625 
Q 21.296875 6.109375 26.703125 6.109375 
Q 34.1875 6.109375 38.703125 11.40625 
Q 43.21875 16.703125 43.21875 25.484375 
L 43.21875 27.484375 
z
M 52.203125 31.203125 
L 52.203125 0 
L 43.21875 0 
L 43.21875 8.296875 
Q 40.140625 3.328125 35.546875 0.953125 
Q 30.953125 -1.421875 24.3125 -1.421875 
Q 15.921875 -1.421875 10.953125 3.296875 
Q 6 8.015625 6 15.921875 
Q 6 25.140625 12.171875 29.828125 
Q 18.359375 34.515625 30.609375 34.515625 
L 43.21875 34.515625 
L 43.21875 35.40625 
Q 43.21875 41.609375 39.140625 45 
Q 35.0625 48.390625 27.6875 48.390625 
Q 23 48.390625 18.546875 47.265625 
Q 14.109375 46.140625 10.015625 43.890625 
L 10.015625 52.203125 
Q 14.9375 54.109375 19.578125 55.046875 
Q 24.21875 56 28.609375 56 
Q 40.484375 56 46.34375 49.84375 
Q 52.203125 43.703125 52.203125 31.203125 
z
" id="DejaVuSans-97"/>
       <path d="M 45.40625 27.984375 
Q 45.40625 37.75 41.375 43.109375 
Q 37.359375 48.484375 30.078125 48.484375 
Q 22.859375 48.484375 18.828125 43.109375 
Q 14.796875 37.75 14.796875 27.984375 
Q 14.796875 18.265625 18.828125 12.890625 
Q 22.859375 7.515625 30.078125 7.515625 
Q 37.359375 7.515625 41.375 12.890625 
Q 45.40625 18.265625 45.40625 27.984375 
z
M 54.390625 6.78125 
Q 54.390625 -7.171875 48.1875 -13.984375 
Q 42 -20.796875 29.203125 -20.796875 
Q 24.46875 -20.796875 20.265625 -20.09375 
Q 16.0625 -19.390625 12.109375 -17.921875 
L 12.109375 -9.1875 
Q 16.0625 -11.328125 19.921875 -12.34375 
Q 23.78125 -13.375 27.78125 -13.375 
Q 36.625 -13.375 41.015625 -8.765625 
Q 45.40625 -4.15625 45.40625 5.171875 
L 45.40625 9.625 
Q 42.625 4.78125 38.28125 2.390625 
Q 33.9375 0 27.875 0 
Q 17.828125 0 11.671875 7.65625 
Q 5.515625 15.328125 5.515625 27.984375 
Q 5.515625 40.671875 11.671875 48.328125 
Q 17.828125 56 27.875 56 
Q 33.9375 56 38.28125 53.609375 
Q 42.625 51.21875 45.40625 46.390625 
L 45.40625 54.6875 
L 54.390625 54.6875 
z
" id="DejaVuSans-103"/>
       <path d="M 56.203125 29.59375 
L 56.203125 25.203125 
L 14.890625 25.203125 
Q 15.484375 15.921875 20.484375 11.0625 
Q 25.484375 6.203125 34.421875 6.203125 
Q 39.59375 6.203125 44.453125 7.46875 
Q 49.3125 8.734375 54.109375 11.28125 
L 54.109375 2.78125 
Q 49.265625 0.734375 44.1875 -0.34375 
Q 39.109375 -1.421875 33.890625 -1.421875 
Q 20.796875 -1.421875 13.15625 6.1875 
Q 5.515625 13.8125 5.515625 26.8125 
Q 5.515625 40.234375 12.765625 48.109375 
Q 20.015625 56 32.328125 56 
Q 43.359375 56 49.78125 48.890625 
Q 56.203125 41.796875 56.203125 29.59375 
z
M 47.21875 32.234375 
Q 47.125 39.59375 43.09375 43.984375 
Q 39.0625 48.390625 32.421875 48.390625 
Q 24.90625 48.390625 20.390625 44.140625 
Q 15.875 39.890625 15.1875 32.171875 
z
" id="DejaVuSans-101"/>
       <path id="DejaVuSans-32"/>
       <path d="M 31 75.875 
Q 24.46875 64.65625 21.28125 53.65625 
Q 18.109375 42.671875 18.109375 31.390625 
Q 18.109375 20.125 21.3125 9.0625 
Q 24.515625 -2 31 -13.1875 
L 23.1875 -13.1875 
Q 15.875 -1.703125 12.234375 9.375 
Q 8.59375 20.453125 8.59375 31.390625 
Q 8.59375 42.28125 12.203125 53.3125 
Q 15.828125 64.359375 23.1875 75.875 
z
" id="DejaVuSans-40"/>
       <path d="M 9.8125 72.90625 
L 55.90625 72.90625 
L 55.90625 64.59375 
L 19.671875 64.59375 
L 19.671875 43.015625 
L 54.390625 43.015625 
L 54.390625 34.71875 
L 19.671875 34.71875 
L 19.671875 8.296875 
L 56.78125 8.296875 
L 56.78125 0 
L 9.8125 0 
z
" id="DejaVuSans-69"/>
       <path d="M 25.390625 72.90625 
L 33.6875 72.90625 
L 8.296875 -9.28125 
L 0 -9.28125 
z
" id="DejaVuSans-47"/>
       <path d="M 8.015625 75.875 
L 15.828125 75.875 
Q 23.140625 64.359375 26.78125 53.3125 
Q 30.421875 42.28125 30.421875 31.390625 
Q 30.421875 20.453125 26.78125 9.375 
Q 23.140625 -1.703125 15.828125 -13.1875 
L 8.015625 -13.1875 
Q 14.5 -2 17.703125 9.0625 
Q 20.90625 20.125 20.90625 31.390625 
Q 20.90625 42.671875 17.703125 53.65625 
Q 14.5 64.65625 8.015625 75.875 
z
" id="DejaVuSans-41"/>
      </defs>
      <use xlink:href="#DejaVuSans-86"/>
      <use x="60.658203" xlink:href="#DejaVuSans-111"/>
      <use x="121.839844" xlink:href="#DejaVuSans-108"/>
      <use x="149.623047" xlink:href="#DejaVuSans-116"/>
      <use x="188.832031" xlink:href="#DejaVuSans-97"/>
      <use x="250.111328" xlink:href="#DejaVuSans-103"/>
      <use x="313.587891" xlink:href="#DejaVuSans-101"/>
      <use x="375.111328" xlink:href="#DejaVuSans-32"/>
      <use x="406.898438" xlink:href="#DejaVuSans-40"/>
      <use x="445.912109" xlink:href="#DejaVuSans-69"/>
      <use x="509.095703" xlink:href="#DejaVuSans-47"/>
      <use x="542.787109" xlink:href="#DejaVuSans-86"/>
      <use x="611.195312" xlink:href="#DejaVuSans-41"/>
     </g>
    </g>
   </g>
   <g id="matplotlib.axis_2">
    <g id="ytick_1">
     <g id="line2d_11">
      <path clip-path="url(#pb8b3dbb021)" d="M 57.6 262.239833 
L 414.72 262.239833 
" style="fill:none;stroke:#b0b0b0;stroke-linecap:square;stroke-width:0.8;"/>
     </g>
     <g id="line2d_12">
      <defs>
       <path d="M 0 0 
L -3.5 0 
" id="m7d4c98797a" style="stroke:#000000;stroke-width:0.8;"/>
      </defs>
      <g>
       <use style="stroke:#000000;stroke-width:0.8;" x="57.6" xlink:href="#m7d4c98797a" y="262.239833"/>
      </g>
     </g>
     <g id="text_7">
      <!-- 0 -->
      <g transform="translate(44.2375 266.039052)scale(0.1 -0.1)">
       <use xlink:href="#DejaVuSans-48"/>
      </g>
     </g>
    </g>
    <g id="ytick_2">
     <g id="line2d_13">
      <path clip-path="url(#pb8b3dbb021)" d="M 57.6 211.500362 
L 414.72 211.500362 
" style="fill:none;stroke:#b0b0b0;stroke-linecap:square;stroke-width:0.8;"/>
     </g>
     <g id="line2d_14">
      <g>
       <use style="stroke:#000000;stroke-width:0.8;" x="57.6" xlink:href="#m7d4c98797a" y="211.500362"/>
      </g>
     </g>
     <g id="text_8">
      <!-- 10 -->
      <g transform="translate(37.875 215.299581)scale(0.1 -0.1)">
       <use xlink:href="#DejaVuSans-49"/>
       <use x="63.623047" xlink:href="#DejaVuSans-48"/>
      </g>
     </g>
    </g>
    <g id="ytick_3">
     <g id="line2d_15">
      <path clip-path="url(#pb8b3dbb021)" d="M 57.6 160.760891 
L 414.72 160.760891 
" style="fill:none;stroke:#b0b0b0;stroke-linecap:square;stroke-width:0.8;"/>
     </g>
     <g id="line2d_16">
      <g>
       <use style="stroke:#000000;stroke-width:0.8;" x="57.6" xlink:href="#m7d4c98797a" y="160.760891"/>
      </g>
     </g>
     <g id="text_9">
      <!-- 20 -->
      <g transform="translate(37.875 164.56011)scale(0.1 -0.1)">
       <defs>
        <path d="M 19.1875 8.296875 
L 53.609375 8.296875 
L 53.609375 0 
L 7.328125 0 
L 7.328125 8.296875 
Q 12.9375 14.109375 22.625 23.890625 
Q 32.328125 33.6875 34.8125 36.53125 
Q 39.546875 41.84375 41.421875 45.53125 
Q 43.3125 49.21875 43.3125 52.78125 
Q 43.3125 58.59375 39.234375 62.25 
Q 35.15625 65.921875 28.609375 65.921875 
Q 23.96875 65.921875 18.8125 64.3125 
Q 13.671875 62.703125 7.8125 59.421875 
L 7.8125 69.390625 
Q 13.765625 71.78125 18.9375 73 
Q 24.125 74.21875 28.421875 74.21875 
Q 39.75 74.21875 46.484375 68.546875 
Q 53.21875 62.890625 53.21875 53.421875 
Q 53.21875 48.921875 51.53125 44.890625 
Q 49.859375 40.875 45.40625 35.40625 
Q 44.1875 33.984375 37.640625 27.21875 
Q 31.109375 20.453125 19.1875 8.296875 
z
" id="DejaVuSans-50"/>
       </defs>
       <use xlink:href="#DejaVuSans-50"/>
       <use x="63.623047" xlink:href="#DejaVuSans-48"/>
      </g>
     </g>
    </g>
    <g id="ytick_4">
     <g id="line2d_17">
      <path clip-path="url(#pb8b3dbb021)" d="M 57.6 110.02142 
L 414.72 110.02142 
" style="fill:none;stroke:#b0b0b0;stroke-linecap:square;stroke-width:0.8;"/>
     </g>
     <g id="line2d_18">
      <g>
       <use style="stroke:#000000;stroke-width:0.8;" x="57.6" xlink:href="#m7d4c98797a" y="110.02142"/>
      </g>
     </g>
     <g id="text_10">
      <!-- 30 -->
      <g transform="translate(37.875 113.820639)scale(0.1 -0.1)">
       <defs>
        <path d="M 40.578125 39.3125 
Q 47.65625 37.796875 51.625 33 
Q 55.609375 28.21875 55.609375 21.1875 
Q 55.609375 10.40625 48.1875 4.484375 
Q 40.765625 -1.421875 27.09375 -1.421875 
Q 22.515625 -1.421875 17.65625 -0.515625 
Q 12.796875 0.390625 7.625 2.203125 
L 7.625 11.71875 
Q 11.71875 9.328125 16.59375 8.109375 
Q 21.484375 6.890625 26.8125 6.890625 
Q 36.078125 6.890625 40.9375 10.546875 
Q 45.796875 14.203125 45.796875 21.1875 
Q 45.796875 27.640625 41.28125 31.265625 
Q 36.765625 34.90625 28.71875 34.90625 
L 20.21875 34.90625 
L 20.21875 43.015625 
L 29.109375 43.015625 
Q 36.375 43.015625 40.234375 45.921875 
Q 44.09375 48.828125 44.09375 54.296875 
Q 44.09375 59.90625 40.109375 62.90625 
Q 36.140625 65.921875 28.71875 65.921875 
Q 24.65625 65.921875 20.015625 65.03125 
Q 15.375 64.15625 9.8125 62.3125 
L 9.8125 71.09375 
Q 15.4375 72.65625 20.34375 73.4375 
Q 25.25 74.21875 29.59375 74.21875 
Q 40.828125 74.21875 47.359375 69.109375 
Q 53.90625 64.015625 53.90625 55.328125 
Q 53.90625 49.265625 50.4375 45.09375 
Q 46.96875 40.921875 40.578125 39.3125 
z
" id="DejaVuSans-51"/>
       </defs>
       <use xlink:href="#DejaVuSans-51"/>
       <use x="63.623047" xlink:href="#DejaVuSans-48"/>
      </g>
     </g>
    </g>
    <g id="ytick_5">
     <g id="line2d_19">
      <path clip-path="url(#pb8b3dbb021)" d="M 57.6 59.281949 
L 414.72 59.281949 
" style="fill:none;stroke:#b0b0b0;stroke-linecap:square;stroke-width:0.8;"/>
     </g>
     <g id="line2d_20">
      <g>
       <use style="stroke:#000000;stroke-width:0.8;" x="57.6" xlink:href="#m7d4c98797a" y="59.281949"/>
      </g>
     </g>
     <g id="text_11">
      <!-- 40 -->
      <g transform="translate(37.875 63.081168)scale(0.1 -0.1)">
       <defs>
        <path d="M 37.796875 64.3125 
L 12.890625 25.390625 
L 37.796875 25.390625 
z
M 35.203125 72.90625 
L 47.609375 72.90625 
L 47.609375 25.390625 
L 58.015625 25.390625 
L 58.015625 17.1875 
L 47.609375 17.1875 
L 47.609375 0 
L 37.796875 0 
L 37.796875 17.1875 
L 4.890625 17.1875 
L 4.890625 26.703125 
z
" id="DejaVuSans-52"/>
       </defs>
       <use xlink:href="#DejaVuSans-52"/>
       <use x="63.623047" xlink:href="#DejaVuSans-48"/>
      </g>
     </g>
    </g>
    <g id="text_12">
     <!-- Current (I/mA) -->
     <g transform="translate(31.795312 210.245187)rotate(-90)scale(0.1 -0.1)">
      <defs>
       <path d="M 64.40625 67.28125 
L 64.40625 56.890625 
Q 59.421875 61.53125 53.78125 63.8125 
Q 48.140625 66.109375 41.796875 66.109375 
Q 29.296875 66.109375 22.65625 58.46875 
Q 16.015625 50.828125 16.015625 36.375 
Q 16.015625 21.96875 22.65625 14.328125 
Q 29.296875 6.6875 41.796875 6.6875 
Q 48.140625 6.6875 53.78125 8.984375 
Q 59.421875 11.28125 64.40625 15.921875 
L 64.40625 5.609375 
Q 59.234375 2.09375 53.4375 0.328125 
Q 47.65625 -1.421875 41.21875 -1.421875 
Q 24.65625 -1.421875 15.125 8.703125 
Q 5.609375 18.84375 5.609375 36.375 
Q 5.609375 53.953125 15.125 64.078125 
Q 24.65625 74.21875 41.21875 74.21875 
Q 47.75 74.21875 53.53125 72.484375 
Q 59.328125 70.75 64.40625 67.28125 
z
" id="DejaVuSans-67"/>
       <path d="M 8.5 21.578125 
L 8.5 54.6875 
L 17.484375 54.6875 
L 17.484375 21.921875 
Q 17.484375 14.15625 20.5 10.265625 
Q 23.53125 6.390625 29.59375 6.390625 
Q 36.859375 6.390625 41.078125 11.03125 
Q 45.3125 15.671875 45.3125 23.6875 
L 45.3125 54.6875 
L 54.296875 54.6875 
L 54.296875 0 
L 45.3125 0 
L 45.3125 8.40625 
Q 42.046875 3.421875 37.71875 1 
Q 33.40625 -1.421875 27.6875 -1.421875 
Q 18.265625 -1.421875 13.375 4.4375 
Q 8.5 10.296875 8.5 21.578125 
z
M 31.109375 56 
z
" id="DejaVuSans-117"/>
       <path d="M 41.109375 46.296875 
Q 39.59375 47.171875 37.8125 47.578125 
Q 36.03125 48 33.890625 48 
Q 26.265625 48 22.1875 43.046875 
Q 18.109375 38.09375 18.109375 28.8125 
L 18.109375 0 
L 9.078125 0 
L 9.078125 54.6875 
L 18.109375 54.6875 
L 18.109375 46.1875 
Q 20.953125 51.171875 25.484375 53.578125 
Q 30.03125 56 36.53125 56 
Q 37.453125 56 38.578125 55.875 
Q 39.703125 55.765625 41.0625 55.515625 
z
" id="DejaVuSans-114"/>
       <path d="M 54.890625 33.015625 
L 54.890625 0 
L 45.90625 0 
L 45.90625 32.71875 
Q 45.90625 40.484375 42.875 44.328125 
Q 39.84375 48.1875 33.796875 48.1875 
Q 26.515625 48.1875 22.3125 43.546875 
Q 18.109375 38.921875 18.109375 30.90625 
L 18.109375 0 
L 9.078125 0 
L 9.078125 54.6875 
L 18.109375 54.6875 
L 18.109375 46.1875 
Q 21.34375 51.125 25.703125 53.5625 
Q 30.078125 56 35.796875 56 
Q 45.21875 56 50.046875 50.171875 
Q 54.890625 44.34375 54.890625 33.015625 
z
" id="DejaVuSans-110"/>
       <path d="M 9.8125 72.90625 
L 19.671875 72.90625 
L 19.671875 0 
L 9.8125 0 
z
" id="DejaVuSans-73"/>
       <path d="M 52 44.1875 
Q 55.375 50.25 60.0625 53.125 
Q 64.75 56 71.09375 56 
Q 79.640625 56 84.28125 50.015625 
Q 88.921875 44.046875 88.921875 33.015625 
L 88.921875 0 
L 79.890625 0 
L 79.890625 32.71875 
Q 79.890625 40.578125 77.09375 44.375 
Q 74.3125 48.1875 68.609375 48.1875 
Q 61.625 48.1875 57.5625 43.546875 
Q 53.515625 38.921875 53.515625 30.90625 
L 53.515625 0 
L 44.484375 0 
L 44.484375 32.71875 
Q 44.484375 40.625 41.703125 44.40625 
Q 38.921875 48.1875 33.109375 48.1875 
Q 26.21875 48.1875 22.15625 43.53125 
Q 18.109375 38.875 18.109375 30.90625 
L 18.109375 0 
L 9.078125 0 
L 9.078125 54.6875 
L 18.109375 54.6875 
L 18.109375 46.1875 
Q 21.1875 51.21875 25.484375 53.609375 
Q 29.78125 56 35.6875 56 
Q 41.65625 56 45.828125 52.96875 
Q 50 49.953125 52 44.1875 
z
" id="DejaVuSans-109"/>
       <path d="M 34.1875 63.1875 
L 20.796875 26.90625 
L 47.609375 26.90625 
z
M 28.609375 72.90625 
L 39.796875 72.90625 
L 67.578125 0 
L 57.328125 0 
L 50.6875 18.703125 
L 17.828125 18.703125 
L 11.1875 0 
L 0.78125 0 
z
" id="DejaVuSans-65"/>
      </defs>
      <use xlink:href="#DejaVuSans-67"/>
      <use x="69.824219" xlink:href="#DejaVuSans-117"/>
      <use x="133.203125" xlink:href="#DejaVuSans-114"/>
      <use x="172.566406" xlink:href="#DejaVuSans-114"/>
      <use x="211.429688" xlink:href="#DejaVuSans-101"/>
      <use x="272.953125" xlink:href="#DejaVuSans-110"/>
      <use x="336.332031" xlink:href="#DejaVuSans-116"/>
      <use x="375.541016" xlink:href="#DejaVuSans-32"/>
      <use x="407.328125" xlink:href="#DejaVuSans-40"/>
      <use x="446.341797" xlink:href="#DejaVuSans-73"/>
      <use x="475.833984" xlink:href="#DejaVuSans-47"/>
      <use x="509.525391" xlink:href="#DejaVuSans-109"/>
      <use x="606.9375" xlink:href="#DejaVuSans-65"/>
      <use x="675.345703" xlink:href="#DejaVuSans-41"/>
     </g>
    </g>
   </g>
   <g id="line2d_21">
    <path clip-path="url(#pb8b3dbb021)" d="M 237.670353 254.9027 
L 237.992265 257.048881 
L 238.369783 258.306687 
L 238.866804 259.217762 
L 239.490055 259.840042 
L 240.113755 260.227182 
L 241.483756 260.703918 
L 243.734785 261.070809 
L 246.728833 261.298089 
L 246.977926 261.244352 
L 247.478523 261.317804 
L 249.974277 261.429496 
L 253.347304 261.492944 
L 253.469741 261.37371 
L 253.847871 261.47981 
L 255.718466 261.519703 
L 267.242438 261.519296 
L 276.227253 261.323037 
L 276.479897 261.07834 
L 276.729945 261.305717 
L 277.352028 261.32015 
L 280.598368 261.285026 
L 281.845958 261.231172 
L 283.595257 261.198295 
L 284.714256 261.142759 
L 286.841013 261.049533 
L 287.088601 260.983908 
L 288.338725 260.991634 
L 289.08884 260.958309 
L 291.208824 260.800886 
L 292.583829 260.68192 
L 296.073685 259.994777 
L 297.947902 259.030921 
L 299.188473 258.162476 
L 299.813202 257.655184 
L 302.696829 254.488361 
L 303.817209 252.981706 
L 305.19046 251.056503 
L 305.814326 250.207881 
L 306.313252 249.641517 
L 308.311306 247.452353 
L 309.558085 246.622395 
L 310.681509 246.352506 
L 310.932029 246.318388 
L 311.931897 246.115145 
L 312.305585 246.265159 
L 312.555763 246.375201 
L 313.928679 247.223583 
L 314.929977 247.762688 
L 316.299314 249.109426 
L 316.548494 249.264575 
L 317.92598 250.270909 
L 318.171401 250.49739 
L 318.795624 250.708266 
L 319.0447 250.700719 
L 319.421254 250.908655 
L 320.169851 251.30662 
L 320.669796 251.212307 
L 321.295352 251.330907 
L 322.667256 251.162944 
L 323.414856 250.583904 
L 323.788484 250.375168 
L 324.415602 250.075547 
L 324.665996 250.045632 
L 325.03821 249.815092 
L 325.290204 249.46887 
L 325.539369 248.763802 
L 325.788787 248.745036 
L 326.039776 248.674299 
L 326.537466 248.027302 
L 326.789817 247.905021 
L 327.663465 246.823595 
L 327.787326 246.97317 
L 328.282924 246.420581 
L 328.657908 245.65091 
L 329.78154 244.278067 
L 330.407333 243.104705 
L 330.656446 241.933247 
L 330.907688 241.755242 
L 331.153549 241.775169 
L 331.653903 241.288123 
L 332.528155 240.025014 
L 332.778116 239.601912 
L 333.399258 238.305216 
L 334.151331 236.866333 
L 334.525428 236.388262 
L 334.898685 236.015052 
L 335.398675 235.002379 
L 336.024126 233.653785 
L 336.897797 231.569457 
L 337.273241 231.125571 
L 337.894427 230.507167 
L 338.142677 230.009315 
L 339.018774 227.826645 
L 340.520784 224.826014 
L 340.893676 224.3784 
L 342.763717 220.150229 
L 343.13681 219.112209 
L 343.638884 218.336965 
L 345.137447 215.332974 
L 349.126881 206.651686 
L 349.254284 206.530394 
L 350.88203 202.555782 
L 351.884228 200.649819 
L 352.259122 199.658656 
L 352.758666 198.396169 
L 353.878785 195.861035 
L 354.130801 195.298863 
L 354.505888 194.380775 
L 354.753476 193.924884 
L 355.75123 191.107668 
L 356.880006 188.655562 
L 357.249332 187.642714 
L 357.499644 187.233318 
L 358.122653 185.615564 
L 359.122589 183.253705 
L 361.37298 177.423351 
L 361.993883 175.735437 
L 362.24278 175.526373 
L 362.993149 173.57031 
L 363.617878 171.15205 
L 363.866328 170.535096 
L 363.990881 170.786509 
L 364.369601 172.584797 
L 364.492814 172.497944 
L 364.866904 169.577463 
L 365.239178 167.390546 
L 365.614638 166.235531 
L 365.868209 166.03163 
L 366.366227 166.158142 
L 366.489544 165.994878 
L 368.110115 160.443853 
L 368.61172 158.749479 
L 368.985423 158.150124 
L 369.233368 158.196081 
L 369.485956 157.720167 
L 369.734869 157.20814 
L 369.860582 157.042993 
L 370.109911 156.12744 
L 370.611249 154.129292 
L 370.860682 153.207822 
L 371.233908 151.759952 
L 371.483178 151.492941 
L 371.733579 151.281833 
L 372.479451 149.135866 
L 372.980163 147.19993 
L 373.729401 146.237233 
L 373.979652 145.83763 
L 374.226912 144.720485 
L 374.72816 142.224312 
L 375.102116 141.211203 
L 375.479184 140.952315 
L 376.850321 137.352719 
L 377.225602 135.894362 
L 377.474976 135.799494 
L 377.975539 134.601202 
L 379.347689 129.824328 
L 379.596914 129.745115 
L 380.097596 128.629856 
L 380.473919 127.143897 
L 381.220298 124.490801 
L 381.719358 123.482901 
L 382.344518 121.243041 
L 382.592701 120.617309 
L 383.094783 120.177833 
L 383.843767 117.096448 
L 384.092173 116.125795 
L 384.592304 115.093081 
L 384.965129 113.735898 
L 385.34297 112.554502 
L 385.592686 112.566134 
L 385.716271 112.495153 
L 386.464556 110.809011 
L 386.837425 108.936413 
L 387.085548 108.091238 
L 387.460264 106.619702 
L 388.710317 104.009015 
L 389.334198 102.375286 
L 389.584315 101.05657 
L 389.960653 99.261669 
L 390.211322 98.660983 
L 390.335473 98.579717 
L 390.462631 98.634029 
L 390.585888 98.513096 
L 390.834309 98.043216 
L 391.207536 97.783026 
L 391.458086 97.142623 
L 391.955672 95.236544 
L 392.330119 94.537368 
L 392.457396 94.307586 
L 394.203115 88.065086 
L 394.705197 87.233047 
L 394.953394 87.040611 
L 395.330164 85.655712 
L 396.202525 82.019261 
L 396.701153 81.720764 
L 397.198768 80.041026 
L 397.952546 77.18694 
L 398.325192 77.113285 
L 398.477269 76.3876 
L 398.414762 76.327461 
L 398.163304 77.150612 
L 397.915524 78.228908 
L 397.410405 81.289779 
L 397.161076 81.477062 
L 396.913087 81.543779 
L 396.661525 82.538753 
L 396.164907 85.219671 
L 395.419377 87.974459 
L 395.170956 88.055395 
L 394.917831 88.439189 
L 394.540972 89.676852 
L 393.420131 94.152444 
L 392.921056 95.591601 
L 392.67265 96.67456 
L 392.169065 98.839088 
L 391.421748 100.590284 
L 391.048209 100.804515 
L 390.80019 101.419793 
L 390.425728 103.277137 
L 389.673618 107.396632 
L 389.29859 108.222003 
L 388.924395 108.760173 
L 388.299949 109.529148 
L 388.051499 110.327234 
L 387.300639 114.74261 
L 387.051667 115.745442 
L 386.927591 115.703314 
L 386.676282 114.917338 
L 386.553426 114.619489 
L 386.426269 114.899415 
L 385.557198 118.709845 
L 385.180279 119.292525 
L 384.804179 119.351331 
L 384.555104 120.458079 
L 384.056699 123.337989 
L 383.682847 124.622374 
L 383.182224 126.800462 
L 382.307348 128.955854 
L 382.058703 129.01725 
L 381.810789 128.982105 
L 381.682946 129.292009 
L 381.436222 130.849386 
L 381.060033 133.526469 
L 380.562834 134.931987 
L 380.185588 135.273908 
L 379.188124 137.577445 
L 378.188605 141.113534 
L 376.688657 145.423596 
L 376.566695 145.444471 
L 376.3175 146.384414 
L 375.69545 149.271744 
L 375.44307 149.483436 
L 375.190079 149.472348 
L 374.94075 149.884717 
L 374.691972 150.738765 
L 373.817795 154.394747 
L 373.320224 155.447476 
L 372.943782 155.782608 
L 372.6942 156.564815 
L 371.945082 159.594327 
L 371.820871 159.725464 
L 371.573076 160.632741 
L 371.199923 162.216526 
L 370.572887 162.75771 
L 370.322516 163.298038 
L 369.950063 164.56128 
L 369.700333 165.122214 
L 369.324828 166.917912 
L 368.950351 168.360017 
L 368.326322 169.017975 
L 367.826979 170.327816 
L 365.704223 176.124593 
L 365.078854 177.523441 
L 364.33173 179.769445 
L 364.081955 180.403828 
L 363.581526 181.573433 
L 363.08123 183.537242 
L 362.20744 185.395205 
L 361.835687 186.726786 
L 361.088683 187.97872 
L 360.836414 188.184981 
L 360.458833 189.074116 
L 359.586287 191.863185 
L 359.211713 192.598902 
L 358.963999 192.73548 
L 358.83801 192.770457 
L 358.588509 193.204666 
L 357.712628 195.947998 
L 357.214238 197.158875 
L 356.717151 198.29108 
L 356.091618 200.034694 
L 355.716144 200.64503 
L 355.341532 200.978127 
L 354.968551 201.813231 
L 354.46807 203.190654 
L 354.095603 203.866316 
L 353.721222 204.819003 
L 353.21862 205.643835 
L 352.344874 207.747937 
L 352.099855 208.305319 
L 351.723048 208.599616 
L 351.472454 208.841124 
L 350.847658 210.303251 
L 350.346142 211.736801 
L 349.472017 213.018652 
L 349.225695 212.644873 
L 348.976404 212.603602 
L 348.725549 213.099155 
L 347.598902 216.079314 
L 347.353124 216.321628 
L 346.853662 216.606887 
L 346.47882 217.404057 
L 345.851471 219.00426 
L 344.73034 220.943482 
L 344.355319 221.240522 
L 343.981326 221.745278 
L 343.107365 223.72007 
L 342.23295 225.071878 
L 341.734158 225.974574 
L 341.109265 226.910633 
L 340.48694 228.05419 
L 336.237103 235.244273 
L 335.990751 235.728795 
L 335.614219 236.134539 
L 333.616485 239.589963 
L 333.178533 240.458175 
L 332.617197 241.063925 
L 332.119023 241.711991 
L 330.747349 244.238703 
L 330.245669 244.827338 
L 329.624506 245.812433 
L 328.001047 248.497462 
L 327.628133 248.89934 
L 326.002374 251.345507 
L 323.254099 255.055295 
L 321.884026 256.697838 
L 321.008896 257.701436 
L 320.629946 258.01908 
L 319.759349 258.959436 
L 317.261155 260.969702 
L 313.768928 262.836451 
L 312.396674 263.288559 
L 311.773292 263.477356 
L 310.649682 263.761461 
L 309.523028 263.988428 
L 308.775242 264.150279 
L 307.155877 264.407593 
L 306.033726 264.586978 
L 305.161812 264.682449 
L 304.284174 264.849563 
L 303.413101 264.937613 
L 301.291661 265.295883 
L 300.790882 265.367759 
L 298.918511 265.631782 
L 298.170331 265.814787 
L 297.549808 265.902747 
L 297.047871 266.011938 
L 296.422844 266.174698 
L 295.80004 266.464132 
L 295.424278 266.456843 
L 295.051067 266.532472 
L 294.675265 266.602793 
L 291.931821 267.676631 
L 291.173715 268.056788 
L 290.675924 268.240883 
L 290.424366 268.471622 
L 290.175142 268.974222 
L 289.923055 269.162209 
L 289.425346 269.291308 
L 287.30023 270.656581 
L 285.429389 272.338247 
L 282.937551 275.386417 
L 280.188179 280.203972 
L 279.312871 281.809929 
L 278.193306 283.524714 
L 277.566404 284.209194 
L 276.819839 284.506956 
L 276.193651 284.26997 
L 275.820026 284.024508 
L 275.194813 283.165029 
L 274.571483 281.539626 
L 273.823195 278.926636 
L 272.071444 271.823041 
L 270.949024 268.819859 
L 270.322304 267.812434 
L 268.076915 265.803861 
L 267.57592 265.526699 
L 265.203061 264.738476 
L 265.078315 264.781695 
L 264.455091 264.49382 
L 259.33717 263.901996 
L 258.963544 263.872476 
L 258.715376 263.819191 
L 258.339736 263.853599 
L 257.587663 263.736318 
L 256.839004 263.690914 
L 256.342594 263.718291 
L 256.218721 263.878032 
L 255.843397 263.707959 
L 255.592001 263.796029 
L 255.466331 263.935856 
L 254.716877 263.713085 
L 253.973678 263.644758 
L 253.346636 263.549737 
L 252.34775 263.471795 
L 250.470373 263.343394 
L 248.600835 263.302576 
L 247.975867 263.286045 
L 247.476829 263.249408 
L 245.852465 263.196393 
L 245.477647 263.279553 
L 244.606415 263.179366 
L 244.357639 263.241247 
L 244.233821 263.589617 
L 243.606679 263.277142 
L 240.858098 263.113758 
L 240.23445 263.094485 
L 239.986337 263.789274 
L 239.738011 263.260043 
L 239.618561 263.599487 
L 239.490003 264.349256 
L 239.23895 263.354987 
L 238.98893 263.217723 
L 238.864846 263.242326 
L 238.740021 263.402059 
L 238.36417 263.114107 
L 237.612786 263.044123 
L 235.49087 262.940639 
L 232.369243 262.872862 
L 230.993072 262.835018 
L 228.871764 262.80394 
L 227.250524 262.773031 
L 225.375848 262.74254 
L 221.25676 262.679696 
L 218.637532 262.648726 
L 215.020843 262.598143 
L 212.400076 262.575031 
L 208.527064 262.528506 
L 204.155889 262.49198 
L 200.913966 262.465028 
L 196.540386 262.438364 
L 192.670627 262.417703 
L 187.549842 262.39197 
L 180.811345 262.371683 
L 171.197744 262.356664 
L 162.579343 262.352424 
L 156.214505 262.357679 
L 148.852321 262.369301 
L 140.983537 262.392767 
L 134.618721 262.413521 
L 111.967551 262.801101 
L 108.529487 262.999647 
L 103.533829 263.513364 
L 100.541301 264.03471 
L 97.798877 264.748267 
L 94.799324 265.923203 
L 91.373444 267.927076 
L 89.677475 269.116921 
L 86.93118 271.730265 
L 85.808716 273.024191 
L 83.813133 275.850637 
L 82.814477 277.587041 
L 81.189634 280.42111 
L 80.5662 281.279633 
L 77.69443 286.958949 
L 77.319268 287.660966 
L 76.199364 290.209798 
L 75.323327 291.884684 
L 74.450609 293.735385 
L 73.834156 295.488 
L 74.029374 295.222955 
L 74.773579 293.977235 
L 75.402521 293.398704 
L 76.523526 291.959679 
L 77.023628 291.252304 
L 77.646198 290.519878 
L 78.397877 288.773862 
L 78.646342 288.627558 
L 79.395356 287.460995 
L 79.642065 287.266283 
L 79.892674 286.824697 
L 80.14108 286.860223 
L 80.393863 286.67082 
L 85.138674 279.972991 
L 86.009754 278.929549 
L 87.508556 276.973512 
L 88.133449 276.330676 
L 89.129871 275.022469 
L 94.125604 269.906358 
L 95.872499 268.423345 
L 97.497863 267.206241 
L 98.371906 266.617902 
L 99.990274 265.634822 
L 103.987188 263.854757 
L 107.233495 262.947671 
L 115.909013 261.675059 
L 121.839346 261.075388 
L 123.462061 260.893303 
L 125.331529 260.706499 
L 126.956856 260.516715 
L 130.077516 260.190481 
L 131.198826 260.092559 
L 132.072579 259.974308 
L 133.443233 259.868319 
L 137.686282 259.488452 
L 146.802581 258.894919 
L 148.675681 258.816433 
L 155.917294 258.858122 
L 158.157845 259.03287 
L 174.394699 260.450771 
L 184.007858 260.849071 
L 194.618098 261.092561 
L 200.489058 261.182035 
L 202.361819 261.201719 
L 215.097607 261.330538 
L 220.711041 261.357416 
L 223.582677 261.375338 
L 226.703005 261.381123 
L 229.075022 261.391824 
L 233.692376 261.395703 
L 236.062826 261.401404 
L 238.725484 261.394854 
L 241.723 261.391918 
L 245.091388 261.382832 
L 248.213385 261.36534 
L 250.084089 261.360489 
L 251.708769 261.339319 
L 253.583419 261.338045 
L 255.202699 261.307961 
L 256.701525 261.298289 
L 258.827173 261.271585 
L 260.194842 261.247459 
L 264.567392 261.124213 
L 266.938531 261.017339 
L 268.687953 260.916034 
L 273.678881 260.555099 
L 274.678355 260.492672 
L 275.554512 260.424971 
L 279.920097 260.331409 
L 282.167366 260.286083 
L 286.788056 260.154359 
L 289.784413 259.850145 
L 291.652995 259.422548 
L 293.151711 258.55925 
L 293.896925 257.688859 
L 294.710098 256.199642 
L 295.775596 253.523107 
L 299.640983 243.34712 
L 300.643598 241.385629 
L 301.515684 240.068169 
L 302.14272 239.488732 
L 303.139626 238.782631 
L 303.392692 238.601873 
L 303.637197 238.656114 
L 304.387052 239.113852 
L 304.761358 239.605207 
L 305.138455 240.152817 
L 305.638475 240.29578 
L 306.760381 241.841698 
L 307.637051 244.050296 
L 308.757133 245.717459 
L 309.63064 247.426045 
L 311.004934 249.929365 
L 311.380274 250.421623 
L 311.754171 250.923578 
L 312.628847 252.068336 
L 313.132558 252.585627 
L 313.629162 252.970713 
L 314.002299 253.299286 
L 314.503971 253.770009 
L 315.503021 254.14021 
L 316.501386 254.279742 
L 316.875246 254.302911 
L 317.74818 254.057454 
L 318.122463 254.093212 
L 319.995519 252.924333 
L 320.368902 252.708726 
L 322.244562 250.832834 
L 322.493058 250.538577 
L 323.238901 249.635443 
L 323.862134 248.794051 
L 324.864056 247.048356 
L 326.86197 243.918827 
L 327.739027 242.172731 
L 328.606826 240.700834 
L 332.727555 232.276939 
L 333.101735 231.383302 
L 334.101574 229.508434 
L 334.972349 227.124345 
L 335.347749 226.633237 
L 339.966429 216.102187 
L 340.341122 215.363177 
L 341.46573 212.649258 
L 342.21455 210.994909 
L 342.839912 209.696272 
L 343.21034 209.368516 
L 343.335272 209.337861 
L 343.585293 208.735855 
L 344.084294 207.098663 
L 344.52433 206.045739 
L 345.590561 204.302949 
L 346.71793 200.895145 
L 347.091141 200.041688 
L 347.340537 199.527623 
L 347.461681 199.138995 
L 347.83624 199.918835 
L 348.085859 199.285038 
L 348.584867 197.615734 
L 348.96122 196.468897 
L 349.459468 195.886274 
L 350.086527 194.363129 
L 350.459545 193.523395 
L 350.9576 191.958432 
L 351.334228 191.028672 
L 351.958979 189.614332 
L 352.21101 189.335691 
L 352.582145 188.296535 
L 353.456077 185.938277 
L 353.830703 185.694726 
L 354.080188 185.087402 
L 354.828703 182.521967 
L 356.578627 178.515138 
L 356.95245 177.051614 
L 357.449314 175.370798 
L 358.074712 174.068339 
L 358.574226 173.616154 
L 358.94883 172.386393 
L 359.323642 171.086022 
L 359.821079 170.14938 
L 360.196479 169.437818 
L 360.444334 168.83357 
L 360.69545 168.26714 
L 361.072085 168.032629 
L 361.446101 166.827509 
L 362.317911 163.593364 
L 362.567657 163.462385 
L 362.943563 163.828515 
L 363.318635 162.188221 
L 363.691788 161.159719 
L 363.941608 160.744394 
L 364.568421 158.855537 
L 365.067972 158.03523 
L 365.690066 155.745584 
L 366.068667 155.12933 
L 366.191403 155.036243 
L 366.440792 154.329743 
L 366.690999 153.703929 
L 366.93875 153.577991 
L 367.437259 151.90132 
L 367.813031 150.719067 
L 368.061362 150.629789 
L 368.563697 149.225248 
L 369.185568 147.407426 
L 369.936651 145.879923 
L 370.183792 145.935298 
L 370.43251 144.931274 
L 371.061377 142.124816 
L 371.307491 141.79845 
L 371.432892 141.987865 
L 371.929377 143.280213 
L 372.054287 143.101125 
L 372.427707 141.530515 
L 373.054654 138.074987 
L 373.43062 136.096809 
L 373.680931 135.695203 
L 373.804278 135.825864 
L 374.428456 137.667577 
L 374.678366 137.046854 
L 376.052972 130.102803 
L 376.302063 129.956107 
L 376.799425 130.171406 
L 377.175793 129.99781 
L 377.548677 129.483633 
L 377.797545 128.639055 
L 378.300921 125.786386 
L 378.674505 124.146945 
L 379.298892 122.713182 
L 379.796389 122.643817 
L 380.674123 121.018368 
L 381.297617 117.475722 
L 381.67071 116.995122 
L 381.920902 116.989313 
L 382.168846 116.675479 
L 382.41883 115.810777 
L 383.044274 113.168552 
L 383.168663 113.040001 
L 383.541473 113.15564 
L 383.66799 112.856076 
L 384.290367 110.209165 
L 384.665187 109.693388 
L 384.916287 109.389451 
L 385.167537 108.114594 
L 385.542088 105.857672 
L 385.668755 105.856859 
L 386.04149 106.386101 
L 386.166832 106.29898 
L 386.41567 105.492279 
L 387.041009 102.439267 
L 387.412032 101.92046 
L 388.16191 99.671887 
L 388.412965 99.504585 
L 388.788395 97.695146 
L 389.162679 96.236531 
L 389.413065 95.683947 
L 389.788405 95.242576 
L 390.411735 93.774414 
L 391.035883 90.88823 
L 391.28621 90.751163 
L 392.033005 88.534874 
L 392.159538 88.796432 
L 392.533598 90.492207 
L 392.659342 90.347042 
L 392.907688 89.316257 
L 393.406019 85.325033 
L 393.782014 82.340036 
L 393.907148 81.949196 
L 394.031924 81.969325 
L 394.780684 83.535677 
L 394.905848 83.471977 
L 395.157856 82.8118 
L 395.532839 81.232859 
L 396.278593 76.567566 
L 396.901595 74.714835 
L 397.026371 74.647569 
L 397.401503 74.929803 
L 397.902841 74.400992 
L 398.152274 73.597732 
L 398.476316 72.093731 
L 398.166267 73.105477 
L 397.290869 75.276564 
L 396.669117 78.114672 
L 395.170405 83.696684 
L 394.919171 84.193419 
L 393.547125 89.218173 
L 393.295161 89.716144 
L 393.048631 90.752496 
L 392.546356 92.982626 
L 392.296804 93.488618 
L 391.925646 95.323843 
L 391.550157 97.369553 
L 391.42477 97.57118 
L 391.175933 97.37229 
L 391.050189 97.302222 
L 390.924579 97.401833 
L 390.677528 98.538548 
L 390.304495 100.622794 
L 390.052203 100.801173 
L 389.927621 100.733376 
L 389.676372 101.19535 
L 389.427594 102.547593 
L 388.805008 106.638959 
L 388.552881 107.004885 
L 388.181574 106.41882 
L 387.929387 106.916473 
L 386.929035 110.979434 
L 386.555213 112.703034 
L 385.808313 114.30496 
L 385.433344 115.661505 
L 385.056858 116.752544 
L 384.806427 117.424864 
L 383.808025 120.545425 
L 383.434099 121.688114 
L 382.682703 124.16745 
L 382.308955 125.068268 
L 381.935118 126.148694 
L 381.062519 129.226255 
L 380.813696 129.514365 
L 380.311526 131.577785 
L 380.186898 131.527896 
L 379.937138 131.338379 
L 379.68958 132.098521 
L 378.939897 135.896305 
L 378.690672 136.089973 
L 378.441298 136.585853 
L 377.940795 137.993998 
L 376.942095 140.825104 
L 376.689208 140.929868 
L 376.443958 141.717082 
L 375.819735 144.43722 
L 375.569736 145.175634 
L 375.0656 145.80625 
L 374.444533 147.715664 
L 373.572068 150.419815 
L 373.320402 150.5071 
L 373.073589 151.228505 
L 372.446151 153.181284 
L 372.069917 154.041583 
L 371.822003 154.509096 
L 370.827471 157.427745 
L 370.574718 157.144157 
L 370.449257 157.408431 
L 369.45212 161.871864 
L 369.075946 163.144084 
L 368.8269 163.502205 
L 368.32717 163.488534 
L 367.703007 164.711357 
L 366.955467 168.511073 
L 366.705453 169.690642 
L 366.580394 169.965338 
L 366.331572 169.79255 
L 365.834328 169.034333 
L 365.707006 169.170211 
L 363.708445 175.957079 
L 363.20876 176.292606 
L 362.958747 176.250409 
L 362.457603 177.251744 
L 362.209063 178.044018 
L 361.837533 179.798987 
L 361.212268 181.072605 
L 360.962433 181.709465 
L 360.838052 181.845665 
L 360.711653 181.803044 
L 360.462629 182.07932 
L 359.212293 184.973806 
L 358.963173 185.277252 
L 358.213429 187.47773 
L 357.962962 187.750448 
L 357.58882 187.992927 
L 357.3399 188.666435 
L 356.842158 189.927032 
L 356.470018 190.531824 
L 355.966135 191.816642 
L 355.467343 194.607651 
L 355.092501 196.637708 
L 354.965634 196.756631 
L 354.842346 196.674036 
L 354.344998 195.575943 
L 354.218391 195.589019 
L 353.970968 195.992878 
L 353.719741 197.186374 
L 353.342703 199.328465 
L 352.970065 199.997075 
L 352.844671 200.129941 
L 352.469777 200.043625 
L 351.723889 200.766749 
L 351.349181 201.363581 
L 351.097575 201.659975 
L 350.847866 201.46507 
L 350.596096 202.028533 
L 349.722797 205.400015 
L 349.349362 206.053018 
L 348.975786 205.714436 
L 348.72802 205.823941 
L 348.475699 206.315566 
L 347.726298 208.603706 
L 347.354523 209.261988 
L 347.105216 209.541378 
L 346.231657 211.41694 
L 345.357718 213.070907 
L 344.980495 213.464056 
L 344.60793 214.231197 
L 343.859199 216.26868 
L 343.48138 216.835374 
L 343.106404 217.340935 
L 342.859249 217.533799 
L 342.607985 217.917317 
L 342.23621 219.007759 
L 341.862 219.983478 
L 341.362591 220.80341 
L 340.734133 221.804525 
L 335.241089 232.192759 
L 334.86697 232.74444 
L 333.616313 235.480884 
L 333.240824 236.172154 
L 332.868349 236.796372 
L 332.619898 237.171117 
L 331.495827 239.295559 
L 329.996147 242.024157 
L 329.494757 243.023342 
L 328.622486 244.614317 
L 327.750438 246.075898 
L 327.251274 246.976405 
L 321.883736 255.230908 
L 321.135154 256.199899 
L 320.383423 257.071915 
L 318.138168 259.579986 
L 316.011958 261.244317 
L 315.141659 261.786558 
L 312.89592 262.87569 
L 308.401137 264.088158 
L 299.79414 265.400646 
L 299.042938 265.50522 
L 297.675816 265.807079 
L 294.67736 266.631412 
L 292.431855 267.562824 
L 290.924855 268.335213 
L 290.049417 268.848225 
L 288.554195 269.828252 
L 285.055232 272.842933 
L 284.308399 273.715637 
L 283.061557 275.349262 
L 282.436769 276.082837 
L 281.811139 277.212825 
L 277.819573 284.322829 
L 276.321784 285.378117 
L 275.94731 285.34689 
L 275.320724 284.895938 
L 274.697577 283.860007 
L 274.320618 282.972376 
L 273.076868 279.426521 
L 270.824219 270.498724 
L 270.073236 268.84457 
L 269.951616 268.728954 
L 269.699057 268.800749 
L 269.448771 268.470331 
L 269.201184 267.951622 
L 268.826126 267.257416 
L 267.951957 266.314035 
L 265.956617 265.373658 
L 265.578117 265.164626 
L 263.333706 264.624418 
L 258.589889 263.909693 
L 256.469481 263.724843 
L 252.724449 263.484001 
L 252.099636 263.472485 
L 247.226915 263.271133 
L 245.851856 263.252197 
L 233.494626 262.942418 
L 232.62117 262.95487 
L 231.873279 262.927041 
L 230.496553 262.876285 
L 225.754506 262.829162 
L 225.257961 262.791965 
L 221.008463 262.699443 
L 219.887369 262.699296 
L 218.012957 262.660471 
L 211.647605 262.587169 
L 210.279141 262.560071 
L 209.279087 262.555824 
L 204.787324 262.505363 
L 201.160042 262.47081 
L 199.03998 262.45662 
L 195.917663 262.4365 
L 193.043965 262.414416 
L 188.426986 262.393005 
L 184.307156 262.373205 
L 176.688922 262.363823 
L 172.06997 262.358268 
L 166.205509 262.359315 
L 159.088404 262.360083 
L 150.223786 262.371985 
L 143.854884 262.384348 
L 135.991519 262.406687 
L 129.627529 262.436353 
L 122.508779 262.506618 
L 115.519613 262.639825 
L 110.899846 262.811225 
L 106.40548 263.135229 
L 102.040535 263.733111 
L 99.790531 264.221911 
L 97.049432 265.123528 
L 94.802524 266.119751 
L 91.935532 267.761567 
L 88.308912 270.321348 
L 86.809887 271.741607 
L 85.684953 272.857942 
L 84.185615 274.624869 
L 82.065836 277.532346 
L 79.816546 280.96952 
L 78.943248 282.368348 
L 78.070604 284.037576 
L 76.073621 287.366859 
L 75.824992 288.197759 
L 75.574993 289.280661 
L 74.198809 291.298599 
L 73.845113 292.188218 
L 74.028243 291.907455 
L 74.650679 291.23866 
L 74.8991 291.175241 
L 76.400581 289.448141 
L 76.775698 289.031491 
L 77.270873 288.688188 
L 77.52175 288.35303 
L 78.648516 286.375012 
L 79.018661 286.048358 
L 79.518078 285.815944 
L 79.892436 285.2131 
L 80.392538 284.46265 
L 80.89319 283.865185 
L 81.265777 283.292299 
L 83.515855 280.733681 
L 84.761339 279.101959 
L 89.006152 274.29336 
L 89.750641 273.617218 
L 95.122205 268.66535 
L 98.243171 266.450325 
L 102.113656 264.412833 
L 103.738008 263.767285 
L 106.48335 262.929346 
L 110.54158 262.098013 
L 115.223095 261.487151 
L 118.96241 261.075538 
L 125.581959 260.342808 
L 129.20223 259.924689 
L 140.560315 258.701612 
L 146.551533 258.292383 
L 154.414779 258.036052 
L 157.784075 258.178712 
L 160.15797 258.358988 
L 166.778635 259.054623 
L 168.773929 259.253535 
L 177.139316 259.914274 
L 189.128512 260.462481 
L 197.867543 260.698786 
L 239.601562 261.119026 
L 255.329244 261.061103 
L 260.948216 260.980679 
L 262.819158 260.939111 
L 265.440581 260.842707 
L 267.31568 260.755974 
L 269.432032 260.609482 
L 270.433359 260.548751 
L 274.552236 260.258129 
L 275.803923 260.171141 
L 277.426254 260.100564 
L 279.04831 260.075908 
L 280.171041 260.049901 
L 280.796332 260.063946 
L 282.16798 260.04358 
L 283.296298 260.058159 
L 284.164799 259.985661 
L 285.290925 259.992292 
L 286.166609 259.903694 
L 287.037943 259.902258 
L 288.91037 259.686596 
L 289.784565 259.571319 
L 291.159811 259.222938 
L 291.782181 259.059213 
L 293.030857 258.299558 
L 294.023123 257.234126 
L 294.460074 256.269052 
L 296.275326 251.550922 
L 297.40041 248.26239 
L 299.021621 244.028445 
L 299.769034 242.21172 
L 301.393639 239.262369 
L 302.016172 238.513946 
L 302.643239 238.090029 
L 303.639497 237.815612 
L 304.015039 237.933258 
L 304.264055 237.98699 
L 304.515133 238.245187 
L 305.013285 238.7719 
L 305.263581 238.993028 
L 305.764941 239.674304 
L 306.137885 240.265938 
L 307.26506 242.261853 
L 307.637736 242.839332 
L 308.636093 245.151546 
L 309.006708 245.718098 
L 309.382212 246.200368 
L 309.883869 247.178879 
L 310.38415 248.272222 
L 312.381423 251.214683 
L 313.006204 251.80355 
L 313.380049 252.169611 
L 313.878342 252.688321 
L 314.755399 253.309274 
L 316.003249 253.634207 
L 316.253553 253.613076 
L 317.251449 253.656016 
L 317.749847 253.540147 
L 318.501153 253.271306 
L 318.872072 253.043917 
L 319.247361 253.115433 
L 319.497709 252.971842 
L 319.99671 252.172932 
L 320.371507 251.609208 
L 320.870462 251.334998 
L 321.121123 251.161003 
L 321.872899 250.196447 
L 322.495142 249.307783 
L 323.367115 248.077154 
L 323.865386 247.499507 
L 324.242498 246.80275 
L 324.86527 245.543367 
L 326.48954 242.810401 
L 327.61542 240.393613 
L 328.235467 239.338486 
L 329.111043 237.29265 
L 329.484039 236.651634 
L 331.107848 232.758255 
L 331.48004 231.725556 
L 332.106228 230.685447 
L 332.605035 229.610484 
L 333.475118 227.287475 
L 333.976433 226.237738 
L 334.353589 225.659274 
L 335.597294 222.23698 
L 335.972143 221.419382 
L 336.472453 220.238633 
L 336.972696 218.926031 
L 337.472984 217.474279 
L 337.968561 216.489338 
L 338.467903 215.081326 
L 339.219976 213.409983 
L 339.967993 211.161592 
L 340.592826 209.904592 
L 340.842698 209.233002 
L 341.342078 207.773784 
L 341.592091 207.529078 
L 341.841591 206.842415 
L 342.720041 204.383128 
L 343.095813 203.642299 
L 343.72081 201.854558 
L 344.220279 200.167235 
L 344.97 198.701176 
L 345.841482 196.438389 
L 346.092293 195.890794 
L 346.719016 194.298015 
L 347.091238 193.833405 
L 347.464733 193.525385 
L 347.715044 192.609933 
L 348.339066 189.258474 
L 348.587182 188.918111 
L 348.963237 188.852408 
L 349.212469 188.411475 
L 349.585189 187.057674 
L 350.08704 185.189915 
L 352.087194 180.923927 
L 352.710025 178.293274 
L 353.209271 177.484263 
L 353.586644 177.146219 
L 353.960049 175.959232 
L 354.581577 174.237418 
L 354.957119 173.450256 
L 355.831705 171.040768 
L 356.458384 169.876118 
L 357.454859 166.937824 
L 357.828294 166.326414 
L 359.077141 162.896443 
L 359.702853 161.928101 
L 360.076936 160.899534 
L 360.698985 159.229585 
L 361.327711 156.98041 
L 361.450671 156.862884 
L 361.703498 157.028407 
L 361.827455 156.916324 
L 362.076204 156.11442 
L 362.949086 153.075596 
L 363.447252 152.081802 
L 363.823009 151.479325 
L 364.072413 150.858064 
L 364.448929 150.412174 
L 365.196157 147.442294 
L 366.196703 145.87088 
L 366.570063 144.917339 
L 367.066965 143.255834 
L 367.441338 142.548855 
L 367.817854 141.892723 
L 368.192316 141.543056 
L 368.443178 140.741905 
L 369.317281 137.380864 
L 369.814346 136.497111 
L 370.063213 136.417249 
L 370.440132 135.864768 
L 370.816991 134.302871 
L 371.191349 132.683405 
L 371.563489 132.20426 
L 372.313634 130.157465 
L 372.936606 128.830894 
L 373.436187 127.41252 
L 374.183683 124.633513 
L 374.309575 124.601702 
L 374.557386 124.741836 
L 374.684707 124.675864 
L 374.931401 124.042493 
L 375.433319 121.831151 
L 376.805648 118.164246 
L 377.42932 116.944003 
L 377.804616 115.665431 
L 378.304256 114.081737 
L 378.430104 113.860418 
L 378.929491 112.155544 
L 379.177986 111.891977 
L 379.801658 110.521599 
L 380.304589 108.666648 
L 381.30238 106.093363 
L 381.674803 104.763402 
L 382.049995 104.010622 
L 382.299547 104.156405 
L 382.423132 103.998252 
L 382.672551 102.828815 
L 382.926241 101.424917 
L 383.174751 101.034126 
L 383.546549 100.623861 
L 384.297662 99.270664 
L 384.669995 97.854218 
L 385.172642 95.09077 
L 385.798384 94.213319 
L 386.295717 92.593464 
L 386.790965 91.470628 
L 387.168331 89.662984 
L 387.541468 88.313036 
L 387.792628 87.888523 
L 387.919667 88.135298 
L 388.168519 89.130444 
L 388.291196 88.816726 
L 388.541835 86.895112 
L 388.914377 84.137295 
L 389.165597 83.9899 
L 389.291251 83.970855 
L 389.539061 83.415515 
L 390.292616 81.065335 
L 390.416722 81.008863 
L 390.665783 79.830231 
L 390.914903 78.618289 
L 391.286999 78.236285 
L 391.788291 77.39434 
L 392.535906 73.363774 
L 392.786038 73.049513 
L 392.910487 73.040992 
L 393.036901 72.920028 
L 393.283743 72.142876 
L 394.408574 67.843098 
L 394.534303 67.602227 
L 395.034181 65.82354 
L 395.159747 65.670863 
L 396.278563 62.465069 
L 396.404768 62.408255 
L 396.528011 62.625436 
L 396.777891 62.231202 
L 396.902042 61.962697 
L 397.028753 62.14193 
L 397.401905 63.911595 
L 397.528527 63.741877 
L 397.779032 61.065154 
L 398.487273 53.568 
L 397.667862 61.774889 
L 397.41569 62.651864 
L 397.288011 62.697484 
L 396.913474 62.394751 
L 396.789785 62.539977 
L 396.541974 63.697154 
L 396.170385 65.523857 
L 395.793333 66.786012 
L 394.795764 71.478365 
L 394.41956 71.566545 
L 394.044681 72.329134 
L 393.670398 73.717845 
L 393.297052 76.295707 
L 392.925016 78.127524 
L 392.170985 79.792948 
L 391.799069 81.931653 
L 391.675692 82.092607 
L 391.423698 81.916004 
L 391.298386 82.244622 
L 390.4268 86.475092 
L 390.17692 87.135689 
L 389.549854 89.578165 
L 389.423559 89.582355 
L 389.176419 89.994885 
L 388.675632 91.869698 
L 388.177972 93.849767 
L 387.300535 97.098108 
L 386.926207 97.376385 
L 386.551387 98.794602 
L 385.682197 103.064879 
L 385.559996 103.239665 
L 385.307199 104.431916 
L 384.555491 108.253269 
L 384.304673 108.829538 
L 384.057577 108.64819 
L 383.682103 108.040927 
L 383.558428 108.347062 
L 383.183385 110.796094 
L 382.683001 113.939682 
L 382.308687 114.23974 
L 381.560418 116.284215 
L 381.435612 116.267204 
L 381.310359 116.433539 
L 380.566005 119.937243 
L 380.062718 121.825707 
L 379.440207 122.962439 
L 379.191101 123.248609 
L 378.816029 124.678716 
L 378.067789 128.18585 
L 377.942 128.24935 
L 376.691232 130.920306 
L 376.444181 132.029319 
L 375.947384 134.822584 
L 375.569364 135.97255 
L 375.445347 136.110368 
L 375.067818 135.95205 
L 374.820499 136.247643 
L 374.570471 136.849369 
L 373.447441 141.581481 
L 373.071773 142.304986 
L 372.819809 142.747636 
L 372.323697 144.306939 
L 371.947136 145.116172 
L 371.700472 146.194296 
L 371.325578 148.10704 
L 371.0768 148.562391 
L 370.324377 148.907162 
L 369.8263 150.429777 
L 369.70139 150.579109 
L 368.704684 154.346699 
L 368.454432 155.233939 
L 368.205357 154.942982 
L 367.953006 155.27334 
L 367.453142 157.072533 
L 367.077698 157.605329 
L 366.952832 157.592197 
L 366.706079 158.180386 
L 366.334192 159.639363 
L 365.836085 161.688197 
L 365.580578 161.67696 
L 365.458333 161.850496 
L 363.834502 166.547044 
L 363.082004 167.947718 
L 362.956127 167.860806 
L 362.836486 167.968696 
L 362.584761 168.936991 
L 361.709676 173.769517 
L 361.461702 174.709133 
L 361.338727 174.799915 
L 360.966155 174.098306 
L 360.83759 174.180748 
L 360.463456 174.848184 
L 359.840111 176.492399 
L 359.087517 179.913013 
L 358.842609 179.692496 
L 358.467224 179.279866 
L 358.088825 179.632543 
L 357.714541 180.776863 
L 356.594608 184.665196 
L 356.344363 185.277091 
L 356.094863 185.257554 
L 355.843815 185.148106 
L 355.718198 185.310829 
L 355.34387 186.814279 
L 354.722103 189.201864 
L 354.472603 189.506544 
L 354.223594 189.589687 
L 353.97335 189.941831 
L 353.72382 190.786734 
L 353.222691 193.327139 
L 352.848586 194.292369 
L 352.597858 195.085179 
L 352.349162 194.911146 
L 352.102855 195.198131 
L 351.600795 195.9106 
L 351.353536 196.114168 
L 350.974027 196.952453 
L 350.100483 199.890586 
L 349.724152 200.556238 
L 349.476334 200.751198 
L 348.729724 202.315353 
L 347.35593 205.589322 
L 346.482259 207.227844 
L 344.859142 210.830553 
L 344.358743 212.629429 
L 344.233989 212.663817 
L 343.8624 212.09836 
L 343.735235 212.125161 
L 343.48342 212.559478 
L 342.364477 215.936872 
L 341.861792 216.268623 
L 339.736907 221.515288 
L 338.359755 224.069308 
L 337.739336 225.434356 
L 337.367806 226.270163 
L 337.120955 226.766093 
L 336.742169 227.003245 
L 336.493108 227.601793 
L 335.992187 229.337982 
L 335.743372 229.480798 
L 335.493366 229.535363 
L 335.118554 230.030434 
L 334.495537 231.789169 
L 333.99344 232.442232 
L 333.74423 233.023938 
L 333.243608 234.355569 
L 332.746766 235.003679 
L 330.9983 238.791017 
L 330.50064 239.526683 
L 329.314567 241.896055 
L 328.874442 242.290347 
L 328.000124 243.943339 
L 327.627418 244.772254 
L 326.626731 246.708103 
L 326.12785 247.557472 
L 325.503969 248.820649 
L 324.878489 250.032785 
L 324.382443 250.617184 
L 324.254392 250.691624 
L 323.505073 251.926321 
L 322.884468 252.79052 
L 320.759657 256.001816 
L 319.387901 257.676107 
L 318.017635 259.143005 
L 315.141093 261.495077 
L 314.01694 262.157554 
L 310.900046 263.333748 
L 310.026509 263.594631 
L 308.902817 263.811193 
L 308.280738 263.943139 
L 307.405013 264.082815 
L 306.90736 264.166538 
L 305.908563 264.328257 
L 305.036403 264.442214 
L 303.661693 264.634888 
L 303.038579 264.712436 
L 302.665687 264.716245 
L 301.914887 264.844504 
L 301.164637 265.004575 
L 300.66653 265.167967 
L 300.044049 265.192472 
L 299.416939 265.217415 
L 298.047014 265.646204 
L 297.550284 265.736167 
L 295.428886 266.425084 
L 294.927723 266.586759 
L 293.55698 267.117265 
L 292.686629 267.474389 
L 291.302987 268.284861 
L 290.430272 268.7264 
L 288.058202 270.521537 
L 287.431932 270.903876 
L 286.184402 272.210272 
L 285.184269 273.268233 
L 284.185324 274.344326 
L 283.560647 275.113366 
L 283.064207 275.858099 
L 280.939537 279.498188 
L 280.191249 280.969084 
L 279.068276 282.974144 
L 277.821274 284.943973 
L 276.822887 285.308355 
L 276.324753 285.204735 
L 274.945774 283.302868 
L 273.577093 279.045369 
L 272.572513 275.285369 
L 271.826662 273.104124 
L 270.826265 270.619613 
L 270.326011 269.513655 
L 268.703952 267.514539 
L 268.331466 267.404926 
L 267.827319 266.911631 
L 267.330322 266.585305 
L 266.832243 266.342847 
L 266.205925 265.95545 
L 265.582752 265.67409 
L 265.331196 265.49623 
L 264.583704 265.366283 
L 263.836765 264.894603 
L 263.587014 264.903332 
L 262.835281 265.060497 
L 261.837214 264.50527 
L 261.090226 264.423717 
L 260.712783 264.356571 
L 260.339024 264.35726 
L 259.713975 264.150449 
L 259.217537 264.109717 
L 255.219701 263.6499 
L 253.848373 263.57928 
L 252.972587 263.484314 
L 251.973777 263.435036 
L 250.85078 263.388205 
L 249.727515 263.342432 
L 246.104816 263.208983 
L 244.980678 263.188314 
L 239.115555 263.03218 
L 237.492542 262.992315 
L 236.115022 262.969472 
L 234.495422 262.925993 
L 232.122824 262.872643 
L 229.00252 262.801182 
L 226.378419 262.753732 
L 224.509939 262.720088 
L 221.632109 262.670812 
L 219.265811 262.626971 
L 216.640547 262.592577 
L 213.271838 262.545893 
L 208.404889 262.494093 
L 205.78484 262.463169 
L 202.411308 262.442048 
L 198.040904 262.4065 
L 192.546416 262.374366 
L 184.927915 262.349097 
L 175.567962 262.339155 
L 172.942659 262.33976 
L 151.224049 262.35698 
L 148.851919 262.3633 
L 120.39057 262.525982 
L 108.278893 262.981955 
L 104.408824 263.415478 
L 101.538543 263.965993 
L 99.291486 264.602155 
L 97.04958 265.484026 
L 95.42761 266.266486 
L 93.308665 267.408724 
L 90.553438 269.138482 
L 86.561139 272.273338 
L 84.062536 274.822 
L 83.313924 275.852244 
L 80.691959 279.41892 
L 79.941784 280.482983 
L 78.944587 281.452178 
L 78.571703 282.152291 
L 77.948403 283.630569 
L 77.571842 283.872254 
L 77.322543 284.028411 
L 76.947813 284.708856 
L 75.825587 287.05759 
L 74.948597 288.29704 
L 74.57604 288.700993 
L 73.835094 290.577514 
L 73.903526 290.55082 
L 74.39943 290.21298 
L 75.523829 288.818223 
L 75.900524 288.456003 
L 78.021896 285.972289 
L 78.643946 285.233176 
L 80.138311 283.163328 
L 80.640125 282.955615 
L 80.888159 282.664853 
L 81.763095 281.320208 
L 82.136872 280.963064 
L 82.890843 280.079996 
L 86.756982 275.877795 
L 87.381249 275.251977 
L 87.883926 274.705776 
L 89.00313 273.54961 
L 89.378173 273.159261 
L 90.126815 272.593854 
L 92.123813 270.737069 
L 93.248405 269.794827 
L 94.123371 269.015544 
L 95.120761 268.385738 
L 96.119506 267.577303 
L 99.362196 265.657689 
L 103.483766 263.776485 
L 108.230141 262.465726 
L 113.469263 261.627595 
L 116.843115 261.235603 
L 119.211635 260.966334 
L 121.083589 260.767626 
L 124.953985 260.326328 
L 127.823969 259.993122 
L 130.819191 259.621562 
L 136.441141 258.95957 
L 139.05975 258.695382 
L 140.180144 258.574021 
L 145.801321 258.111894 
L 147.175406 258.02254 
L 148.546692 257.919008 
L 149.795026 257.843608 
L 153.289613 257.716158 
L 160.65863 257.921393 
L 162.652256 258.104416 
L 165.402518 258.368254 
L 167.274762 258.54529 
L 169.396826 258.780935 
L 172.767128 259.097739 
L 176.513946 259.387816 
L 184.004018 259.848325 
L 204.606572 260.514865 
L 214.094006 260.678533 
L 233.317584 260.866869 
L 238.473213 260.882244 
L 241.347361 260.889066 
L 242.717998 260.901832 
L 246.340273 260.893795 
L 247.713716 260.890811 
L 249.335856 260.888132 
L 250.95916 260.87404 
L 253.079512 260.875843 
L 255.199072 260.856682 
L 256.573176 260.847117 
L 267.560271 260.551763 
L 269.183708 260.439492 
L 270.807148 260.355474 
L 272.427719 260.207714 
L 273.307668 260.165085 
L 274.680365 260.050293 
L 275.802363 260.009557 
L 276.677009 259.942896 
L 277.548056 259.935245 
L 278.673888 259.893385 
L 280.295445 259.886055 
L 281.918647 259.833137 
L 282.792873 259.858495 
L 288.783688 259.511661 
L 289.406649 259.40692 
L 290.283439 259.279733 
L 290.903884 259.105945 
L 291.527984 258.984721 
L 292.402943 258.571013 
L 293.150278 258.172163 
L 293.524249 257.76161 
L 294.268272 256.779709 
L 295.275082 254.665474 
L 299.269052 244.353803 
L 299.89381 243.060051 
L 300.51746 241.864086 
L 301.015374 240.780308 
L 301.764298 239.743391 
L 302.766928 238.545349 
L 303.263621 238.181938 
L 303.513113 238.226538 
L 304.010513 238.271683 
L 304.382713 238.089114 
L 305.634262 238.732855 
L 306.134111 239.609153 
L 306.508908 240.129854 
L 306.758036 240.3627 
L 307.132975 240.925043 
L 309.380917 244.913109 
L 310.00607 245.939651 
L 310.380815 246.601403 
L 311.754491 249.575468 
L 312.00385 249.731761 
L 312.505425 249.627541 
L 312.879515 250.263238 
L 313.751243 252.124365 
L 313.999694 252.266456 
L 314.753122 252.193177 
L 315.124785 252.43049 
L 316.125383 253.30729 
L 316.499771 253.405361 
L 317.248539 253.293244 
L 317.873901 252.849732 
L 318.742741 252.93968 
L 319.870356 252.02001 
L 320.243485 251.738436 
L 321.117357 250.834634 
L 321.365666 250.534481 
L 321.868217 249.830472 
L 322.614842 249.078721 
L 322.990577 248.505762 
L 323.61247 247.506598 
L 324.863253 245.426316 
L 325.235891 244.938202 
L 327.110778 241.24758 
L 327.857767 239.889666 
L 333.097849 228.378322 
L 333.971103 226.195803 
L 334.22364 225.829903 
L 335.470389 222.743094 
L 335.845968 221.884869 
L 336.344745 220.144634 
L 337.095828 218.998495 
L 337.468771 218.040906 
L 339.341775 213.06519 
L 340.087916 211.516892 
L 341.463035 207.943831 
L 341.83976 206.831229 
L 342.282022 205.8621 
L 343.091399 203.531446 
L 343.591032 202.735408 
L 343.842572 202.358399 
L 345.467348 197.657063 
L 346.840264 194.399342 
L 347.584738 193.007498 
L 347.960644 191.482252 
L 348.334928 190.19227 
L 348.834598 189.192018 
L 349.582748 187.642609 
L 349.960612 186.798138 
L 350.460088 185.437448 
L 350.831432 185.031277 
L 351.209259 184.021821 
L 351.832462 181.06308 
L 352.08316 180.688119 
L 352.33231 180.528034 
L 352.581245 180.025806 
L 352.955179 179.411327 
L 353.327333 178.625565 
L 354.205143 176.229581 
L 354.453727 175.702502 
L 355.077667 173.537912 
L 355.578186 172.824912 
L 355.951264 171.605314 
L 356.453479 171.019838 
L 357.075477 168.961856 
L 357.82519 167.168947 
L 357.949103 166.950523 
L 358.449904 165.174569 
L 358.574241 165.150248 
L 358.698719 165.312814 
L 358.82392 165.283271 
L 359.322741 164.404682 
L 359.572145 164.071265 
L 359.949093 162.56136 
L 360.820017 159.108239 
L 361.073008 159.020686 
L 361.446384 159.123689 
L 361.696025 158.737588 
L 362.191512 156.84421 
L 362.692061 154.332863 
L 363.317266 153.297302 
L 363.566565 153.501302 
L 363.941399 153.353641 
L 364.315757 152.634562 
L 364.690369 150.403838 
L 365.065337 148.84023 
L 365.940124 147.280269 
L 366.191403 147.085955 
L 366.44097 146.507367 
L 367.064136 144.453205 
L 367.31086 144.657373 
L 367.438092 144.512613 
L 369.185508 138.739938 
L 369.561296 138.02209 
L 369.937038 137.1668 
L 370.185355 137.603054 
L 370.311396 137.397652 
L 370.686484 135.699128 
L 370.935321 136.218581 
L 371.059189 136.100138 
L 371.308042 134.027301 
L 371.683204 131.359732 
L 371.930612 130.696613 
L 372.054763 130.473243 
L 372.179405 130.611542 
L 372.553972 131.550719 
L 372.679447 131.404829 
L 373.304772 128.174447 
L 373.429861 128.136777 
L 373.677879 127.896345 
L 373.928652 127.947471 
L 374.179693 126.609864 
L 374.428948 124.478743 
L 374.67844 123.880573 
L 375.05253 123.822829 
L 375.302321 123.536767 
L 376.05257 124.319193 
L 376.176632 124.291594 
L 376.302554 123.993959 
L 376.798651 121.178734 
L 377.175659 117.347324 
L 377.299304 116.84504 
L 377.422606 116.824595 
L 377.673558 118.025832 
L 377.922767 118.818329 
L 378.425459 117.464637 
L 378.923775 115.631367 
L 379.171645 115.217616 
L 379.42075 113.680637 
L 379.79557 111.402078 
L 380.045271 110.736475 
L 380.297443 111.215183 
L 380.547859 111.807115 
L 380.671935 111.836387 
L 381.1697 110.75918 
L 381.668506 108.506078 
L 382.168668 105.029387 
L 382.29389 104.856393 
L 382.667192 105.182758 
L 383.042726 104.987365 
L 383.292903 104.547784 
L 383.91598 102.96921 
L 384.41367 100.040977 
L 384.663222 99.520306 
L 384.789353 99.474562 
L 385.04221 99.597363 
L 385.163651 99.501205 
L 386.537751 95.05493 
L 386.912988 93.858639 
L 387.536555 92.662022 
L 387.661391 92.649535 
L 388.035958 93.412748 
L 388.162059 93.304432 
L 388.411045 92.422823 
L 388.785254 89.553622 
L 389.287113 85.974816 
L 389.40909 85.850402 
L 389.659506 86.047723 
L 389.783865 86.324206 
L 390.160679 87.90305 
L 390.286542 88.022242 
L 390.411154 87.690982 
L 390.659411 85.435991 
L 391.033948 81.82301 
L 391.285912 81.157205 
L 391.409437 81.155676 
L 391.65829 80.791157 
L 391.907202 80.583677 
L 392.155787 80.472224 
L 392.656648 79.645835 
L 392.906304 78.751913 
L 393.156734 78.770901 
L 393.401076 76.625688 
L 393.655779 74.845209 
L 394.029929 74.077206 
L 394.28097 73.98288 
L 394.655581 74.03158 
L 394.903719 73.442641 
L 395.903669 69.928692 
L 396.153489 69.36527 
L 396.275779 69.372643 
L 396.526299 69.529016 
L 396.653115 69.415319 
L 396.90033 68.108225 
L 397.272753 65.447006 
L 397.901352 63.828623 
L 398.149505 63.493046 
L 398.46868 62.805195 
L 398.477269 62.82893 
L 398.162158 64.637301 
L 397.663828 66.531865 
L 397.03639 68.298351 
L 396.540903 71.031716 
L 396.414593 71.20947 
L 396.04025 72.11394 
L 395.788897 72.433041 
L 395.54323 73.357197 
L 395.170524 74.870127 
L 394.916551 75.508446 
L 394.043952 79.858003 
L 393.793879 79.968367 
L 393.667926 80.05033 
L 392.297459 84.67709 
L 391.673057 86.529987 
L 391.046944 89.434763 
L 390.675518 90.41333 
L 390.300371 91.702935 
L 390.174851 91.696691 
L 390.051057 91.89337 
L 388.799426 96.94395 
L 388.42474 98.968033 
L 388.050606 99.938616 
L 387.671588 99.912096 
L 386.924376 101.919178 
L 386.551863 104.194612 
L 386.302192 105.273912 
L 386.055141 105.61783 
L 385.805871 105.831303 
L 385.681125 106.00882 
L 385.429385 107.270933 
L 385.178195 108.956372 
L 384.928702 109.360663 
L 384.678689 110.016845 
L 384.179763 111.434364 
L 383.678723 113.187707 
L 383.055677 114.845442 
L 382.805752 114.627397 
L 382.679234 114.810464 
L 382.30443 117.009492 
L 381.933823 119.456485 
L 381.681532 119.66979 
L 381.432352 119.824822 
L 381.182874 120.685057 
L 380.935897 121.751187 
L 380.810034 121.700546 
L 380.560006 121.247184 
L 380.436867 121.220219 
L 380.308667 121.408831 
L 380.059011 122.814831 
L 379.186486 127.954193 
L 378.812247 126.602118 
L 378.686757 126.679554 
L 378.434748 127.40257 
L 377.686628 131.082501 
L 377.436852 131.34058 
L 376.937837 132.084741 
L 376.067412 135.719857 
L 375.064067 137.531106 
L 374.940318 137.705137 
L 374.564739 139.560465 
L 374.18931 141.046913 
L 373.941142 141.522017 
L 373.569032 142.567798 
L 373.315728 142.914077 
L 373.067069 143.357322 
L 372.940343 143.434655 
L 372.691475 144.110373 
L 371.940437 147.383104 
L 371.693684 147.772434 
L 371.569503 147.703877 
L 371.32205 147.459893 
L 371.073971 148.098854 
L 370.69811 149.856628 
L 370.442633 151.03527 
L 370.322025 151.214516 
L 370.071192 151.066052 
L 369.945925 151.174965 
L 369.071391 154.236595 
L 368.698075 155.273225 
L 368.072453 157.938105 
L 367.695102 157.523856 
L 367.323201 158.021459 
L 366.579218 160.461559 
L 366.080427 162.972639 
L 365.955933 163.033231 
L 365.45214 164.281236 
L 364.955536 163.691029 
L 364.456387 165.384706 
L 363.57965 169.282306 
L 363.205664 169.691061 
L 362.955606 169.792389 
L 362.704967 169.753748 
L 362.206607 170.276644 
L 361.583828 172.784762 
L 361.209023 173.60152 
L 360.583297 175.894603 
L 360.084431 175.573668 
L 359.710475 176.256975 
L 359.459322 177.142664 
L 359.082947 178.900537 
L 358.085624 180.328762 
L 357.960922 180.448714 
L 357.71239 181.281665 
L 357.334787 182.644716 
L 356.589509 183.436614 
L 356.21536 184.22157 
L 355.714722 186.105151 
L 355.088944 187.072795 
L 354.465733 188.205375 
L 353.341267 190.57961 
L 353.218329 190.62331 
L 352.965763 191.079524 
L 352.467827 192.730744 
L 352.219972 193.665241 
L 351.96972 193.820486 
L 351.721567 193.990964 
L 351.09424 195.090503 
L 350.843036 195.723818 
L 350.469764 196.757595 
L 349.595707 198.085569 
L 348.594937 200.9926 
L 348.469953 201.014017 
L 348.095319 200.750448 
L 347.848104 201.426967 
L 346.223738 206.394619 
L 345.724484 205.863386 
L 345.473831 206.133467 
L 345.225693 206.831894 
L 344.601998 209.422403 
L 344.103891 210.488148 
L 343.724814 210.376864 
L 343.477272 210.685152 
L 342.727566 212.46299 
L 342.232309 214.155268 
L 341.856738 214.95233 
L 341.483303 215.48846 
L 340.980574 216.381037 
L 340.606127 216.763317 
L 340.232044 217.716703 
L 339.109528 220.705203 
L 338.733785 221.208562 
L 338.482097 221.421438 
L 338.110932 222.253908 
L 336.863127 225.216955 
L 336.489684 225.715739 
L 335.986605 226.853591 
L 335.111989 229.001279 
L 334.738539 229.596387 
L 333.863067 231.357868 
L 333.490585 232.06501 
L 332.496015 234.673383 
L 332.120079 235.359268 
L 331.368349 236.255831 
L 330.992763 237.374366 
L 330.495474 238.787306 
L 330.119412 239.415614 
L 329.870545 239.620099 
L 329.623218 240.032729 
L 328.119623 243.242576 
L 327.122032 244.953076 
L 326.496715 246.194987 
L 324.998762 248.981844 
L 324.124428 250.459444 
L 323.126971 252.193634 
L 322.626832 252.941438 
L 322.379506 253.224426 
L 320.50578 256.009176 
L 319.884356 256.794055 
L 319.3845 257.394446 
L 317.760721 259.18374 
L 317.137801 259.796474 
L 316.636531 260.205964 
L 314.88872 261.497529 
L 313.513161 262.240998 
L 312.642304 262.642528 
L 311.765477 262.940404 
L 311.141038 263.163811 
L 310.519376 263.324391 
L 309.89528 263.49609 
L 309.020157 263.660634 
L 308.395547 263.798372 
L 307.775068 263.925935 
L 307.151039 264.04666 
L 306.527174 264.06826 
L 305.653458 264.246616 
L 305.281445 264.262987 
L 304.653411 264.41697 
L 303.284201 264.510705 
L 302.662226 264.668359 
L 302.037222 264.755173 
L 300.663643 264.942396 
L 300.289805 264.960158 
L 299.166277 265.287024 
L 298.29325 265.367689 
L 297.7962 265.530648 
L 297.167999 265.69147 
L 296.547587 265.840371 
L 295.922825 266.139317 
L 295.298754 266.270366 
L 292.931953 267.362737 
L 292.429693 267.583472 
L 290.923002 268.552728 
L 290.17596 268.959908 
L 289.549244 269.3491 
L 288.799125 270.083186 
L 287.302158 271.253441 
L 284.179209 274.657192 
L 283.185135 275.945891 
L 281.686285 278.321294 
L 280.812298 279.990177 
L 280.063064 281.443748 
L 277.943132 284.730561 
L 277.440682 285.03416 
L 276.94406 285.162042 
L 276.694646 285.198742 
L 276.444308 285.21439 
L 276.070181 284.817069 
L 275.067421 283.252391 
L 274.570721 282.164696 
L 272.820919 276.371815 
L 271.697573 272.826958 
L 271.446361 272.378849 
L 271.198513 272.09587 
L 269.823111 269.14647 
L 269.572427 268.864793 
L 269.200734 268.382179 
L 267.575306 266.901396 
L 267.451468 266.886887 
L 267.077493 266.623681 
L 266.828084 266.508698 
L 266.449294 266.046753 
L 266.204096 265.868732 
L 265.578169 265.731936 
L 261.834194 264.554348 
L 260.960104 264.378048 
L 260.582611 264.276768 
L 259.462549 264.147433 
L 258.339447 263.936376 
L 257.590709 263.952032 
L 253.346217 263.488655 
L 252.471383 263.443262 
L 251.224829 263.361545 
L 249.349783 263.257972 
L 245.976839 263.14938 
L 244.855615 263.104101 
L 243.22953 263.067772 
L 241.105443 263.002667 
L 239.735707 262.985128 
L 238.361946 262.942387 
L 236.49164 262.91055 
L 234.617652 262.867736 
L 232.493909 262.833841 
L 230.369556 262.784467 
L 227.249809 262.735901 
L 224.629336 262.684683 
L 220.507309 262.625536 
L 218.138786 262.587476 
L 214.268742 262.541184 
L 211.398062 262.503397 
L 207.775683 262.468415 
L 205.280319 262.450156 
L 200.661351 262.407017 
L 196.539486 262.382288 
L 192.167388 262.356207 
L 184.550293 262.336252 
L 177.687042 262.330671 
L 166.077904 262.338741 
L 156.091768 262.347818 
L 145.977082 262.36883 
L 113.522369 262.706663 
L 108.654382 262.98603 
L 104.531055 263.489097 
L 102.039329 264.013028 
L 100.415558 264.484612 
L 97.80312 265.523621 
L 95.677579 266.535751 
L 90.180286 269.796988 
L 88.307245 271.096922 
L 87.181849 271.94327 
L 84.436105 274.581575 
L 83.68919 275.44242 
L 82.815772 276.280006 
L 81.31508 278.291374 
L 79.943451 279.92229 
L 79.56686 280.631003 
L 79.068723 281.409506 
L 77.568597 283.337808 
L 76.947247 284.445572 
L 76.069572 285.725403 
L 75.575097 286.622276 
L 74.697481 288.300303 
L 73.832727 289.705035 
L 74.148955 289.348684 
L 74.897031 288.909734 
L 75.148741 288.802069 
L 75.522787 288.281541 
L 76.020209 287.510439 
L 77.517835 285.942376 
L 78.272446 285.047475 
L 78.771104 284.296008 
L 79.391575 283.609203 
L 86.384872 275.875461 
L 86.882755 275.376533 
L 87.633109 274.642302 
L 90.377528 271.877888 
L 91.626956 270.934081 
L 92.376178 270.175682 
L 93.499342 269.46248 
L 94.370676 268.707645 
L 97.620079 266.565824 
L 101.11442 264.738928 
L 103.860476 263.646575 
L 107.608642 262.610273 
L 110.851198 261.99716 
L 116.595684 261.259506 
L 123.708249 260.464097 
L 125.7064 260.213974 
L 132.072229 259.410654 
L 141.557043 258.381756 
L 152.169732 257.655555 
L 153.540162 257.573666 
L 154.540403 257.581371 
L 157.28311 257.580351 
L 161.032057 257.773333 
L 171.767394 258.781825 
L 188.002331 259.869028 
L 196.989187 260.192681 
L 211.097891 260.516487 
L 247.838143 260.79759 
L 251.458802 260.788798 
L 256.328132 260.759799 
L 258.321227 260.745841 
L 259.071764 260.686396 
L 259.196086 260.479806 
L 259.446928 261.045599 
L 259.69753 260.823769 
L 260.944719 260.702608 
L 262.94144 260.661229 
L 265.437751 260.555434 
L 267.684593 260.446637 
L 277.674124 259.796889 
L 278.798028 259.78536 
L 279.67034 259.748671 
L 281.291927 259.749414 
L 282.543011 259.727286 
L 286.035425 259.583329 
L 286.413106 259.568332 
L 286.78787 259.576902 
L 287.786972 259.438739 
L 290.782182 259.057018 
L 292.529572 258.411332 
L 293.65003 257.558146 
L 294.269835 256.864799 
L 295.77311 253.545829 
L 300.146161 242.60875 
L 302.519713 238.52981 
L 302.892277 238.27943 
L 303.392401 238.030117 
L 303.638262 237.937147 
L 304.261978 237.413073 
L 304.889402 237.637829 
L 305.38899 237.93796 
L 305.765477 238.290879 
L 306.388084 238.722662 
L 306.761132 239.295105 
L 307.511672 240.622013 
L 308.757453 242.519311 
L 309.883229 245.04452 
L 310.257528 245.755372 
L 310.880001 246.582353 
L 311.255699 247.158339 
L 311.756002 247.967199 
L 312.87892 250.177171 
L 313.377592 250.443668 
L 313.626207 250.676992 
L 314.373241 252.050269 
L 314.500957 252.042169 
L 314.878396 251.762749 
L 315.251623 252.122682 
L 316.250837 253.213428 
L 316.499377 253.152104 
L 317.000066 252.646989 
L 317.374685 252.618181 
L 318.123542 252.83261 
L 318.498228 252.760611 
L 319.117516 252.398473 
L 320.496305 251.114511 
L 321.24165 250.443485 
L 322.116355 249.263053 
L 322.617164 248.723717 
L 323.738385 246.920247 
L 324.864883 245.09449 
L 325.364687 244.311804 
L 325.736827 243.575262 
L 326.489964 241.794876 
L 328.231999 238.416392 
L 328.857427 236.887596 
L 330.10763 234.32696 
L 330.607322 233.090876 
L 331.608151 231.057669 
L 333.099613 227.363243 
L 333.3502 226.877189 
L 334.348789 224.353733 
L 335.472339 221.505134 
L 335.846608 220.134105 
L 336.0952 219.81029 
L 336.220415 219.720481 
L 337.223938 217.02152 
L 337.71842 216.133773 
L 338.593781 213.19002 
L 339.219209 212.017753 
L 342.222626 204.286805 
L 342.472513 204.064995 
L 342.969243 203.735915 
L 343.343981 202.964161 
L 344.094863 199.113538 
L 344.717456 198.65829 
L 344.967797 198.41506 
L 345.217483 197.763182 
L 346.466606 193.390262 
L 346.717684 193.00922 
L 346.964802 192.691891 
L 347.216059 192.583621 
L 347.713325 191.030125 
L 348.086053 190.430931 
L 348.334853 189.763013 
L 349.211457 186.359894 
L 350.333853 184.591204 
L 350.71031 183.608436 
L 351.336 181.147132 
L 351.834501 180.741558 
L 352.210035 179.537672 
L 352.582778 178.17188 
L 353.080863 177.054847 
L 353.454514 176.002824 
L 353.831722 175.489085 
L 354.204614 175.005312 
L 354.455752 174.457832 
L 354.828495 172.887197 
L 355.326572 170.92115 
L 355.825981 169.859871 
L 356.07889 169.490502 
L 356.331025 169.322664 
L 356.953782 168.018366 
L 357.325259 166.905106 
L 357.574298 166.230686 
L 357.824133 165.891829 
L 357.948805 165.505626 
L 358.323759 163.654543 
L 358.700052 163.430687 
L 358.94947 163.458616 
L 359.19737 162.975113 
L 360.196434 159.462545 
L 360.694891 158.69513 
L 361.322188 157.177468 
L 361.821828 155.182177 
L 362.442136 153.311242 
L 362.818816 153.303922 
L 363.443233 151.932418 
L 363.568396 151.927043 
L 363.694229 151.769796 
L 365.191959 146.700822 
L 365.313564 146.786873 
L 365.440261 146.667948 
L 365.818638 145.639328 
L 366.564853 143.973255 
L 366.691892 144.002229 
L 366.814897 143.904751 
L 367.061903 142.956587 
L 367.438405 141.376238 
L 367.686588 140.375601 
L 368.187627 140.289937 
L 368.437939 139.642045 
L 368.935763 137.146298 
L 369.188352 136.640355 
L 369.312532 136.678404 
L 369.437219 136.526766 
L 369.686697 135.699672 
L 370.307585 135.763278 
L 370.435011 135.423994 
L 371.185722 131.295273 
L 371.806997 131.505777 
L 371.93283 131.44804 
L 373.056515 129.265862 
L 373.929158 125.156352 
L 374.177535 125.196819 
L 374.552816 125.29685 
L 374.92701 124.38851 
L 375.681919 120.771264 
L 375.804923 120.690718 
L 376.054982 120.114059 
L 376.300768 119.621309 
L 376.676078 119.528759 
L 376.92502 119.165408 
L 377.925521 115.952036 
L 378.299165 114.095843 
L 378.549566 113.752476 
L 378.674565 113.733414 
L 378.925159 113.264286 
L 379.423356 112.305472 
L 379.673563 111.799201 
L 380.296877 110.04181 
L 380.54774 110.001185 
L 380.797679 109.233941 
L 381.16906 107.78483 
L 381.545204 105.611694 
L 381.921408 105.070285 
L 382.417074 104.926509 
L 382.545452 104.958413 
L 382.795362 104.732887 
L 383.045331 105.485557 
L 383.293201 105.920087 
L 383.418036 105.304105 
L 383.9179 101.077824 
L 384.417287 98.059851 
L 384.54251 97.950872 
L 385.167492 99.334158 
L 385.294084 99.259261 
L 385.668472 98.298821 
L 386.042473 95.954295 
L 386.537692 93.090633 
L 387.037064 92.668359 
L 387.410514 92.992109 
L 387.662716 92.098079 
L 388.162356 90.054679 
L 388.414067 89.601893 
L 388.663857 89.307282 
L 388.788633 88.947111 
L 389.285564 86.383989 
L 389.411636 86.249098 
L 389.660756 85.7539 
L 390.038091 85.707157 
L 390.787656 83.706955 
L 391.411447 82.515618 
L 391.783557 82.300206 
L 392.405666 78.857477 
L 392.659357 77.212122 
L 393.034251 76.368474 
L 393.157598 76.431413 
L 393.532641 77.543875 
L 393.7813 77.133306 
L 394.031968 76.0915 
L 394.90619 71.761612 
L 395.156844 71.194938 
L 395.532854 69.891611 
L 396.030857 70.955676 
L 396.155693 70.903852 
L 396.527967 69.096532 
L 396.778739 69.326209 
L 396.901387 68.98343 
L 397.151653 66.875873 
L 397.401608 64.602962 
L 397.52616 64.173176 
L 397.653586 64.207464 
L 397.905044 64.569762 
L 398.150071 64.31809 
L 398.275814 64.365245 
L 398.482033 64.135107 
L 398.287649 64.297211 
L 398.164659 64.595481 
L 397.789854 66.082956 
L 397.664081 66.1562 
L 397.538977 66.615578 
L 397.16459 68.530542 
L 397.039724 68.184523 
L 396.913132 68.175918 
L 396.666661 70.042871 
L 396.416097 72.141437 
L 396.290442 72.373203 
L 396.16653 72.308668 
L 394.920302 74.862276 
L 394.669291 77.49594 
L 394.417893 79.723361 
L 394.170053 80.198694 
L 394.043431 80.204454 
L 393.920203 80.4084 
L 393.545755 81.937196 
L 393.295608 82.252972 
L 393.169566 82.130441 
L 392.922485 81.52585 
L 392.798632 81.581172 
L 392.54643 83.237238 
L 392.04609 87.209161 
L 391.674069 88.67659 
L 391.173595 89.243294 
L 390.924371 89.362174 
L 390.675206 89.895236 
L 390.302768 91.405736 
L 389.924301 93.029563 
L 389.427251 95.010204 
L 389.050526 96.866405 
L 388.676317 97.204657 
L 388.427271 97.24767 
L 388.302004 97.460916 
L 388.051454 98.941935 
L 387.674595 101.726579 
L 387.425058 102.801044 
L 387.300118 102.893439 
L 387.052114 102.822617 
L 386.177684 104.108346 
L 385.930737 105.799499 
L 385.555233 108.435742 
L 385.307437 108.925434 
L 384.928449 108.459421 
L 384.803837 108.585718 
L 384.555639 109.567409 
L 384.181028 110.911634 
L 383.680346 112.654542 
L 383.434545 113.062066 
L 382.933059 114.659196 
L 382.433076 117.484002 
L 382.183881 117.261384 
L 381.435061 118.396277 
L 380.935272 120.999808 
L 380.687819 121.672998 
L 380.186824 123.529292 
L 379.808655 124.281696 
L 379.561038 124.820021 
L 378.812441 126.89221 
L 378.188099 129.359919 
L 377.937609 129.18417 
L 377.814277 129.432835 
L 377.311644 131.458855 
L 377.190128 131.480442 
L 376.939713 131.257012 
L 376.68891 132.308658 
L 376.316562 134.550626 
L 376.068543 134.65793 
L 375.942516 134.7155 
L 375.694646 135.191575 
L 375.443457 136.341699 
L 375.193116 137.747864 
L 375.066062 137.879696 
L 374.81511 137.921027 
L 374.443447 138.519202 
L 374.070726 138.820224 
L 373.818241 139.67379 
L 373.320164 142.302499 
L 372.442802 144.360219 
L 372.194306 143.99602 
L 371.945632 144.5724 
L 371.57382 146.488001 
L 371.199849 148.406232 
L 370.94985 148.651509 
L 370.699077 148.742936 
L 370.446846 148.619547 
L 370.197844 149.588267 
L 369.824915 151.162529 
L 369.076333 152.679223 
L 368.69995 153.75438 
L 367.574256 156.445895 
L 367.07743 157.302154 
L 366.830125 157.836615 
L 365.95772 160.775494 
L 365.704267 160.970247 
L 365.330609 161.861208 
L 363.83346 165.593492 
L 363.582687 165.564009 
L 363.208046 166.630295 
L 361.70853 170.654611 
L 361.45868 170.419349 
L 361.335735 170.476765 
L 360.962523 171.36795 
L 360.709316 172.444938 
L 360.335181 174.544363 
L 359.961553 175.225995 
L 359.585713 175.73812 
L 359.460826 175.711054 
L 359.210313 175.382854 
L 359.087584 175.496778 
L 358.712214 176.653568 
L 357.960989 179.607634 
L 357.712018 180.030328 
L 357.462079 179.654497 
L 357.339156 179.694597 
L 356.468648 181.849699 
L 355.71493 184.746343 
L 355.466554 185.071529 
L 355.218439 184.714432 
L 354.843001 184.864089 
L 354.218644 186.772847 
L 353.845522 187.819971 
L 353.469378 188.455706 
L 352.970936 190.031266 
L 352.470544 190.301297 
L 351.846738 191.650791 
L 350.968988 194.054246 
L 350.722197 194.393694 
L 350.473746 194.635684 
L 349.720952 196.085003 
L 349.223671 197.314607 
L 348.849536 198.551311 
L 348.350097 199.19797 
L 347.849749 200.364294 
L 346.97791 202.227962 
L 346.2283 203.599304 
L 345.228275 206.213975 
L 344.854944 206.889956 
L 344.234041 208.09836 
L 343.857301 208.7243 
L 342.235309 212.391959 
L 342.110741 212.523692 
L 340.858768 215.410108 
L 339.861601 217.376075 
L 338.236199 221.051863 
L 336.240831 225.249458 
L 335.617003 226.849448 
L 335.116313 227.799714 
L 334.743027 228.184307 
L 334.494234 228.873478 
L 333.994906 230.262794 
L 332.747086 232.747399 
L 331.62291 235.789496 
L 331.371691 235.853371 
L 331.125228 235.940067 
L 330.748934 237.090023 
L 330.37052 238.098942 
L 329.874527 238.974678 
L 329.249552 240.476408 
L 327.874983 242.806982 
L 327.251326 244.399722 
L 326.375139 245.927507 
L 325.377132 247.611501 
L 324.628021 249.186753 
L 323.752199 250.611743 
L 323.127872 251.659298 
L 322.506187 252.697664 
L 321.383887 254.33188 
L 320.759932 255.383804 
L 320.384458 255.773109 
L 319.259292 257.273117 
L 318.636387 257.944038 
L 317.88971 258.832407 
L 317.142453 259.552705 
L 316.143172 260.453292 
L 314.264944 261.782841 
L 310.274081 263.357113 
L 309.648987 263.46024 
L 308.526025 263.746486 
L 306.406201 264.084429 
L 305.286826 264.283784 
L 304.408317 264.347519 
L 303.287089 264.528692 
L 302.66632 264.596964 
L 301.542769 264.825485 
L 300.915435 264.840886 
L 300.170381 265.024376 
L 296.675646 265.859982 
L 295.923963 266.122678 
L 293.431784 267.215999 
L 289.675602 269.597782 
L 285.432035 273.700296 
L 284.559112 274.659455 
L 283.684329 275.57246 
L 283.063012 276.510363 
L 281.936042 278.364255 
L 281.436394 278.944849 
L 279.439281 282.856587 
L 278.942521 283.457305 
L 278.56874 283.91028 
L 277.94496 284.972036 
L 277.567866 285.233958 
L 276.445711 285.224169 
L 276.069228 284.946188 
L 275.319582 283.787126 
L 274.69681 282.509655 
L 273.700124 279.674843 
L 272.94696 276.999384 
L 272.572141 275.30714 
L 271.57225 272.973592 
L 270.950666 271.146011 
L 270.074565 269.650381 
L 269.572985 268.870958 
L 269.327069 268.819434 
L 269.076412 268.409384 
L 268.703449 267.722667 
L 267.952195 267.023522 
L 267.33022 266.842534 
L 265.453664 265.70687 
L 264.955315 265.620141 
L 261.336751 264.514919 
L 260.836603 264.486569 
L 256.716724 263.888988 
L 255.21856 263.705387 
L 254.097706 263.632574 
L 248.350973 263.301418 
L 245.480268 263.206274 
L 243.109789 263.129259 
L 241.235775 263.079257 
L 238.863416 263.013637 
L 235.990619 262.964346 
L 234.616196 262.92005 
L 232.868489 262.886934 
L 226.25047 262.773656 
L 225.132633 262.738898 
L 223.005314 262.705208 
L 221.381216 262.672463 
L 218.512231 262.630668 
L 216.639488 262.602712 
L 215.889745 262.591886 
L 213.521329 262.564275 
L 211.521351 262.534981 
L 206.651991 262.47759 
L 203.786052 262.455539 
L 199.912955 262.421646 
L 193.792733 262.383817 
L 188.926127 262.35994 
L 177.813057 262.344824 
L 155.340968 262.357363 
L 139.985626 262.391834 
L 128.876245 262.437208 
L 127.381708 262.449485 
L 110.904341 262.835224 
L 106.407028 263.239946 
L 103.412387 263.752598 
L 101.168918 264.34192 
L 99.797438 264.815834 
L 98.300274 265.43689 
L 97.050861 266.03505 
L 91.927955 268.931573 
L 87.308158 271.958843 
L 84.311329 274.708904 
L 83.442169 275.551592 
L 82.943689 276.140238 
L 82.191892 276.985107 
L 81.068401 278.236619 
L 80.445518 279.011252 
L 79.320092 280.581204 
L 78.821746 281.246134 
L 77.573241 282.874498 
L 76.950194 284.123401 
L 75.455337 286.410216 
L 74.578064 287.846813 
L 73.836062 289.449447 
L 73.906265 289.39624 
L 74.775887 288.39506 
L 75.152969 288.068433 
L 75.780035 287.356603 
L 76.027354 287.225188 
L 76.525536 286.528425 
L 77.025414 285.97646 
L 77.774383 285.172325 
L 78.775971 283.982827 
L 79.145893 283.570057 
L 80.143879 282.361877 
L 80.395083 282.181517 
L 81.891682 280.373047 
L 88.259207 273.669177 
L 89.131673 272.947944 
L 90.255551 271.890144 
L 95.874003 267.55823 
L 99.367272 265.550201 
L 101.366354 264.614963 
L 103.488843 263.781522 
L 107.486099 262.660733 
L 111.72789 261.892393 
L 138.184612 258.713245 
L 141.099411 258.417732 
L 141.099411 258.417732 
" style="fill:none;stroke:#1f77b4;stroke-linecap:square;stroke-width:1.5;"/>
   </g>
   <g id="patch_3">
    <path d="M 57.6 307.584 
L 57.6 41.472 
" style="fill:none;stroke:#000000;stroke-linecap:square;stroke-linejoin:miter;stroke-width:0.8;"/>
   </g>
   <g id="patch_4">
    <path d="M 414.72 307.584 
L 414.72 41.472 
" style="fill:none;stroke:#000000;stroke-linecap:square;stroke-linejoin:miter;stroke-width:0.8;"/>
   </g>
   <g id="patch_5">
    <path d="M 57.6 307.584 
L 414.72 307.584 
" style="fill:none;stroke:#000000;stroke-linecap:square;stroke-linejoin:miter;stroke-width:0.8;"/>
   </g>
   <g id="patch_6">
    <path d="M 57.6 41.472 
L 414.72 41.472 
" style="fill:none;stroke:#000000;stroke-linecap:square;stroke-linejoin:miter;stroke-width:0.8;"/>
   </g>
  </g>
 </g>
 <defs>
  <clipPath id="pb8b3dbb021">
   <rect height="266.112" width="357.12" x="57.6" y="41.472"/>
  </clipPath>
 </defs>
</svg>
