<?xml version="1.0" encoding="utf-8" standalone="no"?>
<!DOCTYPE svg PUBLIC "-//W3C//DTD SVG 1.1//EN"
  "http://www.w3.org/Graphics/SVG/1.1/DTD/svg11.dtd">
<!-- Created with matplotlib (https://matplotlib.org/) -->
<svg height="345.6pt" version="1.1" viewBox="0 0 460.8 345.6" width="460.8pt" xmlns="http://www.w3.org/2000/svg" xmlns:xlink="http://www.w3.org/1999/xlink">
 <metadata>
  <rdf:RDF xmlns:cc="http://creativecommons.org/ns#" xmlns:dc="http://purl.org/dc/elements/1.1/" xmlns:rdf="http://www.w3.org/1999/02/22-rdf-syntax-ns#">
   <cc:Work>
    <dc:type rdf:resource="http://purl.org/dc/dcmitype/StillImage"/>
    <dc:date>2022-01-08T00:19:11.297097</dc:date>
    <dc:format>image/svg+xml</dc:format>
    <dc:creator>
     <cc:Agent>
      <dc:title>Matplotlib v3.3.4, https://matplotlib.org/</dc:title>
     </cc:Agent>
    </dc:creator>
   </cc:Work>
  </rdf:RDF>
 </metadata>
 <defs>
  <style type="text/css">*{stroke-linecap:butt;stroke-linejoin:round;}</style>
 </defs>
 <g id="figure_1">
  <g id="patch_1">
   <path d="M 0 345.6 
L 460.8 345.6 
L 460.8 0 
L 0 0 
z
" style="fill:#ffffff;"/>
  </g>
  <g id="axes_1">
   <g id="patch_2">
    <path d="M 57.6 307.584 
L 414.72 307.584 
L 414.72 41.472 
L 57.6 41.472 
z
" style="fill:#ffffff;"/>
   </g>
   <g id="matplotlib.axis_1">
    <g id="xtick_1">
     <g id="line2d_1">
      <path clip-path="url(#p4cec5cefeb)" d="M 73.814353 307.584 
L 73.814353 41.472 
" style="fill:none;stroke:#b0b0b0;stroke-linecap:square;stroke-width:0.8;"/>
     </g>
     <g id="line2d_2">
      <defs>
       <path d="M 0 0 
L 0 3.5 
" id="m8be4e99ce0" style="stroke:#000000;stroke-width:0.8;"/>
      </defs>
      <g>
       <use style="stroke:#000000;stroke-width:0.8;" x="73.814353" xlink:href="#m8be4e99ce0" y="307.584"/>
      </g>
     </g>
     <g id="text_1">
      <!-- −2.0 -->
      <g transform="translate(61.672947 322.182437)scale(0.1 -0.1)">
       <defs>
        <path d="M 10.59375 35.5 
L 73.1875 35.5 
L 73.1875 27.203125 
L 10.59375 27.203125 
z
" id="DejaVuSans-8722"/>
        <path d="M 19.1875 8.296875 
L 53.609375 8.296875 
L 53.609375 0 
L 7.328125 0 
L 7.328125 8.296875 
Q 12.9375 14.109375 22.625 23.890625 
Q 32.328125 33.6875 34.8125 36.53125 
Q 39.546875 41.84375 41.421875 45.53125 
Q 43.3125 49.21875 43.3125 52.78125 
Q 43.3125 58.59375 39.234375 62.25 
Q 35.15625 65.921875 28.609375 65.921875 
Q 23.96875 65.921875 18.8125 64.3125 
Q 13.671875 62.703125 7.8125 59.421875 
L 7.8125 69.390625 
Q 13.765625 71.78125 18.9375 73 
Q 24.125 74.21875 28.421875 74.21875 
Q 39.75 74.21875 46.484375 68.546875 
Q 53.21875 62.890625 53.21875 53.421875 
Q 53.21875 48.921875 51.53125 44.890625 
Q 49.859375 40.875 45.40625 35.40625 
Q 44.1875 33.984375 37.640625 27.21875 
Q 31.109375 20.453125 19.1875 8.296875 
z
" id="DejaVuSans-50"/>
        <path d="M 10.6875 12.40625 
L 21 12.40625 
L 21 0 
L 10.6875 0 
z
" id="DejaVuSans-46"/>
        <path d="M 31.78125 66.40625 
Q 24.171875 66.40625 20.328125 58.90625 
Q 16.5 51.421875 16.5 36.375 
Q 16.5 21.390625 20.328125 13.890625 
Q 24.171875 6.390625 31.78125 6.390625 
Q 39.453125 6.390625 43.28125 13.890625 
Q 47.125 21.390625 47.125 36.375 
Q 47.125 51.421875 43.28125 58.90625 
Q 39.453125 66.40625 31.78125 66.40625 
z
M 31.78125 74.21875 
Q 44.046875 74.21875 50.515625 64.515625 
Q 56.984375 54.828125 56.984375 36.375 
Q 56.984375 17.96875 50.515625 8.265625 
Q 44.046875 -1.421875 31.78125 -1.421875 
Q 19.53125 -1.421875 13.0625 8.265625 
Q 6.59375 17.96875 6.59375 36.375 
Q 6.59375 54.828125 13.0625 64.515625 
Q 19.53125 74.21875 31.78125 74.21875 
z
" id="DejaVuSans-48"/>
       </defs>
       <use xlink:href="#DejaVuSans-8722"/>
       <use x="83.789062" xlink:href="#DejaVuSans-50"/>
       <use x="147.412109" xlink:href="#DejaVuSans-46"/>
       <use x="179.199219" xlink:href="#DejaVuSans-48"/>
      </g>
     </g>
    </g>
    <g id="xtick_2">
     <g id="line2d_3">
      <path clip-path="url(#p4cec5cefeb)" d="M 114.397534 307.584 
L 114.397534 41.472 
" style="fill:none;stroke:#b0b0b0;stroke-linecap:square;stroke-width:0.8;"/>
     </g>
     <g id="line2d_4">
      <g>
       <use style="stroke:#000000;stroke-width:0.8;" x="114.397534" xlink:href="#m8be4e99ce0" y="307.584"/>
      </g>
     </g>
     <g id="text_2">
      <!-- −1.5 -->
      <g transform="translate(102.256128 322.182437)scale(0.1 -0.1)">
       <defs>
        <path d="M 12.40625 8.296875 
L 28.515625 8.296875 
L 28.515625 63.921875 
L 10.984375 60.40625 
L 10.984375 69.390625 
L 28.421875 72.90625 
L 38.28125 72.90625 
L 38.28125 8.296875 
L 54.390625 8.296875 
L 54.390625 0 
L 12.40625 0 
z
" id="DejaVuSans-49"/>
        <path d="M 10.796875 72.90625 
L 49.515625 72.90625 
L 49.515625 64.59375 
L 19.828125 64.59375 
L 19.828125 46.734375 
Q 21.96875 47.46875 24.109375 47.828125 
Q 26.265625 48.1875 28.421875 48.1875 
Q 40.625 48.1875 47.75 41.5 
Q 54.890625 34.8125 54.890625 23.390625 
Q 54.890625 11.625 47.5625 5.09375 
Q 40.234375 -1.421875 26.90625 -1.421875 
Q 22.3125 -1.421875 17.546875 -0.640625 
Q 12.796875 0.140625 7.71875 1.703125 
L 7.71875 11.625 
Q 12.109375 9.234375 16.796875 8.0625 
Q 21.484375 6.890625 26.703125 6.890625 
Q 35.15625 6.890625 40.078125 11.328125 
Q 45.015625 15.765625 45.015625 23.390625 
Q 45.015625 31 40.078125 35.4375 
Q 35.15625 39.890625 26.703125 39.890625 
Q 22.75 39.890625 18.8125 39.015625 
Q 14.890625 38.140625 10.796875 36.28125 
z
" id="DejaVuSans-53"/>
       </defs>
       <use xlink:href="#DejaVuSans-8722"/>
       <use x="83.789062" xlink:href="#DejaVuSans-49"/>
       <use x="147.412109" xlink:href="#DejaVuSans-46"/>
       <use x="179.199219" xlink:href="#DejaVuSans-53"/>
      </g>
     </g>
    </g>
    <g id="xtick_3">
     <g id="line2d_5">
      <path clip-path="url(#p4cec5cefeb)" d="M 154.980715 307.584 
L 154.980715 41.472 
" style="fill:none;stroke:#b0b0b0;stroke-linecap:square;stroke-width:0.8;"/>
     </g>
     <g id="line2d_6">
      <g>
       <use style="stroke:#000000;stroke-width:0.8;" x="154.980715" xlink:href="#m8be4e99ce0" y="307.584"/>
      </g>
     </g>
     <g id="text_3">
      <!-- −1.0 -->
      <g transform="translate(142.839309 322.182437)scale(0.1 -0.1)">
       <use xlink:href="#DejaVuSans-8722"/>
       <use x="83.789062" xlink:href="#DejaVuSans-49"/>
       <use x="147.412109" xlink:href="#DejaVuSans-46"/>
       <use x="179.199219" xlink:href="#DejaVuSans-48"/>
      </g>
     </g>
    </g>
    <g id="xtick_4">
     <g id="line2d_7">
      <path clip-path="url(#p4cec5cefeb)" d="M 195.563897 307.584 
L 195.563897 41.472 
" style="fill:none;stroke:#b0b0b0;stroke-linecap:square;stroke-width:0.8;"/>
     </g>
     <g id="line2d_8">
      <g>
       <use style="stroke:#000000;stroke-width:0.8;" x="195.563897" xlink:href="#m8be4e99ce0" y="307.584"/>
      </g>
     </g>
     <g id="text_4">
      <!-- −0.5 -->
      <g transform="translate(183.42249 322.182437)scale(0.1 -0.1)">
       <use xlink:href="#DejaVuSans-8722"/>
       <use x="83.789062" xlink:href="#DejaVuSans-48"/>
       <use x="147.412109" xlink:href="#DejaVuSans-46"/>
       <use x="179.199219" xlink:href="#DejaVuSans-53"/>
      </g>
     </g>
    </g>
    <g id="xtick_5">
     <g id="line2d_9">
      <path clip-path="url(#p4cec5cefeb)" d="M 236.147078 307.584 
L 236.147078 41.472 
" style="fill:none;stroke:#b0b0b0;stroke-linecap:square;stroke-width:0.8;"/>
     </g>
     <g id="line2d_10">
      <g>
       <use style="stroke:#000000;stroke-width:0.8;" x="236.147078" xlink:href="#m8be4e99ce0" y="307.584"/>
      </g>
     </g>
     <g id="text_5">
      <!-- 0.0 -->
      <g transform="translate(228.195515 322.182437)scale(0.1 -0.1)">
       <use xlink:href="#DejaVuSans-48"/>
       <use x="63.623047" xlink:href="#DejaVuSans-46"/>
       <use x="95.410156" xlink:href="#DejaVuSans-48"/>
      </g>
     </g>
    </g>
    <g id="xtick_6">
     <g id="line2d_11">
      <path clip-path="url(#p4cec5cefeb)" d="M 276.730259 307.584 
L 276.730259 41.472 
" style="fill:none;stroke:#b0b0b0;stroke-linecap:square;stroke-width:0.8;"/>
     </g>
     <g id="line2d_12">
      <g>
       <use style="stroke:#000000;stroke-width:0.8;" x="276.730259" xlink:href="#m8be4e99ce0" y="307.584"/>
      </g>
     </g>
     <g id="text_6">
      <!-- 0.5 -->
      <g transform="translate(268.778697 322.182437)scale(0.1 -0.1)">
       <use xlink:href="#DejaVuSans-48"/>
       <use x="63.623047" xlink:href="#DejaVuSans-46"/>
       <use x="95.410156" xlink:href="#DejaVuSans-53"/>
      </g>
     </g>
    </g>
    <g id="xtick_7">
     <g id="line2d_13">
      <path clip-path="url(#p4cec5cefeb)" d="M 317.313441 307.584 
L 317.313441 41.472 
" style="fill:none;stroke:#b0b0b0;stroke-linecap:square;stroke-width:0.8;"/>
     </g>
     <g id="line2d_14">
      <g>
       <use style="stroke:#000000;stroke-width:0.8;" x="317.313441" xlink:href="#m8be4e99ce0" y="307.584"/>
      </g>
     </g>
     <g id="text_7">
      <!-- 1.0 -->
      <g transform="translate(309.361878 322.182437)scale(0.1 -0.1)">
       <use xlink:href="#DejaVuSans-49"/>
       <use x="63.623047" xlink:href="#DejaVuSans-46"/>
       <use x="95.410156" xlink:href="#DejaVuSans-48"/>
      </g>
     </g>
    </g>
    <g id="xtick_8">
     <g id="line2d_15">
      <path clip-path="url(#p4cec5cefeb)" d="M 357.896622 307.584 
L 357.896622 41.472 
" style="fill:none;stroke:#b0b0b0;stroke-linecap:square;stroke-width:0.8;"/>
     </g>
     <g id="line2d_16">
      <g>
       <use style="stroke:#000000;stroke-width:0.8;" x="357.896622" xlink:href="#m8be4e99ce0" y="307.584"/>
      </g>
     </g>
     <g id="text_8">
      <!-- 1.5 -->
      <g transform="translate(349.945059 322.182437)scale(0.1 -0.1)">
       <use xlink:href="#DejaVuSans-49"/>
       <use x="63.623047" xlink:href="#DejaVuSans-46"/>
       <use x="95.410156" xlink:href="#DejaVuSans-53"/>
      </g>
     </g>
    </g>
    <g id="xtick_9">
     <g id="line2d_17">
      <path clip-path="url(#p4cec5cefeb)" d="M 398.479803 307.584 
L 398.479803 41.472 
" style="fill:none;stroke:#b0b0b0;stroke-linecap:square;stroke-width:0.8;"/>
     </g>
     <g id="line2d_18">
      <g>
       <use style="stroke:#000000;stroke-width:0.8;" x="398.479803" xlink:href="#m8be4e99ce0" y="307.584"/>
      </g>
     </g>
     <g id="text_9">
      <!-- 2.0 -->
      <g transform="translate(390.528241 322.182437)scale(0.1 -0.1)">
       <use xlink:href="#DejaVuSans-50"/>
       <use x="63.623047" xlink:href="#DejaVuSans-46"/>
       <use x="95.410156" xlink:href="#DejaVuSans-48"/>
      </g>
     </g>
    </g>
    <g id="text_10">
     <!-- Voltage (E/V) -->
     <g transform="translate(203.649062 335.860562)scale(0.1 -0.1)">
      <defs>
       <path d="M 28.609375 0 
L 0.78125 72.90625 
L 11.078125 72.90625 
L 34.1875 11.53125 
L 57.328125 72.90625 
L 67.578125 72.90625 
L 39.796875 0 
z
" id="DejaVuSans-86"/>
       <path d="M 30.609375 48.390625 
Q 23.390625 48.390625 19.1875 42.75 
Q 14.984375 37.109375 14.984375 27.296875 
Q 14.984375 17.484375 19.15625 11.84375 
Q 23.34375 6.203125 30.609375 6.203125 
Q 37.796875 6.203125 41.984375 11.859375 
Q 46.1875 17.53125 46.1875 27.296875 
Q 46.1875 37.015625 41.984375 42.703125 
Q 37.796875 48.390625 30.609375 48.390625 
z
M 30.609375 56 
Q 42.328125 56 49.015625 48.375 
Q 55.71875 40.765625 55.71875 27.296875 
Q 55.71875 13.875 49.015625 6.21875 
Q 42.328125 -1.421875 30.609375 -1.421875 
Q 18.84375 -1.421875 12.171875 6.21875 
Q 5.515625 13.875 5.515625 27.296875 
Q 5.515625 40.765625 12.171875 48.375 
Q 18.84375 56 30.609375 56 
z
" id="DejaVuSans-111"/>
       <path d="M 9.421875 75.984375 
L 18.40625 75.984375 
L 18.40625 0 
L 9.421875 0 
z
" id="DejaVuSans-108"/>
       <path d="M 18.3125 70.21875 
L 18.3125 54.6875 
L 36.8125 54.6875 
L 36.8125 47.703125 
L 18.3125 47.703125 
L 18.3125 18.015625 
Q 18.3125 11.328125 20.140625 9.421875 
Q 21.96875 7.515625 27.59375 7.515625 
L 36.8125 7.515625 
L 36.8125 0 
L 27.59375 0 
Q 17.1875 0 13.234375 3.875 
Q 9.28125 7.765625 9.28125 18.015625 
L 9.28125 47.703125 
L 2.6875 47.703125 
L 2.6875 54.6875 
L 9.28125 54.6875 
L 9.28125 70.21875 
z
" id="DejaVuSans-116"/>
       <path d="M 34.28125 27.484375 
Q 23.390625 27.484375 19.1875 25 
Q 14.984375 22.515625 14.984375 16.5 
Q 14.984375 11.71875 18.140625 8.90625 
Q 21.296875 6.109375 26.703125 6.109375 
Q 34.1875 6.109375 38.703125 11.40625 
Q 43.21875 16.703125 43.21875 25.484375 
L 43.21875 27.484375 
z
M 52.203125 31.203125 
L 52.203125 0 
L 43.21875 0 
L 43.21875 8.296875 
Q 40.140625 3.328125 35.546875 0.953125 
Q 30.953125 -1.421875 24.3125 -1.421875 
Q 15.921875 -1.421875 10.953125 3.296875 
Q 6 8.015625 6 15.921875 
Q 6 25.140625 12.171875 29.828125 
Q 18.359375 34.515625 30.609375 34.515625 
L 43.21875 34.515625 
L 43.21875 35.40625 
Q 43.21875 41.609375 39.140625 45 
Q 35.0625 48.390625 27.6875 48.390625 
Q 23 48.390625 18.546875 47.265625 
Q 14.109375 46.140625 10.015625 43.890625 
L 10.015625 52.203125 
Q 14.9375 54.109375 19.578125 55.046875 
Q 24.21875 56 28.609375 56 
Q 40.484375 56 46.34375 49.84375 
Q 52.203125 43.703125 52.203125 31.203125 
z
" id="DejaVuSans-97"/>
       <path d="M 45.40625 27.984375 
Q 45.40625 37.75 41.375 43.109375 
Q 37.359375 48.484375 30.078125 48.484375 
Q 22.859375 48.484375 18.828125 43.109375 
Q 14.796875 37.75 14.796875 27.984375 
Q 14.796875 18.265625 18.828125 12.890625 
Q 22.859375 7.515625 30.078125 7.515625 
Q 37.359375 7.515625 41.375 12.890625 
Q 45.40625 18.265625 45.40625 27.984375 
z
M 54.390625 6.78125 
Q 54.390625 -7.171875 48.1875 -13.984375 
Q 42 -20.796875 29.203125 -20.796875 
Q 24.46875 -20.796875 20.265625 -20.09375 
Q 16.0625 -19.390625 12.109375 -17.921875 
L 12.109375 -9.1875 
Q 16.0625 -11.328125 19.921875 -12.34375 
Q 23.78125 -13.375 27.78125 -13.375 
Q 36.625 -13.375 41.015625 -8.765625 
Q 45.40625 -4.15625 45.40625 5.171875 
L 45.40625 9.625 
Q 42.625 4.78125 38.28125 2.390625 
Q 33.9375 0 27.875 0 
Q 17.828125 0 11.671875 7.65625 
Q 5.515625 15.328125 5.515625 27.984375 
Q 5.515625 40.671875 11.671875 48.328125 
Q 17.828125 56 27.875 56 
Q 33.9375 56 38.28125 53.609375 
Q 42.625 51.21875 45.40625 46.390625 
L 45.40625 54.6875 
L 54.390625 54.6875 
z
" id="DejaVuSans-103"/>
       <path d="M 56.203125 29.59375 
L 56.203125 25.203125 
L 14.890625 25.203125 
Q 15.484375 15.921875 20.484375 11.0625 
Q 25.484375 6.203125 34.421875 6.203125 
Q 39.59375 6.203125 44.453125 7.46875 
Q 49.3125 8.734375 54.109375 11.28125 
L 54.109375 2.78125 
Q 49.265625 0.734375 44.1875 -0.34375 
Q 39.109375 -1.421875 33.890625 -1.421875 
Q 20.796875 -1.421875 13.15625 6.1875 
Q 5.515625 13.8125 5.515625 26.8125 
Q 5.515625 40.234375 12.765625 48.109375 
Q 20.015625 56 32.328125 56 
Q 43.359375 56 49.78125 48.890625 
Q 56.203125 41.796875 56.203125 29.59375 
z
M 47.21875 32.234375 
Q 47.125 39.59375 43.09375 43.984375 
Q 39.0625 48.390625 32.421875 48.390625 
Q 24.90625 48.390625 20.390625 44.140625 
Q 15.875 39.890625 15.1875 32.171875 
z
" id="DejaVuSans-101"/>
       <path id="DejaVuSans-32"/>
       <path d="M 31 75.875 
Q 24.46875 64.65625 21.28125 53.65625 
Q 18.109375 42.671875 18.109375 31.390625 
Q 18.109375 20.125 21.3125 9.0625 
Q 24.515625 -2 31 -13.1875 
L 23.1875 -13.1875 
Q 15.875 -1.703125 12.234375 9.375 
Q 8.59375 20.453125 8.59375 31.390625 
Q 8.59375 42.28125 12.203125 53.3125 
Q 15.828125 64.359375 23.1875 75.875 
z
" id="DejaVuSans-40"/>
       <path d="M 9.8125 72.90625 
L 55.90625 72.90625 
L 55.90625 64.59375 
L 19.671875 64.59375 
L 19.671875 43.015625 
L 54.390625 43.015625 
L 54.390625 34.71875 
L 19.671875 34.71875 
L 19.671875 8.296875 
L 56.78125 8.296875 
L 56.78125 0 
L 9.8125 0 
z
" id="DejaVuSans-69"/>
       <path d="M 25.390625 72.90625 
L 33.6875 72.90625 
L 8.296875 -9.28125 
L 0 -9.28125 
z
" id="DejaVuSans-47"/>
       <path d="M 8.015625 75.875 
L 15.828125 75.875 
Q 23.140625 64.359375 26.78125 53.3125 
Q 30.421875 42.28125 30.421875 31.390625 
Q 30.421875 20.453125 26.78125 9.375 
Q 23.140625 -1.703125 15.828125 -13.1875 
L 8.015625 -13.1875 
Q 14.5 -2 17.703125 9.0625 
Q 20.90625 20.125 20.90625 31.390625 
Q 20.90625 42.671875 17.703125 53.65625 
Q 14.5 64.65625 8.015625 75.875 
z
" id="DejaVuSans-41"/>
      </defs>
      <use xlink:href="#DejaVuSans-86"/>
      <use x="60.658203" xlink:href="#DejaVuSans-111"/>
      <use x="121.839844" xlink:href="#DejaVuSans-108"/>
      <use x="149.623047" xlink:href="#DejaVuSans-116"/>
      <use x="188.832031" xlink:href="#DejaVuSans-97"/>
      <use x="250.111328" xlink:href="#DejaVuSans-103"/>
      <use x="313.587891" xlink:href="#DejaVuSans-101"/>
      <use x="375.111328" xlink:href="#DejaVuSans-32"/>
      <use x="406.898438" xlink:href="#DejaVuSans-40"/>
      <use x="445.912109" xlink:href="#DejaVuSans-69"/>
      <use x="509.095703" xlink:href="#DejaVuSans-47"/>
      <use x="542.787109" xlink:href="#DejaVuSans-86"/>
      <use x="611.195312" xlink:href="#DejaVuSans-41"/>
     </g>
    </g>
   </g>
   <g id="matplotlib.axis_2">
    <g id="ytick_1">
     <g id="line2d_19">
      <path clip-path="url(#p4cec5cefeb)" d="M 57.6 275.247669 
L 414.72 275.247669 
" style="fill:none;stroke:#b0b0b0;stroke-linecap:square;stroke-width:0.8;"/>
     </g>
     <g id="line2d_20">
      <defs>
       <path d="M 0 0 
L -3.5 0 
" id="mfde06d70a1" style="stroke:#000000;stroke-width:0.8;"/>
      </defs>
      <g>
       <use style="stroke:#000000;stroke-width:0.8;" x="57.6" xlink:href="#mfde06d70a1" y="275.247669"/>
      </g>
     </g>
     <g id="text_11">
      <!-- −40 -->
      <g transform="translate(29.495313 279.046888)scale(0.1 -0.1)">
       <defs>
        <path d="M 37.796875 64.3125 
L 12.890625 25.390625 
L 37.796875 25.390625 
z
M 35.203125 72.90625 
L 47.609375 72.90625 
L 47.609375 25.390625 
L 58.015625 25.390625 
L 58.015625 17.1875 
L 47.609375 17.1875 
L 47.609375 0 
L 37.796875 0 
L 37.796875 17.1875 
L 4.890625 17.1875 
L 4.890625 26.703125 
z
" id="DejaVuSans-52"/>
       </defs>
       <use xlink:href="#DejaVuSans-8722"/>
       <use x="83.789062" xlink:href="#DejaVuSans-52"/>
       <use x="147.412109" xlink:href="#DejaVuSans-48"/>
      </g>
     </g>
    </g>
    <g id="ytick_2">
     <g id="line2d_21">
      <path clip-path="url(#p4cec5cefeb)" d="M 57.6 227.686962 
L 414.72 227.686962 
" style="fill:none;stroke:#b0b0b0;stroke-linecap:square;stroke-width:0.8;"/>
     </g>
     <g id="line2d_22">
      <g>
       <use style="stroke:#000000;stroke-width:0.8;" x="57.6" xlink:href="#mfde06d70a1" y="227.686962"/>
      </g>
     </g>
     <g id="text_12">
      <!-- −20 -->
      <g transform="translate(29.495313 231.486181)scale(0.1 -0.1)">
       <use xlink:href="#DejaVuSans-8722"/>
       <use x="83.789062" xlink:href="#DejaVuSans-50"/>
       <use x="147.412109" xlink:href="#DejaVuSans-48"/>
      </g>
     </g>
    </g>
    <g id="ytick_3">
     <g id="line2d_23">
      <path clip-path="url(#p4cec5cefeb)" d="M 57.6 180.126255 
L 414.72 180.126255 
" style="fill:none;stroke:#b0b0b0;stroke-linecap:square;stroke-width:0.8;"/>
     </g>
     <g id="line2d_24">
      <g>
       <use style="stroke:#000000;stroke-width:0.8;" x="57.6" xlink:href="#mfde06d70a1" y="180.126255"/>
      </g>
     </g>
     <g id="text_13">
      <!-- 0 -->
      <g transform="translate(44.2375 183.925474)scale(0.1 -0.1)">
       <use xlink:href="#DejaVuSans-48"/>
      </g>
     </g>
    </g>
    <g id="ytick_4">
     <g id="line2d_25">
      <path clip-path="url(#p4cec5cefeb)" d="M 57.6 132.565549 
L 414.72 132.565549 
" style="fill:none;stroke:#b0b0b0;stroke-linecap:square;stroke-width:0.8;"/>
     </g>
     <g id="line2d_26">
      <g>
       <use style="stroke:#000000;stroke-width:0.8;" x="57.6" xlink:href="#mfde06d70a1" y="132.565549"/>
      </g>
     </g>
     <g id="text_14">
      <!-- 20 -->
      <g transform="translate(37.875 136.364767)scale(0.1 -0.1)">
       <use xlink:href="#DejaVuSans-50"/>
       <use x="63.623047" xlink:href="#DejaVuSans-48"/>
      </g>
     </g>
    </g>
    <g id="ytick_5">
     <g id="line2d_27">
      <path clip-path="url(#p4cec5cefeb)" d="M 57.6 85.004842 
L 414.72 85.004842 
" style="fill:none;stroke:#b0b0b0;stroke-linecap:square;stroke-width:0.8;"/>
     </g>
     <g id="line2d_28">
      <g>
       <use style="stroke:#000000;stroke-width:0.8;" x="57.6" xlink:href="#mfde06d70a1" y="85.004842"/>
      </g>
     </g>
     <g id="text_15">
      <!-- 40 -->
      <g transform="translate(37.875 88.804061)scale(0.1 -0.1)">
       <use xlink:href="#DejaVuSans-52"/>
       <use x="63.623047" xlink:href="#DejaVuSans-48"/>
      </g>
     </g>
    </g>
    <g id="text_16">
     <!-- Current (I/mA) -->
     <g transform="translate(23.415625 210.245187)rotate(-90)scale(0.1 -0.1)">
      <defs>
       <path d="M 64.40625 67.28125 
L 64.40625 56.890625 
Q 59.421875 61.53125 53.78125 63.8125 
Q 48.140625 66.109375 41.796875 66.109375 
Q 29.296875 66.109375 22.65625 58.46875 
Q 16.015625 50.828125 16.015625 36.375 
Q 16.015625 21.96875 22.65625 14.328125 
Q 29.296875 6.6875 41.796875 6.6875 
Q 48.140625 6.6875 53.78125 8.984375 
Q 59.421875 11.28125 64.40625 15.921875 
L 64.40625 5.609375 
Q 59.234375 2.09375 53.4375 0.328125 
Q 47.65625 -1.421875 41.21875 -1.421875 
Q 24.65625 -1.421875 15.125 8.703125 
Q 5.609375 18.84375 5.609375 36.375 
Q 5.609375 53.953125 15.125 64.078125 
Q 24.65625 74.21875 41.21875 74.21875 
Q 47.75 74.21875 53.53125 72.484375 
Q 59.328125 70.75 64.40625 67.28125 
z
" id="DejaVuSans-67"/>
       <path d="M 8.5 21.578125 
L 8.5 54.6875 
L 17.484375 54.6875 
L 17.484375 21.921875 
Q 17.484375 14.15625 20.5 10.265625 
Q 23.53125 6.390625 29.59375 6.390625 
Q 36.859375 6.390625 41.078125 11.03125 
Q 45.3125 15.671875 45.3125 23.6875 
L 45.3125 54.6875 
L 54.296875 54.6875 
L 54.296875 0 
L 45.3125 0 
L 45.3125 8.40625 
Q 42.046875 3.421875 37.71875 1 
Q 33.40625 -1.421875 27.6875 -1.421875 
Q 18.265625 -1.421875 13.375 4.4375 
Q 8.5 10.296875 8.5 21.578125 
z
M 31.109375 56 
z
" id="DejaVuSans-117"/>
       <path d="M 41.109375 46.296875 
Q 39.59375 47.171875 37.8125 47.578125 
Q 36.03125 48 33.890625 48 
Q 26.265625 48 22.1875 43.046875 
Q 18.109375 38.09375 18.109375 28.8125 
L 18.109375 0 
L 9.078125 0 
L 9.078125 54.6875 
L 18.109375 54.6875 
L 18.109375 46.1875 
Q 20.953125 51.171875 25.484375 53.578125 
Q 30.03125 56 36.53125 56 
Q 37.453125 56 38.578125 55.875 
Q 39.703125 55.765625 41.0625 55.515625 
z
" id="DejaVuSans-114"/>
       <path d="M 54.890625 33.015625 
L 54.890625 0 
L 45.90625 0 
L 45.90625 32.71875 
Q 45.90625 40.484375 42.875 44.328125 
Q 39.84375 48.1875 33.796875 48.1875 
Q 26.515625 48.1875 22.3125 43.546875 
Q 18.109375 38.921875 18.109375 30.90625 
L 18.109375 0 
L 9.078125 0 
L 9.078125 54.6875 
L 18.109375 54.6875 
L 18.109375 46.1875 
Q 21.34375 51.125 25.703125 53.5625 
Q 30.078125 56 35.796875 56 
Q 45.21875 56 50.046875 50.171875 
Q 54.890625 44.34375 54.890625 33.015625 
z
" id="DejaVuSans-110"/>
       <path d="M 9.8125 72.90625 
L 19.671875 72.90625 
L 19.671875 0 
L 9.8125 0 
z
" id="DejaVuSans-73"/>
       <path d="M 52 44.1875 
Q 55.375 50.25 60.0625 53.125 
Q 64.75 56 71.09375 56 
Q 79.640625 56 84.28125 50.015625 
Q 88.921875 44.046875 88.921875 33.015625 
L 88.921875 0 
L 79.890625 0 
L 79.890625 32.71875 
Q 79.890625 40.578125 77.09375 44.375 
Q 74.3125 48.1875 68.609375 48.1875 
Q 61.625 48.1875 57.5625 43.546875 
Q 53.515625 38.921875 53.515625 30.90625 
L 53.515625 0 
L 44.484375 0 
L 44.484375 32.71875 
Q 44.484375 40.625 41.703125 44.40625 
Q 38.921875 48.1875 33.109375 48.1875 
Q 26.21875 48.1875 22.15625 43.53125 
Q 18.109375 38.875 18.109375 30.90625 
L 18.109375 0 
L 9.078125 0 
L 9.078125 54.6875 
L 18.109375 54.6875 
L 18.109375 46.1875 
Q 21.1875 51.21875 25.484375 53.609375 
Q 29.78125 56 35.6875 56 
Q 41.65625 56 45.828125 52.96875 
Q 50 49.953125 52 44.1875 
z
" id="DejaVuSans-109"/>
       <path d="M 34.1875 63.1875 
L 20.796875 26.90625 
L 47.609375 26.90625 
z
M 28.609375 72.90625 
L 39.796875 72.90625 
L 67.578125 0 
L 57.328125 0 
L 50.6875 18.703125 
L 17.828125 18.703125 
L 11.1875 0 
L 0.78125 0 
z
" id="DejaVuSans-65"/>
      </defs>
      <use xlink:href="#DejaVuSans-67"/>
      <use x="69.824219" xlink:href="#DejaVuSans-117"/>
      <use x="133.203125" xlink:href="#DejaVuSans-114"/>
      <use x="172.566406" xlink:href="#DejaVuSans-114"/>
      <use x="211.429688" xlink:href="#DejaVuSans-101"/>
      <use x="272.953125" xlink:href="#DejaVuSans-110"/>
      <use x="336.332031" xlink:href="#DejaVuSans-116"/>
      <use x="375.541016" xlink:href="#DejaVuSans-32"/>
      <use x="407.328125" xlink:href="#DejaVuSans-40"/>
      <use x="446.341797" xlink:href="#DejaVuSans-73"/>
      <use x="475.833984" xlink:href="#DejaVuSans-47"/>
      <use x="509.525391" xlink:href="#DejaVuSans-109"/>
      <use x="606.9375" xlink:href="#DejaVuSans-65"/>
      <use x="675.345703" xlink:href="#DejaVuSans-41"/>
     </g>
    </g>
   </g>
   <g id="line2d_29">
    <path clip-path="url(#p4cec5cefeb)" d="M 236.672558 180.107908 
L 242.074273 180.089316 
L 247.347782 180.051205 
L 256.024978 179.872469 
L 259.841088 179.784385 
L 263.169768 179.70639 
L 266.661115 179.643501 
L 270.390545 179.580972 
L 278.585155 179.468683 
L 282.723353 179.405735 
L 292.297072 178.937853 
L 295.704564 178.276756 
L 296.595782 178.01655 
L 297.000084 177.842573 
L 297.567448 177.558793 
L 298.951937 176.87924 
L 300.89974 175.575199 
L 301.549077 175.03818 
L 303.578844 173.278253 
L 307.551798 169.379713 
L 308.042844 168.726822 
L 308.526478 168.289033 
L 311.853202 164.525162 
L 312.096064 164.495973 
L 312.340426 164.041182 
L 312.825996 163.073703 
L 313.070696 163.071492 
L 313.23381 163.146399 
L 313.880574 162.200926 
L 314.20867 161.49012 
L 314.369211 161.415181 
L 314.694467 161.52876 
L 314.854427 161.313232 
L 315.097555 161.01866 
L 315.584837 160.572193 
L 316.478396 158.88983 
L 316.640785 159.077856 
L 316.883787 159.362123 
L 317.127003 159.044539 
L 317.857297 157.360443 
L 318.344057 157.098204 
L 318.748998 156.959851 
L 319.561851 156.086811 
L 319.80392 155.637184 
L 320.128058 155.025956 
L 320.371859 154.943362 
L 320.616115 154.648397 
L 320.859799 154.264119 
L 321.508241 154.411741 
L 322.000139 153.366742 
L 322.323871 152.365066 
L 322.568969 151.964668 
L 322.730903 152.249431 
L 322.973252 152.857039 
L 323.13625 152.713562 
L 324.19094 150.512432 
L 325.000551 150.366252 
L 325.326054 150.049637 
L 325.650522 149.466113 
L 325.814236 149.24614 
L 326.056383 148.785642 
L 326.299816 148.866272 
L 326.624874 148.99124 
L 326.787494 148.781988 
L 327.274061 147.604953 
L 327.517397 146.888594 
L 327.680647 147.003169 
L 328.083866 147.441777 
L 328.245674 147.267453 
L 329.059881 145.780209 
L 329.383188 145.587956 
L 329.544425 145.294694 
L 329.789145 144.901307 
L 330.033778 144.861987 
L 330.358343 145.117773 
L 330.599995 144.58131 
L 331.249376 143.232955 
L 331.493496 143.426422 
L 331.655527 143.497542 
L 332.141687 142.944636 
L 332.383842 142.503935 
L 332.708688 142.100463 
L 332.872257 142.011588 
L 333.279085 142.351303 
L 333.441406 142.190776 
L 334.331326 140.362679 
L 334.49506 140.353604 
L 334.737999 140.037417 
L 335.306287 140.665352 
L 335.469208 140.078122 
L 335.712119 139.325871 
L 336.117505 138.703207 
L 336.281752 138.676677 
L 336.525136 138.428005 
L 336.849033 138.265685 
L 337.254816 138.34422 
L 337.497349 138.12294 
L 338.067379 136.265534 
L 338.227658 136.382584 
L 338.389844 136.417791 
L 338.471382 136.441294 
L 338.71436 136.775141 
L 338.958073 136.814382 
L 339.039563 136.834809 
L 339.203393 136.265461 
L 339.446739 135.149637 
L 339.772223 134.673653 
L 340.014911 134.819403 
L 340.176787 134.775644 
L 340.418885 135.254098 
L 340.501148 135.184717 
L 341.069204 133.505196 
L 341.1508 133.586127 
L 341.47399 134.169826 
L 341.798342 133.771772 
L 342.284956 133.024975 
L 342.61164 132.728104 
L 343.016794 131.01827 
L 343.178496 131.402623 
L 343.583098 132.961923 
L 344.317258 130.527073 
L 344.639065 129.858309 
L 344.79979 129.690038 
L 345.289694 130.467454 
L 345.532237 130.387278 
L 345.694606 129.907891 
L 346.019132 128.615699 
L 346.101279 128.638048 
L 346.262991 128.998621 
L 346.585939 128.427884 
L 346.911336 127.546129 
L 347.153647 127.738085 
L 347.480108 128.167789 
L 347.722805 128.01107 
L 347.886597 127.767439 
L 348.61498 125.830035 
L 348.941016 125.206111 
L 349.590619 126.410533 
L 349.751401 125.776648 
L 350.075927 124.290007 
L 350.236477 124.167614 
L 350.398615 124.365798 
L 350.562987 123.905827 
L 350.807029 123.245107 
L 351.047308 123.025155 
L 351.211506 123.438621 
L 351.4561 123.931299 
L 351.618537 124.011355 
L 351.780733 123.507294 
L 352.267405 121.368385 
L 352.348043 121.33242 
L 352.835296 122.28807 
L 353.079194 122.869067 
L 353.321998 122.014804 
L 353.809774 119.961867 
L 354.134328 118.54857 
L 354.214038 118.622541 
L 354.457713 120.019042 
L 354.782393 121.916876 
L 354.944792 121.024075 
L 355.350991 118.252256 
L 355.756048 117.654864 
L 356.0807 117.132066 
L 356.242121 117.410249 
L 356.81037 118.568922 
L 357.217478 118.271826 
L 357.540514 116.129434 
L 357.865853 114.487744 
L 358.109731 115.041806 
L 358.189556 114.947331 
L 358.270601 114.84491 
L 358.434547 115.252295 
L 358.758337 117.111441 
L 358.840059 117.008918 
L 359.567252 113.359455 
L 359.64911 113.416708 
L 360.058511 112.622823 
L 360.140659 112.680757 
L 360.869284 113.665482 
L 361.03205 113.720664 
L 361.193558 113.172224 
L 361.682108 110.13751 
L 361.763017 110.207775 
L 362.006605 110.646684 
L 362.249651 111.43651 
L 362.573151 111.040525 
L 362.977444 111.204985 
L 363.060172 111.051016 
L 363.628431 108.172263 
L 363.87346 108.089896 
L 364.035046 108.178647 
L 364.765355 109.653228 
L 365.009775 109.247507 
L 365.495538 107.623344 
L 366.061378 104.743232 
L 366.223486 105.695175 
L 366.7119 109.130588 
L 366.792354 108.963504 
L 367.034694 106.539364 
L 367.279714 103.686049 
L 367.44278 103.36578 
L 367.523321 103.390673 
L 368.25452 104.77955 
L 368.416512 104.752615 
L 368.579636 104.661971 
L 368.90124 105.146051 
L 368.983832 104.991979 
L 369.22713 103.219698 
L 369.635196 100.144584 
L 369.9577 101.145883 
L 370.283619 103.184697 
L 370.445795 102.855946 
L 370.932119 101.978961 
L 371.013763 101.961232 
L 371.177671 101.380886 
L 371.663018 98.644501 
L 371.745011 98.538272 
L 371.905687 99.09534 
L 372.149081 99.802651 
L 372.311257 99.729612 
L 372.554293 99.312031 
L 372.636073 99.416802 
L 372.879855 100.023147 
L 373.041547 100.058225 
L 373.123868 99.841663 
L 373.367321 97.301372 
L 373.611208 95.63768 
L 373.69114 95.583009 
L 373.773113 95.804797 
L 374.178587 98.590859 
L 374.259283 98.445235 
L 374.586005 98.027458 
L 375.231776 96.089882 
L 375.718701 93.845654 
L 375.79931 93.590546 
L 375.882212 93.646659 
L 376.448961 96.10365 
L 376.530828 96.047691 
L 377.097887 93.891927 
L 377.668429 91.279781 
L 377.829957 91.749689 
L 378.313011 93.841188 
L 378.478302 93.512037 
L 378.720216 92.141013 
L 379.128379 90.422294 
L 379.208505 90.372838 
L 379.372306 90.849679 
L 379.777383 91.982797 
L 379.938455 91.896728 
L 380.182421 91.002764 
L 380.261801 91.075167 
L 380.423686 91.179459 
L 380.586568 90.269413 
L 380.995032 86.659849 
L 381.075012 86.857624 
L 381.640184 90.776309 
L 381.723038 90.634604 
L 382.372525 86.950182 
L 382.534642 86.937325 
L 382.9406 88.232713 
L 383.022457 88.159403 
L 383.1844 88.038772 
L 383.58938 86.75046 
L 383.996963 85.27754 
L 384.159497 85.587249 
L 384.483171 87.044327 
L 385.051353 84.721588 
L 385.130288 84.832376 
L 385.456778 86.164994 
L 385.537213 85.995241 
L 385.782078 84.773235 
L 386.025598 84.689499 
L 386.18639 84.503183 
L 386.349233 83.707173 
L 386.673421 80.95604 
L 386.755026 81.062701 
L 387.404736 84.254311 
L 387.486931 84.469338 
L 387.566283 84.304389 
L 387.808284 83.259541 
L 387.891989 83.233436 
L 387.972637 82.961988 
L 388.622191 78.461067 
L 388.78429 79.220227 
L 389.271959 82.56192 
L 389.353158 82.47183 
L 389.596049 81.270566 
L 390.08307 78.323481 
L 390.245372 78.149853 
L 390.489298 78.722429 
L 390.651648 78.582931 
L 390.974142 79.581102 
L 391.136618 79.756531 
L 391.380748 78.837883 
L 391.787702 76.894525 
L 392.354083 78.860653 
L 392.597071 77.998572 
L 392.761289 78.10067 
L 393.329576 76.639505 
L 393.410437 76.774861 
L 393.492904 76.715183 
L 393.734247 74.878764 
L 393.897758 73.814494 
L 393.978706 73.878883 
L 394.627525 77.01501 
L 394.788723 76.509488 
L 395.114623 74.212173 
L 395.196413 74.243916 
L 395.438327 74.898717 
L 395.600125 74.894678 
L 395.761972 74.692008 
L 396.168413 72.831915 
L 396.24847 72.88159 
L 396.575144 73.485517 
L 396.737349 73.266609 
L 397.061352 73.760073 
L 397.223373 72.679927 
L 397.466207 71.193624 
L 397.707801 70.670579 
L 397.870461 71.497298 
L 398.032424 72.573505 
L 398.359552 72.430123 
L 398.439165 71.080252 
L 398.357056 70.675191 
L 398.277782 70.768531 
L 397.870964 72.472493 
L 397.627105 73.969472 
L 397.464949 73.639794 
L 397.383798 73.658228 
L 397.141613 73.002225 
L 397.061391 73.218256 
L 396.736807 74.840985 
L 396.656111 74.891959 
L 396.410559 75.822815 
L 396.328731 75.772474 
L 396.249496 75.745642 
L 396.085966 76.236983 
L 395.843181 77.784912 
L 395.681382 78.580866 
L 395.600928 78.533242 
L 395.194797 76.826509 
L 395.11383 76.883685 
L 394.867465 78.07744 
L 394.463269 81.042642 
L 393.895116 81.92064 
L 393.733705 82.156853 
L 393.571994 82.43304 
L 393.490891 82.360359 
L 392.920726 84.864386 
L 392.840224 84.491931 
L 392.514963 81.112583 
L 392.354703 82.535969 
L 391.865756 89.22566 
L 391.785786 89.169905 
L 391.298765 84.017666 
L 391.217198 84.284369 
L 390.812673 87.254169 
L 390.326726 88.292382 
L 389.999278 89.548687 
L 389.270217 91.541754 
L 388.702597 89.52288 
L 388.53867 90.519745 
L 387.972898 94.65424 
L 387.890141 94.559058 
L 387.567531 93.597786 
L 387.404736 93.131789 
L 387.000636 94.319296 
L 386.754455 94.069176 
L 386.511525 94.426851 
L 385.944495 97.414432 
L 385.86229 97.618313 
L 385.457416 96.888059 
L 385.373672 96.991388 
L 385.050762 98.138401 
L 384.807794 96.765969 
L 384.724843 96.883694 
L 384.401846 98.579182 
L 384.078046 100.218783 
L 383.751537 101.270323 
L 383.670541 101.11703 
L 383.18411 99.382045 
L 382.943077 100.383116 
L 382.453627 103.308497 
L 382.130069 103.361691 
L 381.88682 102.870015 
L 381.725186 102.806896 
L 381.561404 103.274405 
L 380.914161 105.647736 
L 380.834443 105.653661 
L 380.671396 106.160815 
L 380.020835 107.700165 
L 379.858901 107.468568 
L 379.695051 106.922822 
L 379.45186 105.655858 
L 379.371464 105.621858 
L 379.291174 105.804958 
L 379.046735 107.872041 
L 378.640391 111.843185 
L 378.559288 111.828308 
L 378.395739 111.147962 
L 377.993216 108.214937 
L 377.911611 108.262074 
L 377.750103 108.786609 
L 377.342239 110.857299 
L 377.17956 110.785093 
L 376.857037 111.562963 
L 376.450848 113.709338 
L 376.287811 113.499356 
L 375.718033 111.759076 
L 375.636911 111.763139 
L 375.475016 112.549483 
L 374.829486 116.185801 
L 374.748278 116.260345 
L 374.343046 115.525303 
L 374.016633 114.34618 
L 373.772871 115.742428 
L 373.450068 116.906498 
L 373.285783 117.276281 
L 372.881035 118.620144 
L 372.636392 120.012588 
L 372.555145 119.985575 
L 372.392272 119.401394 
L 371.907496 117.044226 
L 371.826694 116.961831 
L 371.747468 117.052475 
L 371.582709 118.316368 
L 371.096936 123.468583 
L 371.015495 123.279882 
L 370.609045 120.782816 
L 370.528774 120.814947 
L 370.285515 121.31146 
L 370.122169 121.240288 
L 369.959703 121.652844 
L 369.472517 123.34697 
L 369.390805 123.318191 
L 369.229471 123.018526 
L 369.067431 123.611026 
L 368.582577 125.182733 
L 368.174521 123.623787 
L 368.013854 123.682452 
L 367.849753 124.663926 
L 367.606088 126.057957 
L 367.363477 126.392627 
L 367.281146 126.33944 
L 367.118215 126.00343 
L 367.03779 126.04885 
L 366.471931 127.608197 
L 366.062742 127.22916 
L 365.981649 127.148026 
L 365.901553 127.269866 
L 365.49816 128.765285 
L 364.604175 129.687593 
L 364.361158 130.211294 
L 364.035307 130.339913 
L 363.791603 130.523722 
L 363.711255 130.49875 
L 363.550028 130.945987 
L 363.063481 132.966035 
L 362.819225 133.12608 
L 362.656934 133.170847 
L 362.492958 133.31261 
L 362.172215 133.153292 
L 361.601886 134.676909 
L 361.519739 134.673248 
L 361.357708 133.933988 
L 361.195774 133.310946 
L 361.033811 134.10983 
L 360.628231 137.116571 
L 360.547313 137.237551 
L 360.384759 136.85274 
L 360.141829 135.85467 
L 359.978541 135.719161 
L 359.410611 136.54586 
L 358.844394 138.576906 
L 358.601716 138.476047 
L 358.355196 138.772086 
L 358.194017 138.686108 
L 357.139153 140.307526 
L 356.976687 140.290852 
L 356.651213 140.746335 
L 356.487973 141.064059 
L 356.084173 141.956987 
L 355.924136 141.932372 
L 355.760547 141.728537 
L 355.598042 141.959835 
L 354.948033 143.354316 
L 354.218808 143.89065 
L 353.732609 145.476809 
L 353.567695 145.347455 
L 353.163131 144.842593 
L 353.000501 145.027634 
L 352.597272 146.284945 
L 352.352562 147.063168 
L 352.273037 147.027609 
L 352.02672 146.377303 
L 351.865609 146.84567 
L 351.620811 147.614177 
L 351.295705 147.761268 
L 351.053017 147.714712 
L 350.8103 148.136775 
L 350.649092 148.205498 
L 350.07882 149.51509 
L 349.998202 149.442458 
L 349.834719 149.487728 
L 349.18768 150.254878 
L 348.862922 150.749225 
L 348.700398 150.896485 
L 348.537652 150.904177 
L 348.212671 151.493578 
L 347.889248 152.350465 
L 346.915603 152.663701 
L 346.348892 153.725225 
L 346.024754 154.553109 
L 345.861339 154.593915 
L 345.618603 154.134626 
L 345.537249 154.161234 
L 345.131011 155.179456 
L 344.562617 155.30485 
L 343.829347 156.852522 
L 343.586901 156.653308 
L 343.424648 156.637696 
L 343.100761 157.166264 
L 342.207066 158.87179 
L 341.964717 158.35225 
L 341.721507 158.007489 
L 341.558915 158.46564 
L 341.072697 160.460141 
L 340.991488 160.472851 
L 340.828973 159.989001 
L 340.666043 159.6856 
L 340.099913 160.426851 
L 339.694691 161.06084 
L 339.288144 161.463607 
L 338.881296 161.932453 
L 338.639111 161.920726 
L 338.314624 162.182941 
L 337.258377 163.47904 
L 337.015399 163.510716 
L 336.122778 164.820787 
L 335.391115 165.000937 
L 335.230236 164.910572 
L 334.988051 165.39793 
L 334.336977 166.683789 
L 334.175159 166.425861 
L 334.012877 166.206419 
L 333.849211 166.248562 
L 333.526272 166.768555 
L 333.038167 167.388195 
L 332.065035 168.150681 
L 331.901166 168.135094 
L 331.73958 167.87308 
L 331.577753 168.11401 
L 331.171573 168.878993 
L 330.765635 169.15102 
L 330.3617 169.441559 
L 329.872599 169.465538 
L 328.656343 170.645022 
L 327.924622 170.901501 
L 327.276334 171.460221 
L 327.033995 171.538903 
L 325.49091 172.416295 
L 325.168058 172.739816 
L 324.436385 173.111988 
L 324.112634 173.178305 
L 323.626561 173.263775 
L 323.056947 173.882755 
L 322.813959 173.912178 
L 322.489598 173.855523 
L 321.189724 174.599575 
L 320.705809 174.764926 
L 320.055442 174.84967 
L 319.406303 175.235593 
L 318.838992 175.389756 
L 314.13317 176.782352 
L 311.212849 177.473303 
L 305.935961 178.537519 
L 304.963279 178.711338 
L 301.796283 179.144694 
L 295.305075 179.825859 
L 291.001727 180.071663 
L 281.427591 180.173491 
L 271.773909 180.183081 
L 265.200636 180.193696 
L 260.251919 180.203328 
L 255.301278 180.218678 
L 247.917458 180.246827 
L 241.185292 180.293257 
L 235.425995 180.335665 
L 221.063435 180.806935 
L 217.087434 181.241206 
L 211.329559 182.34557 
L 208.563241 183.35086 
L 207.994941 183.650255 
L 207.506449 183.974924 
L 206.860527 184.258575 
L 205.804406 185.067657 
L 205.074167 185.612361 
L 202.154025 187.791009 
L 201.584794 188.091908 
L 201.097113 188.398669 
L 200.610191 188.645915 
L 199.962927 189.01456 
L 199.312934 189.235895 
L 198.175304 189.645097 
L 197.445302 189.816163 
L 194.685998 190.495847 
L 193.471383 190.654268 
L 192.741108 190.772258 
L 192.172065 190.769771 
L 191.76737 191.020715 
L 191.279024 191.027107 
L 190.712168 191.022275 
L 190.388881 191.093811 
L 189.657063 191.181643 
L 188.196116 191.294433 
L 187.386233 191.360458 
L 186.65457 191.443892 
L 186.006612 191.54477 
L 185.600306 191.574781 
L 185.031167 191.618528 
L 182.598331 191.772801 
L 182.189021 191.776334 
L 181.463158 191.936074 
L 180.649425 191.91797 
L 180.406331 191.9358 
L 179.919668 192.134878 
L 178.70064 192.13641 
L 178.1357 192.178997 
L 177.485071 192.364094 
L 176.75394 192.265861 
L 176.509312 192.317057 
L 175.860483 192.5416 
L 175.536436 192.501077 
L 175.132268 192.465267 
L 174.808096 192.447701 
L 174.483647 192.624686 
L 174.240301 192.711709 
L 173.833217 192.646898 
L 173.508541 192.596666 
L 173.104147 192.636679 
L 172.615384 192.85168 
L 171.970711 192.70381 
L 171.72676 192.946628 
L 170.995363 193.029097 
L 170.590136 192.864068 
L 170.266118 193.152745 
L 170.023353 193.206169 
L 169.615272 193.178785 
L 169.290431 193.224049 
L 168.725428 193.079199 
L 168.480757 193.207377 
L 167.993044 193.354237 
L 167.586187 193.19922 
L 166.205109 193.295959 
L 164.826784 193.362806 
L 164.339197 193.540106 
L 164.096765 193.619137 
L 163.935025 193.480762 
L 163.609996 193.032162 
L 163.448531 193.035647 
L 163.203971 193.389161 
L 162.961438 193.611244 
L 162.63578 193.393683 
L 162.149354 193.266492 
L 161.743165 193.0752 
L 161.25715 193.127347 
L 161.01154 193.138924 
L 160.687924 192.967279 
L 160.36377 193.094007 
L 159.714888 192.814441 
L 159.388553 192.49983 
L 159.229149 192.569951 
L 158.823076 193.041439 
L 158.661224 192.888199 
L 158.335054 192.586821 
L 157.930214 192.681912 
L 157.200742 192.392096 
L 156.874523 192.579684 
L 155.821164 192.512083 
L 155.577881 192.290114 
L 155.413997 192.399427 
L 155.171469 192.625577 
L 154.358911 192.684366 
L 153.223012 192.855038 
L 152.656195 193.310322 
L 152.087017 193.327809 
L 150.790278 194.324609 
L 150.466062 194.35336 
L 149.250164 195.804896 
L 148.761479 195.757797 
L 148.436363 196.213363 
L 147.868375 197.105583 
L 147.218685 197.510145 
L 147.057332 197.657792 
L 146.813831 197.922432 
L 146.652091 197.943361 
L 145.839934 199.030534 
L 145.356048 199.9145 
L 145.274046 199.957816 
L 144.867605 199.642328 
L 144.543408 200.042033 
L 144.217005 200.928295 
L 143.973717 201.01704 
L 143.650091 201.523775 
L 143.406978 201.759317 
L 142.59455 202.400883 
L 141.70283 203.557384 
L 141.540296 203.677885 
L 141.134358 204.300772 
L 140.890451 204.434362 
L 140.647028 204.38135 
L 140.403875 204.761968 
L 139.839371 205.946497 
L 139.512939 206.001827 
L 139.025647 206.115314 
L 138.614697 206.946658 
L 138.45406 206.985395 
L 137.397299 208.262578 
L 136.993684 209.713254 
L 136.911507 209.729547 
L 136.750367 209.289653 
L 136.424641 208.269061 
L 136.26172 208.691073 
L 135.774245 210.518488 
L 135.530957 210.773263 
L 134.963056 210.973161 
L 134.149506 211.625938 
L 133.988656 212.142628 
L 133.665669 213.418803 
L 133.505438 213.460744 
L 133.016801 212.858053 
L 132.852613 212.907485 
L 132.609731 213.53353 
L 131.962024 215.081304 
L 131.473997 215.086827 
L 131.06715 215.498421 
L 130.663921 215.643212 
L 129.931193 216.909955 
L 129.770614 217.112524 
L 129.285015 218.40121 
L 128.797066 218.04797 
L 128.474349 218.263177 
L 128.227036 218.193589 
L 127.983661 219.162359 
L 127.582077 220.995276 
L 127.41935 221.137645 
L 127.255878 220.810509 
L 127.012387 220.130294 
L 126.767192 219.930571 
L 126.60491 219.966437 
L 126.443625 220.476693 
L 125.87555 222.969447 
L 125.7117 223.045008 
L 125.144128 221.997706 
L 125.061874 222.013597 
L 124.416538 223.441296 
L 123.847786 226.092177 
L 123.766441 226.029657 
L 123.602659 225.409592 
L 123.198589 223.246166 
L 123.035804 223.925069 
L 122.546906 226.399186 
L 122.304856 226.36443 
L 122.141452 226.420067 
L 121.899131 227.172921 
L 121.656608 228.050237 
L 120.926599 226.638526 
L 120.194674 229.480811 
L 119.707314 230.26501 
L 119.465362 229.973942 
L 119.302422 229.671826 
L 118.896668 229.802442 
L 118.004763 232.070635 
L 117.761534 232.287329 
L 117.600132 232.320218 
L 117.356273 232.744295 
L 117.193294 232.623314 
L 116.787037 233.09322 
L 116.543555 233.694346 
L 115.975326 233.995655 
L 115.324687 236.213128 
L 114.759999 234.983333 
L 114.677542 235.026964 
L 114.027397 237.386884 
L 113.784999 237.362951 
L 113.217079 238.830697 
L 113.136741 238.784065 
L 112.648704 237.647865 
L 112.484941 238.088943 
L 111.999275 240.854074 
L 111.837854 240.54245 
L 111.6762 240.301624 
L 111.432448 240.899952 
L 111.352033 240.813699 
L 111.190495 240.789006 
L 110.945214 240.998767 
L 110.619779 241.183503 
L 110.457652 241.065647 
L 110.294615 241.276766 
L 110.051607 241.617845 
L 109.647585 243.390032 
L 109.321956 245.315477 
L 109.240496 245.224481 
L 109.077198 244.694403 
L 108.67304 242.238421 
L 108.593186 242.333423 
L 108.349453 243.435906 
L 107.943573 246.099529 
L 107.619328 247.264961 
L 107.455236 247.165565 
L 107.294057 246.944685 
L 106.968583 246.158189 
L 106.644531 246.133975 
L 106.237926 246.720855 
L 105.912462 247.574915 
L 105.751495 248.286991 
L 105.426882 249.953551 
L 105.183691 250.77094 
L 105.021119 250.443909 
L 104.778895 248.733642 
L 104.534349 247.677592 
L 104.210723 248.482272 
L 103.478586 253.466291 
L 103.398519 253.572894 
L 103.317368 253.461623 
L 103.072029 252.108376 
L 102.829476 250.993384 
L 102.74639 250.918177 
L 102.261082 252.211703 
L 101.532224 255.981715 
L 101.449574 255.978993 
L 101.206489 255.08498 
L 100.963346 253.467225 
L 100.719255 253.35305 
L 100.640978 253.370501 
L 100.476964 253.78712 
L 99.745213 257.97564 
L 99.503135 257.699953 
L 99.341065 258.051352 
L 99.260157 257.940403 
L 99.017662 256.745315 
L 98.936076 256.711017 
L 98.531473 257.815113 
L 98.286763 258.595763 
L 98.1251 258.87704 
L 97.636773 260.719335 
L 97.475013 261.33131 
L 97.312673 261.27305 
L 97.149926 260.915223 
L 96.906183 259.821567 
L 96.826619 259.850062 
L 96.500565 260.471624 
L 96.095962 262.307257 
L 95.689395 263.061827 
L 95.528177 263.11764 
L 95.446891 263.066925 
L 94.878032 261.852962 
L 94.714802 263.060899 
L 94.310228 266.685911 
L 93.984803 265.71952 
L 93.742482 264.357803 
L 93.660577 264.329426 
L 93.334019 264.806568 
L 92.849272 267.035344 
L 92.527349 267.335491 
L 92.363722 267.654773 
L 92.2038 267.283535 
L 92.122224 267.118121 
L 92.039544 267.230524 
L 91.390048 269.369659 
L 91.145415 268.572671 
L 91.065483 268.669799 
L 90.820415 269.44462 
L 90.57792 270.340747 
L 90.414071 270.149734 
L 90.252485 270.171036 
L 90.009129 269.930512 
L 89.847399 270.506373 
L 89.523289 271.977752 
L 89.3603 272.541669 
L 89.279179 272.330478 
L 88.875602 269.402168 
L 88.793977 269.479341 
L 88.630195 271.012059 
L 88.143464 276.69587 
L 88.062594 276.759604 
L 87.899315 275.885565 
L 87.41392 271.397807 
L 87.332024 271.584939 
L 87.006917 274.523846 
L 86.762768 277.003888 
L 86.519442 277.228546 
L 86.278824 277.381907 
L 86.115884 277.405422 
L 86.034046 277.465522 
L 85.953931 277.359039 
L 85.628147 275.895354 
L 85.545109 275.850506 
L 85.383243 276.099793 
L 85.220922 276.924975 
L 84.655363 280.790667 
L 84.492287 280.811601 
L 84.410343 280.940654 
L 84.330905 280.885947 
L 84.167036 280.120064 
L 83.762114 277.518936 
L 83.680189 277.453361 
L 83.517317 278.130656 
L 82.949967 282.455338 
L 82.869136 282.357281 
L 82.70875 282.115615 
L 82.463188 281.461255 
L 82.298439 282.456098 
L 82.13754 283.764052 
L 81.97759 283.311771 
L 81.652135 282.538892 
L 81.409911 280.906179 
L 81.326603 281.134753 
L 80.43467 287.156237 
L 80.35439 287.362408 
L 80.272571 287.227687 
L 79.949187 286.168404 
L 79.786683 285.486802 
L 79.625503 284.953239 
L 79.381054 285.374038 
L 78.326462 290.306451 
L 78.244014 290.203913 
L 77.677507 287.322258 
L 77.594595 287.424601 
L 77.432458 288.227844 
L 77.108251 290.427132 
L 76.945746 290.800777 
L 76.622382 290.176946 
L 76.460041 290.240451 
L 76.380516 290.176846 
L 76.298843 290.271979 
L 76.053871 292.399287 
L 75.81129 294.310287 
L 75.48747 292.134226 
L 75.323504 291.404122 
L 75.242315 291.360662 
L 75.161483 291.512364 
L 74.755033 294.456185 
L 74.676572 294.422286 
L 74.511261 294.466329 
L 74.348127 294.134857 
L 74.268002 294.260901 
L 73.94397 295.355514 
L 73.832727 295.480199 
L 73.959035 295.347328 
L 74.365757 293.632279 
L 74.691927 292.738352 
L 74.772004 292.822613 
L 75.177207 294.991285 
L 75.257719 294.688239 
L 75.906886 290.539977 
L 76.069295 290.717019 
L 76.152864 290.618003 
L 76.314401 290.03645 
L 76.801819 291.506817 
L 76.959921 291.013486 
L 77.530183 289.006722 
L 77.7744 289.161023 
L 77.855502 289.068113 
L 78.016614 288.038392 
L 78.260831 286.690061 
L 78.34174 286.748113 
L 78.50467 287.892363 
L 78.747639 289.110134 
L 78.828654 288.933891 
L 79.072213 287.098151 
L 79.398335 284.447189 
L 79.641052 283.300879 
L 79.721739 283.446473 
L 79.966062 284.536753 
L 80.287211 283.896883 
L 80.53225 284.925821 
L 80.775335 286.125927 
L 81.019735 285.070464 
L 81.181853 283.947632 
L 81.506485 281.089604 
L 81.831843 280.558793 
L 82.481166 283.052809 
L 82.56104 282.879826 
L 83.209404 279.504527 
L 83.534162 277.336016 
L 83.615952 277.388269 
L 83.858775 278.48851 
L 83.941271 278.526787 
L 84.184385 279.213008 
L 84.265361 279.027015 
L 84.752121 277.19382 
L 84.831743 277.293088 
L 85.075834 278.508735 
L 85.317545 277.768443 
L 85.726114 273.773717 
L 85.888958 274.101197 
L 86.13122 275.52287 
L 86.374092 276.796121 
L 87.104914 274.051419 
L 87.268076 273.654269 
L 87.430813 273.4111 
L 87.511277 273.373446 
L 87.916586 272.454113 
L 87.998047 272.509495 
L 88.161713 272.590655 
L 88.322485 272.619531 
L 88.403752 272.707051 
L 88.484419 272.63171 
L 88.728143 272.198986 
L 89.296247 269.628802 
L 89.460329 269.195791 
L 89.781429 268.064638 
L 89.863722 267.90322 
L 89.944843 267.947918 
L 90.189805 269.129191 
L 90.513644 270.939454 
L 90.675946 271.39586 
L 90.756835 271.298742 
L 91.001352 267.762018 
L 91.324397 264.011525 
L 91.405452 263.917977 
L 91.487841 264.016017 
L 92.138644 267.834373 
L 92.300084 267.30936 
L 93.433283 263.536527 
L 93.59693 263.331682 
L 93.758864 263.163088 
L 94.165653 263.839345 
L 94.327432 264.536565 
L 94.40867 264.472073 
L 94.732644 262.662165 
L 95.05775 260.55465 
L 95.302925 259.725154 
L 95.384086 259.707973 
L 95.547016 259.924695 
L 95.707954 259.775469 
L 95.869017 259.26932 
L 96.112082 259.990339 
L 96.27388 259.841342 
L 96.354886 260.052205 
L 96.67978 262.022343 
L 96.762749 261.74886 
L 97.00597 258.815324 
L 97.329596 254.918653 
L 97.411985 254.527347 
L 97.491588 254.632807 
L 97.735214 256.910461 
L 98.057592 259.367725 
L 98.303367 259.029451 
L 98.71002 256.210843 
L 99.035001 253.820962 
L 99.195242 253.422883 
L 99.357708 253.825125 
L 99.8447 255.543537 
L 99.925386 255.579049 
L 100.006411 255.773066 
L 100.087417 255.736146 
L 100.413162 254.352408 
L 100.7373 251.858214 
L 101.060104 251.735543 
L 101.304611 252.370241 
L 101.549612 253.102313 
L 101.63025 252.9352 
L 102.035549 251.076914 
L 102.117183 251.035577 
L 102.277908 251.251918 
L 102.521273 250.602698 
L 103.088361 247.768482 
L 103.252376 247.058907 
L 103.335529 247.081082 
L 103.497066 247.928155 
L 103.902453 251.488385 
L 103.983313 251.340465 
L 104.226504 248.65029 
L 104.550701 244.90711 
L 104.79664 244.958536 
L 104.95811 245.549901 
L 105.282423 247.284683 
L 105.443573 247.436736 
L 106.742992 243.636813 
L 106.904539 243.486447 
L 107.147256 243.790103 
L 107.311203 243.887201 
L 107.634209 243.798374 
L 107.878736 242.851023 
L 108.203707 241.813206 
L 108.769837 240.666437 
L 108.932274 240.602277 
L 109.174381 240.400688 
L 109.418105 240.292341 
L 109.664053 240.860937 
L 109.825136 240.812437 
L 109.987544 240.75057 
L 110.15061 239.899282 
L 110.474362 237.820494 
L 110.638308 237.352686 
L 110.719101 237.374525 
L 110.880861 237.832579 
L 111.042862 238.345759 
L 111.367369 238.147807 
L 111.69262 236.829287 
L 111.773471 236.87221 
L 112.016111 237.332659 
L 112.177842 237.165071 
L 112.338092 236.635391 
L 112.666846 234.918745 
L 112.909631 234.747172 
L 113.395694 235.279069 
L 113.476535 235.294577 
L 113.638895 234.809665 
L 113.962337 233.699267 
L 114.532328 231.94151 
L 114.775973 231.720907 
L 115.098448 232.79055 
L 115.341494 233.516744 
L 115.421068 233.464869 
L 115.584192 232.890879 
L 115.829812 230.422791 
L 116.074193 228.531867 
L 116.154144 228.500139 
L 116.315768 228.866265 
L 116.964394 230.955592 
L 117.207401 230.722408 
L 117.534036 229.383385 
L 117.939481 226.51492 
L 118.424441 227.240612 
L 118.669809 227.654174 
L 118.912536 227.376071 
L 119.644364 225.184724 
L 119.805872 225.293501 
L 120.127843 225.878638 
L 120.210552 225.741086 
L 120.696876 223.566613 
L 120.780252 223.590823 
L 121.265899 224.241862 
L 121.508752 223.891653 
L 121.831604 222.665187 
L 122.2376 222.184944 
L 122.642502 221.385257 
L 122.968189 221.299961 
L 123.132571 221.514686 
L 123.213035 221.438548 
L 123.537512 220.458686 
L 123.942908 219.202311 
L 124.268944 218.761182 
L 124.429775 219.013334 
L 124.752423 219.919096 
L 124.833642 219.869157 
L 125.077946 218.821531 
L 125.402491 217.289772 
L 125.565431 217.138905 
L 126.131842 217.14309 
L 126.377955 216.715329 
L 126.619434 216.702794 
L 126.94512 216.374375 
L 127.351668 215.437944 
L 127.675652 214.52252 
L 127.837354 214.328297 
L 127.999578 214.432082 
L 128.243446 214.613217 
L 128.406087 214.584839 
L 128.732344 213.774006 
L 129.136579 212.899793 
L 129.705409 212.317884 
L 130.111153 212.05007 
L 130.435128 211.682154 
L 131.245571 210.338995 
L 131.408792 210.23249 
L 132.05706 209.497595 
L 132.301325 209.278379 
L 132.707418 208.56835 
L 133.195658 207.140727 
L 133.439207 206.971979 
L 133.60086 207.060728 
L 133.845619 206.806255 
L 134.004312 207.06953 
L 134.329902 206.879923 
L 134.491149 206.720053 
L 134.734978 205.910781 
L 135.1435 204.13348 
L 135.223083 204.217312 
L 135.54817 205.008978 
L 136.033507 204.825375 
L 137.009533 202.765755 
L 137.740296 202.325609 
L 137.9843 201.984479 
L 138.145025 201.952903 
L 138.470015 201.497501 
L 139.037684 200.303972 
L 139.198408 200.239862 
L 139.3619 200.322787 
L 139.687538 200.019208 
L 139.930517 199.947307 
L 141.146124 197.792328 
L 141.470892 197.569884 
L 141.71386 197.575331 
L 142.282729 197.121112 
L 142.77122 195.998733 
L 143.095321 195.278339 
L 143.337215 195.435865 
L 143.580551 195.606051 
L 143.742805 195.440328 
L 144.310377 194.598347 
L 144.636015 193.775836 
L 144.960783 193.611046 
L 146.016808 192.785786 
L 146.90727 191.530922 
L 147.31315 191.31607 
L 147.882105 190.519663 
L 148.370839 189.94805 
L 148.531302 189.886675 
L 149.669068 188.617784 
L 149.827906 188.435303 
L 150.315062 187.888103 
L 151.208485 186.941877 
L 151.614123 186.30051 
L 151.776821 186.341359 
L 151.938194 186.409894 
L 152.751279 185.367604 
L 153.317884 184.77779 
L 154.942216 183.142631 
L 155.592457 182.378364 
L 156.15911 181.883284 
L 157.620163 180.317739 
L 158.10418 179.908151 
L 158.915267 179.022397 
L 161.192385 176.834908 
L 162.167027 176.02046 
L 162.652451 175.552666 
L 163.30115 175.131072 
L 163.788611 174.89291 
L 164.193378 174.507577 
L 164.599906 174.165255 
L 166.707718 173.464722 
L 167.51969 173.471265 
L 168.088994 173.536371 
L 168.820217 173.64487 
L 170.604635 174.448495 
L 171.173484 174.706587 
L 173.282529 175.396956 
L 173.606925 175.329241 
L 175.552778 175.567628 
L 178.474933 175.741467 
L 179.691068 175.822234 
L 180.178219 175.766024 
L 184.640662 175.757065 
L 184.964162 175.790729 
L 186.344229 175.859495 
L 186.75155 175.904305 
L 187.320128 176.006075 
L 187.887187 176.024789 
L 188.861558 176.102156 
L 189.591262 176.167156 
L 190.159478 176.13187 
L 190.891015 176.150117 
L 191.619931 176.206136 
L 192.431715 176.179801 
L 194.217231 176.289628 
L 194.784522 176.30327 
L 195.841587 176.577713 
L 196.24519 176.474845 
L 199.328805 176.988913 
L 199.651142 177.03511 
L 204.116216 177.385646 
L 204.84765 177.420592 
L 205.577182 177.47131 
L 206.062972 177.468231 
L 207.117973 177.514615 
L 207.60521 177.548025 
L 211.175797 177.737424 
L 211.58126 177.715019 
L 212.0687 177.720572 
L 212.557622 177.773929 
L 213.206233 177.747736 
L 215.072453 177.828841 
L 215.803052 177.864206 
L 218.886341 177.994843 
L 221.157528 178.135323 
L 225.294575 178.149669 
L 241.646228 178.727016 
L 243.836385 178.735464 
L 245.216109 178.765356 
L 247.244567 178.770987 
L 249.922024 178.818965 
L 252.112711 178.82316 
L 260.552771 178.941742 
L 263.313415 178.961418 
L 273.534036 179.07178 
L 276.53484 179.088242 
L 280.508672 179.118039 
L 288.463014 178.995827 
L 291.788412 178.626185 
L 295.438717 177.597048 
L 297.147408 176.861778 
L 297.636253 176.662016 
L 298.204066 176.389675 
L 299.25772 175.749668 
L 299.662642 175.728359 
L 299.90667 175.366789 
L 300.231743 174.984739 
L 301.042462 174.670769 
L 301.69162 174.054483 
L 302.098086 173.717056 
L 302.340309 173.48352 
L 302.827059 173.303692 
L 304.450777 171.846015 
L 305.018479 171.44914 
L 305.58609 170.855727 
L 305.828492 170.659693 
L 306.4793 169.851379 
L 306.884459 169.708345 
L 307.128144 169.728908 
L 307.288839 169.529752 
L 307.777471 168.448082 
L 308.102176 168.481929 
L 309.319162 167.317275 
L 310.047889 166.464266 
L 310.614769 165.620452 
L 311.347226 165.571265 
L 311.591656 165.103919 
L 312.076301 163.998749 
L 312.483971 163.871376 
L 312.888791 163.722044 
L 313.293109 163.134009 
L 313.618965 162.506718 
L 314.430976 161.765241 
L 314.674549 161.632536 
L 315.077038 161.115951 
L 315.647159 160.866323 
L 316.214876 159.953949 
L 316.538584 159.931509 
L 316.782235 159.125752 
L 317.025097 158.525851 
L 317.512626 159.185328 
L 317.593477 159.122648 
L 317.917297 158.390058 
L 318.158727 157.896677 
L 318.484868 157.053533 
L 318.728001 156.830596 
L 319.297296 156.814488 
L 319.540167 156.648856 
L 319.703098 156.475247 
L 320.435361 155.16598 
L 320.679027 154.962264 
L 320.920708 154.629928 
L 321.244876 154.498247 
L 321.486316 154.198162 
L 322.304791 153.202836 
L 322.548059 152.552706 
L 322.954084 152.420501 
L 323.521724 151.712339 
L 323.928977 151.453074 
L 324.253687 151.100467 
L 324.494682 150.704105 
L 324.65708 150.523728 
L 324.818559 150.462191 
L 325.874081 148.669025 
L 326.442814 149.085513 
L 326.523791 149.094087 
L 326.68705 148.629378 
L 327.091537 146.993535 
L 327.173413 146.964886 
L 327.415424 147.172726 
L 327.65876 146.903676 
L 328.063866 146.241692 
L 328.307541 146.554728 
L 328.550742 146.380454 
L 328.713788 145.854004 
L 328.957405 144.9721 
L 329.201883 144.726808 
L 329.444494 144.730035 
L 329.769029 144.173195 
L 329.850412 144.232159 
L 330.094494 144.258743 
L 330.336669 144.041873 
L 331.309772 142.45501 
L 331.555295 142.167295 
L 331.878795 141.616865 
L 332.040816 141.694339 
L 332.364926 142.183059 
L 332.527895 141.883619 
L 333.097867 139.551921 
L 333.178282 139.58824 
L 333.825138 140.667849 
L 333.906704 140.720356 
L 333.988116 140.63819 
L 334.473599 139.159621 
L 334.6371 139.156593 
L 334.800128 138.670599 
L 335.204005 136.951556 
L 335.369519 137.085501 
L 335.529179 137.402744 
L 335.772912 138.699123 
L 335.85472 138.64868 
L 336.179875 137.437609 
L 336.586036 135.658963 
L 336.909778 135.461939 
L 337.234671 135.74017 
L 337.315764 135.724158 
L 337.883558 134.757155 
L 338.207997 134.966107 
L 338.288558 135.036119 
L 338.451072 134.689265 
L 338.856662 133.364138 
L 339.101159 133.368702 
L 339.263441 133.326053 
L 339.42702 133.15095 
L 339.671895 132.196282 
L 339.913499 131.583278 
L 340.076217 131.813819 
L 340.480819 132.917911 
L 340.640799 132.522813 
L 341.373498 130.063321 
L 341.861641 129.14074 
L 342.18399 129.630313 
L 342.346688 129.730592 
L 342.510325 129.862116 
L 342.674252 129.393573 
L 343.158796 127.833718 
L 343.401029 127.630646 
L 343.724829 127.111534 
L 343.968949 127.055219 
L 344.214588 127.641514 
L 344.297481 127.629204 
L 344.538118 127.143589 
L 344.781793 126.017196 
L 345.188824 124.330664 
L 345.675661 125.795965 
L 345.838146 125.514055 
L 346.242314 123.956144 
L 346.647623 123.868122 
L 346.811124 123.840758 
L 347.378473 122.490085 
L 347.54241 122.706875 
L 347.703918 122.533183 
L 348.026286 121.901366 
L 348.269806 121.292042 
L 348.595977 121.582727 
L 348.757437 121.418117 
L 349.325967 119.537283 
L 349.489855 119.739574 
L 349.651218 120.082347 
L 349.73086 120.062673 
L 349.893645 119.668176 
L 350.136169 118.972621 
L 350.460278 119.019764 
L 350.94906 118.195912 
L 351.435394 118.508848 
L 351.598344 118.295554 
L 352.004388 116.318384 
L 352.410288 114.328978 
L 352.49018 114.393921 
L 352.653643 115.305384 
L 352.977463 117.754962 
L 353.057462 117.580414 
L 353.790954 113.468764 
L 354.034078 113.106801 
L 354.276911 113.039514 
L 354.356726 112.971065 
L 354.519589 113.326598 
L 354.762548 113.764876 
L 354.924163 113.786363 
L 355.087093 113.9222 
L 355.251582 113.529191 
L 355.41458 112.675055 
L 355.657229 111.160879 
L 355.82045 111.286547 
L 355.90102 111.335754 
L 356.061203 111.084432 
L 356.303697 111.250079 
L 356.466502 111.021684 
L 356.955023 109.845936 
L 357.115467 110.391126 
L 357.359625 111.40965 
L 358.415302 106.36394 
L 358.49652 106.423438 
L 358.820872 107.665814 
L 359.065244 108.572338 
L 359.386993 108.745348 
L 359.467601 108.727892 
L 359.630542 107.950782 
L 360.201732 102.906485 
L 360.281335 102.940155 
L 360.441721 103.621664 
L 360.931122 107.249577 
L 361.01117 107.200299 
L 361.093356 107.001866 
L 361.335937 104.905779 
L 361.824255 101.092539 
L 361.987234 101.307418 
L 362.148723 101.892482 
L 362.471546 103.527461 
L 362.714969 103.278116 
L 362.877125 102.988838 
L 363.120955 102.401653 
L 363.285443 102.544123 
L 363.446952 102.241175 
L 363.607608 102.251116 
L 363.770994 101.462677 
L 364.25754 97.533654 
L 364.420819 98.833127 
L 364.745365 101.688171 
L 364.827773 101.749861 
L 364.908798 101.640554 
L 365.47576 98.595879 
L 365.636437 97.823859 
L 365.880528 98.624131 
L 366.042394 97.60134 
L 366.28662 96.030391 
L 366.368652 95.902751 
L 366.450393 95.96489 
L 366.772886 97.067851 
L 367.097519 98.361103 
L 367.179434 98.238532 
L 367.504405 96.109609 
L 367.827557 93.302336 
L 368.23542 94.021436 
L 368.559133 95.13144 
L 368.801337 94.706069 
L 369.288068 93.477937 
L 369.775863 91.766457 
L 370.101289 91.590775 
L 370.264113 91.499352 
L 370.426492 91.982826 
L 370.831443 94.001286 
L 370.911597 94.133697 
L 370.994373 93.923913 
L 371.399905 90.75939 
L 371.724237 87.536783 
L 371.885948 87.163977 
L 371.965725 87.253611 
L 372.2094 88.764025 
L 372.615241 93.122785 
L 372.697872 92.963062 
L 373.021721 89.081229 
L 373.345705 85.77121 
L 373.509342 85.89976 
L 373.753239 86.177207 
L 374.076139 87.06832 
L 374.402987 87.297694 
L 374.565366 86.966445 
L 374.727378 87.173171 
L 374.808925 87.037448 
L 375.130897 85.211942 
L 375.37461 83.196406 
L 375.535403 83.142192 
L 375.696766 83.369401 
L 375.943469 84.013175 
L 376.346775 85.680336 
L 376.427074 85.852085 
L 376.510412 85.710171 
L 376.99574 83.304182 
L 377.319666 83.595366 
L 377.403371 83.398325 
L 377.647946 81.136537 
L 377.971214 78.286364 
L 378.134057 78.991117 
L 378.295285 80.903759 
L 378.619694 85.735468 
L 378.782151 84.447644 
L 379.107867 79.181556 
L 379.352083 76.888976 
L 379.432547 76.642558 
L 379.513514 76.887116 
L 379.918968 79.623441 
L 380.161337 79.3262 
L 380.322652 79.370331 
L 380.650196 79.232104 
L 380.973813 79.884226 
L 381.13536 79.503176 
L 381.298726 78.104046 
L 381.704238 72.574304 
L 382.025909 75.39314 
L 382.514314 79.39967 
L 382.758172 77.749696 
L 383.163501 73.188123 
L 383.326693 72.726893 
L 383.406837 72.774688 
L 383.569342 73.646636 
L 383.649573 73.492155 
L 383.812881 72.674488 
L 383.894593 72.659636 
L 384.057688 72.766712 
L 384.137814 72.765861 
L 384.30027 73.837569 
L 384.543374 75.291621 
L 384.622541 75.311374 
L 384.785888 75.005806 
L 385.434136 70.984244 
L 385.516884 71.200916 
L 385.59906 71.432362 
L 385.681237 71.238158 
L 385.923818 69.764787 
L 386.004601 69.728749 
L 386.410142 71.258459 
L 386.571389 72.292623 
L 386.652918 72.259305 
L 386.896912 70.861928 
L 387.222695 67.904792 
L 387.30462 67.939469 
L 387.464938 68.229707 
L 387.788119 67.938355 
L 388.113642 66.928207 
L 388.436126 68.561244 
L 388.681001 69.641282 
L 388.763293 69.61178 
L 388.924995 68.902003 
L 389.330178 66.553732 
L 389.574811 66.084914 
L 389.737693 66.543316 
L 389.899192 66.807681 
L 390.223853 64.529574 
L 390.387867 63.46898 
L 390.711638 65.364921 
L 390.791879 65.280886 
L 390.872769 65.25012 
L 390.953717 65.485221 
L 391.19805 66.978904 
L 391.847633 62.25523 
L 392.17125 60.755647 
L 392.819005 64.107113 
L 392.900804 64.065296 
L 393.225126 62.969744 
L 393.630764 60.230713 
L 393.875736 58.153612 
L 393.957428 58.251044 
L 394.442998 60.426954 
L 394.686102 61.220189 
L 394.846352 61.24339 
L 395.416624 58.929672 
L 395.661837 58.307229 
L 395.985492 55.855611 
L 396.065656 55.999845 
L 396.227426 56.44723 
L 396.553741 58.082395 
L 396.635144 58.111748 
L 396.797784 57.816065 
L 396.958247 57.749691 
L 397.364108 56.570052 
L 397.687898 53.94242 
L 397.767781 53.964736 
L 397.931438 53.568 
L 398.093401 54.240782 
L 398.444148 56.83036 
L 398.11818 58.53578 
L 397.956159 58.61414 
L 397.631217 57.28523 
L 397.307379 57.022057 
L 396.902408 54.965762 
L 396.821025 55.178577 
L 396.25235 63.760101 
L 396.170474 63.626562 
L 395.764962 61.411256 
L 395.68385 61.322557 
L 395.441413 59.670622 
L 395.36124 59.824384 
L 395.199906 60.316338 
L 395.034692 60.168248 
L 394.790784 61.163189 
L 394.629354 62.446396 
L 394.30565 65.72063 
L 393.981192 67.000762 
L 393.656666 65.002508 
L 393.574809 64.796456 
L 393.412285 63.601617 
L 393.332615 63.678688 
L 393.006715 66.716004 
L 392.681309 70.167126 
L 392.600342 70.164932 
L 392.438466 68.84942 
L 392.115227 64.868111 
L 391.952258 66.036513 
L 391.464027 72.315294 
L 391.139172 71.370294 
L 391.059628 71.056075 
L 390.898216 69.311246 
L 390.816591 69.441538 
L 390.49165 71.185727 
L 390.412898 71.118993 
L 390.330287 71.20149 
L 390.004116 73.201562 
L 389.760973 74.47877 
L 389.275433 72.752975 
L 389.111718 72.143646 
L 388.625375 74.615115 
L 388.219688 77.685563 
L 388.137744 77.939458 
L 388.056477 77.786928 
L 387.571546 74.896702 
L 387.490134 74.9625 
L 387.327484 75.812601 
L 387.085145 77.363272 
L 386.352765 80.261171 
L 386.272504 80.177263 
L 385.866634 79.00696 
L 385.705107 79.449531 
L 385.295869 82.199804 
L 385.217234 82.138146 
L 385.055716 81.531948 
L 384.648763 79.288089 
L 384.568473 79.62995 
L 383.839557 86.718157 
L 383.755717 86.665777 
L 383.512864 85.838696 
L 383.026327 82.098719 
L 382.946821 82.084198 
L 382.86449 82.222456 
L 382.702101 83.354391 
L 382.21421 88.167718 
L 382.133417 88.332607 
L 382.050718 88.265423 
L 381.5651 86.517474 
L 381.484684 86.709457 
L 381.323554 87.336235 
L 381.159501 86.653118 
L 381.081707 86.726886 
L 380.59248 88.936058 
L 380.347915 90.190111 
L 380.105401 90.957771 
L 379.781592 90.199045 
L 379.376002 90.762033 
L 379.2949 90.792701 
L 379.052347 90.279325 
L 378.320113 93.307402 
L 378.158817 93.870195 
L 377.915684 94.601152 
L 377.672125 94.726373 
L 377.511362 94.6295 
L 377.345897 94.562387 
L 377.102793 94.834415 
L 376.941004 94.751235 
L 376.778692 94.951511 
L 376.696748 94.879834 
L 376.617339 94.686149 
L 376.536488 94.893308 
L 376.048384 98.309653 
L 375.966614 98.671312 
L 375.887746 98.498377 
L 375.641362 97.470145 
L 375.480405 97.410595 
L 375.317098 97.516343 
L 375.073752 98.285268 
L 374.996471 98.194266 
L 374.915543 98.158276 
L 374.753106 98.655223 
L 374.265514 101.165954 
L 374.183821 101.064521 
L 373.696413 99.670744 
L 373.615263 99.664612 
L 372.723668 103.127446 
L 372.641317 103.084468 
L 372.479751 103.139292 
L 372.235505 102.363646 
L 371.831715 103.041592 
L 371.587392 103.882639 
L 371.507335 103.851572 
L 371.425681 103.987634 
L 370.856658 106.423487 
L 370.775584 106.410929 
L 370.613805 105.876483 
L 370.451707 105.97797 
L 370.20688 106.20223 
L 370.126117 106.247853 
L 369.802181 107.566749 
L 369.476233 108.881211 
L 369.071176 109.3553 
L 368.82633 110.264722 
L 368.747085 110.111786 
L 368.504339 109.061306 
L 368.422714 109.025697 
L 368.259822 108.363865 
L 368.097559 107.728486 
L 367.936042 109.27248 
L 367.529001 114.225071 
L 367.449233 114.312737 
L 367.366786 113.983484 
L 366.879601 109.949215 
L 366.798798 109.934688 
L 366.635752 111.379034 
L 366.392493 113.650727 
L 366.149176 114.445976 
L 365.661797 114.301718 
L 365.255462 113.7048 
L 365.096392 114.349509 
L 364.60644 117.285585 
L 364.445009 117.15835 
L 364.283017 116.748139 
L 364.039739 116.069358 
L 363.877553 116.179372 
L 363.632136 116.204439 
L 363.47208 116.695709 
L 363.229992 118.1257 
L 362.983888 119.493628 
L 362.903763 119.414107 
L 362.660485 118.797573 
L 362.578221 118.782416 
L 362.254972 119.516932 
L 362.174189 119.468985 
L 361.768387 119.097414 
L 361.606898 119.518369 
L 360.876492 122.427689 
L 360.713291 122.531721 
L 360.549403 122.482896 
L 360.144452 122.956937 
L 359.656492 123.413075 
L 359.17161 123.432693 
L 358.686108 125.63834 
L 358.360982 127.095543 
L 358.197926 126.868332 
L 358.035585 126.621454 
L 357.793226 125.588402 
L 357.548032 126.229451 
L 357.385682 126.19127 
L 357.22132 126.378352 
L 356.980915 127.439877 
L 356.735982 128.264685 
L 356.653951 128.320775 
L 356.167627 129.433847 
L 356.006593 129.491226 
L 355.519852 128.719408 
L 355.357261 129.070296 
L 354.70908 131.710186 
L 354.138895 131.351829 
L 353.896701 131.451956 
L 353.083287 133.521664 
L 352.842205 134.174871 
L 352.51826 134.663942 
L 352.355184 134.815014 
L 352.193086 134.983158 
L 352.111693 134.997458 
L 351.703994 135.970132 
L 351.623056 135.920575 
L 351.462012 135.628395 
L 351.379642 135.612734 
L 351.136354 134.628457 
L 351.05411 134.873652 
L 350.242418 139.489351 
L 350.081452 138.648655 
L 349.838928 136.987115 
L 349.514316 137.18885 
L 349.109616 138.831251 
L 348.703146 140.759526 
L 348.539887 141.062469 
L 348.37683 140.656121 
L 348.133097 140.072294 
L 347.811929 140.033986 
L 347.404811 140.86358 
L 347.078001 142.091182 
L 346.916426 142.393296 
L 346.672354 142.878207 
L 346.348912 143.412145 
L 346.188449 143.554186 
L 346.025537 143.669495 
L 345.864319 143.807827 
L 345.701041 143.968279 
L 345.456582 144.292764 
L 345.21222 144.429836 
L 345.132849 144.496647 
L 345.050344 144.337505 
L 344.889049 143.586292 
L 344.807501 143.777538 
L 344.240994 147.043219 
L 344.158421 147.066321 
L 343.994658 146.694321 
L 343.670926 145.987774 
L 343.507627 146.133321 
L 342.941449 147.569391 
L 342.209195 149.503186 
L 342.129341 149.466616 
L 341.641391 147.889667 
L 341.561063 148.080129 
L 340.747765 150.833484 
L 340.425958 151.290477 
L 340.263917 151.129976 
L 340.020591 150.809752 
L 339.85825 150.81863 
L 339.697197 151.188259 
L 339.535476 151.581622 
L 339.371288 151.676073 
L 338.721578 153.513651 
L 338.478813 153.204979 
L 338.31563 152.840142 
L 338.234867 152.557724 
L 338.155012 152.656236 
L 337.747749 153.827872 
L 337.424307 154.44592 
L 336.694201 156.030137 
L 336.125613 155.769133 
L 335.880245 155.277864 
L 335.717721 155.600055 
L 335.474704 156.59916 
L 335.150681 157.775284 
L 334.826436 157.526056 
L 334.662915 157.650343 
L 334.418786 157.974828 
L 334.337993 157.952004 
L 334.176223 157.742244 
L 333.931774 157.866431 
L 333.770973 157.87372 
L 333.367047 158.853859 
L 333.042367 159.713468 
L 332.876727 159.843782 
L 332.714977 159.989732 
L 332.473043 159.949076 
L 331.98669 159.973488 
L 331.255336 161.482926 
L 331.012126 161.565824 
L 330.686845 160.95441 
L 330.606362 161.019604 
L 330.363974 161.780046 
L 330.040396 162.947824 
L 329.959178 162.959274 
L 329.71409 162.488738 
L 329.550666 162.161378 
L 329.146847 162.903159 
L 328.902263 163.379445 
L 328.65973 163.317756 
L 327.603173 164.361122 
L 327.360901 164.348259 
L 326.71153 164.955817 
L 326.143029 165.878908 
L 325.738407 165.69316 
L 325.41543 166.158753 
L 325.169239 166.081149 
L 325.00715 165.994215 
L 324.843707 166.236758 
L 324.357953 167.28358 
L 324.196784 167.216368 
L 323.792094 166.884014 
L 323.302732 167.581029 
L 323.058486 167.426302 
L 322.166911 168.547977 
L 322.004716 168.537031 
L 321.599416 168.313151 
L 320.340452 169.575831 
L 319.569127 169.598934 
L 318.918576 170.465341 
L 318.674833 170.095749 
L 318.512715 169.936101 
L 318.351497 170.169995 
L 317.945482 170.899625 
L 317.782581 171.18642 
L 317.621014 171.051762 
L 317.377475 170.882105 
L 317.051822 170.965497 
L 316.809095 170.95199 
L 316.485285 171.342564 
L 315.997742 171.776672 
L 315.510223 171.734858 
L 314.457618 172.387342 
L 314.215061 172.371453 
L 313.240787 172.868558 
L 312.916692 173.117724 
L 312.429003 173.111128 
L 311.617079 173.725427 
L 311.374328 173.669334 
L 310.967684 173.590775 
L 310.398762 173.956018 
L 309.912646 174.52101 
L 309.425949 174.242514 
L 308.694179 174.557451 
L 308.209398 175.012999 
L 306.748142 175.325434 
L 306.342581 175.6058 
L 305.854549 175.674399 
L 305.366991 175.780221 
L 304.637544 176.029535 
L 303.988831 176.362037 
L 303.420838 176.455974 
L 302.525455 176.744398 
L 296.118877 178.671353 
L 295.469235 178.8176 
L 291.733366 179.623807 
L 288.12217 180.045462 
L 284.83489 180.155192 
L 280.048613 180.177661 
L 275.100538 180.179478 
L 267.55359 180.191412 
L 261.793915 180.200095 
L 259.187218 180.205855 
L 259.187218 180.205855 
" style="fill:none;stroke:#1f77b4;stroke-linecap:square;stroke-width:1.5;"/>
   </g>
   <g id="patch_3">
    <path d="M 57.6 307.584 
L 57.6 41.472 
" style="fill:none;stroke:#000000;stroke-linecap:square;stroke-linejoin:miter;stroke-width:0.8;"/>
   </g>
   <g id="patch_4">
    <path d="M 414.72 307.584 
L 414.72 41.472 
" style="fill:none;stroke:#000000;stroke-linecap:square;stroke-linejoin:miter;stroke-width:0.8;"/>
   </g>
   <g id="patch_5">
    <path d="M 57.6 307.584 
L 414.72 307.584 
" style="fill:none;stroke:#000000;stroke-linecap:square;stroke-linejoin:miter;stroke-width:0.8;"/>
   </g>
   <g id="patch_6">
    <path d="M 57.6 41.472 
L 414.72 41.472 
" style="fill:none;stroke:#000000;stroke-linecap:square;stroke-linejoin:miter;stroke-width:0.8;"/>
   </g>
  </g>
 </g>
 <defs>
  <clipPath id="p4cec5cefeb">
   <rect height="266.112" width="357.12" x="57.6" y="41.472"/>
  </clipPath>
 </defs>
</svg>
